%TF.GenerationSoftware,KiCad,Pcbnew,(5.1.9)-1*%
%TF.CreationDate,2022-08-31T17:27:34+02:00*%
%TF.ProjectId,tristate,74726973-7461-4746-952e-6b696361645f,rev?*%
%TF.SameCoordinates,Original*%
%TF.FileFunction,Copper,L2,Bot*%
%TF.FilePolarity,Positive*%
%FSLAX46Y46*%
G04 Gerber Fmt 4.6, Leading zero omitted, Abs format (unit mm)*
G04 Created by KiCad (PCBNEW (5.1.9)-1) date 2022-08-31 17:27:34*
%MOMM*%
%LPD*%
G01*
G04 APERTURE LIST*
%TA.AperFunction,ComponentPad*%
%ADD10C,2.000000*%
%TD*%
%TA.AperFunction,SMDPad,CuDef*%
%ADD11R,0.900000X0.800000*%
%TD*%
%TA.AperFunction,Conductor*%
%ADD12C,0.200000*%
%TD*%
G04 APERTURE END LIST*
%TO.P,R7,2*%
%TO.N,Net-(D7-Pad2)*%
%TA.AperFunction,SMDPad,CuDef*%
G36*
G01*
X133425000Y-64112500D02*
X133425000Y-63637500D01*
G75*
G02*
X133662500Y-63400000I237500J0D01*
G01*
X134162500Y-63400000D01*
G75*
G02*
X134400000Y-63637500I0J-237500D01*
G01*
X134400000Y-64112500D01*
G75*
G02*
X134162500Y-64350000I-237500J0D01*
G01*
X133662500Y-64350000D01*
G75*
G02*
X133425000Y-64112500I0J237500D01*
G01*
G37*
%TD.AperFunction*%
%TO.P,R7,1*%
%TO.N,/OE*%
%TA.AperFunction,SMDPad,CuDef*%
G36*
G01*
X131600000Y-64112500D02*
X131600000Y-63637500D01*
G75*
G02*
X131837500Y-63400000I237500J0D01*
G01*
X132337500Y-63400000D01*
G75*
G02*
X132575000Y-63637500I0J-237500D01*
G01*
X132575000Y-64112500D01*
G75*
G02*
X132337500Y-64350000I-237500J0D01*
G01*
X131837500Y-64350000D01*
G75*
G02*
X131600000Y-64112500I0J237500D01*
G01*
G37*
%TD.AperFunction*%
%TD*%
%TO.P,R6,2*%
%TO.N,Net-(D6-Pad2)*%
%TA.AperFunction,SMDPad,CuDef*%
G36*
G01*
X133425000Y-67612500D02*
X133425000Y-67137500D01*
G75*
G02*
X133662500Y-66900000I237500J0D01*
G01*
X134162500Y-66900000D01*
G75*
G02*
X134400000Y-67137500I0J-237500D01*
G01*
X134400000Y-67612500D01*
G75*
G02*
X134162500Y-67850000I-237500J0D01*
G01*
X133662500Y-67850000D01*
G75*
G02*
X133425000Y-67612500I0J237500D01*
G01*
G37*
%TD.AperFunction*%
%TO.P,R6,1*%
%TO.N,/OE*%
%TA.AperFunction,SMDPad,CuDef*%
G36*
G01*
X131600000Y-67612500D02*
X131600000Y-67137500D01*
G75*
G02*
X131837500Y-66900000I237500J0D01*
G01*
X132337500Y-66900000D01*
G75*
G02*
X132575000Y-67137500I0J-237500D01*
G01*
X132575000Y-67612500D01*
G75*
G02*
X132337500Y-67850000I-237500J0D01*
G01*
X131837500Y-67850000D01*
G75*
G02*
X131600000Y-67612500I0J237500D01*
G01*
G37*
%TD.AperFunction*%
%TD*%
%TO.P,R5,2*%
%TO.N,Net-(D5-Pad2)*%
%TA.AperFunction,SMDPad,CuDef*%
G36*
G01*
X133425000Y-71112500D02*
X133425000Y-70637500D01*
G75*
G02*
X133662500Y-70400000I237500J0D01*
G01*
X134162500Y-70400000D01*
G75*
G02*
X134400000Y-70637500I0J-237500D01*
G01*
X134400000Y-71112500D01*
G75*
G02*
X134162500Y-71350000I-237500J0D01*
G01*
X133662500Y-71350000D01*
G75*
G02*
X133425000Y-71112500I0J237500D01*
G01*
G37*
%TD.AperFunction*%
%TO.P,R5,1*%
%TO.N,/OE*%
%TA.AperFunction,SMDPad,CuDef*%
G36*
G01*
X131600000Y-71112500D02*
X131600000Y-70637500D01*
G75*
G02*
X131837500Y-70400000I237500J0D01*
G01*
X132337500Y-70400000D01*
G75*
G02*
X132575000Y-70637500I0J-237500D01*
G01*
X132575000Y-71112500D01*
G75*
G02*
X132337500Y-71350000I-237500J0D01*
G01*
X131837500Y-71350000D01*
G75*
G02*
X131600000Y-71112500I0J237500D01*
G01*
G37*
%TD.AperFunction*%
%TD*%
%TO.P,R4,2*%
%TO.N,Net-(D4-Pad2)*%
%TA.AperFunction,SMDPad,CuDef*%
G36*
G01*
X133425000Y-74612500D02*
X133425000Y-74137500D01*
G75*
G02*
X133662500Y-73900000I237500J0D01*
G01*
X134162500Y-73900000D01*
G75*
G02*
X134400000Y-74137500I0J-237500D01*
G01*
X134400000Y-74612500D01*
G75*
G02*
X134162500Y-74850000I-237500J0D01*
G01*
X133662500Y-74850000D01*
G75*
G02*
X133425000Y-74612500I0J237500D01*
G01*
G37*
%TD.AperFunction*%
%TO.P,R4,1*%
%TO.N,/OE*%
%TA.AperFunction,SMDPad,CuDef*%
G36*
G01*
X131600000Y-74612500D02*
X131600000Y-74137500D01*
G75*
G02*
X131837500Y-73900000I237500J0D01*
G01*
X132337500Y-73900000D01*
G75*
G02*
X132575000Y-74137500I0J-237500D01*
G01*
X132575000Y-74612500D01*
G75*
G02*
X132337500Y-74850000I-237500J0D01*
G01*
X131837500Y-74850000D01*
G75*
G02*
X131600000Y-74612500I0J237500D01*
G01*
G37*
%TD.AperFunction*%
%TD*%
%TO.P,R3,2*%
%TO.N,Net-(D3-Pad2)*%
%TA.AperFunction,SMDPad,CuDef*%
G36*
G01*
X133425000Y-78112500D02*
X133425000Y-77637500D01*
G75*
G02*
X133662500Y-77400000I237500J0D01*
G01*
X134162500Y-77400000D01*
G75*
G02*
X134400000Y-77637500I0J-237500D01*
G01*
X134400000Y-78112500D01*
G75*
G02*
X134162500Y-78350000I-237500J0D01*
G01*
X133662500Y-78350000D01*
G75*
G02*
X133425000Y-78112500I0J237500D01*
G01*
G37*
%TD.AperFunction*%
%TO.P,R3,1*%
%TO.N,/OE*%
%TA.AperFunction,SMDPad,CuDef*%
G36*
G01*
X131600000Y-78112500D02*
X131600000Y-77637500D01*
G75*
G02*
X131837500Y-77400000I237500J0D01*
G01*
X132337500Y-77400000D01*
G75*
G02*
X132575000Y-77637500I0J-237500D01*
G01*
X132575000Y-78112500D01*
G75*
G02*
X132337500Y-78350000I-237500J0D01*
G01*
X131837500Y-78350000D01*
G75*
G02*
X131600000Y-78112500I0J237500D01*
G01*
G37*
%TD.AperFunction*%
%TD*%
%TO.P,R2,2*%
%TO.N,Net-(D2-Pad2)*%
%TA.AperFunction,SMDPad,CuDef*%
G36*
G01*
X133425000Y-81612500D02*
X133425000Y-81137500D01*
G75*
G02*
X133662500Y-80900000I237500J0D01*
G01*
X134162500Y-80900000D01*
G75*
G02*
X134400000Y-81137500I0J-237500D01*
G01*
X134400000Y-81612500D01*
G75*
G02*
X134162500Y-81850000I-237500J0D01*
G01*
X133662500Y-81850000D01*
G75*
G02*
X133425000Y-81612500I0J237500D01*
G01*
G37*
%TD.AperFunction*%
%TO.P,R2,1*%
%TO.N,/OE*%
%TA.AperFunction,SMDPad,CuDef*%
G36*
G01*
X131600000Y-81612500D02*
X131600000Y-81137500D01*
G75*
G02*
X131837500Y-80900000I237500J0D01*
G01*
X132337500Y-80900000D01*
G75*
G02*
X132575000Y-81137500I0J-237500D01*
G01*
X132575000Y-81612500D01*
G75*
G02*
X132337500Y-81850000I-237500J0D01*
G01*
X131837500Y-81850000D01*
G75*
G02*
X131600000Y-81612500I0J237500D01*
G01*
G37*
%TD.AperFunction*%
%TD*%
%TO.P,R1,2*%
%TO.N,Net-(D1-Pad2)*%
%TA.AperFunction,SMDPad,CuDef*%
G36*
G01*
X133425000Y-85112500D02*
X133425000Y-84637500D01*
G75*
G02*
X133662500Y-84400000I237500J0D01*
G01*
X134162500Y-84400000D01*
G75*
G02*
X134400000Y-84637500I0J-237500D01*
G01*
X134400000Y-85112500D01*
G75*
G02*
X134162500Y-85350000I-237500J0D01*
G01*
X133662500Y-85350000D01*
G75*
G02*
X133425000Y-85112500I0J237500D01*
G01*
G37*
%TD.AperFunction*%
%TO.P,R1,1*%
%TO.N,/OE*%
%TA.AperFunction,SMDPad,CuDef*%
G36*
G01*
X131600000Y-85112500D02*
X131600000Y-84637500D01*
G75*
G02*
X131837500Y-84400000I237500J0D01*
G01*
X132337500Y-84400000D01*
G75*
G02*
X132575000Y-84637500I0J-237500D01*
G01*
X132575000Y-85112500D01*
G75*
G02*
X132337500Y-85350000I-237500J0D01*
G01*
X131837500Y-85350000D01*
G75*
G02*
X131600000Y-85112500I0J237500D01*
G01*
G37*
%TD.AperFunction*%
%TD*%
%TO.P,R0,2*%
%TO.N,Net-(D0-Pad2)*%
%TA.AperFunction,SMDPad,CuDef*%
G36*
G01*
X133425000Y-88612500D02*
X133425000Y-88137500D01*
G75*
G02*
X133662500Y-87900000I237500J0D01*
G01*
X134162500Y-87900000D01*
G75*
G02*
X134400000Y-88137500I0J-237500D01*
G01*
X134400000Y-88612500D01*
G75*
G02*
X134162500Y-88850000I-237500J0D01*
G01*
X133662500Y-88850000D01*
G75*
G02*
X133425000Y-88612500I0J237500D01*
G01*
G37*
%TD.AperFunction*%
%TO.P,R0,1*%
%TO.N,/OE*%
%TA.AperFunction,SMDPad,CuDef*%
G36*
G01*
X131600000Y-88612500D02*
X131600000Y-88137500D01*
G75*
G02*
X131837500Y-87900000I237500J0D01*
G01*
X132337500Y-87900000D01*
G75*
G02*
X132575000Y-88137500I0J-237500D01*
G01*
X132575000Y-88612500D01*
G75*
G02*
X132337500Y-88850000I-237500J0D01*
G01*
X131837500Y-88850000D01*
G75*
G02*
X131600000Y-88612500I0J237500D01*
G01*
G37*
%TD.AperFunction*%
%TD*%
D10*
%TO.P,OUT2,1*%
%TO.N,/OUT2*%
X140000000Y-80500000D03*
%TD*%
D11*
%TO.P,Q23,3*%
%TO.N,Net-(D7-Pad1)*%
X135500000Y-63000000D03*
%TO.P,Q23,2*%
%TO.N,/OE2*%
X137500000Y-63950000D03*
%TO.P,Q23,1*%
%TO.N,/OUT7*%
X137500000Y-62050000D03*
%TD*%
%TO.P,Q22,3*%
%TO.N,Net-(D6-Pad1)*%
X135500000Y-66500000D03*
%TO.P,Q22,2*%
%TO.N,/OE2*%
X137500000Y-67450000D03*
%TO.P,Q22,1*%
%TO.N,/OUT6*%
X137500000Y-65550000D03*
%TD*%
%TO.P,Q21,3*%
%TO.N,Net-(D5-Pad1)*%
X135500000Y-70000000D03*
%TO.P,Q21,2*%
%TO.N,/OE2*%
X137500000Y-70950000D03*
%TO.P,Q21,1*%
%TO.N,/OUT5*%
X137500000Y-69050000D03*
%TD*%
%TO.P,Q20,3*%
%TO.N,Net-(D4-Pad1)*%
X135500000Y-73500000D03*
%TO.P,Q20,2*%
%TO.N,/OE2*%
X137500000Y-74450000D03*
%TO.P,Q20,1*%
%TO.N,/OUT4*%
X137500000Y-72550000D03*
%TD*%
%TO.P,Q19,3*%
%TO.N,Net-(D3-Pad1)*%
X135500000Y-77000000D03*
%TO.P,Q19,2*%
%TO.N,/OE2*%
X137500000Y-77950000D03*
%TO.P,Q19,1*%
%TO.N,/OUT3*%
X137500000Y-76050000D03*
%TD*%
%TO.P,Q18,3*%
%TO.N,Net-(D2-Pad1)*%
X135500000Y-80500000D03*
%TO.P,Q18,2*%
%TO.N,/OE2*%
X137500000Y-81450000D03*
%TO.P,Q18,1*%
%TO.N,/OUT2*%
X137500000Y-79550000D03*
%TD*%
%TO.P,Q17,3*%
%TO.N,Net-(D1-Pad1)*%
X135500000Y-84000000D03*
%TO.P,Q17,2*%
%TO.N,/OE2*%
X137500000Y-84950000D03*
%TO.P,Q17,1*%
%TO.N,/OUT1*%
X137500000Y-83050000D03*
%TD*%
%TO.P,Q16,3*%
%TO.N,Net-(D0-Pad1)*%
X135500000Y-87500000D03*
%TO.P,Q16,2*%
%TO.N,/OE2*%
X137500000Y-88450000D03*
%TO.P,Q16,1*%
%TO.N,/OUT0*%
X137500000Y-86550000D03*
%TD*%
%TO.P,D7,2*%
%TO.N,Net-(D7-Pad2)*%
%TA.AperFunction,SMDPad,CuDef*%
G36*
G01*
X132650000Y-61887500D02*
X132650000Y-62362500D01*
G75*
G02*
X132412500Y-62600000I-237500J0D01*
G01*
X131837500Y-62600000D01*
G75*
G02*
X131600000Y-62362500I0J237500D01*
G01*
X131600000Y-61887500D01*
G75*
G02*
X131837500Y-61650000I237500J0D01*
G01*
X132412500Y-61650000D01*
G75*
G02*
X132650000Y-61887500I0J-237500D01*
G01*
G37*
%TD.AperFunction*%
%TO.P,D7,1*%
%TO.N,Net-(D7-Pad1)*%
%TA.AperFunction,SMDPad,CuDef*%
G36*
G01*
X134400000Y-61887500D02*
X134400000Y-62362500D01*
G75*
G02*
X134162500Y-62600000I-237500J0D01*
G01*
X133587500Y-62600000D01*
G75*
G02*
X133350000Y-62362500I0J237500D01*
G01*
X133350000Y-61887500D01*
G75*
G02*
X133587500Y-61650000I237500J0D01*
G01*
X134162500Y-61650000D01*
G75*
G02*
X134400000Y-61887500I0J-237500D01*
G01*
G37*
%TD.AperFunction*%
%TD*%
%TO.P,D6,2*%
%TO.N,Net-(D6-Pad2)*%
%TA.AperFunction,SMDPad,CuDef*%
G36*
G01*
X132650000Y-65387500D02*
X132650000Y-65862500D01*
G75*
G02*
X132412500Y-66100000I-237500J0D01*
G01*
X131837500Y-66100000D01*
G75*
G02*
X131600000Y-65862500I0J237500D01*
G01*
X131600000Y-65387500D01*
G75*
G02*
X131837500Y-65150000I237500J0D01*
G01*
X132412500Y-65150000D01*
G75*
G02*
X132650000Y-65387500I0J-237500D01*
G01*
G37*
%TD.AperFunction*%
%TO.P,D6,1*%
%TO.N,Net-(D6-Pad1)*%
%TA.AperFunction,SMDPad,CuDef*%
G36*
G01*
X134400000Y-65387500D02*
X134400000Y-65862500D01*
G75*
G02*
X134162500Y-66100000I-237500J0D01*
G01*
X133587500Y-66100000D01*
G75*
G02*
X133350000Y-65862500I0J237500D01*
G01*
X133350000Y-65387500D01*
G75*
G02*
X133587500Y-65150000I237500J0D01*
G01*
X134162500Y-65150000D01*
G75*
G02*
X134400000Y-65387500I0J-237500D01*
G01*
G37*
%TD.AperFunction*%
%TD*%
%TO.P,D5,2*%
%TO.N,Net-(D5-Pad2)*%
%TA.AperFunction,SMDPad,CuDef*%
G36*
G01*
X132650000Y-68887500D02*
X132650000Y-69362500D01*
G75*
G02*
X132412500Y-69600000I-237500J0D01*
G01*
X131837500Y-69600000D01*
G75*
G02*
X131600000Y-69362500I0J237500D01*
G01*
X131600000Y-68887500D01*
G75*
G02*
X131837500Y-68650000I237500J0D01*
G01*
X132412500Y-68650000D01*
G75*
G02*
X132650000Y-68887500I0J-237500D01*
G01*
G37*
%TD.AperFunction*%
%TO.P,D5,1*%
%TO.N,Net-(D5-Pad1)*%
%TA.AperFunction,SMDPad,CuDef*%
G36*
G01*
X134400000Y-68887500D02*
X134400000Y-69362500D01*
G75*
G02*
X134162500Y-69600000I-237500J0D01*
G01*
X133587500Y-69600000D01*
G75*
G02*
X133350000Y-69362500I0J237500D01*
G01*
X133350000Y-68887500D01*
G75*
G02*
X133587500Y-68650000I237500J0D01*
G01*
X134162500Y-68650000D01*
G75*
G02*
X134400000Y-68887500I0J-237500D01*
G01*
G37*
%TD.AperFunction*%
%TD*%
%TO.P,D4,2*%
%TO.N,Net-(D4-Pad2)*%
%TA.AperFunction,SMDPad,CuDef*%
G36*
G01*
X132650000Y-72387500D02*
X132650000Y-72862500D01*
G75*
G02*
X132412500Y-73100000I-237500J0D01*
G01*
X131837500Y-73100000D01*
G75*
G02*
X131600000Y-72862500I0J237500D01*
G01*
X131600000Y-72387500D01*
G75*
G02*
X131837500Y-72150000I237500J0D01*
G01*
X132412500Y-72150000D01*
G75*
G02*
X132650000Y-72387500I0J-237500D01*
G01*
G37*
%TD.AperFunction*%
%TO.P,D4,1*%
%TO.N,Net-(D4-Pad1)*%
%TA.AperFunction,SMDPad,CuDef*%
G36*
G01*
X134400000Y-72387500D02*
X134400000Y-72862500D01*
G75*
G02*
X134162500Y-73100000I-237500J0D01*
G01*
X133587500Y-73100000D01*
G75*
G02*
X133350000Y-72862500I0J237500D01*
G01*
X133350000Y-72387500D01*
G75*
G02*
X133587500Y-72150000I237500J0D01*
G01*
X134162500Y-72150000D01*
G75*
G02*
X134400000Y-72387500I0J-237500D01*
G01*
G37*
%TD.AperFunction*%
%TD*%
%TO.P,D3,2*%
%TO.N,Net-(D3-Pad2)*%
%TA.AperFunction,SMDPad,CuDef*%
G36*
G01*
X132650000Y-75887500D02*
X132650000Y-76362500D01*
G75*
G02*
X132412500Y-76600000I-237500J0D01*
G01*
X131837500Y-76600000D01*
G75*
G02*
X131600000Y-76362500I0J237500D01*
G01*
X131600000Y-75887500D01*
G75*
G02*
X131837500Y-75650000I237500J0D01*
G01*
X132412500Y-75650000D01*
G75*
G02*
X132650000Y-75887500I0J-237500D01*
G01*
G37*
%TD.AperFunction*%
%TO.P,D3,1*%
%TO.N,Net-(D3-Pad1)*%
%TA.AperFunction,SMDPad,CuDef*%
G36*
G01*
X134400000Y-75887500D02*
X134400000Y-76362500D01*
G75*
G02*
X134162500Y-76600000I-237500J0D01*
G01*
X133587500Y-76600000D01*
G75*
G02*
X133350000Y-76362500I0J237500D01*
G01*
X133350000Y-75887500D01*
G75*
G02*
X133587500Y-75650000I237500J0D01*
G01*
X134162500Y-75650000D01*
G75*
G02*
X134400000Y-75887500I0J-237500D01*
G01*
G37*
%TD.AperFunction*%
%TD*%
%TO.P,D2,2*%
%TO.N,Net-(D2-Pad2)*%
%TA.AperFunction,SMDPad,CuDef*%
G36*
G01*
X132650000Y-79387500D02*
X132650000Y-79862500D01*
G75*
G02*
X132412500Y-80100000I-237500J0D01*
G01*
X131837500Y-80100000D01*
G75*
G02*
X131600000Y-79862500I0J237500D01*
G01*
X131600000Y-79387500D01*
G75*
G02*
X131837500Y-79150000I237500J0D01*
G01*
X132412500Y-79150000D01*
G75*
G02*
X132650000Y-79387500I0J-237500D01*
G01*
G37*
%TD.AperFunction*%
%TO.P,D2,1*%
%TO.N,Net-(D2-Pad1)*%
%TA.AperFunction,SMDPad,CuDef*%
G36*
G01*
X134400000Y-79387500D02*
X134400000Y-79862500D01*
G75*
G02*
X134162500Y-80100000I-237500J0D01*
G01*
X133587500Y-80100000D01*
G75*
G02*
X133350000Y-79862500I0J237500D01*
G01*
X133350000Y-79387500D01*
G75*
G02*
X133587500Y-79150000I237500J0D01*
G01*
X134162500Y-79150000D01*
G75*
G02*
X134400000Y-79387500I0J-237500D01*
G01*
G37*
%TD.AperFunction*%
%TD*%
%TO.P,D1,2*%
%TO.N,Net-(D1-Pad2)*%
%TA.AperFunction,SMDPad,CuDef*%
G36*
G01*
X132650000Y-82887500D02*
X132650000Y-83362500D01*
G75*
G02*
X132412500Y-83600000I-237500J0D01*
G01*
X131837500Y-83600000D01*
G75*
G02*
X131600000Y-83362500I0J237500D01*
G01*
X131600000Y-82887500D01*
G75*
G02*
X131837500Y-82650000I237500J0D01*
G01*
X132412500Y-82650000D01*
G75*
G02*
X132650000Y-82887500I0J-237500D01*
G01*
G37*
%TD.AperFunction*%
%TO.P,D1,1*%
%TO.N,Net-(D1-Pad1)*%
%TA.AperFunction,SMDPad,CuDef*%
G36*
G01*
X134400000Y-82887500D02*
X134400000Y-83362500D01*
G75*
G02*
X134162500Y-83600000I-237500J0D01*
G01*
X133587500Y-83600000D01*
G75*
G02*
X133350000Y-83362500I0J237500D01*
G01*
X133350000Y-82887500D01*
G75*
G02*
X133587500Y-82650000I237500J0D01*
G01*
X134162500Y-82650000D01*
G75*
G02*
X134400000Y-82887500I0J-237500D01*
G01*
G37*
%TD.AperFunction*%
%TD*%
%TO.P,D0,2*%
%TO.N,Net-(D0-Pad2)*%
%TA.AperFunction,SMDPad,CuDef*%
G36*
G01*
X132650000Y-86387500D02*
X132650000Y-86862500D01*
G75*
G02*
X132412500Y-87100000I-237500J0D01*
G01*
X131837500Y-87100000D01*
G75*
G02*
X131600000Y-86862500I0J237500D01*
G01*
X131600000Y-86387500D01*
G75*
G02*
X131837500Y-86150000I237500J0D01*
G01*
X132412500Y-86150000D01*
G75*
G02*
X132650000Y-86387500I0J-237500D01*
G01*
G37*
%TD.AperFunction*%
%TO.P,D0,1*%
%TO.N,Net-(D0-Pad1)*%
%TA.AperFunction,SMDPad,CuDef*%
G36*
G01*
X134400000Y-86387500D02*
X134400000Y-86862500D01*
G75*
G02*
X134162500Y-87100000I-237500J0D01*
G01*
X133587500Y-87100000D01*
G75*
G02*
X133350000Y-86862500I0J237500D01*
G01*
X133350000Y-86387500D01*
G75*
G02*
X133587500Y-86150000I237500J0D01*
G01*
X134162500Y-86150000D01*
G75*
G02*
X134400000Y-86387500I0J-237500D01*
G01*
G37*
%TD.AperFunction*%
%TD*%
D10*
%TO.P,IN6,1*%
%TO.N,/OE2*%
X138250000Y-91000000D03*
%TD*%
%TO.P,IN5,1*%
%TO.N,GND*%
X131250000Y-91000000D03*
%TD*%
%TO.P,IN4,1*%
%TO.N,/OE*%
X134750000Y-91000000D03*
%TD*%
%TO.P,OUT7,1*%
%TO.N,/OUT7*%
X140000000Y-63000000D03*
%TD*%
%TO.P,OUT6,1*%
%TO.N,/OUT6*%
X140000000Y-66500000D03*
%TD*%
%TO.P,OUT5,1*%
%TO.N,/OUT5*%
X140000000Y-70000000D03*
%TD*%
%TO.P,OUT4,1*%
%TO.N,/OUT4*%
X140000000Y-73500000D03*
%TD*%
%TO.P,IN10,1*%
%TO.N,Net-(IN10-Pad1)*%
X129500000Y-63000000D03*
%TD*%
%TO.P,IN9,1*%
%TO.N,Net-(IN9-Pad1)*%
X129500000Y-66500000D03*
%TD*%
%TO.P,IN8,1*%
%TO.N,Net-(IN8-Pad1)*%
X129500000Y-70000000D03*
%TD*%
%TO.P,IN7,1*%
%TO.N,Net-(IN7-Pad1)*%
X129500000Y-73500000D03*
%TD*%
%TO.P,OUT3,1*%
%TO.N,/OUT3*%
X140000000Y-77000000D03*
%TD*%
%TO.P,OUT1,1*%
%TO.N,/OUT1*%
X140000000Y-84000000D03*
%TD*%
%TO.P,OUT0,1*%
%TO.N,/OUT0*%
X140000000Y-87500000D03*
%TD*%
%TO.P,IN3,1*%
%TO.N,Net-(IN3-Pad1)*%
X129500000Y-77000000D03*
%TD*%
%TO.P,IN2,1*%
%TO.N,Net-(IN2-Pad1)*%
X129500000Y-80500000D03*
%TD*%
%TO.P,IN1,1*%
%TO.N,Net-(IN1-Pad1)*%
X129500000Y-84000000D03*
%TD*%
%TO.P,IN0,1*%
%TO.N,Net-(IN0-Pad1)*%
X129500000Y-87500000D03*
%TD*%
D12*
%TO.N,/OE*%
X131250000Y-64712500D02*
X132087500Y-63875000D01*
X131250000Y-68212500D02*
X131250000Y-64712500D01*
X131250000Y-71712500D02*
X131250000Y-68212500D01*
X131250000Y-75212500D02*
X131250000Y-71712500D01*
X131250000Y-78712500D02*
X131250000Y-75212500D01*
X131250000Y-82212500D02*
X131250000Y-78712500D01*
X131250000Y-85712500D02*
X131250000Y-82212500D01*
X131250000Y-68212500D02*
X132087500Y-67375000D01*
X131250000Y-71712500D02*
X132087500Y-70875000D01*
X131250000Y-75212500D02*
X132087500Y-74375000D01*
X131250000Y-78712500D02*
X132087500Y-77875000D01*
X131250000Y-82212500D02*
X132087500Y-81375000D01*
X131250000Y-85712500D02*
X132087500Y-84875000D01*
X132125000Y-88375000D02*
X132087500Y-88375000D01*
X134750000Y-91000000D02*
X132125000Y-88375000D01*
X131250000Y-87537500D02*
X132087500Y-88375000D01*
X131250000Y-86625000D02*
X131250000Y-87537500D01*
X131250000Y-86625000D02*
X131250000Y-85712500D01*
%TO.N,/OE2*%
X137500000Y-90250000D02*
X138250000Y-91000000D01*
X137500000Y-88450000D02*
X137500000Y-90250000D01*
X137500000Y-88450000D02*
X137450000Y-88450000D01*
X137450000Y-88450000D02*
X136500000Y-87500000D01*
X136500000Y-85950000D02*
X136500000Y-87500000D01*
X137500000Y-84950000D02*
X136500000Y-85950000D01*
X137500000Y-81450000D02*
X136500000Y-82450000D01*
X136500000Y-82450000D02*
X136500000Y-84000000D01*
X136500000Y-87500000D02*
X136500000Y-84000000D01*
X136500000Y-78950000D02*
X136500000Y-80500000D01*
X137500000Y-77950000D02*
X136500000Y-78950000D01*
X136500000Y-84000000D02*
X136500000Y-80500000D01*
X136500000Y-75450000D02*
X136500000Y-77000000D01*
X137500000Y-74450000D02*
X136500000Y-75450000D01*
X136500000Y-80500000D02*
X136500000Y-77000000D01*
X136500000Y-71950000D02*
X136500000Y-73500000D01*
X137500000Y-70950000D02*
X136500000Y-71950000D01*
X136500000Y-77000000D02*
X136500000Y-73500000D01*
X136500000Y-68450000D02*
X136500000Y-70000000D01*
X137500000Y-67450000D02*
X136500000Y-68450000D01*
X136500000Y-73500000D02*
X136500000Y-70000000D01*
X136500000Y-64950000D02*
X136500000Y-66500000D01*
X137500000Y-63950000D02*
X136500000Y-64950000D01*
X136500000Y-70000000D02*
X136500000Y-66500000D01*
%TO.N,Net-(D0-Pad2)*%
X132125000Y-86625000D02*
X132162500Y-86625000D01*
X132162500Y-86625000D02*
X133912500Y-88375000D01*
%TO.N,Net-(D0-Pad1)*%
X133875000Y-86625000D02*
X134625000Y-86625000D01*
X134625000Y-86625000D02*
X135500000Y-87500000D01*
%TO.N,Net-(D1-Pad2)*%
X132125000Y-83125000D02*
X132162500Y-83125000D01*
X132162500Y-83125000D02*
X133912500Y-84875000D01*
%TO.N,Net-(D1-Pad1)*%
X133875000Y-83125000D02*
X134625000Y-83125000D01*
X134625000Y-83125000D02*
X135500000Y-84000000D01*
%TO.N,Net-(D2-Pad2)*%
X132125000Y-79625000D02*
X132162500Y-79625000D01*
X132162500Y-79625000D02*
X133912500Y-81375000D01*
%TO.N,Net-(D2-Pad1)*%
X133875000Y-79625000D02*
X134625000Y-79625000D01*
X134625000Y-79625000D02*
X135500000Y-80500000D01*
%TO.N,Net-(D3-Pad2)*%
X132125000Y-76125000D02*
X132162500Y-76125000D01*
X132162500Y-76125000D02*
X133912500Y-77875000D01*
%TO.N,Net-(D3-Pad1)*%
X133875000Y-76125000D02*
X134625000Y-76125000D01*
X134625000Y-76125000D02*
X135500000Y-77000000D01*
%TO.N,Net-(D4-Pad2)*%
X132125000Y-72625000D02*
X132162500Y-72625000D01*
X132162500Y-72625000D02*
X133912500Y-74375000D01*
%TO.N,Net-(D4-Pad1)*%
X133875000Y-72625000D02*
X134625000Y-72625000D01*
X134625000Y-72625000D02*
X135500000Y-73500000D01*
%TO.N,Net-(D5-Pad2)*%
X132125000Y-69125000D02*
X132162500Y-69125000D01*
X132162500Y-69125000D02*
X133912500Y-70875000D01*
%TO.N,Net-(D5-Pad1)*%
X133875000Y-69125000D02*
X134625000Y-69125000D01*
X134625000Y-69125000D02*
X135500000Y-70000000D01*
%TO.N,Net-(D6-Pad2)*%
X132125000Y-65625000D02*
X132162500Y-65625000D01*
X132162500Y-65625000D02*
X133912500Y-67375000D01*
%TO.N,Net-(D6-Pad1)*%
X133875000Y-65625000D02*
X134625000Y-65625000D01*
X134625000Y-65625000D02*
X135500000Y-66500000D01*
%TO.N,Net-(D7-Pad2)*%
X132162500Y-62125000D02*
X133912500Y-63875000D01*
X132125000Y-62125000D02*
X132162500Y-62125000D01*
%TO.N,Net-(D7-Pad1)*%
X134625000Y-62125000D02*
X135500000Y-63000000D01*
X133875000Y-62125000D02*
X134625000Y-62125000D01*
%TO.N,/OUT0*%
X139050000Y-86550000D02*
X140000000Y-87500000D01*
X137500000Y-86550000D02*
X139050000Y-86550000D01*
%TO.N,/OUT1*%
X139050000Y-83050000D02*
X140000000Y-84000000D01*
X137500000Y-83050000D02*
X139050000Y-83050000D01*
%TO.N,/OUT2*%
X139050000Y-79550000D02*
X140000000Y-80500000D01*
X137500000Y-79550000D02*
X139050000Y-79550000D01*
%TO.N,/OUT3*%
X139050000Y-76050000D02*
X140000000Y-77000000D01*
X137500000Y-76050000D02*
X139050000Y-76050000D01*
%TO.N,/OUT4*%
X139050000Y-72550000D02*
X140000000Y-73500000D01*
X137500000Y-72550000D02*
X139050000Y-72550000D01*
%TO.N,/OUT5*%
X139050000Y-69050000D02*
X140000000Y-70000000D01*
X137500000Y-69050000D02*
X139050000Y-69050000D01*
%TO.N,/OUT6*%
X139050000Y-65550000D02*
X140000000Y-66500000D01*
X137500000Y-65550000D02*
X139050000Y-65550000D01*
%TO.N,/OUT7*%
X139050000Y-62050000D02*
X140000000Y-63000000D01*
X137500000Y-62050000D02*
X139050000Y-62050000D01*
%TD*%
M02*
