%TF.GenerationSoftware,KiCad,Pcbnew,(5.1.9)-1*%
%TF.CreationDate,2022-08-31T17:27:34+02:00*%
%TF.ProjectId,tristate,74726973-7461-4746-952e-6b696361645f,rev?*%
%TF.SameCoordinates,Original*%
%TF.FileFunction,Soldermask,Bot*%
%TF.FilePolarity,Negative*%
%FSLAX46Y46*%
G04 Gerber Fmt 4.6, Leading zero omitted, Abs format (unit mm)*
G04 Created by KiCad (PCBNEW (5.1.9)-1) date 2022-08-31 17:27:34*
%MOMM*%
%LPD*%
G01*
G04 APERTURE LIST*
%ADD10C,2.000000*%
%ADD11R,0.900000X0.800000*%
G04 APERTURE END LIST*
%TO.C,R7*%
G36*
G01*
X133425000Y-64112500D02*
X133425000Y-63637500D01*
G75*
G02*
X133662500Y-63400000I237500J0D01*
G01*
X134162500Y-63400000D01*
G75*
G02*
X134400000Y-63637500I0J-237500D01*
G01*
X134400000Y-64112500D01*
G75*
G02*
X134162500Y-64350000I-237500J0D01*
G01*
X133662500Y-64350000D01*
G75*
G02*
X133425000Y-64112500I0J237500D01*
G01*
G37*
G36*
G01*
X131600000Y-64112500D02*
X131600000Y-63637500D01*
G75*
G02*
X131837500Y-63400000I237500J0D01*
G01*
X132337500Y-63400000D01*
G75*
G02*
X132575000Y-63637500I0J-237500D01*
G01*
X132575000Y-64112500D01*
G75*
G02*
X132337500Y-64350000I-237500J0D01*
G01*
X131837500Y-64350000D01*
G75*
G02*
X131600000Y-64112500I0J237500D01*
G01*
G37*
%TD*%
%TO.C,R6*%
G36*
G01*
X133425000Y-67612500D02*
X133425000Y-67137500D01*
G75*
G02*
X133662500Y-66900000I237500J0D01*
G01*
X134162500Y-66900000D01*
G75*
G02*
X134400000Y-67137500I0J-237500D01*
G01*
X134400000Y-67612500D01*
G75*
G02*
X134162500Y-67850000I-237500J0D01*
G01*
X133662500Y-67850000D01*
G75*
G02*
X133425000Y-67612500I0J237500D01*
G01*
G37*
G36*
G01*
X131600000Y-67612500D02*
X131600000Y-67137500D01*
G75*
G02*
X131837500Y-66900000I237500J0D01*
G01*
X132337500Y-66900000D01*
G75*
G02*
X132575000Y-67137500I0J-237500D01*
G01*
X132575000Y-67612500D01*
G75*
G02*
X132337500Y-67850000I-237500J0D01*
G01*
X131837500Y-67850000D01*
G75*
G02*
X131600000Y-67612500I0J237500D01*
G01*
G37*
%TD*%
%TO.C,R5*%
G36*
G01*
X133425000Y-71112500D02*
X133425000Y-70637500D01*
G75*
G02*
X133662500Y-70400000I237500J0D01*
G01*
X134162500Y-70400000D01*
G75*
G02*
X134400000Y-70637500I0J-237500D01*
G01*
X134400000Y-71112500D01*
G75*
G02*
X134162500Y-71350000I-237500J0D01*
G01*
X133662500Y-71350000D01*
G75*
G02*
X133425000Y-71112500I0J237500D01*
G01*
G37*
G36*
G01*
X131600000Y-71112500D02*
X131600000Y-70637500D01*
G75*
G02*
X131837500Y-70400000I237500J0D01*
G01*
X132337500Y-70400000D01*
G75*
G02*
X132575000Y-70637500I0J-237500D01*
G01*
X132575000Y-71112500D01*
G75*
G02*
X132337500Y-71350000I-237500J0D01*
G01*
X131837500Y-71350000D01*
G75*
G02*
X131600000Y-71112500I0J237500D01*
G01*
G37*
%TD*%
%TO.C,R4*%
G36*
G01*
X133425000Y-74612500D02*
X133425000Y-74137500D01*
G75*
G02*
X133662500Y-73900000I237500J0D01*
G01*
X134162500Y-73900000D01*
G75*
G02*
X134400000Y-74137500I0J-237500D01*
G01*
X134400000Y-74612500D01*
G75*
G02*
X134162500Y-74850000I-237500J0D01*
G01*
X133662500Y-74850000D01*
G75*
G02*
X133425000Y-74612500I0J237500D01*
G01*
G37*
G36*
G01*
X131600000Y-74612500D02*
X131600000Y-74137500D01*
G75*
G02*
X131837500Y-73900000I237500J0D01*
G01*
X132337500Y-73900000D01*
G75*
G02*
X132575000Y-74137500I0J-237500D01*
G01*
X132575000Y-74612500D01*
G75*
G02*
X132337500Y-74850000I-237500J0D01*
G01*
X131837500Y-74850000D01*
G75*
G02*
X131600000Y-74612500I0J237500D01*
G01*
G37*
%TD*%
%TO.C,R3*%
G36*
G01*
X133425000Y-78112500D02*
X133425000Y-77637500D01*
G75*
G02*
X133662500Y-77400000I237500J0D01*
G01*
X134162500Y-77400000D01*
G75*
G02*
X134400000Y-77637500I0J-237500D01*
G01*
X134400000Y-78112500D01*
G75*
G02*
X134162500Y-78350000I-237500J0D01*
G01*
X133662500Y-78350000D01*
G75*
G02*
X133425000Y-78112500I0J237500D01*
G01*
G37*
G36*
G01*
X131600000Y-78112500D02*
X131600000Y-77637500D01*
G75*
G02*
X131837500Y-77400000I237500J0D01*
G01*
X132337500Y-77400000D01*
G75*
G02*
X132575000Y-77637500I0J-237500D01*
G01*
X132575000Y-78112500D01*
G75*
G02*
X132337500Y-78350000I-237500J0D01*
G01*
X131837500Y-78350000D01*
G75*
G02*
X131600000Y-78112500I0J237500D01*
G01*
G37*
%TD*%
%TO.C,R2*%
G36*
G01*
X133425000Y-81612500D02*
X133425000Y-81137500D01*
G75*
G02*
X133662500Y-80900000I237500J0D01*
G01*
X134162500Y-80900000D01*
G75*
G02*
X134400000Y-81137500I0J-237500D01*
G01*
X134400000Y-81612500D01*
G75*
G02*
X134162500Y-81850000I-237500J0D01*
G01*
X133662500Y-81850000D01*
G75*
G02*
X133425000Y-81612500I0J237500D01*
G01*
G37*
G36*
G01*
X131600000Y-81612500D02*
X131600000Y-81137500D01*
G75*
G02*
X131837500Y-80900000I237500J0D01*
G01*
X132337500Y-80900000D01*
G75*
G02*
X132575000Y-81137500I0J-237500D01*
G01*
X132575000Y-81612500D01*
G75*
G02*
X132337500Y-81850000I-237500J0D01*
G01*
X131837500Y-81850000D01*
G75*
G02*
X131600000Y-81612500I0J237500D01*
G01*
G37*
%TD*%
%TO.C,R1*%
G36*
G01*
X133425000Y-85112500D02*
X133425000Y-84637500D01*
G75*
G02*
X133662500Y-84400000I237500J0D01*
G01*
X134162500Y-84400000D01*
G75*
G02*
X134400000Y-84637500I0J-237500D01*
G01*
X134400000Y-85112500D01*
G75*
G02*
X134162500Y-85350000I-237500J0D01*
G01*
X133662500Y-85350000D01*
G75*
G02*
X133425000Y-85112500I0J237500D01*
G01*
G37*
G36*
G01*
X131600000Y-85112500D02*
X131600000Y-84637500D01*
G75*
G02*
X131837500Y-84400000I237500J0D01*
G01*
X132337500Y-84400000D01*
G75*
G02*
X132575000Y-84637500I0J-237500D01*
G01*
X132575000Y-85112500D01*
G75*
G02*
X132337500Y-85350000I-237500J0D01*
G01*
X131837500Y-85350000D01*
G75*
G02*
X131600000Y-85112500I0J237500D01*
G01*
G37*
%TD*%
%TO.C,R0*%
G36*
G01*
X133425000Y-88612500D02*
X133425000Y-88137500D01*
G75*
G02*
X133662500Y-87900000I237500J0D01*
G01*
X134162500Y-87900000D01*
G75*
G02*
X134400000Y-88137500I0J-237500D01*
G01*
X134400000Y-88612500D01*
G75*
G02*
X134162500Y-88850000I-237500J0D01*
G01*
X133662500Y-88850000D01*
G75*
G02*
X133425000Y-88612500I0J237500D01*
G01*
G37*
G36*
G01*
X131600000Y-88612500D02*
X131600000Y-88137500D01*
G75*
G02*
X131837500Y-87900000I237500J0D01*
G01*
X132337500Y-87900000D01*
G75*
G02*
X132575000Y-88137500I0J-237500D01*
G01*
X132575000Y-88612500D01*
G75*
G02*
X132337500Y-88850000I-237500J0D01*
G01*
X131837500Y-88850000D01*
G75*
G02*
X131600000Y-88612500I0J237500D01*
G01*
G37*
%TD*%
D10*
%TO.C,OUT2*%
X140000000Y-80500000D03*
%TD*%
D11*
%TO.C,Q23*%
X135500000Y-63000000D03*
X137500000Y-63950000D03*
X137500000Y-62050000D03*
%TD*%
%TO.C,Q22*%
X135500000Y-66500000D03*
X137500000Y-67450000D03*
X137500000Y-65550000D03*
%TD*%
%TO.C,Q21*%
X135500000Y-70000000D03*
X137500000Y-70950000D03*
X137500000Y-69050000D03*
%TD*%
%TO.C,Q20*%
X135500000Y-73500000D03*
X137500000Y-74450000D03*
X137500000Y-72550000D03*
%TD*%
%TO.C,Q19*%
X135500000Y-77000000D03*
X137500000Y-77950000D03*
X137500000Y-76050000D03*
%TD*%
%TO.C,Q18*%
X135500000Y-80500000D03*
X137500000Y-81450000D03*
X137500000Y-79550000D03*
%TD*%
%TO.C,Q17*%
X135500000Y-84000000D03*
X137500000Y-84950000D03*
X137500000Y-83050000D03*
%TD*%
%TO.C,Q16*%
X135500000Y-87500000D03*
X137500000Y-88450000D03*
X137500000Y-86550000D03*
%TD*%
%TO.C,D7*%
G36*
G01*
X132650000Y-61887500D02*
X132650000Y-62362500D01*
G75*
G02*
X132412500Y-62600000I-237500J0D01*
G01*
X131837500Y-62600000D01*
G75*
G02*
X131600000Y-62362500I0J237500D01*
G01*
X131600000Y-61887500D01*
G75*
G02*
X131837500Y-61650000I237500J0D01*
G01*
X132412500Y-61650000D01*
G75*
G02*
X132650000Y-61887500I0J-237500D01*
G01*
G37*
G36*
G01*
X134400000Y-61887500D02*
X134400000Y-62362500D01*
G75*
G02*
X134162500Y-62600000I-237500J0D01*
G01*
X133587500Y-62600000D01*
G75*
G02*
X133350000Y-62362500I0J237500D01*
G01*
X133350000Y-61887500D01*
G75*
G02*
X133587500Y-61650000I237500J0D01*
G01*
X134162500Y-61650000D01*
G75*
G02*
X134400000Y-61887500I0J-237500D01*
G01*
G37*
%TD*%
%TO.C,D6*%
G36*
G01*
X132650000Y-65387500D02*
X132650000Y-65862500D01*
G75*
G02*
X132412500Y-66100000I-237500J0D01*
G01*
X131837500Y-66100000D01*
G75*
G02*
X131600000Y-65862500I0J237500D01*
G01*
X131600000Y-65387500D01*
G75*
G02*
X131837500Y-65150000I237500J0D01*
G01*
X132412500Y-65150000D01*
G75*
G02*
X132650000Y-65387500I0J-237500D01*
G01*
G37*
G36*
G01*
X134400000Y-65387500D02*
X134400000Y-65862500D01*
G75*
G02*
X134162500Y-66100000I-237500J0D01*
G01*
X133587500Y-66100000D01*
G75*
G02*
X133350000Y-65862500I0J237500D01*
G01*
X133350000Y-65387500D01*
G75*
G02*
X133587500Y-65150000I237500J0D01*
G01*
X134162500Y-65150000D01*
G75*
G02*
X134400000Y-65387500I0J-237500D01*
G01*
G37*
%TD*%
%TO.C,D5*%
G36*
G01*
X132650000Y-68887500D02*
X132650000Y-69362500D01*
G75*
G02*
X132412500Y-69600000I-237500J0D01*
G01*
X131837500Y-69600000D01*
G75*
G02*
X131600000Y-69362500I0J237500D01*
G01*
X131600000Y-68887500D01*
G75*
G02*
X131837500Y-68650000I237500J0D01*
G01*
X132412500Y-68650000D01*
G75*
G02*
X132650000Y-68887500I0J-237500D01*
G01*
G37*
G36*
G01*
X134400000Y-68887500D02*
X134400000Y-69362500D01*
G75*
G02*
X134162500Y-69600000I-237500J0D01*
G01*
X133587500Y-69600000D01*
G75*
G02*
X133350000Y-69362500I0J237500D01*
G01*
X133350000Y-68887500D01*
G75*
G02*
X133587500Y-68650000I237500J0D01*
G01*
X134162500Y-68650000D01*
G75*
G02*
X134400000Y-68887500I0J-237500D01*
G01*
G37*
%TD*%
%TO.C,D4*%
G36*
G01*
X132650000Y-72387500D02*
X132650000Y-72862500D01*
G75*
G02*
X132412500Y-73100000I-237500J0D01*
G01*
X131837500Y-73100000D01*
G75*
G02*
X131600000Y-72862500I0J237500D01*
G01*
X131600000Y-72387500D01*
G75*
G02*
X131837500Y-72150000I237500J0D01*
G01*
X132412500Y-72150000D01*
G75*
G02*
X132650000Y-72387500I0J-237500D01*
G01*
G37*
G36*
G01*
X134400000Y-72387500D02*
X134400000Y-72862500D01*
G75*
G02*
X134162500Y-73100000I-237500J0D01*
G01*
X133587500Y-73100000D01*
G75*
G02*
X133350000Y-72862500I0J237500D01*
G01*
X133350000Y-72387500D01*
G75*
G02*
X133587500Y-72150000I237500J0D01*
G01*
X134162500Y-72150000D01*
G75*
G02*
X134400000Y-72387500I0J-237500D01*
G01*
G37*
%TD*%
%TO.C,D3*%
G36*
G01*
X132650000Y-75887500D02*
X132650000Y-76362500D01*
G75*
G02*
X132412500Y-76600000I-237500J0D01*
G01*
X131837500Y-76600000D01*
G75*
G02*
X131600000Y-76362500I0J237500D01*
G01*
X131600000Y-75887500D01*
G75*
G02*
X131837500Y-75650000I237500J0D01*
G01*
X132412500Y-75650000D01*
G75*
G02*
X132650000Y-75887500I0J-237500D01*
G01*
G37*
G36*
G01*
X134400000Y-75887500D02*
X134400000Y-76362500D01*
G75*
G02*
X134162500Y-76600000I-237500J0D01*
G01*
X133587500Y-76600000D01*
G75*
G02*
X133350000Y-76362500I0J237500D01*
G01*
X133350000Y-75887500D01*
G75*
G02*
X133587500Y-75650000I237500J0D01*
G01*
X134162500Y-75650000D01*
G75*
G02*
X134400000Y-75887500I0J-237500D01*
G01*
G37*
%TD*%
%TO.C,D2*%
G36*
G01*
X132650000Y-79387500D02*
X132650000Y-79862500D01*
G75*
G02*
X132412500Y-80100000I-237500J0D01*
G01*
X131837500Y-80100000D01*
G75*
G02*
X131600000Y-79862500I0J237500D01*
G01*
X131600000Y-79387500D01*
G75*
G02*
X131837500Y-79150000I237500J0D01*
G01*
X132412500Y-79150000D01*
G75*
G02*
X132650000Y-79387500I0J-237500D01*
G01*
G37*
G36*
G01*
X134400000Y-79387500D02*
X134400000Y-79862500D01*
G75*
G02*
X134162500Y-80100000I-237500J0D01*
G01*
X133587500Y-80100000D01*
G75*
G02*
X133350000Y-79862500I0J237500D01*
G01*
X133350000Y-79387500D01*
G75*
G02*
X133587500Y-79150000I237500J0D01*
G01*
X134162500Y-79150000D01*
G75*
G02*
X134400000Y-79387500I0J-237500D01*
G01*
G37*
%TD*%
%TO.C,D1*%
G36*
G01*
X132650000Y-82887500D02*
X132650000Y-83362500D01*
G75*
G02*
X132412500Y-83600000I-237500J0D01*
G01*
X131837500Y-83600000D01*
G75*
G02*
X131600000Y-83362500I0J237500D01*
G01*
X131600000Y-82887500D01*
G75*
G02*
X131837500Y-82650000I237500J0D01*
G01*
X132412500Y-82650000D01*
G75*
G02*
X132650000Y-82887500I0J-237500D01*
G01*
G37*
G36*
G01*
X134400000Y-82887500D02*
X134400000Y-83362500D01*
G75*
G02*
X134162500Y-83600000I-237500J0D01*
G01*
X133587500Y-83600000D01*
G75*
G02*
X133350000Y-83362500I0J237500D01*
G01*
X133350000Y-82887500D01*
G75*
G02*
X133587500Y-82650000I237500J0D01*
G01*
X134162500Y-82650000D01*
G75*
G02*
X134400000Y-82887500I0J-237500D01*
G01*
G37*
%TD*%
%TO.C,D0*%
G36*
G01*
X132650000Y-86387500D02*
X132650000Y-86862500D01*
G75*
G02*
X132412500Y-87100000I-237500J0D01*
G01*
X131837500Y-87100000D01*
G75*
G02*
X131600000Y-86862500I0J237500D01*
G01*
X131600000Y-86387500D01*
G75*
G02*
X131837500Y-86150000I237500J0D01*
G01*
X132412500Y-86150000D01*
G75*
G02*
X132650000Y-86387500I0J-237500D01*
G01*
G37*
G36*
G01*
X134400000Y-86387500D02*
X134400000Y-86862500D01*
G75*
G02*
X134162500Y-87100000I-237500J0D01*
G01*
X133587500Y-87100000D01*
G75*
G02*
X133350000Y-86862500I0J237500D01*
G01*
X133350000Y-86387500D01*
G75*
G02*
X133587500Y-86150000I237500J0D01*
G01*
X134162500Y-86150000D01*
G75*
G02*
X134400000Y-86387500I0J-237500D01*
G01*
G37*
%TD*%
D10*
%TO.C,IN6*%
X138250000Y-91000000D03*
%TD*%
%TO.C,IN5*%
X131250000Y-91000000D03*
%TD*%
%TO.C,IN4*%
X134750000Y-91000000D03*
%TD*%
%TO.C,OUT7*%
X140000000Y-63000000D03*
%TD*%
%TO.C,OUT6*%
X140000000Y-66500000D03*
%TD*%
%TO.C,OUT5*%
X140000000Y-70000000D03*
%TD*%
%TO.C,OUT4*%
X140000000Y-73500000D03*
%TD*%
%TO.C,IN10*%
X129500000Y-63000000D03*
%TD*%
%TO.C,IN9*%
X129500000Y-66500000D03*
%TD*%
%TO.C,IN8*%
X129500000Y-70000000D03*
%TD*%
%TO.C,IN7*%
X129500000Y-73500000D03*
%TD*%
%TO.C,OUT3*%
X140000000Y-77000000D03*
%TD*%
%TO.C,OUT1*%
X140000000Y-84000000D03*
%TD*%
%TO.C,OUT0*%
X140000000Y-87500000D03*
%TD*%
%TO.C,IN3*%
X129500000Y-77000000D03*
%TD*%
%TO.C,IN2*%
X129500000Y-80500000D03*
%TD*%
%TO.C,IN1*%
X129500000Y-84000000D03*
%TD*%
%TO.C,IN0*%
X129500000Y-87500000D03*
%TD*%
M02*
