%TF.GenerationSoftware,KiCad,Pcbnew,(5.1.9)-1*%
%TF.CreationDate,2022-08-31T17:27:34+02:00*%
%TF.ProjectId,tristate,74726973-7461-4746-952e-6b696361645f,rev?*%
%TF.SameCoordinates,Original*%
%TF.FileFunction,Legend,Top*%
%TF.FilePolarity,Positive*%
%FSLAX46Y46*%
G04 Gerber Fmt 4.6, Leading zero omitted, Abs format (unit mm)*
G04 Created by KiCad (PCBNEW (5.1.9)-1) date 2022-08-31 17:27:34*
%MOMM*%
%LPD*%
G01*
G04 APERTURE LIST*
%ADD10C,0.120000*%
%ADD11C,2.000000*%
%ADD12R,0.900000X0.800000*%
G04 APERTURE END LIST*
D10*
X141750000Y-75250000D02*
X127750000Y-75250000D01*
%TO.C,OUT2*%
X141251000Y-80500000D02*
G75*
G03*
X141251000Y-80500000I-1251000J0D01*
G01*
%TO.C,IN6*%
X139501000Y-91000000D02*
G75*
G03*
X139501000Y-91000000I-1251000J0D01*
G01*
%TO.C,IN5*%
X132501000Y-91000000D02*
G75*
G03*
X132501000Y-91000000I-1251000J0D01*
G01*
%TO.C,IN4*%
X136001000Y-91000000D02*
G75*
G03*
X136001000Y-91000000I-1251000J0D01*
G01*
%TO.C,Q15*%
X133760000Y-64580000D02*
X133760000Y-63650000D01*
X133760000Y-61420000D02*
X133760000Y-62350000D01*
X133760000Y-61420000D02*
X131600000Y-61420000D01*
X133760000Y-64580000D02*
X132300000Y-64580000D01*
%TO.C,Q11*%
X137260000Y-64580000D02*
X137260000Y-63650000D01*
X137260000Y-61420000D02*
X137260000Y-62350000D01*
X137260000Y-61420000D02*
X135100000Y-61420000D01*
X137260000Y-64580000D02*
X135800000Y-64580000D01*
%TO.C,Q14*%
X133760000Y-68080000D02*
X133760000Y-67150000D01*
X133760000Y-64920000D02*
X133760000Y-65850000D01*
X133760000Y-64920000D02*
X131600000Y-64920000D01*
X133760000Y-68080000D02*
X132300000Y-68080000D01*
%TO.C,Q10*%
X137260000Y-68080000D02*
X137260000Y-67150000D01*
X137260000Y-64920000D02*
X137260000Y-65850000D01*
X137260000Y-64920000D02*
X135100000Y-64920000D01*
X137260000Y-68080000D02*
X135800000Y-68080000D01*
%TO.C,Q13*%
X133760000Y-71580000D02*
X133760000Y-70650000D01*
X133760000Y-68420000D02*
X133760000Y-69350000D01*
X133760000Y-68420000D02*
X131600000Y-68420000D01*
X133760000Y-71580000D02*
X132300000Y-71580000D01*
%TO.C,Q9*%
X137260000Y-71580000D02*
X137260000Y-70650000D01*
X137260000Y-68420000D02*
X137260000Y-69350000D01*
X137260000Y-68420000D02*
X135100000Y-68420000D01*
X137260000Y-71580000D02*
X135800000Y-71580000D01*
%TO.C,Q12*%
X133760000Y-75080000D02*
X133760000Y-74150000D01*
X133760000Y-71920000D02*
X133760000Y-72850000D01*
X133760000Y-71920000D02*
X131600000Y-71920000D01*
X133760000Y-75080000D02*
X132300000Y-75080000D01*
%TO.C,Q8*%
X137260000Y-75080000D02*
X137260000Y-74150000D01*
X137260000Y-71920000D02*
X137260000Y-72850000D01*
X137260000Y-71920000D02*
X135100000Y-71920000D01*
X137260000Y-75080000D02*
X135800000Y-75080000D01*
%TO.C,OUT7*%
X141251000Y-63000000D02*
G75*
G03*
X141251000Y-63000000I-1251000J0D01*
G01*
%TO.C,OUT6*%
X141251000Y-66500000D02*
G75*
G03*
X141251000Y-66500000I-1251000J0D01*
G01*
%TO.C,OUT5*%
X141251000Y-70000000D02*
G75*
G03*
X141251000Y-70000000I-1251000J0D01*
G01*
%TO.C,OUT4*%
X141251000Y-73500000D02*
G75*
G03*
X141251000Y-73500000I-1251000J0D01*
G01*
%TO.C,IN10*%
X130751000Y-63000000D02*
G75*
G03*
X130751000Y-63000000I-1251000J0D01*
G01*
%TO.C,IN9*%
X130751000Y-66500000D02*
G75*
G03*
X130751000Y-66500000I-1251000J0D01*
G01*
%TO.C,IN8*%
X130751000Y-70000000D02*
G75*
G03*
X130751000Y-70000000I-1251000J0D01*
G01*
%TO.C,IN7*%
X130751000Y-73500000D02*
G75*
G03*
X130751000Y-73500000I-1251000J0D01*
G01*
%TO.C,Q7*%
X133760000Y-78580000D02*
X133760000Y-77650000D01*
X133760000Y-75420000D02*
X133760000Y-76350000D01*
X133760000Y-75420000D02*
X131600000Y-75420000D01*
X133760000Y-78580000D02*
X132300000Y-78580000D01*
%TO.C,Q3*%
X137260000Y-78580000D02*
X137260000Y-77650000D01*
X137260000Y-75420000D02*
X137260000Y-76350000D01*
X137260000Y-75420000D02*
X135100000Y-75420000D01*
X137260000Y-78580000D02*
X135800000Y-78580000D01*
%TO.C,Q6*%
X133760000Y-82080000D02*
X133760000Y-81150000D01*
X133760000Y-78920000D02*
X133760000Y-79850000D01*
X133760000Y-78920000D02*
X131600000Y-78920000D01*
X133760000Y-82080000D02*
X132300000Y-82080000D01*
%TO.C,Q2*%
X137260000Y-82080000D02*
X137260000Y-81150000D01*
X137260000Y-78920000D02*
X137260000Y-79850000D01*
X137260000Y-78920000D02*
X135100000Y-78920000D01*
X137260000Y-82080000D02*
X135800000Y-82080000D01*
%TO.C,Q5*%
X133760000Y-85580000D02*
X133760000Y-84650000D01*
X133760000Y-82420000D02*
X133760000Y-83350000D01*
X133760000Y-82420000D02*
X131600000Y-82420000D01*
X133760000Y-85580000D02*
X132300000Y-85580000D01*
%TO.C,Q1*%
X137260000Y-85580000D02*
X137260000Y-84650000D01*
X137260000Y-82420000D02*
X137260000Y-83350000D01*
X137260000Y-82420000D02*
X135100000Y-82420000D01*
X137260000Y-85580000D02*
X135800000Y-85580000D01*
%TO.C,Q4*%
X133760000Y-89080000D02*
X133760000Y-88150000D01*
X133760000Y-85920000D02*
X133760000Y-86850000D01*
X133760000Y-85920000D02*
X131600000Y-85920000D01*
X133760000Y-89080000D02*
X132300000Y-89080000D01*
%TO.C,Q0*%
X137260000Y-89080000D02*
X137260000Y-88150000D01*
X137260000Y-85920000D02*
X137260000Y-86850000D01*
X137260000Y-85920000D02*
X135100000Y-85920000D01*
X137260000Y-89080000D02*
X135800000Y-89080000D01*
%TO.C,OUT3*%
X141251000Y-77000000D02*
G75*
G03*
X141251000Y-77000000I-1251000J0D01*
G01*
%TO.C,OUT1*%
X141251000Y-84000000D02*
G75*
G03*
X141251000Y-84000000I-1251000J0D01*
G01*
%TO.C,OUT0*%
X141251000Y-87500000D02*
G75*
G03*
X141251000Y-87500000I-1251000J0D01*
G01*
%TO.C,IN3*%
X130751000Y-77000000D02*
G75*
G03*
X130751000Y-77000000I-1251000J0D01*
G01*
%TO.C,IN2*%
X130751000Y-80500000D02*
G75*
G03*
X130751000Y-80500000I-1251000J0D01*
G01*
%TO.C,IN1*%
X130751000Y-84000000D02*
G75*
G03*
X130751000Y-84000000I-1251000J0D01*
G01*
%TO.C,IN0*%
X130751000Y-87500000D02*
G75*
G03*
X130751000Y-87500000I-1251000J0D01*
G01*
%TD*%
%LPC*%
D11*
%TO.C,OUT2*%
X140000000Y-80500000D03*
%TD*%
%TO.C,IN6*%
X138250000Y-91000000D03*
%TD*%
%TO.C,IN5*%
X131250000Y-91000000D03*
%TD*%
%TO.C,IN4*%
X134750000Y-91000000D03*
%TD*%
D12*
%TO.C,Q15*%
X134000000Y-63000000D03*
X132000000Y-63950000D03*
X132000000Y-62050000D03*
%TD*%
%TO.C,Q11*%
X137500000Y-63000000D03*
X135500000Y-63950000D03*
X135500000Y-62050000D03*
%TD*%
%TO.C,Q14*%
X134000000Y-66500000D03*
X132000000Y-67450000D03*
X132000000Y-65550000D03*
%TD*%
%TO.C,Q10*%
X137500000Y-66500000D03*
X135500000Y-67450000D03*
X135500000Y-65550000D03*
%TD*%
%TO.C,Q13*%
X134000000Y-70000000D03*
X132000000Y-70950000D03*
X132000000Y-69050000D03*
%TD*%
%TO.C,Q9*%
X137500000Y-70000000D03*
X135500000Y-70950000D03*
X135500000Y-69050000D03*
%TD*%
%TO.C,Q12*%
X134000000Y-73500000D03*
X132000000Y-74450000D03*
X132000000Y-72550000D03*
%TD*%
%TO.C,Q8*%
X137500000Y-73500000D03*
X135500000Y-74450000D03*
X135500000Y-72550000D03*
%TD*%
D11*
%TO.C,OUT7*%
X140000000Y-63000000D03*
%TD*%
%TO.C,OUT6*%
X140000000Y-66500000D03*
%TD*%
%TO.C,OUT5*%
X140000000Y-70000000D03*
%TD*%
%TO.C,OUT4*%
X140000000Y-73500000D03*
%TD*%
%TO.C,IN10*%
X129500000Y-63000000D03*
%TD*%
%TO.C,IN9*%
X129500000Y-66500000D03*
%TD*%
%TO.C,IN8*%
X129500000Y-70000000D03*
%TD*%
%TO.C,IN7*%
X129500000Y-73500000D03*
%TD*%
D12*
%TO.C,Q7*%
X134000000Y-77000000D03*
X132000000Y-77950000D03*
X132000000Y-76050000D03*
%TD*%
%TO.C,Q3*%
X137500000Y-77000000D03*
X135500000Y-77950000D03*
X135500000Y-76050000D03*
%TD*%
%TO.C,Q6*%
X134000000Y-80500000D03*
X132000000Y-81450000D03*
X132000000Y-79550000D03*
%TD*%
%TO.C,Q2*%
X137500000Y-80500000D03*
X135500000Y-81450000D03*
X135500000Y-79550000D03*
%TD*%
%TO.C,Q5*%
X134000000Y-84000000D03*
X132000000Y-84950000D03*
X132000000Y-83050000D03*
%TD*%
%TO.C,Q1*%
X137500000Y-84000000D03*
X135500000Y-84950000D03*
X135500000Y-83050000D03*
%TD*%
%TO.C,Q4*%
X134000000Y-87500000D03*
X132000000Y-88450000D03*
X132000000Y-86550000D03*
%TD*%
%TO.C,Q0*%
X137500000Y-87500000D03*
X135500000Y-88450000D03*
X135500000Y-86550000D03*
%TD*%
D11*
%TO.C,OUT3*%
X140000000Y-77000000D03*
%TD*%
%TO.C,OUT1*%
X140000000Y-84000000D03*
%TD*%
%TO.C,OUT0*%
X140000000Y-87500000D03*
%TD*%
%TO.C,IN3*%
X129500000Y-77000000D03*
%TD*%
%TO.C,IN2*%
X129500000Y-80500000D03*
%TD*%
%TO.C,IN1*%
X129500000Y-84000000D03*
%TD*%
%TO.C,IN0*%
X129500000Y-87500000D03*
%TD*%
M02*
