%TF.GenerationSoftware,KiCad,Pcbnew,(5.1.9)-1*%
%TF.CreationDate,2022-08-29T18:21:33+02:00*%
%TF.ProjectId,mux,6d75782e-6b69-4636-9164-5f7063625858,rev?*%
%TF.SameCoordinates,Original*%
%TF.FileFunction,Copper,L1,Top*%
%TF.FilePolarity,Positive*%
%FSLAX46Y46*%
G04 Gerber Fmt 4.6, Leading zero omitted, Abs format (unit mm)*
G04 Created by KiCad (PCBNEW (5.1.9)-1) date 2022-08-29 18:21:33*
%MOMM*%
%LPD*%
G01*
G04 APERTURE LIST*
%TA.AperFunction,ComponentPad*%
%ADD10O,1.700000X1.700000*%
%TD*%
%TA.AperFunction,ComponentPad*%
%ADD11R,1.700000X1.700000*%
%TD*%
%TA.AperFunction,SMDPad,CuDef*%
%ADD12R,0.900000X0.800000*%
%TD*%
%TA.AperFunction,SMDPad,CuDef*%
%ADD13R,0.900000X0.900000*%
%TD*%
%TA.AperFunction,ViaPad*%
%ADD14C,0.500000*%
%TD*%
%TA.AperFunction,Conductor*%
%ADD15C,0.200000*%
%TD*%
G04 APERTURE END LIST*
D10*
%TO.P,J2,6*%
%TO.N,/C*%
X136460000Y-59200000D03*
%TO.P,J2,5*%
%TO.N,/B*%
X136460000Y-56660000D03*
%TO.P,J2,4*%
%TO.N,/A*%
X136460000Y-54120000D03*
%TO.P,J2,3*%
%TO.N,/Q*%
X136460000Y-51580000D03*
%TO.P,J2,2*%
%TO.N,GND*%
X136460000Y-49040000D03*
D11*
%TO.P,J2,1*%
%TO.N,VCC*%
X136460000Y-46500000D03*
%TD*%
D10*
%TO.P,J1,8*%
%TO.N,/Q7*%
X151700000Y-61740000D03*
%TO.P,J1,7*%
%TO.N,/Q6*%
X151700000Y-59200000D03*
%TO.P,J1,6*%
%TO.N,/Q5*%
X151700000Y-56660000D03*
%TO.P,J1,5*%
%TO.N,/Q4*%
X151700000Y-54120000D03*
%TO.P,J1,4*%
%TO.N,/Q3*%
X151700000Y-51580000D03*
%TO.P,J1,3*%
%TO.N,/Q2*%
X151700000Y-49040000D03*
%TO.P,J1,2*%
%TO.N,/Q1*%
X151700000Y-46500000D03*
D11*
%TO.P,J1,1*%
%TO.N,/Q0*%
X151700000Y-43960000D03*
%TD*%
D12*
%TO.P,Q11,3*%
%TO.N,/~C*%
X141600000Y-63350000D03*
%TO.P,Q11,2*%
%TO.N,GND*%
X139600000Y-64300000D03*
%TO.P,Q11,1*%
%TO.N,/C*%
X139600000Y-62400000D03*
%TD*%
%TO.P,Q10,3*%
%TO.N,/~B*%
X141600000Y-56000000D03*
%TO.P,Q10,2*%
%TO.N,GND*%
X139600000Y-56950000D03*
%TO.P,Q10,1*%
%TO.N,/B*%
X139600000Y-55050000D03*
%TD*%
%TO.P,Q9,3*%
%TO.N,/~A*%
X141600000Y-49000000D03*
%TO.P,Q9,2*%
%TO.N,GND*%
X139600000Y-49950000D03*
%TO.P,Q9,1*%
%TO.N,/A*%
X139600000Y-48050000D03*
%TD*%
%TO.P,Q17,3*%
%TO.N,Net-(Q14-Pad2)*%
X141600000Y-59500000D03*
%TO.P,Q17,2*%
%TO.N,/Q*%
X139600000Y-60450000D03*
%TO.P,Q17,1*%
%TO.N,/C*%
X139600000Y-58550000D03*
%TD*%
%TO.P,Q16,3*%
%TO.N,Net-(Q12-Pad2)*%
X141600000Y-52500000D03*
%TO.P,Q16,2*%
%TO.N,/Q*%
X139600000Y-53450000D03*
%TO.P,Q16,1*%
%TO.N,/~C*%
X139600000Y-51550000D03*
%TD*%
%TO.P,Q15,3*%
%TO.N,Net-(Q15-Pad3)*%
X145300000Y-59500000D03*
%TO.P,Q15,2*%
%TO.N,Net-(Q14-Pad2)*%
X143300000Y-60450000D03*
%TO.P,Q15,1*%
%TO.N,/B*%
X143300000Y-58550000D03*
%TD*%
%TO.P,Q14,3*%
%TO.N,Net-(Q14-Pad3)*%
X145300000Y-56000000D03*
%TO.P,Q14,2*%
%TO.N,Net-(Q14-Pad2)*%
X143300000Y-56950000D03*
%TO.P,Q14,1*%
%TO.N,/~B*%
X143300000Y-55050000D03*
%TD*%
%TO.P,Q13,3*%
%TO.N,Net-(Q13-Pad3)*%
X145300000Y-52500000D03*
%TO.P,Q13,2*%
%TO.N,Net-(Q12-Pad2)*%
X143300000Y-53450000D03*
%TO.P,Q13,1*%
%TO.N,/B*%
X143300000Y-51550000D03*
%TD*%
%TO.P,Q12,3*%
%TO.N,Net-(Q1-Pad2)*%
X145300000Y-49000000D03*
%TO.P,Q12,2*%
%TO.N,Net-(Q12-Pad2)*%
X143300000Y-49950000D03*
%TO.P,Q12,1*%
%TO.N,/~B*%
X143300000Y-48050000D03*
%TD*%
%TO.P,Q8,3*%
%TO.N,/Q7*%
X145300000Y-63350000D03*
%TO.P,Q8,2*%
%TO.N,Net-(Q15-Pad3)*%
X143300000Y-64300000D03*
%TO.P,Q8,1*%
%TO.N,/A*%
X143300000Y-62400000D03*
%TD*%
%TO.P,Q7,3*%
%TO.N,/Q6*%
X149000000Y-63350000D03*
%TO.P,Q7,2*%
%TO.N,Net-(Q15-Pad3)*%
X147000000Y-64300000D03*
%TO.P,Q7,1*%
%TO.N,/~A*%
X147000000Y-62400000D03*
%TD*%
%TO.P,Q6,3*%
%TO.N,/Q5*%
X149000000Y-59850000D03*
%TO.P,Q6,2*%
%TO.N,Net-(Q14-Pad3)*%
X147000000Y-60800000D03*
%TO.P,Q6,1*%
%TO.N,/A*%
X147000000Y-58900000D03*
%TD*%
%TO.P,Q5,3*%
%TO.N,/Q4*%
X149000000Y-56350000D03*
%TO.P,Q5,2*%
%TO.N,Net-(Q14-Pad3)*%
X147000000Y-57300000D03*
%TO.P,Q5,1*%
%TO.N,/~A*%
X147000000Y-55400000D03*
%TD*%
%TO.P,Q4,3*%
%TO.N,/Q3*%
X149000000Y-52850000D03*
%TO.P,Q4,2*%
%TO.N,Net-(Q13-Pad3)*%
X147000000Y-53800000D03*
%TO.P,Q4,1*%
%TO.N,/A*%
X147000000Y-51900000D03*
%TD*%
%TO.P,Q3,3*%
%TO.N,/Q2*%
X149000000Y-49350000D03*
%TO.P,Q3,2*%
%TO.N,Net-(Q13-Pad3)*%
X147000000Y-50300000D03*
%TO.P,Q3,1*%
%TO.N,/~A*%
X147000000Y-48400000D03*
%TD*%
%TO.P,Q2,3*%
%TO.N,/Q1*%
X149000000Y-45850000D03*
%TO.P,Q2,2*%
%TO.N,Net-(Q1-Pad2)*%
X147000000Y-46800000D03*
%TO.P,Q2,1*%
%TO.N,/A*%
X147000000Y-44900000D03*
%TD*%
%TO.P,Q1,3*%
%TO.N,/Q0*%
X149000000Y-42350000D03*
%TO.P,Q1,2*%
%TO.N,Net-(Q1-Pad2)*%
X147000000Y-43300000D03*
%TO.P,Q1,1*%
%TO.N,/~A*%
X147000000Y-41400000D03*
%TD*%
D13*
%TO.P,RN1,6*%
%TO.N,VCC*%
X143110000Y-42950000D03*
%TO.P,RN1,5*%
%TO.N,N/C*%
X144450000Y-42950000D03*
%TO.P,RN1,8*%
%TO.N,VCC*%
X140450000Y-42950000D03*
%TO.P,RN1,7*%
X141790000Y-42950000D03*
%TO.P,RN1,3*%
%TO.N,/~A*%
X143110000Y-45950000D03*
%TO.P,RN1,2*%
%TO.N,/~B*%
X141790000Y-45950000D03*
%TO.P,RN1,4*%
%TO.N,N/C*%
X144450000Y-45950000D03*
%TO.P,RN1,1*%
%TO.N,/~C*%
X140450000Y-45950000D03*
%TD*%
D14*
%TO.N,/C*%
X140134302Y-61444049D03*
%TO.N,/B*%
X143999999Y-58565000D03*
X142175000Y-62375000D03*
%TO.N,/A*%
X146625000Y-44150002D03*
X139600000Y-47140000D03*
%TO.N,/Q*%
X138330000Y-53450000D03*
%TO.N,GND*%
X140600000Y-64050000D03*
X138380000Y-57400000D03*
%TO.N,/~A*%
X145370000Y-41400000D03*
X144300000Y-44800000D03*
%TO.N,Net-(Q23-Pad2)*%
X144250488Y-65164713D03*
X142452203Y-65149177D03*
%TD*%
D15*
%TO.N,/Q7*%
X151700000Y-62040002D02*
X151700000Y-61740000D01*
X149690001Y-64050001D02*
X151700000Y-62040002D01*
X148309999Y-64050001D02*
X149690001Y-64050001D01*
X147609998Y-63350000D02*
X148309999Y-64050001D01*
X145300000Y-63350000D02*
X147609998Y-63350000D01*
%TO.N,/Q6*%
X149000000Y-61900000D02*
X149000000Y-63350000D01*
X151700000Y-59200000D02*
X149000000Y-61900000D01*
%TO.N,/Q5*%
X149000000Y-59360000D02*
X149000000Y-59850000D01*
X151700000Y-56660000D02*
X149000000Y-59360000D01*
%TO.N,/Q4*%
X149470000Y-56350000D02*
X149000000Y-56350000D01*
X151700000Y-54120000D02*
X149470000Y-56350000D01*
%TO.N,/Q3*%
X150430000Y-52850000D02*
X151700000Y-51580000D01*
X149000000Y-52850000D02*
X150430000Y-52850000D01*
%TO.N,/Q2*%
X151390000Y-49350000D02*
X151700000Y-49040000D01*
X149000000Y-49350000D02*
X151390000Y-49350000D01*
%TO.N,/Q1*%
X151050000Y-45850000D02*
X151700000Y-46500000D01*
X149000000Y-45850000D02*
X151050000Y-45850000D01*
%TO.N,/Q0*%
X150090000Y-42350000D02*
X151700000Y-43960000D01*
X149000000Y-42350000D02*
X150090000Y-42350000D01*
%TO.N,/C*%
X137110000Y-58550000D02*
X136460000Y-59200000D01*
X139600000Y-58550000D02*
X137110000Y-58550000D01*
X139600000Y-62340000D02*
X136460000Y-59200000D01*
X139600000Y-62400000D02*
X139600000Y-62340000D01*
X140134302Y-61865698D02*
X139600000Y-62400000D01*
X140134302Y-61444049D02*
X140134302Y-61865698D01*
%TO.N,/B*%
X144050001Y-57799999D02*
X143300000Y-58550000D01*
X144050001Y-52300001D02*
X144050001Y-57799999D01*
X143300000Y-51550000D02*
X144050001Y-52300001D01*
X138070000Y-55050000D02*
X136460000Y-56660000D01*
X139600000Y-55050000D02*
X138070000Y-55050000D01*
X143300000Y-51550000D02*
X143300000Y-51491608D01*
X135309999Y-57810001D02*
X136460000Y-56660000D01*
X135309999Y-61400001D02*
X135309999Y-57810001D01*
X138909999Y-65000001D02*
X135309999Y-61400001D01*
X141340001Y-65000001D02*
X138909999Y-65000001D01*
X142350001Y-63990001D02*
X141340001Y-65000001D01*
X143315000Y-58565000D02*
X143300000Y-58550000D01*
X143999999Y-58565000D02*
X143315000Y-58565000D01*
X142350001Y-62550001D02*
X142175000Y-62375000D01*
X142350001Y-63990001D02*
X142350001Y-62550001D01*
%TO.N,/A*%
X143300000Y-62400000D02*
X143499998Y-62400000D01*
X147000000Y-58900000D02*
X146350000Y-58900000D01*
X144549999Y-56579999D02*
X144549999Y-61349999D01*
X144549999Y-57099999D02*
X144549999Y-56579999D01*
X146350000Y-58900000D02*
X144549999Y-57099999D01*
X147000000Y-45409998D02*
X147000000Y-44900000D01*
X144549999Y-47859999D02*
X147000000Y-45409998D01*
X146520000Y-51900000D02*
X144549999Y-49929999D01*
X147000000Y-51900000D02*
X146520000Y-51900000D01*
X144549999Y-49929999D02*
X144549999Y-47859999D01*
X144549999Y-56579999D02*
X144549999Y-49929999D01*
X135309999Y-48487999D02*
X136147997Y-47650001D01*
X135309999Y-52969999D02*
X135309999Y-48487999D01*
X136460000Y-54120000D02*
X135309999Y-52969999D01*
X144299999Y-61599999D02*
X144549999Y-61349999D01*
X143499998Y-62400000D02*
X144299999Y-61599999D01*
X139600000Y-47140000D02*
X139600000Y-48050000D01*
X139600000Y-45359998D02*
X139600000Y-47140000D01*
X146625000Y-44525000D02*
X147000000Y-44900000D01*
X146625000Y-44150002D02*
X146625000Y-44525000D01*
X137614998Y-48050000D02*
X137214999Y-47650001D01*
X139600000Y-48050000D02*
X137614998Y-48050000D01*
X136147997Y-47650001D02*
X137214999Y-47650001D01*
X147000000Y-44900000D02*
X146930000Y-44900000D01*
X140079998Y-44150002D02*
X139600000Y-44630000D01*
X146625000Y-44150002D02*
X140079998Y-44150002D01*
X139600000Y-44630000D02*
X139600000Y-45359998D01*
%TO.N,/Q*%
X140350001Y-54200001D02*
X139600000Y-53450000D01*
X140350001Y-59699999D02*
X140350001Y-54200001D01*
X139600000Y-60450000D02*
X140350001Y-59699999D01*
X138330000Y-53450000D02*
X136460000Y-51580000D01*
X139600000Y-53450000D02*
X138330000Y-53450000D01*
%TO.N,GND*%
X137370000Y-49950000D02*
X136460000Y-49040000D01*
X139600000Y-49950000D02*
X137370000Y-49950000D01*
X140350000Y-64300000D02*
X140600000Y-64050000D01*
X139600000Y-64300000D02*
X140350000Y-64300000D01*
X139150000Y-57400000D02*
X139600000Y-56950000D01*
X138380000Y-57400000D02*
X139150000Y-57400000D01*
X139600000Y-49950000D02*
X139340000Y-49950000D01*
%TO.N,VCC*%
X140010000Y-42950000D02*
X136460000Y-46500000D01*
X143110000Y-42950000D02*
X140010000Y-42950000D01*
%TO.N,/~A*%
X148249999Y-47150001D02*
X147000000Y-48400000D01*
X148249999Y-43249999D02*
X148249999Y-47150001D01*
X147000000Y-42000000D02*
X148249999Y-43249999D01*
X148249999Y-50249999D02*
X148249999Y-54150001D01*
X147000000Y-49000000D02*
X148249999Y-50249999D01*
X148249999Y-54150001D02*
X147000000Y-55400000D01*
X147000000Y-48400000D02*
X147000000Y-49000000D01*
X148249999Y-61150001D02*
X147000000Y-62400000D01*
X148249999Y-54150001D02*
X148249999Y-61150001D01*
X147000000Y-41400000D02*
X147000000Y-42000000D01*
X143110000Y-46890000D02*
X143110000Y-45950000D01*
X141600000Y-48400000D02*
X143110000Y-46890000D01*
X141600000Y-49000000D02*
X141600000Y-48400000D01*
X143110000Y-45950000D02*
X144260000Y-44800000D01*
X147000000Y-41400000D02*
X145370000Y-41400000D01*
X144260000Y-44800000D02*
X144300000Y-44800000D01*
%TO.N,Net-(Q13-Pad3)*%
X147750001Y-53049999D02*
X147000000Y-53800000D01*
X147750001Y-51050001D02*
X147750001Y-53049999D01*
X147000000Y-50300000D02*
X147750001Y-51050001D01*
X146600000Y-53800000D02*
X145300000Y-52500000D01*
X147000000Y-53800000D02*
X146600000Y-53800000D01*
%TO.N,Net-(Q14-Pad3)*%
X147849989Y-59950011D02*
X147000000Y-60800000D01*
X147849989Y-58149989D02*
X147849989Y-59950011D01*
X147000000Y-57300000D02*
X147849989Y-58149989D01*
X146600000Y-57300000D02*
X145300000Y-56000000D01*
X147000000Y-57300000D02*
X146600000Y-57300000D01*
%TO.N,Net-(Q15-Pad3)*%
X144400000Y-64300000D02*
X143300000Y-64300000D01*
X147000000Y-64300000D02*
X144400000Y-64300000D01*
X144400000Y-62859998D02*
X144400000Y-64300000D01*
X145300000Y-61959998D02*
X144400000Y-62859998D01*
X145300000Y-59500000D02*
X145300000Y-61959998D01*
%TO.N,/~B*%
X142550000Y-55050000D02*
X141600000Y-56000000D01*
X143300000Y-55050000D02*
X142550000Y-55050000D01*
X142550000Y-55050000D02*
X140849999Y-53349999D01*
X142350001Y-48999999D02*
X142350001Y-50069999D01*
X143300000Y-48050000D02*
X142350001Y-48999999D01*
X140849999Y-53349999D02*
X140849999Y-51570001D01*
X140849999Y-50609999D02*
X141330000Y-51090000D01*
X141790000Y-45950000D02*
X140849999Y-46890001D01*
X141330000Y-51090000D02*
X140849999Y-51570001D01*
X140849999Y-46890001D02*
X140849999Y-50609999D01*
X142350001Y-50069999D02*
X141330000Y-51090000D01*
%TO.N,/~C*%
X140449989Y-52399989D02*
X140449989Y-53515688D01*
X140449989Y-53515688D02*
X140834302Y-53900000D01*
X139600000Y-51550000D02*
X140449989Y-52399989D01*
X140834302Y-62584302D02*
X141600000Y-63350000D01*
X140834302Y-53900000D02*
X140834302Y-62584302D01*
X140350001Y-50799999D02*
X139600000Y-51550000D01*
X140350001Y-46824300D02*
X140350001Y-50799999D01*
X140450000Y-46724301D02*
X140350001Y-46824300D01*
X140450000Y-45950000D02*
X140450000Y-46724301D01*
%TO.N,Net-(Q1-Pad2)*%
X147750001Y-46049999D02*
X147000000Y-46800000D01*
X147750001Y-44050001D02*
X147750001Y-46049999D01*
X147000000Y-43300000D02*
X147750001Y-44050001D01*
X145300000Y-48500000D02*
X147000000Y-46800000D01*
X145300000Y-49000000D02*
X145300000Y-48500000D01*
%TO.N,Net-(Q12-Pad2)*%
X142549999Y-50700001D02*
X143300000Y-49950000D01*
X143300000Y-53450000D02*
X142549999Y-52699999D01*
X142350000Y-52500000D02*
X142549999Y-52699999D01*
X141600000Y-52500000D02*
X142350000Y-52500000D01*
X142549999Y-52699999D02*
X142549999Y-50700001D01*
%TO.N,Net-(Q14-Pad2)*%
X142550000Y-60450000D02*
X141600000Y-59500000D01*
X143300000Y-60450000D02*
X142550000Y-60450000D01*
X141600000Y-58650000D02*
X141600000Y-59500000D01*
X143300000Y-56950000D02*
X141600000Y-58650000D01*
%TO.N,Net-(Q23-Pad2)*%
X142550180Y-65247154D02*
X142452203Y-65149177D01*
X142467739Y-65164713D02*
X142452203Y-65149177D01*
X144250488Y-65164713D02*
X142467739Y-65164713D01*
%TD*%
M02*
