%TF.GenerationSoftware,KiCad,Pcbnew,(5.1.9)-1*%
%TF.CreationDate,2022-08-29T18:21:33+02:00*%
%TF.ProjectId,mux,6d75782e-6b69-4636-9164-5f7063625858,rev?*%
%TF.SameCoordinates,Original*%
%TF.FileFunction,Soldermask,Top*%
%TF.FilePolarity,Negative*%
%FSLAX46Y46*%
G04 Gerber Fmt 4.6, Leading zero omitted, Abs format (unit mm)*
G04 Created by KiCad (PCBNEW (5.1.9)-1) date 2022-08-29 18:21:33*
%MOMM*%
%LPD*%
G01*
G04 APERTURE LIST*
%ADD10O,1.700000X1.700000*%
%ADD11R,1.700000X1.700000*%
%ADD12R,0.900000X0.800000*%
%ADD13R,0.900000X0.900000*%
G04 APERTURE END LIST*
D10*
%TO.C,J2*%
X136460000Y-59200000D03*
X136460000Y-56660000D03*
X136460000Y-54120000D03*
X136460000Y-51580000D03*
X136460000Y-49040000D03*
D11*
X136460000Y-46500000D03*
%TD*%
D10*
%TO.C,J1*%
X151700000Y-61740000D03*
X151700000Y-59200000D03*
X151700000Y-56660000D03*
X151700000Y-54120000D03*
X151700000Y-51580000D03*
X151700000Y-49040000D03*
X151700000Y-46500000D03*
D11*
X151700000Y-43960000D03*
%TD*%
D12*
%TO.C,Q11*%
X141600000Y-63350000D03*
X139600000Y-64300000D03*
X139600000Y-62400000D03*
%TD*%
%TO.C,Q10*%
X141600000Y-56000000D03*
X139600000Y-56950000D03*
X139600000Y-55050000D03*
%TD*%
%TO.C,Q9*%
X141600000Y-49000000D03*
X139600000Y-49950000D03*
X139600000Y-48050000D03*
%TD*%
%TO.C,Q17*%
X141600000Y-59500000D03*
X139600000Y-60450000D03*
X139600000Y-58550000D03*
%TD*%
%TO.C,Q16*%
X141600000Y-52500000D03*
X139600000Y-53450000D03*
X139600000Y-51550000D03*
%TD*%
%TO.C,Q15*%
X145300000Y-59500000D03*
X143300000Y-60450000D03*
X143300000Y-58550000D03*
%TD*%
%TO.C,Q14*%
X145300000Y-56000000D03*
X143300000Y-56950000D03*
X143300000Y-55050000D03*
%TD*%
%TO.C,Q13*%
X145300000Y-52500000D03*
X143300000Y-53450000D03*
X143300000Y-51550000D03*
%TD*%
%TO.C,Q12*%
X145300000Y-49000000D03*
X143300000Y-49950000D03*
X143300000Y-48050000D03*
%TD*%
%TO.C,Q8*%
X145300000Y-63350000D03*
X143300000Y-64300000D03*
X143300000Y-62400000D03*
%TD*%
%TO.C,Q7*%
X149000000Y-63350000D03*
X147000000Y-64300000D03*
X147000000Y-62400000D03*
%TD*%
%TO.C,Q6*%
X149000000Y-59850000D03*
X147000000Y-60800000D03*
X147000000Y-58900000D03*
%TD*%
%TO.C,Q5*%
X149000000Y-56350000D03*
X147000000Y-57300000D03*
X147000000Y-55400000D03*
%TD*%
%TO.C,Q4*%
X149000000Y-52850000D03*
X147000000Y-53800000D03*
X147000000Y-51900000D03*
%TD*%
%TO.C,Q3*%
X149000000Y-49350000D03*
X147000000Y-50300000D03*
X147000000Y-48400000D03*
%TD*%
%TO.C,Q2*%
X149000000Y-45850000D03*
X147000000Y-46800000D03*
X147000000Y-44900000D03*
%TD*%
%TO.C,Q1*%
X149000000Y-42350000D03*
X147000000Y-43300000D03*
X147000000Y-41400000D03*
%TD*%
D13*
%TO.C,RN1*%
X143110000Y-42950000D03*
X144450000Y-42950000D03*
X140450000Y-42950000D03*
X141790000Y-42950000D03*
X143110000Y-45950000D03*
X141790000Y-45950000D03*
X144450000Y-45950000D03*
X140450000Y-45950000D03*
%TD*%
M02*
