%TF.GenerationSoftware,KiCad,Pcbnew,(5.1.9)-1*%
%TF.CreationDate,2022-08-29T18:21:33+02:00*%
%TF.ProjectId,mux,6d75782e-6b69-4636-9164-5f7063625858,rev?*%
%TF.SameCoordinates,Original*%
%TF.FileFunction,Legend,Top*%
%TF.FilePolarity,Positive*%
%FSLAX46Y46*%
G04 Gerber Fmt 4.6, Leading zero omitted, Abs format (unit mm)*
G04 Created by KiCad (PCBNEW (5.1.9)-1) date 2022-08-29 18:21:33*
%MOMM*%
%LPD*%
G01*
G04 APERTURE LIST*
%ADD10C,0.150000*%
%ADD11C,0.120000*%
%ADD12O,1.700000X1.700000*%
%ADD13R,1.700000X1.700000*%
%ADD14R,0.900000X0.800000*%
%ADD15R,0.900000X0.900000*%
G04 APERTURE END LIST*
D10*
X153795476Y-58652380D02*
X153605000Y-58652380D01*
X153509761Y-58700000D01*
X153462142Y-58747619D01*
X153366904Y-58890476D01*
X153319285Y-59080952D01*
X153319285Y-59461904D01*
X153366904Y-59557142D01*
X153414523Y-59604761D01*
X153509761Y-59652380D01*
X153700238Y-59652380D01*
X153795476Y-59604761D01*
X153843095Y-59557142D01*
X153890714Y-59461904D01*
X153890714Y-59223809D01*
X153843095Y-59128571D01*
X153795476Y-59080952D01*
X153700238Y-59033333D01*
X153509761Y-59033333D01*
X153414523Y-59080952D01*
X153366904Y-59128571D01*
X153319285Y-59223809D01*
X153843095Y-56112380D02*
X153366904Y-56112380D01*
X153319285Y-56588571D01*
X153366904Y-56540952D01*
X153462142Y-56493333D01*
X153700238Y-56493333D01*
X153795476Y-56540952D01*
X153843095Y-56588571D01*
X153890714Y-56683809D01*
X153890714Y-56921904D01*
X153843095Y-57017142D01*
X153795476Y-57064761D01*
X153700238Y-57112380D01*
X153462142Y-57112380D01*
X153366904Y-57064761D01*
X153319285Y-57017142D01*
X153795476Y-53905714D02*
X153795476Y-54572380D01*
X153557380Y-53524761D02*
X153319285Y-54239047D01*
X153938333Y-54239047D01*
X153271666Y-51032380D02*
X153890714Y-51032380D01*
X153557380Y-51413333D01*
X153700238Y-51413333D01*
X153795476Y-51460952D01*
X153843095Y-51508571D01*
X153890714Y-51603809D01*
X153890714Y-51841904D01*
X153843095Y-51937142D01*
X153795476Y-51984761D01*
X153700238Y-52032380D01*
X153414523Y-52032380D01*
X153319285Y-51984761D01*
X153271666Y-51937142D01*
X153319285Y-48587619D02*
X153366904Y-48540000D01*
X153462142Y-48492380D01*
X153700238Y-48492380D01*
X153795476Y-48540000D01*
X153843095Y-48587619D01*
X153890714Y-48682857D01*
X153890714Y-48778095D01*
X153843095Y-48920952D01*
X153271666Y-49492380D01*
X153890714Y-49492380D01*
X153890714Y-46952380D02*
X153319285Y-46952380D01*
X153605000Y-46952380D02*
X153605000Y-45952380D01*
X153509761Y-46095238D01*
X153414523Y-46190476D01*
X153319285Y-46238095D01*
X153557380Y-43412380D02*
X153652619Y-43412380D01*
X153747857Y-43460000D01*
X153795476Y-43507619D01*
X153843095Y-43602857D01*
X153890714Y-43793333D01*
X153890714Y-44031428D01*
X153843095Y-44221904D01*
X153795476Y-44317142D01*
X153747857Y-44364761D01*
X153652619Y-44412380D01*
X153557380Y-44412380D01*
X153462142Y-44364761D01*
X153414523Y-44317142D01*
X153366904Y-44221904D01*
X153319285Y-44031428D01*
X153319285Y-43793333D01*
X153366904Y-43602857D01*
X153414523Y-43507619D01*
X153462142Y-43460000D01*
X153557380Y-43412380D01*
X153271666Y-61192380D02*
X153938333Y-61192380D01*
X153509761Y-62192380D01*
X134174047Y-49111428D02*
X134935952Y-49111428D01*
X134174047Y-46571428D02*
X134935952Y-46571428D01*
X134555000Y-46952380D02*
X134555000Y-46190476D01*
X134555000Y-52032380D02*
X134555000Y-51032380D01*
X134840714Y-54572380D02*
X134269285Y-54572380D01*
X134555000Y-54572380D02*
X134555000Y-53572380D01*
X134459761Y-53715238D01*
X134364523Y-53810476D01*
X134269285Y-53858095D01*
X134269285Y-56207619D02*
X134316904Y-56160000D01*
X134412142Y-56112380D01*
X134650238Y-56112380D01*
X134745476Y-56160000D01*
X134793095Y-56207619D01*
X134840714Y-56302857D01*
X134840714Y-56398095D01*
X134793095Y-56540952D01*
X134221666Y-57112380D01*
X134840714Y-57112380D01*
X134745476Y-58985714D02*
X134745476Y-59652380D01*
X134507380Y-58604761D02*
X134269285Y-59319047D01*
X134888333Y-59319047D01*
X135150476Y-62192380D02*
X135150476Y-61192380D01*
X135388571Y-61192380D01*
X135531428Y-61240000D01*
X135626666Y-61335238D01*
X135674285Y-61430476D01*
X135721904Y-61620952D01*
X135721904Y-61763809D01*
X135674285Y-61954285D01*
X135626666Y-62049523D01*
X135531428Y-62144761D01*
X135388571Y-62192380D01*
X135150476Y-62192380D01*
X136150476Y-62192380D02*
X136150476Y-61192380D01*
X136483809Y-61906666D01*
X136817142Y-61192380D01*
X136817142Y-62192380D01*
X137198095Y-61192380D02*
X137864761Y-62192380D01*
X137864761Y-61192380D02*
X137198095Y-62192380D01*
D11*
%TO.C,Q11*%
X141360000Y-64930000D02*
X141360000Y-64000000D01*
X141360000Y-61770000D02*
X141360000Y-62700000D01*
X141360000Y-61770000D02*
X139200000Y-61770000D01*
X141360000Y-64930000D02*
X139900000Y-64930000D01*
%TO.C,Q10*%
X141360000Y-57580000D02*
X141360000Y-56650000D01*
X141360000Y-54420000D02*
X141360000Y-55350000D01*
X141360000Y-54420000D02*
X139200000Y-54420000D01*
X141360000Y-57580000D02*
X139900000Y-57580000D01*
%TO.C,Q9*%
X141360000Y-50580000D02*
X141360000Y-49650000D01*
X141360000Y-47420000D02*
X141360000Y-48350000D01*
X141360000Y-47420000D02*
X139200000Y-47420000D01*
X141360000Y-50580000D02*
X139900000Y-50580000D01*
%TO.C,Q17*%
X141360000Y-61080000D02*
X141360000Y-60150000D01*
X141360000Y-57920000D02*
X141360000Y-58850000D01*
X141360000Y-57920000D02*
X139200000Y-57920000D01*
X141360000Y-61080000D02*
X139900000Y-61080000D01*
%TO.C,Q16*%
X141360000Y-54080000D02*
X141360000Y-53150000D01*
X141360000Y-50920000D02*
X141360000Y-51850000D01*
X141360000Y-50920000D02*
X139200000Y-50920000D01*
X141360000Y-54080000D02*
X139900000Y-54080000D01*
%TO.C,Q15*%
X145060000Y-61080000D02*
X145060000Y-60150000D01*
X145060000Y-57920000D02*
X145060000Y-58850000D01*
X145060000Y-57920000D02*
X142900000Y-57920000D01*
X145060000Y-61080000D02*
X143600000Y-61080000D01*
%TO.C,Q14*%
X145060000Y-57580000D02*
X145060000Y-56650000D01*
X145060000Y-54420000D02*
X145060000Y-55350000D01*
X145060000Y-54420000D02*
X142900000Y-54420000D01*
X145060000Y-57580000D02*
X143600000Y-57580000D01*
%TO.C,Q13*%
X145060000Y-54080000D02*
X145060000Y-53150000D01*
X145060000Y-50920000D02*
X145060000Y-51850000D01*
X145060000Y-50920000D02*
X142900000Y-50920000D01*
X145060000Y-54080000D02*
X143600000Y-54080000D01*
%TO.C,Q12*%
X145060000Y-50580000D02*
X145060000Y-49650000D01*
X145060000Y-47420000D02*
X145060000Y-48350000D01*
X145060000Y-47420000D02*
X142900000Y-47420000D01*
X145060000Y-50580000D02*
X143600000Y-50580000D01*
%TO.C,Q8*%
X145060000Y-64930000D02*
X145060000Y-64000000D01*
X145060000Y-61770000D02*
X145060000Y-62700000D01*
X145060000Y-61770000D02*
X142900000Y-61770000D01*
X145060000Y-64930000D02*
X143600000Y-64930000D01*
%TO.C,Q7*%
X148760000Y-64930000D02*
X148760000Y-64000000D01*
X148760000Y-61770000D02*
X148760000Y-62700000D01*
X148760000Y-61770000D02*
X146600000Y-61770000D01*
X148760000Y-64930000D02*
X147300000Y-64930000D01*
%TO.C,Q6*%
X148760000Y-61430000D02*
X148760000Y-60500000D01*
X148760000Y-58270000D02*
X148760000Y-59200000D01*
X148760000Y-58270000D02*
X146600000Y-58270000D01*
X148760000Y-61430000D02*
X147300000Y-61430000D01*
%TO.C,Q5*%
X148760000Y-57930000D02*
X148760000Y-57000000D01*
X148760000Y-54770000D02*
X148760000Y-55700000D01*
X148760000Y-54770000D02*
X146600000Y-54770000D01*
X148760000Y-57930000D02*
X147300000Y-57930000D01*
%TO.C,Q4*%
X148760000Y-54430000D02*
X148760000Y-53500000D01*
X148760000Y-51270000D02*
X148760000Y-52200000D01*
X148760000Y-51270000D02*
X146600000Y-51270000D01*
X148760000Y-54430000D02*
X147300000Y-54430000D01*
%TO.C,Q3*%
X148760000Y-50930000D02*
X148760000Y-50000000D01*
X148760000Y-47770000D02*
X148760000Y-48700000D01*
X148760000Y-47770000D02*
X146600000Y-47770000D01*
X148760000Y-50930000D02*
X147300000Y-50930000D01*
%TO.C,Q2*%
X148760000Y-47430000D02*
X148760000Y-46500000D01*
X148760000Y-44270000D02*
X148760000Y-45200000D01*
X148760000Y-44270000D02*
X146600000Y-44270000D01*
X148760000Y-47430000D02*
X147300000Y-47430000D01*
%TO.C,Q1*%
X148760000Y-43930000D02*
X148760000Y-43000000D01*
X148760000Y-40770000D02*
X148760000Y-41700000D01*
X148760000Y-40770000D02*
X146600000Y-40770000D01*
X148760000Y-43930000D02*
X147300000Y-43930000D01*
%TO.C,RN1*%
X145120000Y-43400000D02*
X145120000Y-45500000D01*
X139780000Y-43400000D02*
X139780000Y-45500000D01*
%TD*%
%LPC*%
D12*
%TO.C,J2*%
X136460000Y-59200000D03*
X136460000Y-56660000D03*
X136460000Y-54120000D03*
X136460000Y-51580000D03*
X136460000Y-49040000D03*
D13*
X136460000Y-46500000D03*
%TD*%
D12*
%TO.C,J1*%
X151700000Y-61740000D03*
X151700000Y-59200000D03*
X151700000Y-56660000D03*
X151700000Y-54120000D03*
X151700000Y-51580000D03*
X151700000Y-49040000D03*
X151700000Y-46500000D03*
D13*
X151700000Y-43960000D03*
%TD*%
D14*
%TO.C,Q11*%
X141600000Y-63350000D03*
X139600000Y-64300000D03*
X139600000Y-62400000D03*
%TD*%
%TO.C,Q10*%
X141600000Y-56000000D03*
X139600000Y-56950000D03*
X139600000Y-55050000D03*
%TD*%
%TO.C,Q9*%
X141600000Y-49000000D03*
X139600000Y-49950000D03*
X139600000Y-48050000D03*
%TD*%
%TO.C,Q17*%
X141600000Y-59500000D03*
X139600000Y-60450000D03*
X139600000Y-58550000D03*
%TD*%
%TO.C,Q16*%
X141600000Y-52500000D03*
X139600000Y-53450000D03*
X139600000Y-51550000D03*
%TD*%
%TO.C,Q15*%
X145300000Y-59500000D03*
X143300000Y-60450000D03*
X143300000Y-58550000D03*
%TD*%
%TO.C,Q14*%
X145300000Y-56000000D03*
X143300000Y-56950000D03*
X143300000Y-55050000D03*
%TD*%
%TO.C,Q13*%
X145300000Y-52500000D03*
X143300000Y-53450000D03*
X143300000Y-51550000D03*
%TD*%
%TO.C,Q12*%
X145300000Y-49000000D03*
X143300000Y-49950000D03*
X143300000Y-48050000D03*
%TD*%
%TO.C,Q8*%
X145300000Y-63350000D03*
X143300000Y-64300000D03*
X143300000Y-62400000D03*
%TD*%
%TO.C,Q7*%
X149000000Y-63350000D03*
X147000000Y-64300000D03*
X147000000Y-62400000D03*
%TD*%
%TO.C,Q6*%
X149000000Y-59850000D03*
X147000000Y-60800000D03*
X147000000Y-58900000D03*
%TD*%
%TO.C,Q5*%
X149000000Y-56350000D03*
X147000000Y-57300000D03*
X147000000Y-55400000D03*
%TD*%
%TO.C,Q4*%
X149000000Y-52850000D03*
X147000000Y-53800000D03*
X147000000Y-51900000D03*
%TD*%
%TO.C,Q3*%
X149000000Y-49350000D03*
X147000000Y-50300000D03*
X147000000Y-48400000D03*
%TD*%
%TO.C,Q2*%
X149000000Y-45850000D03*
X147000000Y-46800000D03*
X147000000Y-44900000D03*
%TD*%
%TO.C,Q1*%
X149000000Y-42350000D03*
X147000000Y-43300000D03*
X147000000Y-41400000D03*
%TD*%
D15*
%TO.C,RN1*%
X143110000Y-42950000D03*
X144450000Y-42950000D03*
X140450000Y-42950000D03*
X141790000Y-42950000D03*
X143110000Y-45950000D03*
X141790000Y-45950000D03*
X144450000Y-45950000D03*
X140450000Y-45950000D03*
%TD*%
M02*
