%TF.GenerationSoftware,KiCad,Pcbnew,(5.1.9)-1*%
%TF.CreationDate,2022-08-29T18:21:33+02:00*%
%TF.ProjectId,mux,6d75782e-6b69-4636-9164-5f7063625858,rev?*%
%TF.SameCoordinates,Original*%
%TF.FileFunction,Paste,Bot*%
%TF.FilePolarity,Positive*%
%FSLAX46Y46*%
G04 Gerber Fmt 4.6, Leading zero omitted, Abs format (unit mm)*
G04 Created by KiCad (PCBNEW (5.1.9)-1) date 2022-08-29 18:21:33*
%MOMM*%
%LPD*%
G01*
G04 APERTURE LIST*
%ADD10R,0.900000X0.900000*%
%ADD11R,0.900000X0.800000*%
G04 APERTURE END LIST*
D10*
%TO.C,RN2*%
X141790000Y-42950000D03*
X140450000Y-42950000D03*
X144450000Y-42950000D03*
X143110000Y-42950000D03*
X141790000Y-45950000D03*
X143110000Y-45950000D03*
X140450000Y-45950000D03*
X144450000Y-45950000D03*
%TD*%
D11*
%TO.C,Q34*%
X143300000Y-63350000D03*
X145300000Y-64300000D03*
X145300000Y-62400000D03*
%TD*%
%TO.C,Q33*%
X147000000Y-63350000D03*
X149000000Y-64300000D03*
X149000000Y-62400000D03*
%TD*%
%TO.C,Q32*%
X147000000Y-59850000D03*
X149000000Y-60800000D03*
X149000000Y-58900000D03*
%TD*%
%TO.C,Q31*%
X147000000Y-56350000D03*
X149000000Y-57300000D03*
X149000000Y-55400000D03*
%TD*%
%TO.C,Q30*%
X147000000Y-52850000D03*
X149000000Y-53800000D03*
X149000000Y-51900000D03*
%TD*%
%TO.C,Q29*%
X147000000Y-49350000D03*
X149000000Y-50300000D03*
X149000000Y-48400000D03*
%TD*%
%TO.C,Q28*%
X147000000Y-45850000D03*
X149000000Y-46800000D03*
X149000000Y-44900000D03*
%TD*%
%TO.C,Q27*%
X147000000Y-42350000D03*
X149000000Y-43300000D03*
X149000000Y-41400000D03*
%TD*%
%TO.C,Q26*%
X139600000Y-59850000D03*
X141600000Y-60800000D03*
X141600000Y-58900000D03*
%TD*%
%TO.C,Q25*%
X139600000Y-63350000D03*
X141600000Y-64300000D03*
X141600000Y-62400000D03*
%TD*%
%TO.C,Q24*%
X139600000Y-49350000D03*
X141600000Y-50300000D03*
X141600000Y-48400000D03*
%TD*%
%TO.C,Q23*%
X143300000Y-59850000D03*
X145300000Y-60800000D03*
X145300000Y-58900000D03*
%TD*%
%TO.C,Q22*%
X143300000Y-56350000D03*
X145300000Y-57300000D03*
X145300000Y-55400000D03*
%TD*%
%TO.C,Q21*%
X143300000Y-52850000D03*
X145300000Y-53800000D03*
X145300000Y-51900000D03*
%TD*%
%TO.C,Q20*%
X143300000Y-49350000D03*
X145300000Y-50300000D03*
X145300000Y-48400000D03*
%TD*%
%TO.C,Q19*%
X139600000Y-56350000D03*
X141600000Y-57300000D03*
X141600000Y-55400000D03*
%TD*%
%TO.C,Q18*%
X139600000Y-52850000D03*
X141600000Y-53800000D03*
X141600000Y-51900000D03*
%TD*%
M02*
