M48
; DRILL file {KiCad (5.1.9)-1} date 08/29/22 18:21:36
; FORMAT={-:-/ absolute / metric / decimal}
; #@! TF.CreationDate,2022-08-29T18:21:36+02:00
; #@! TF.GenerationSoftware,Kicad,Pcbnew,(5.1.9)-1
; #@! TF.FileFunction,Plated,1,2,PTH
FMAT,2
METRIC
T1C0.300
T2C1.000
%
G90
G05
T1
X138.33Y-53.45
X138.38Y-57.4
X139.6Y-47.14
X140.134Y-61.444
X140.6Y-64.05
X142.175Y-62.375
X142.452Y-65.149
X144.0Y-58.565
X144.25Y-65.165
X144.3Y-44.8
X145.37Y-41.4
X146.625Y-44.15
T2
X136.46Y-46.5
X136.46Y-49.04
X136.46Y-51.58
X136.46Y-54.12
X136.46Y-56.66
X136.46Y-59.2
X151.7Y-43.96
X151.7Y-46.5
X151.7Y-49.04
X151.7Y-51.58
X151.7Y-54.12
X151.7Y-56.66
X151.7Y-59.2
X151.7Y-61.74
T0
M30
