%TF.GenerationSoftware,KiCad,Pcbnew,(5.1.9)-1*%
%TF.CreationDate,2022-09-01T14:45:20+02:00*%
%TF.ProjectId,decode,6465636f-6465-42e6-9b69-6361645f7063,rev?*%
%TF.SameCoordinates,Original*%
%TF.FileFunction,Copper,L2,Bot*%
%TF.FilePolarity,Positive*%
%FSLAX46Y46*%
G04 Gerber Fmt 4.6, Leading zero omitted, Abs format (unit mm)*
G04 Created by KiCad (PCBNEW (5.1.9)-1) date 2022-09-01 14:45:20*
%MOMM*%
%LPD*%
G01*
G04 APERTURE LIST*
%TA.AperFunction,ComponentPad*%
%ADD10C,2.000000*%
%TD*%
%TA.AperFunction,ViaPad*%
%ADD11C,0.500000*%
%TD*%
%TA.AperFunction,Conductor*%
%ADD12C,0.200000*%
%TD*%
G04 APERTURE END LIST*
D10*
%TO.P,TP16,1*%
%TO.N,/I5*%
X184000000Y-69200000D03*
%TD*%
%TO.P,TP14,1*%
%TO.N,/I0-3*%
X156000000Y-69200000D03*
%TD*%
%TO.P,TP13,1*%
%TO.N,/C5*%
X180000000Y-72600000D03*
%TD*%
%TO.P,TP12,1*%
%TO.N,/C4*%
X176000000Y-72600000D03*
%TD*%
%TO.P,TP11,1*%
%TO.N,/C3*%
X172000000Y-72600000D03*
%TD*%
%TO.P,TP10,1*%
%TO.N,/C2*%
X168000000Y-72600000D03*
%TD*%
%TO.P,TP9,1*%
%TO.N,/C1*%
X164000000Y-72600000D03*
%TD*%
%TO.P,TP8,1*%
%TO.N,/C0*%
X160000000Y-72600000D03*
%TD*%
%TO.P,TP7,1*%
%TO.N,/Y7*%
X184000000Y-65450000D03*
%TD*%
%TO.P,TP6,1*%
%TO.N,/Y6*%
X156000000Y-65450000D03*
%TD*%
%TO.P,TP5,1*%
%TO.N,/Y5*%
X184000000Y-62050000D03*
%TD*%
%TO.P,TP4,1*%
%TO.N,/Y4*%
X156000000Y-62050000D03*
%TD*%
%TO.P,TP3,1*%
%TO.N,/Y3*%
X184000000Y-58650000D03*
%TD*%
%TO.P,TP2,1*%
%TO.N,/Y2*%
X156000000Y-58650000D03*
%TD*%
%TO.P,TP1,1*%
%TO.N,/Y1*%
X184000000Y-55250000D03*
%TD*%
%TO.P,TP0,1*%
%TO.N,/Y0*%
X156000000Y-55250000D03*
%TD*%
D11*
%TO.N,/Y0*%
X160000000Y-54400000D03*
X164000000Y-54400000D03*
X168000000Y-54400000D03*
X172000000Y-54400000D03*
X176000000Y-54400000D03*
X180000000Y-54400000D03*
%TO.N,/Y1*%
X160000000Y-56100000D03*
X164000000Y-56100000D03*
X168000000Y-56100000D03*
X172000000Y-56100000D03*
X176000000Y-56100000D03*
X180000000Y-56100000D03*
%TO.N,/Y2*%
X160000000Y-57800000D03*
X164000000Y-57800000D03*
X168000000Y-57800000D03*
X172000000Y-57800000D03*
X176000000Y-57800000D03*
X180000000Y-57800000D03*
%TO.N,/Y3*%
X160000000Y-59500000D03*
X164000000Y-59500000D03*
X168000000Y-59500000D03*
X172000000Y-59500000D03*
X176000000Y-59500000D03*
X180000000Y-59500000D03*
%TO.N,/Y4*%
X160000000Y-61200000D03*
X164000000Y-61200000D03*
X168000000Y-61200000D03*
X172000000Y-61200000D03*
X176000000Y-61200000D03*
X180000000Y-61200000D03*
%TO.N,/Y5*%
X160000000Y-62900000D03*
X164000000Y-62900000D03*
X168000000Y-62900000D03*
X172000000Y-62900000D03*
X176000000Y-62900000D03*
X180000000Y-62900000D03*
%TO.N,/Y6*%
X160000000Y-64600000D03*
X164000000Y-64600000D03*
X168000000Y-64600000D03*
X172000000Y-64600000D03*
X176000000Y-64600000D03*
X180000000Y-64600000D03*
%TO.N,/Y7*%
X160000000Y-66300000D03*
X164000000Y-66300000D03*
X168000000Y-66300000D03*
X172000000Y-66300000D03*
X176000000Y-66300000D03*
X180000000Y-66300000D03*
%TD*%
D12*
%TO.N,/Y0*%
X160000000Y-54400000D02*
X164000000Y-54400000D01*
X164000000Y-54400000D02*
X168000000Y-54400000D01*
X168000000Y-54400000D02*
X172000000Y-54400000D01*
X172000000Y-54400000D02*
X176000000Y-54400000D01*
X176000000Y-54400000D02*
X180000000Y-54400000D01*
%TO.N,/Y1*%
X160000000Y-56100000D02*
X164000000Y-56100000D01*
X164000000Y-56100000D02*
X168000000Y-56100000D01*
X168000000Y-56100000D02*
X172000000Y-56100000D01*
X172000000Y-56100000D02*
X176000000Y-56100000D01*
X176000000Y-56100000D02*
X180000000Y-56100000D01*
%TO.N,/Y2*%
X160000000Y-57800000D02*
X164000000Y-57800000D01*
X164000000Y-57800000D02*
X168000000Y-57800000D01*
X168000000Y-57800000D02*
X172000000Y-57800000D01*
X172000000Y-57800000D02*
X176000000Y-57800000D01*
X176000000Y-57800000D02*
X180000000Y-57800000D01*
%TO.N,/Y3*%
X160000000Y-59500000D02*
X164000000Y-59500000D01*
X164000000Y-59500000D02*
X168000000Y-59500000D01*
X168000000Y-59500000D02*
X172000000Y-59500000D01*
X172000000Y-59500000D02*
X176000000Y-59500000D01*
X176000000Y-59500000D02*
X180000000Y-59500000D01*
%TO.N,/Y4*%
X160000000Y-61200000D02*
X164000000Y-61200000D01*
X164000000Y-61200000D02*
X168000000Y-61200000D01*
X168000000Y-61200000D02*
X172000000Y-61200000D01*
X172000000Y-61200000D02*
X176000000Y-61200000D01*
X176000000Y-61200000D02*
X180000000Y-61200000D01*
%TO.N,/Y5*%
X160000000Y-62900000D02*
X164000000Y-62900000D01*
X164000000Y-62900000D02*
X168000000Y-62900000D01*
X168000000Y-62900000D02*
X172000000Y-62900000D01*
X172000000Y-62900000D02*
X176000000Y-62900000D01*
X176000000Y-62900000D02*
X180000000Y-62900000D01*
%TO.N,/Y6*%
X160000000Y-64600000D02*
X164000000Y-64600000D01*
X164000000Y-64600000D02*
X168000000Y-64600000D01*
X168000000Y-64600000D02*
X172000000Y-64600000D01*
X172000000Y-64600000D02*
X176000000Y-64600000D01*
X176000000Y-64600000D02*
X180000000Y-64600000D01*
%TO.N,/Y7*%
X160000000Y-66300000D02*
X164000000Y-66300000D01*
X164000000Y-66300000D02*
X168000000Y-66300000D01*
X168000000Y-66300000D02*
X172000000Y-66300000D01*
X172000000Y-66300000D02*
X176000000Y-66300000D01*
X176000000Y-66300000D02*
X180000000Y-66300000D01*
%TO.N,/Y0*%
X156850000Y-54400000D02*
X156000000Y-55250000D01*
X160000000Y-54400000D02*
X156850000Y-54400000D01*
%TO.N,/Y1*%
X183150000Y-56100000D02*
X184000000Y-55250000D01*
X180000000Y-56100000D02*
X183150000Y-56100000D01*
%TO.N,/Y2*%
X156850000Y-57800000D02*
X156000000Y-58650000D01*
X160000000Y-57800000D02*
X156850000Y-57800000D01*
%TO.N,/Y3*%
X183150000Y-59500000D02*
X184000000Y-58650000D01*
X180000000Y-59500000D02*
X183150000Y-59500000D01*
%TO.N,/Y4*%
X156850000Y-61200000D02*
X156000000Y-62050000D01*
X160000000Y-61200000D02*
X156850000Y-61200000D01*
%TO.N,/Y5*%
X183150000Y-62900000D02*
X184000000Y-62050000D01*
X180000000Y-62900000D02*
X183150000Y-62900000D01*
%TO.N,/Y6*%
X156850000Y-64600000D02*
X156000000Y-65450000D01*
X160000000Y-64600000D02*
X156850000Y-64600000D01*
%TO.N,/Y7*%
X183150000Y-66300000D02*
X184000000Y-65450000D01*
X180000000Y-66300000D02*
X183150000Y-66300000D01*
%TD*%
M02*
