%TF.GenerationSoftware,KiCad,Pcbnew,(5.1.9)-1*%
%TF.CreationDate,2022-09-01T14:45:20+02:00*%
%TF.ProjectId,decode,6465636f-6465-42e6-9b69-6361645f7063,rev?*%
%TF.SameCoordinates,Original*%
%TF.FileFunction,Soldermask,Top*%
%TF.FilePolarity,Negative*%
%FSLAX46Y46*%
G04 Gerber Fmt 4.6, Leading zero omitted, Abs format (unit mm)*
G04 Created by KiCad (PCBNEW (5.1.9)-1) date 2022-09-01 14:45:20*
%MOMM*%
%LPD*%
G01*
G04 APERTURE LIST*
%ADD10R,1.300000X1.000000*%
%ADD11C,2.000000*%
%ADD12R,0.800000X0.900000*%
%ADD13C,0.100000*%
G04 APERTURE END LIST*
D10*
%TO.C,D57*%
X178900000Y-66300000D03*
X181100000Y-66300000D03*
%TD*%
%TO.C,D56*%
X178900000Y-64600000D03*
X181100000Y-64600000D03*
%TD*%
%TO.C,D55*%
X178900000Y-62900000D03*
X181100000Y-62900000D03*
%TD*%
%TO.C,D54*%
X178900000Y-61200000D03*
X181100000Y-61200000D03*
%TD*%
%TO.C,D53*%
X178900000Y-59500000D03*
X181100000Y-59500000D03*
%TD*%
%TO.C,D52*%
X178900000Y-57800000D03*
X181100000Y-57800000D03*
%TD*%
%TO.C,D51*%
X178900000Y-56100000D03*
X181100000Y-56100000D03*
%TD*%
%TO.C,D50*%
X178900000Y-54400000D03*
X181100000Y-54400000D03*
%TD*%
%TO.C,D47*%
X174900000Y-66300000D03*
X177100000Y-66300000D03*
%TD*%
%TO.C,D46*%
X174900000Y-64600000D03*
X177100000Y-64600000D03*
%TD*%
%TO.C,D45*%
X174900000Y-62900000D03*
X177100000Y-62900000D03*
%TD*%
%TO.C,D44*%
X174900000Y-61200000D03*
X177100000Y-61200000D03*
%TD*%
%TO.C,D43*%
X174900000Y-59500000D03*
X177100000Y-59500000D03*
%TD*%
%TO.C,D42*%
X174900000Y-57800000D03*
X177100000Y-57800000D03*
%TD*%
%TO.C,D41*%
X174900000Y-56100000D03*
X177100000Y-56100000D03*
%TD*%
%TO.C,D40*%
X174900000Y-54400000D03*
X177100000Y-54400000D03*
%TD*%
%TO.C,D37*%
X170900000Y-66300000D03*
X173100000Y-66300000D03*
%TD*%
%TO.C,D36*%
X170900000Y-64600000D03*
X173100000Y-64600000D03*
%TD*%
%TO.C,D35*%
X170900000Y-62900000D03*
X173100000Y-62900000D03*
%TD*%
%TO.C,D34*%
X170900000Y-61200000D03*
X173100000Y-61200000D03*
%TD*%
%TO.C,D33*%
X170900000Y-59500000D03*
X173100000Y-59500000D03*
%TD*%
%TO.C,D32*%
X170900000Y-57800000D03*
X173100000Y-57800000D03*
%TD*%
%TO.C,D31*%
X170900000Y-56100000D03*
X173100000Y-56100000D03*
%TD*%
%TO.C,D30*%
X170900000Y-54400000D03*
X173100000Y-54400000D03*
%TD*%
%TO.C,D27*%
X166900000Y-66300000D03*
X169100000Y-66300000D03*
%TD*%
%TO.C,D26*%
X166900000Y-64600000D03*
X169100000Y-64600000D03*
%TD*%
%TO.C,D25*%
X166900000Y-62900000D03*
X169100000Y-62900000D03*
%TD*%
%TO.C,D24*%
X166900000Y-61200000D03*
X169100000Y-61200000D03*
%TD*%
%TO.C,D23*%
X166900000Y-59500000D03*
X169100000Y-59500000D03*
%TD*%
%TO.C,D22*%
X166900000Y-57800000D03*
X169100000Y-57800000D03*
%TD*%
%TO.C,D21*%
X166900000Y-56100000D03*
X169100000Y-56100000D03*
%TD*%
%TO.C,D20*%
X166900000Y-54400000D03*
X169100000Y-54400000D03*
%TD*%
%TO.C,D17*%
X162900000Y-66300000D03*
X165100000Y-66300000D03*
%TD*%
%TO.C,D16*%
X162900000Y-64600000D03*
X165100000Y-64600000D03*
%TD*%
%TO.C,D15*%
X162900000Y-62900000D03*
X165100000Y-62900000D03*
%TD*%
%TO.C,D14*%
X162900000Y-61200000D03*
X165100000Y-61200000D03*
%TD*%
%TO.C,D13*%
X162900000Y-59500000D03*
X165100000Y-59500000D03*
%TD*%
%TO.C,D12*%
X162900000Y-57800000D03*
X165100000Y-57800000D03*
%TD*%
%TO.C,D11*%
X162900000Y-56100000D03*
X165100000Y-56100000D03*
%TD*%
%TO.C,D10*%
X162900000Y-54400000D03*
X165100000Y-54400000D03*
%TD*%
%TO.C,D7*%
X158900000Y-66300000D03*
X161100000Y-66300000D03*
%TD*%
%TO.C,D6*%
X158900000Y-64600000D03*
X161100000Y-64600000D03*
%TD*%
%TO.C,D5*%
X158900000Y-62900000D03*
X161100000Y-62900000D03*
%TD*%
%TO.C,D4*%
X158900000Y-61200000D03*
X161100000Y-61200000D03*
%TD*%
%TO.C,D3*%
X158900000Y-59500000D03*
X161100000Y-59500000D03*
%TD*%
%TO.C,D2*%
X158900000Y-57800000D03*
X161100000Y-57800000D03*
%TD*%
%TO.C,D1*%
X158900000Y-56100000D03*
X161100000Y-56100000D03*
%TD*%
%TO.C,D0*%
X158900000Y-54400000D03*
X161100000Y-54400000D03*
%TD*%
D11*
%TO.C,TP16*%
X184000000Y-69200000D03*
%TD*%
%TO.C,TP14*%
X156000000Y-69200000D03*
%TD*%
%TO.C,TP13*%
X180000000Y-72600000D03*
%TD*%
%TO.C,TP12*%
X176000000Y-72600000D03*
%TD*%
%TO.C,TP11*%
X172000000Y-72600000D03*
%TD*%
%TO.C,TP10*%
X168000000Y-72600000D03*
%TD*%
%TO.C,TP9*%
X164000000Y-72600000D03*
%TD*%
%TO.C,TP8*%
X160000000Y-72600000D03*
%TD*%
%TO.C,TP7*%
X184000000Y-65450000D03*
%TD*%
%TO.C,TP6*%
X156000000Y-65450000D03*
%TD*%
%TO.C,TP5*%
X184000000Y-62050000D03*
%TD*%
%TO.C,TP4*%
X156000000Y-62050000D03*
%TD*%
%TO.C,TP3*%
X184000000Y-58650000D03*
%TD*%
%TO.C,TP2*%
X156000000Y-58650000D03*
%TD*%
%TO.C,TP1*%
X184000000Y-55250000D03*
%TD*%
%TO.C,TP0*%
X156000000Y-55250000D03*
%TD*%
D12*
%TO.C,Q5*%
X180000000Y-68200000D03*
X180950000Y-70200000D03*
X179050000Y-70200000D03*
%TD*%
%TO.C,Q4*%
X176000000Y-68200000D03*
X176950000Y-70200000D03*
X175050000Y-70200000D03*
%TD*%
%TO.C,Q3*%
X172000000Y-68200000D03*
X172950000Y-70200000D03*
X171050000Y-70200000D03*
%TD*%
%TO.C,Q2*%
X168000000Y-68200000D03*
X168950000Y-70200000D03*
X167050000Y-70200000D03*
%TD*%
%TO.C,Q1*%
X164000000Y-68200000D03*
X164950000Y-70200000D03*
X163050000Y-70200000D03*
%TD*%
%TO.C,Q0*%
X160000000Y-68200000D03*
X160950000Y-70200000D03*
X159050000Y-70200000D03*
%TD*%
D13*
%TO.C,JP1*%
G36*
X183250000Y-72450000D02*
G01*
X183250000Y-71950000D01*
X183250602Y-71950000D01*
X183250602Y-71925466D01*
X183255412Y-71876635D01*
X183264984Y-71828510D01*
X183279228Y-71781555D01*
X183298005Y-71736222D01*
X183321136Y-71692949D01*
X183348396Y-71652150D01*
X183379524Y-71614221D01*
X183414221Y-71579524D01*
X183452150Y-71548396D01*
X183492949Y-71521136D01*
X183536222Y-71498005D01*
X183581555Y-71479228D01*
X183628510Y-71464984D01*
X183676635Y-71455412D01*
X183725466Y-71450602D01*
X183750000Y-71450602D01*
X183750000Y-71450000D01*
X184250000Y-71450000D01*
X184250000Y-71450602D01*
X184274534Y-71450602D01*
X184323365Y-71455412D01*
X184371490Y-71464984D01*
X184418445Y-71479228D01*
X184463778Y-71498005D01*
X184507051Y-71521136D01*
X184547850Y-71548396D01*
X184585779Y-71579524D01*
X184620476Y-71614221D01*
X184651604Y-71652150D01*
X184678864Y-71692949D01*
X184701995Y-71736222D01*
X184720772Y-71781555D01*
X184735016Y-71828510D01*
X184744588Y-71876635D01*
X184749398Y-71925466D01*
X184749398Y-71950000D01*
X184750000Y-71950000D01*
X184750000Y-72450000D01*
X183250000Y-72450000D01*
G37*
G36*
X184749398Y-73250000D02*
G01*
X184749398Y-73274534D01*
X184744588Y-73323365D01*
X184735016Y-73371490D01*
X184720772Y-73418445D01*
X184701995Y-73463778D01*
X184678864Y-73507051D01*
X184651604Y-73547850D01*
X184620476Y-73585779D01*
X184585779Y-73620476D01*
X184547850Y-73651604D01*
X184507051Y-73678864D01*
X184463778Y-73701995D01*
X184418445Y-73720772D01*
X184371490Y-73735016D01*
X184323365Y-73744588D01*
X184274534Y-73749398D01*
X184250000Y-73749398D01*
X184250000Y-73750000D01*
X183750000Y-73750000D01*
X183750000Y-73749398D01*
X183725466Y-73749398D01*
X183676635Y-73744588D01*
X183628510Y-73735016D01*
X183581555Y-73720772D01*
X183536222Y-73701995D01*
X183492949Y-73678864D01*
X183452150Y-73651604D01*
X183414221Y-73620476D01*
X183379524Y-73585779D01*
X183348396Y-73547850D01*
X183321136Y-73507051D01*
X183298005Y-73463778D01*
X183279228Y-73418445D01*
X183264984Y-73371490D01*
X183255412Y-73323365D01*
X183250602Y-73274534D01*
X183250602Y-73250000D01*
X183250000Y-73250000D01*
X183250000Y-72750000D01*
X184750000Y-72750000D01*
X184750000Y-73250000D01*
X184749398Y-73250000D01*
G37*
%TD*%
%TO.C,JP0*%
G36*
X156750000Y-72750000D02*
G01*
X156750000Y-73250000D01*
X156749398Y-73250000D01*
X156749398Y-73274534D01*
X156744588Y-73323365D01*
X156735016Y-73371490D01*
X156720772Y-73418445D01*
X156701995Y-73463778D01*
X156678864Y-73507051D01*
X156651604Y-73547850D01*
X156620476Y-73585779D01*
X156585779Y-73620476D01*
X156547850Y-73651604D01*
X156507051Y-73678864D01*
X156463778Y-73701995D01*
X156418445Y-73720772D01*
X156371490Y-73735016D01*
X156323365Y-73744588D01*
X156274534Y-73749398D01*
X156250000Y-73749398D01*
X156250000Y-73750000D01*
X155750000Y-73750000D01*
X155750000Y-73749398D01*
X155725466Y-73749398D01*
X155676635Y-73744588D01*
X155628510Y-73735016D01*
X155581555Y-73720772D01*
X155536222Y-73701995D01*
X155492949Y-73678864D01*
X155452150Y-73651604D01*
X155414221Y-73620476D01*
X155379524Y-73585779D01*
X155348396Y-73547850D01*
X155321136Y-73507051D01*
X155298005Y-73463778D01*
X155279228Y-73418445D01*
X155264984Y-73371490D01*
X155255412Y-73323365D01*
X155250602Y-73274534D01*
X155250602Y-73250000D01*
X155250000Y-73250000D01*
X155250000Y-72750000D01*
X156750000Y-72750000D01*
G37*
G36*
X155250602Y-71950000D02*
G01*
X155250602Y-71925466D01*
X155255412Y-71876635D01*
X155264984Y-71828510D01*
X155279228Y-71781555D01*
X155298005Y-71736222D01*
X155321136Y-71692949D01*
X155348396Y-71652150D01*
X155379524Y-71614221D01*
X155414221Y-71579524D01*
X155452150Y-71548396D01*
X155492949Y-71521136D01*
X155536222Y-71498005D01*
X155581555Y-71479228D01*
X155628510Y-71464984D01*
X155676635Y-71455412D01*
X155725466Y-71450602D01*
X155750000Y-71450602D01*
X155750000Y-71450000D01*
X156250000Y-71450000D01*
X156250000Y-71450602D01*
X156274534Y-71450602D01*
X156323365Y-71455412D01*
X156371490Y-71464984D01*
X156418445Y-71479228D01*
X156463778Y-71498005D01*
X156507051Y-71521136D01*
X156547850Y-71548396D01*
X156585779Y-71579524D01*
X156620476Y-71614221D01*
X156651604Y-71652150D01*
X156678864Y-71692949D01*
X156701995Y-71736222D01*
X156720772Y-71781555D01*
X156735016Y-71828510D01*
X156744588Y-71876635D01*
X156749398Y-71925466D01*
X156749398Y-71950000D01*
X156750000Y-71950000D01*
X156750000Y-72450000D01*
X155250000Y-72450000D01*
X155250000Y-71950000D01*
X155250602Y-71950000D01*
G37*
%TD*%
M02*
