M48
; DRILL file {KiCad (5.1.9)-1} date 09/01/22 14:45:22
; FORMAT={-:-/ absolute / metric / decimal}
; #@! TF.CreationDate,2022-09-01T14:45:22+02:00
; #@! TF.GenerationSoftware,Kicad,Pcbnew,(5.1.9)-1
; #@! TF.FileFunction,Plated,1,2,PTH
FMAT,2
METRIC
T1C0.300
T2C1.000
%
G90
G05
T1
X160.0Y-54.4
X160.0Y-56.1
X160.0Y-57.8
X160.0Y-59.5
X160.0Y-61.2
X160.0Y-62.9
X160.0Y-64.6
X160.0Y-66.3
X164.0Y-54.4
X164.0Y-56.1
X164.0Y-57.8
X164.0Y-59.5
X164.0Y-61.2
X164.0Y-62.9
X164.0Y-64.6
X164.0Y-66.3
X168.0Y-54.4
X168.0Y-56.1
X168.0Y-57.8
X168.0Y-59.5
X168.0Y-61.2
X168.0Y-62.9
X168.0Y-64.6
X168.0Y-66.3
X172.0Y-54.4
X172.0Y-56.1
X172.0Y-57.8
X172.0Y-59.5
X172.0Y-61.2
X172.0Y-62.9
X172.0Y-64.6
X172.0Y-66.3
X176.0Y-54.4
X176.0Y-56.1
X176.0Y-57.8
X176.0Y-59.5
X176.0Y-61.2
X176.0Y-62.9
X176.0Y-64.6
X176.0Y-66.3
X180.0Y-54.4
X180.0Y-56.1
X180.0Y-57.8
X180.0Y-59.5
X180.0Y-61.2
X180.0Y-62.9
X180.0Y-64.6
X180.0Y-66.3
T2
X156.0Y-55.25
X156.0Y-58.65
X156.0Y-62.05
X156.0Y-65.45
X156.0Y-69.2
X160.0Y-72.6
X164.0Y-72.6
X168.0Y-72.6
X172.0Y-72.6
X176.0Y-72.6
X180.0Y-72.6
X184.0Y-55.25
X184.0Y-58.65
X184.0Y-62.05
X184.0Y-65.45
X184.0Y-69.2
T0
M30
