%TF.GenerationSoftware,KiCad,Pcbnew,(5.1.9)-1*%
%TF.CreationDate,2022-09-01T14:45:20+02:00*%
%TF.ProjectId,decode,6465636f-6465-42e6-9b69-6361645f7063,rev?*%
%TF.SameCoordinates,Original*%
%TF.FileFunction,Copper,L1,Top*%
%TF.FilePolarity,Positive*%
%FSLAX46Y46*%
G04 Gerber Fmt 4.6, Leading zero omitted, Abs format (unit mm)*
G04 Created by KiCad (PCBNEW (5.1.9)-1) date 2022-09-01 14:45:20*
%MOMM*%
%LPD*%
G01*
G04 APERTURE LIST*
%TA.AperFunction,EtchedComponent*%
%ADD10C,0.100000*%
%TD*%
%TA.AperFunction,SMDPad,CuDef*%
%ADD11R,1.300000X1.000000*%
%TD*%
%TA.AperFunction,ComponentPad*%
%ADD12C,2.000000*%
%TD*%
%TA.AperFunction,SMDPad,CuDef*%
%ADD13R,0.800000X0.900000*%
%TD*%
%TA.AperFunction,SMDPad,CuDef*%
%ADD14C,0.100000*%
%TD*%
%TA.AperFunction,ViaPad*%
%ADD15C,0.500000*%
%TD*%
%TA.AperFunction,Conductor*%
%ADD16C,0.200000*%
%TD*%
%TA.AperFunction,Conductor*%
%ADD17C,0.250000*%
%TD*%
G04 APERTURE END LIST*
D10*
%TO.C,JP1*%
G36*
X184300000Y-72850000D02*
G01*
X184300000Y-72350000D01*
X183700000Y-72350000D01*
X183700000Y-72850000D01*
X184300000Y-72850000D01*
G37*
%TO.C,JP0*%
G36*
X155700000Y-72350000D02*
G01*
X155700000Y-72850000D01*
X156300000Y-72850000D01*
X156300000Y-72350000D01*
X155700000Y-72350000D01*
G37*
%TD*%
D11*
%TO.P,D57,2*%
%TO.N,/Y7*%
X178900000Y-66300000D03*
%TO.P,D57,1*%
%TO.N,/X5*%
X181100000Y-66300000D03*
%TD*%
%TO.P,D56,2*%
%TO.N,/Y6*%
X178900000Y-64600000D03*
%TO.P,D56,1*%
%TO.N,/X5*%
X181100000Y-64600000D03*
%TD*%
%TO.P,D55,2*%
%TO.N,/Y5*%
X178900000Y-62900000D03*
%TO.P,D55,1*%
%TO.N,/X5*%
X181100000Y-62900000D03*
%TD*%
%TO.P,D54,2*%
%TO.N,/Y4*%
X178900000Y-61200000D03*
%TO.P,D54,1*%
%TO.N,/X5*%
X181100000Y-61200000D03*
%TD*%
%TO.P,D53,2*%
%TO.N,/Y3*%
X178900000Y-59500000D03*
%TO.P,D53,1*%
%TO.N,/X5*%
X181100000Y-59500000D03*
%TD*%
%TO.P,D52,2*%
%TO.N,/Y2*%
X178900000Y-57800000D03*
%TO.P,D52,1*%
%TO.N,/X5*%
X181100000Y-57800000D03*
%TD*%
%TO.P,D51,2*%
%TO.N,/Y1*%
X178900000Y-56100000D03*
%TO.P,D51,1*%
%TO.N,/X5*%
X181100000Y-56100000D03*
%TD*%
%TO.P,D50,2*%
%TO.N,/Y0*%
X178900000Y-54400000D03*
%TO.P,D50,1*%
%TO.N,/X5*%
X181100000Y-54400000D03*
%TD*%
%TO.P,D47,2*%
%TO.N,/Y7*%
X174900000Y-66300000D03*
%TO.P,D47,1*%
%TO.N,/X4*%
X177100000Y-66300000D03*
%TD*%
%TO.P,D46,2*%
%TO.N,/Y6*%
X174900000Y-64600000D03*
%TO.P,D46,1*%
%TO.N,/X4*%
X177100000Y-64600000D03*
%TD*%
%TO.P,D45,2*%
%TO.N,/Y5*%
X174900000Y-62900000D03*
%TO.P,D45,1*%
%TO.N,/X4*%
X177100000Y-62900000D03*
%TD*%
%TO.P,D44,2*%
%TO.N,/Y4*%
X174900000Y-61200000D03*
%TO.P,D44,1*%
%TO.N,/X4*%
X177100000Y-61200000D03*
%TD*%
%TO.P,D43,2*%
%TO.N,/Y3*%
X174900000Y-59500000D03*
%TO.P,D43,1*%
%TO.N,/X4*%
X177100000Y-59500000D03*
%TD*%
%TO.P,D42,2*%
%TO.N,/Y2*%
X174900000Y-57800000D03*
%TO.P,D42,1*%
%TO.N,/X4*%
X177100000Y-57800000D03*
%TD*%
%TO.P,D41,2*%
%TO.N,/Y1*%
X174900000Y-56100000D03*
%TO.P,D41,1*%
%TO.N,/X4*%
X177100000Y-56100000D03*
%TD*%
%TO.P,D40,2*%
%TO.N,/Y0*%
X174900000Y-54400000D03*
%TO.P,D40,1*%
%TO.N,/X4*%
X177100000Y-54400000D03*
%TD*%
%TO.P,D37,2*%
%TO.N,/Y7*%
X170900000Y-66300000D03*
%TO.P,D37,1*%
%TO.N,/X3*%
X173100000Y-66300000D03*
%TD*%
%TO.P,D36,2*%
%TO.N,/Y6*%
X170900000Y-64600000D03*
%TO.P,D36,1*%
%TO.N,/X3*%
X173100000Y-64600000D03*
%TD*%
%TO.P,D35,2*%
%TO.N,/Y5*%
X170900000Y-62900000D03*
%TO.P,D35,1*%
%TO.N,/X3*%
X173100000Y-62900000D03*
%TD*%
%TO.P,D34,2*%
%TO.N,/Y4*%
X170900000Y-61200000D03*
%TO.P,D34,1*%
%TO.N,/X3*%
X173100000Y-61200000D03*
%TD*%
%TO.P,D33,2*%
%TO.N,/Y3*%
X170900000Y-59500000D03*
%TO.P,D33,1*%
%TO.N,/X3*%
X173100000Y-59500000D03*
%TD*%
%TO.P,D32,2*%
%TO.N,/Y2*%
X170900000Y-57800000D03*
%TO.P,D32,1*%
%TO.N,/X3*%
X173100000Y-57800000D03*
%TD*%
%TO.P,D31,2*%
%TO.N,/Y1*%
X170900000Y-56100000D03*
%TO.P,D31,1*%
%TO.N,/X3*%
X173100000Y-56100000D03*
%TD*%
%TO.P,D30,2*%
%TO.N,/Y0*%
X170900000Y-54400000D03*
%TO.P,D30,1*%
%TO.N,/X3*%
X173100000Y-54400000D03*
%TD*%
%TO.P,D27,2*%
%TO.N,/Y7*%
X166900000Y-66300000D03*
%TO.P,D27,1*%
%TO.N,/X2*%
X169100000Y-66300000D03*
%TD*%
%TO.P,D26,2*%
%TO.N,/Y6*%
X166900000Y-64600000D03*
%TO.P,D26,1*%
%TO.N,/X2*%
X169100000Y-64600000D03*
%TD*%
%TO.P,D25,2*%
%TO.N,/Y5*%
X166900000Y-62900000D03*
%TO.P,D25,1*%
%TO.N,/X2*%
X169100000Y-62900000D03*
%TD*%
%TO.P,D24,2*%
%TO.N,/Y4*%
X166900000Y-61200000D03*
%TO.P,D24,1*%
%TO.N,/X2*%
X169100000Y-61200000D03*
%TD*%
%TO.P,D23,2*%
%TO.N,/Y3*%
X166900000Y-59500000D03*
%TO.P,D23,1*%
%TO.N,/X2*%
X169100000Y-59500000D03*
%TD*%
%TO.P,D22,2*%
%TO.N,/Y2*%
X166900000Y-57800000D03*
%TO.P,D22,1*%
%TO.N,/X2*%
X169100000Y-57800000D03*
%TD*%
%TO.P,D21,2*%
%TO.N,/Y1*%
X166900000Y-56100000D03*
%TO.P,D21,1*%
%TO.N,/X2*%
X169100000Y-56100000D03*
%TD*%
%TO.P,D20,2*%
%TO.N,/Y0*%
X166900000Y-54400000D03*
%TO.P,D20,1*%
%TO.N,/X2*%
X169100000Y-54400000D03*
%TD*%
%TO.P,D17,2*%
%TO.N,/Y7*%
X162900000Y-66300000D03*
%TO.P,D17,1*%
%TO.N,/X1*%
X165100000Y-66300000D03*
%TD*%
%TO.P,D16,2*%
%TO.N,/Y6*%
X162900000Y-64600000D03*
%TO.P,D16,1*%
%TO.N,/X1*%
X165100000Y-64600000D03*
%TD*%
%TO.P,D15,2*%
%TO.N,/Y5*%
X162900000Y-62900000D03*
%TO.P,D15,1*%
%TO.N,/X1*%
X165100000Y-62900000D03*
%TD*%
%TO.P,D14,2*%
%TO.N,/Y4*%
X162900000Y-61200000D03*
%TO.P,D14,1*%
%TO.N,/X1*%
X165100000Y-61200000D03*
%TD*%
%TO.P,D13,2*%
%TO.N,/Y3*%
X162900000Y-59500000D03*
%TO.P,D13,1*%
%TO.N,/X1*%
X165100000Y-59500000D03*
%TD*%
%TO.P,D12,2*%
%TO.N,/Y2*%
X162900000Y-57800000D03*
%TO.P,D12,1*%
%TO.N,/X1*%
X165100000Y-57800000D03*
%TD*%
%TO.P,D11,2*%
%TO.N,/Y1*%
X162900000Y-56100000D03*
%TO.P,D11,1*%
%TO.N,/X1*%
X165100000Y-56100000D03*
%TD*%
%TO.P,D10,2*%
%TO.N,/Y0*%
X162900000Y-54400000D03*
%TO.P,D10,1*%
%TO.N,/X1*%
X165100000Y-54400000D03*
%TD*%
%TO.P,D7,2*%
%TO.N,/Y7*%
X158900000Y-66300000D03*
%TO.P,D7,1*%
%TO.N,/X0*%
X161100000Y-66300000D03*
%TD*%
%TO.P,D6,2*%
%TO.N,/Y6*%
X158900000Y-64600000D03*
%TO.P,D6,1*%
%TO.N,/X0*%
X161100000Y-64600000D03*
%TD*%
%TO.P,D5,2*%
%TO.N,/Y5*%
X158900000Y-62900000D03*
%TO.P,D5,1*%
%TO.N,/X0*%
X161100000Y-62900000D03*
%TD*%
%TO.P,D4,2*%
%TO.N,/Y4*%
X158900000Y-61200000D03*
%TO.P,D4,1*%
%TO.N,/X0*%
X161100000Y-61200000D03*
%TD*%
%TO.P,D3,2*%
%TO.N,/Y3*%
X158900000Y-59500000D03*
%TO.P,D3,1*%
%TO.N,/X0*%
X161100000Y-59500000D03*
%TD*%
%TO.P,D2,2*%
%TO.N,/Y2*%
X158900000Y-57800000D03*
%TO.P,D2,1*%
%TO.N,/X0*%
X161100000Y-57800000D03*
%TD*%
%TO.P,D1,2*%
%TO.N,/Y1*%
X158900000Y-56100000D03*
%TO.P,D1,1*%
%TO.N,/X0*%
X161100000Y-56100000D03*
%TD*%
%TO.P,D0,2*%
%TO.N,/Y0*%
X158900000Y-54400000D03*
%TO.P,D0,1*%
%TO.N,/X0*%
X161100000Y-54400000D03*
%TD*%
D12*
%TO.P,TP16,1*%
%TO.N,/I5*%
X184000000Y-69200000D03*
%TD*%
%TO.P,TP14,1*%
%TO.N,/I0-3*%
X156000000Y-69200000D03*
%TD*%
%TO.P,TP13,1*%
%TO.N,/C5*%
X180000000Y-72600000D03*
%TD*%
%TO.P,TP12,1*%
%TO.N,/C4*%
X176000000Y-72600000D03*
%TD*%
%TO.P,TP11,1*%
%TO.N,/C3*%
X172000000Y-72600000D03*
%TD*%
%TO.P,TP10,1*%
%TO.N,/C2*%
X168000000Y-72600000D03*
%TD*%
%TO.P,TP9,1*%
%TO.N,/C1*%
X164000000Y-72600000D03*
%TD*%
%TO.P,TP8,1*%
%TO.N,/C0*%
X160000000Y-72600000D03*
%TD*%
%TO.P,TP7,1*%
%TO.N,/Y7*%
X184000000Y-65450000D03*
%TD*%
%TO.P,TP6,1*%
%TO.N,/Y6*%
X156000000Y-65450000D03*
%TD*%
%TO.P,TP5,1*%
%TO.N,/Y5*%
X184000000Y-62050000D03*
%TD*%
%TO.P,TP4,1*%
%TO.N,/Y4*%
X156000000Y-62050000D03*
%TD*%
%TO.P,TP3,1*%
%TO.N,/Y3*%
X184000000Y-58650000D03*
%TD*%
%TO.P,TP2,1*%
%TO.N,/Y2*%
X156000000Y-58650000D03*
%TD*%
%TO.P,TP1,1*%
%TO.N,/Y1*%
X184000000Y-55250000D03*
%TD*%
%TO.P,TP0,1*%
%TO.N,/Y0*%
X156000000Y-55250000D03*
%TD*%
D13*
%TO.P,Q5,3*%
%TO.N,/X5*%
X180000000Y-68200000D03*
%TO.P,Q5,2*%
%TO.N,/I5*%
X180950000Y-70200000D03*
%TO.P,Q5,1*%
%TO.N,/C5*%
X179050000Y-70200000D03*
%TD*%
%TO.P,Q4,3*%
%TO.N,/X4*%
X176000000Y-68200000D03*
%TO.P,Q4,2*%
%TO.N,/I4*%
X176950000Y-70200000D03*
%TO.P,Q4,1*%
%TO.N,/C4*%
X175050000Y-70200000D03*
%TD*%
%TO.P,Q3,3*%
%TO.N,/X3*%
X172000000Y-68200000D03*
%TO.P,Q3,2*%
%TO.N,/I0-3*%
X172950000Y-70200000D03*
%TO.P,Q3,1*%
%TO.N,/C3*%
X171050000Y-70200000D03*
%TD*%
%TO.P,Q2,3*%
%TO.N,/X2*%
X168000000Y-68200000D03*
%TO.P,Q2,2*%
%TO.N,/I0-3*%
X168950000Y-70200000D03*
%TO.P,Q2,1*%
%TO.N,/C2*%
X167050000Y-70200000D03*
%TD*%
%TO.P,Q1,3*%
%TO.N,/X1*%
X164000000Y-68200000D03*
%TO.P,Q1,2*%
%TO.N,/I0-3*%
X164950000Y-70200000D03*
%TO.P,Q1,1*%
%TO.N,/C1*%
X163050000Y-70200000D03*
%TD*%
%TO.P,Q0,3*%
%TO.N,/X0*%
X160000000Y-68200000D03*
%TO.P,Q0,2*%
%TO.N,/I0-3*%
X160950000Y-70200000D03*
%TO.P,Q0,1*%
%TO.N,/C0*%
X159050000Y-70200000D03*
%TD*%
%TA.AperFunction,SMDPad,CuDef*%
D14*
%TO.P,JP1,1*%
%TO.N,/I5*%
G36*
X183250000Y-72450000D02*
G01*
X183250000Y-71950000D01*
X183250602Y-71950000D01*
X183250602Y-71925466D01*
X183255412Y-71876635D01*
X183264984Y-71828510D01*
X183279228Y-71781555D01*
X183298005Y-71736222D01*
X183321136Y-71692949D01*
X183348396Y-71652150D01*
X183379524Y-71614221D01*
X183414221Y-71579524D01*
X183452150Y-71548396D01*
X183492949Y-71521136D01*
X183536222Y-71498005D01*
X183581555Y-71479228D01*
X183628510Y-71464984D01*
X183676635Y-71455412D01*
X183725466Y-71450602D01*
X183750000Y-71450602D01*
X183750000Y-71450000D01*
X184250000Y-71450000D01*
X184250000Y-71450602D01*
X184274534Y-71450602D01*
X184323365Y-71455412D01*
X184371490Y-71464984D01*
X184418445Y-71479228D01*
X184463778Y-71498005D01*
X184507051Y-71521136D01*
X184547850Y-71548396D01*
X184585779Y-71579524D01*
X184620476Y-71614221D01*
X184651604Y-71652150D01*
X184678864Y-71692949D01*
X184701995Y-71736222D01*
X184720772Y-71781555D01*
X184735016Y-71828510D01*
X184744588Y-71876635D01*
X184749398Y-71925466D01*
X184749398Y-71950000D01*
X184750000Y-71950000D01*
X184750000Y-72450000D01*
X183250000Y-72450000D01*
G37*
%TD.AperFunction*%
%TA.AperFunction,SMDPad,CuDef*%
%TO.P,JP1,2*%
%TO.N,/I4*%
G36*
X184749398Y-73250000D02*
G01*
X184749398Y-73274534D01*
X184744588Y-73323365D01*
X184735016Y-73371490D01*
X184720772Y-73418445D01*
X184701995Y-73463778D01*
X184678864Y-73507051D01*
X184651604Y-73547850D01*
X184620476Y-73585779D01*
X184585779Y-73620476D01*
X184547850Y-73651604D01*
X184507051Y-73678864D01*
X184463778Y-73701995D01*
X184418445Y-73720772D01*
X184371490Y-73735016D01*
X184323365Y-73744588D01*
X184274534Y-73749398D01*
X184250000Y-73749398D01*
X184250000Y-73750000D01*
X183750000Y-73750000D01*
X183750000Y-73749398D01*
X183725466Y-73749398D01*
X183676635Y-73744588D01*
X183628510Y-73735016D01*
X183581555Y-73720772D01*
X183536222Y-73701995D01*
X183492949Y-73678864D01*
X183452150Y-73651604D01*
X183414221Y-73620476D01*
X183379524Y-73585779D01*
X183348396Y-73547850D01*
X183321136Y-73507051D01*
X183298005Y-73463778D01*
X183279228Y-73418445D01*
X183264984Y-73371490D01*
X183255412Y-73323365D01*
X183250602Y-73274534D01*
X183250602Y-73250000D01*
X183250000Y-73250000D01*
X183250000Y-72750000D01*
X184750000Y-72750000D01*
X184750000Y-73250000D01*
X184749398Y-73250000D01*
G37*
%TD.AperFunction*%
%TD*%
%TA.AperFunction,SMDPad,CuDef*%
%TO.P,JP0,1*%
%TO.N,/I4*%
G36*
X156750000Y-72750000D02*
G01*
X156750000Y-73250000D01*
X156749398Y-73250000D01*
X156749398Y-73274534D01*
X156744588Y-73323365D01*
X156735016Y-73371490D01*
X156720772Y-73418445D01*
X156701995Y-73463778D01*
X156678864Y-73507051D01*
X156651604Y-73547850D01*
X156620476Y-73585779D01*
X156585779Y-73620476D01*
X156547850Y-73651604D01*
X156507051Y-73678864D01*
X156463778Y-73701995D01*
X156418445Y-73720772D01*
X156371490Y-73735016D01*
X156323365Y-73744588D01*
X156274534Y-73749398D01*
X156250000Y-73749398D01*
X156250000Y-73750000D01*
X155750000Y-73750000D01*
X155750000Y-73749398D01*
X155725466Y-73749398D01*
X155676635Y-73744588D01*
X155628510Y-73735016D01*
X155581555Y-73720772D01*
X155536222Y-73701995D01*
X155492949Y-73678864D01*
X155452150Y-73651604D01*
X155414221Y-73620476D01*
X155379524Y-73585779D01*
X155348396Y-73547850D01*
X155321136Y-73507051D01*
X155298005Y-73463778D01*
X155279228Y-73418445D01*
X155264984Y-73371490D01*
X155255412Y-73323365D01*
X155250602Y-73274534D01*
X155250602Y-73250000D01*
X155250000Y-73250000D01*
X155250000Y-72750000D01*
X156750000Y-72750000D01*
G37*
%TD.AperFunction*%
%TA.AperFunction,SMDPad,CuDef*%
%TO.P,JP0,2*%
%TO.N,/I0-3*%
G36*
X155250602Y-71950000D02*
G01*
X155250602Y-71925466D01*
X155255412Y-71876635D01*
X155264984Y-71828510D01*
X155279228Y-71781555D01*
X155298005Y-71736222D01*
X155321136Y-71692949D01*
X155348396Y-71652150D01*
X155379524Y-71614221D01*
X155414221Y-71579524D01*
X155452150Y-71548396D01*
X155492949Y-71521136D01*
X155536222Y-71498005D01*
X155581555Y-71479228D01*
X155628510Y-71464984D01*
X155676635Y-71455412D01*
X155725466Y-71450602D01*
X155750000Y-71450602D01*
X155750000Y-71450000D01*
X156250000Y-71450000D01*
X156250000Y-71450602D01*
X156274534Y-71450602D01*
X156323365Y-71455412D01*
X156371490Y-71464984D01*
X156418445Y-71479228D01*
X156463778Y-71498005D01*
X156507051Y-71521136D01*
X156547850Y-71548396D01*
X156585779Y-71579524D01*
X156620476Y-71614221D01*
X156651604Y-71652150D01*
X156678864Y-71692949D01*
X156701995Y-71736222D01*
X156720772Y-71781555D01*
X156735016Y-71828510D01*
X156744588Y-71876635D01*
X156749398Y-71925466D01*
X156749398Y-71950000D01*
X156750000Y-71950000D01*
X156750000Y-72450000D01*
X155250000Y-72450000D01*
X155250000Y-71950000D01*
X155250602Y-71950000D01*
G37*
%TD.AperFunction*%
%TD*%
D15*
%TO.N,/Y0*%
X160000000Y-54400000D03*
X164000000Y-54400000D03*
X168000000Y-54400000D03*
X172000000Y-54400000D03*
X176000000Y-54400000D03*
X180000000Y-54400000D03*
%TO.N,/Y1*%
X160000000Y-56100000D03*
X164000000Y-56100000D03*
X168000000Y-56100000D03*
X172000000Y-56100000D03*
X176000000Y-56100000D03*
X180000000Y-56100000D03*
%TO.N,/Y2*%
X160000000Y-57800000D03*
X164000000Y-57800000D03*
X168000000Y-57800000D03*
X172000000Y-57800000D03*
X176000000Y-57800000D03*
X180000000Y-57800000D03*
%TO.N,/Y3*%
X160000000Y-59500000D03*
X164000000Y-59500000D03*
X168000000Y-59500000D03*
X172000000Y-59500000D03*
X176000000Y-59500000D03*
X180000000Y-59500000D03*
%TO.N,/Y4*%
X160000000Y-61200000D03*
X164000000Y-61200000D03*
X168000000Y-61200000D03*
X172000000Y-61200000D03*
X176000000Y-61200000D03*
X180000000Y-61200000D03*
%TO.N,/Y5*%
X160000000Y-62900000D03*
X164000000Y-62900000D03*
X168000000Y-62900000D03*
X172000000Y-62900000D03*
X176000000Y-62900000D03*
X180000000Y-62900000D03*
%TO.N,/Y6*%
X160000000Y-64600000D03*
X164000000Y-64600000D03*
X168000000Y-64600000D03*
X172000000Y-64600000D03*
X176000000Y-64600000D03*
X180000000Y-64600000D03*
%TO.N,/Y7*%
X160000000Y-66300000D03*
X164000000Y-66300000D03*
X168000000Y-66300000D03*
X172000000Y-66300000D03*
X176000000Y-66300000D03*
X180000000Y-66300000D03*
%TD*%
D16*
%TO.N,/Y0*%
X158850000Y-54400000D02*
X160000000Y-54400000D01*
X162850000Y-54400000D02*
X164000000Y-54400000D01*
X166850000Y-54400000D02*
X168000000Y-54400000D01*
X170850000Y-54400000D02*
X172000000Y-54400000D01*
X174850000Y-54400000D02*
X176000000Y-54400000D01*
X178850000Y-54400000D02*
X180000000Y-54400000D01*
%TO.N,/Y1*%
X158850000Y-56100000D02*
X160000000Y-56100000D01*
X162850000Y-56100000D02*
X164000000Y-56100000D01*
X166850000Y-56100000D02*
X168000000Y-56100000D01*
X170850000Y-56100000D02*
X172000000Y-56100000D01*
X174850000Y-56100000D02*
X176000000Y-56100000D01*
X178850000Y-56100000D02*
X180000000Y-56100000D01*
%TO.N,/Y2*%
X158850000Y-57800000D02*
X160000000Y-57800000D01*
X162850000Y-57800000D02*
X164000000Y-57800000D01*
X166850000Y-57800000D02*
X168000000Y-57800000D01*
X170850000Y-57800000D02*
X172000000Y-57800000D01*
X174850000Y-57800000D02*
X176000000Y-57800000D01*
X178850000Y-57800000D02*
X180000000Y-57800000D01*
%TO.N,/Y3*%
X158850000Y-59500000D02*
X160000000Y-59500000D01*
X162850000Y-59500000D02*
X164000000Y-59500000D01*
X166850000Y-59500000D02*
X168000000Y-59500000D01*
X170850000Y-59500000D02*
X172000000Y-59500000D01*
X174850000Y-59500000D02*
X176000000Y-59500000D01*
X178850000Y-59500000D02*
X180000000Y-59500000D01*
%TO.N,/Y4*%
X158850000Y-61200000D02*
X160000000Y-61200000D01*
X162850000Y-61200000D02*
X164000000Y-61200000D01*
X166850000Y-61200000D02*
X168000000Y-61200000D01*
X170850000Y-61200000D02*
X172000000Y-61200000D01*
X174850000Y-61200000D02*
X176000000Y-61200000D01*
X178850000Y-61200000D02*
X180000000Y-61200000D01*
%TO.N,/Y5*%
X158850000Y-62900000D02*
X160000000Y-62900000D01*
X162850000Y-62900000D02*
X164000000Y-62900000D01*
X166850000Y-62900000D02*
X168000000Y-62900000D01*
X170850000Y-62900000D02*
X172000000Y-62900000D01*
X174850000Y-62900000D02*
X176000000Y-62900000D01*
X178850000Y-62900000D02*
X180000000Y-62900000D01*
%TO.N,/Y6*%
X158850000Y-64600000D02*
X160000000Y-64600000D01*
X162850000Y-64600000D02*
X164000000Y-64600000D01*
X166850000Y-64600000D02*
X168000000Y-64600000D01*
X170850000Y-64600000D02*
X172000000Y-64600000D01*
X174850000Y-64600000D02*
X176000000Y-64600000D01*
X178850000Y-64600000D02*
X180000000Y-64600000D01*
%TO.N,/Y7*%
X158850000Y-66300000D02*
X160000000Y-66300000D01*
X162850000Y-66300000D02*
X164000000Y-66300000D01*
X166850000Y-66300000D02*
X168000000Y-66300000D01*
X170850000Y-66300000D02*
X172000000Y-66300000D01*
X174850000Y-66300000D02*
X176000000Y-66300000D01*
X178850000Y-66300000D02*
X180000000Y-66300000D01*
%TO.N,/X0*%
X161100000Y-67100000D02*
X160000000Y-68200000D01*
X161100000Y-54400000D02*
X161100000Y-67100000D01*
%TO.N,/X1*%
X165100000Y-67100000D02*
X164000000Y-68200000D01*
%TO.N,/X2*%
X169100000Y-67100000D02*
X168000000Y-68200000D01*
%TO.N,/X3*%
X173100000Y-67100000D02*
X172000000Y-68200000D01*
%TO.N,/X4*%
X177100000Y-67100000D02*
X176000000Y-68200000D01*
%TO.N,/X5*%
X181100000Y-67100000D02*
X180000000Y-68200000D01*
%TO.N,/X1*%
X165100000Y-54400000D02*
X165100000Y-67100000D01*
%TO.N,/X2*%
X169100000Y-54400000D02*
X169100000Y-67100000D01*
%TO.N,/X3*%
X173100000Y-54400000D02*
X173100000Y-67100000D01*
%TO.N,/X4*%
X177100000Y-54400000D02*
X177100000Y-67100000D01*
%TO.N,/X5*%
X181100000Y-54400000D02*
X181100000Y-67100000D01*
D17*
%TO.N,/I4*%
X156675001Y-73925001D02*
X156000000Y-73250000D01*
X183324999Y-73925001D02*
X184000000Y-73250000D01*
X177924999Y-73925001D02*
X156675001Y-73925001D01*
X176950000Y-70200000D02*
X178000000Y-71250000D01*
X178000000Y-71250000D02*
X178000000Y-73850000D01*
X177924999Y-73925001D02*
X183324999Y-73925001D01*
X178000000Y-73850000D02*
X177924999Y-73925001D01*
%TO.N,/I0-3*%
X156000000Y-69200000D02*
X158600000Y-69200000D01*
X162050000Y-69200000D02*
X166600000Y-69200000D01*
X156000000Y-69200000D02*
X156000000Y-71950000D01*
X171950000Y-69200000D02*
X166600000Y-69200000D01*
X172950000Y-70200000D02*
X171950000Y-69200000D01*
X167950000Y-69200000D02*
X166600000Y-69200000D01*
X168950000Y-70200000D02*
X167950000Y-69200000D01*
X163950000Y-69200000D02*
X162050000Y-69200000D01*
X164950000Y-70200000D02*
X163950000Y-69200000D01*
X160950000Y-70200000D02*
X159950000Y-69200000D01*
X158600000Y-69200000D02*
X162050000Y-69200000D01*
X159950000Y-69200000D02*
X158600000Y-69200000D01*
%TO.N,/I5*%
X184000000Y-69200000D02*
X184000000Y-71950000D01*
X183000001Y-70199999D02*
X184000000Y-69200000D01*
X180950000Y-70200000D02*
X183000001Y-70199999D01*
%TO.N,/C0*%
X159050000Y-71650000D02*
X160000000Y-72600000D01*
X159050000Y-70200000D02*
X159050000Y-71650000D01*
%TO.N,/C1*%
X163050000Y-71650000D02*
X164000000Y-72600000D01*
X163050000Y-70200000D02*
X163050000Y-71650000D01*
%TO.N,/C2*%
X167050000Y-71650000D02*
X168000000Y-72600000D01*
X167050000Y-70200000D02*
X167050000Y-71650000D01*
%TO.N,/C3*%
X171050000Y-71650000D02*
X172000000Y-72600000D01*
X171050000Y-70200000D02*
X171050000Y-71650000D01*
%TO.N,/C4*%
X175050000Y-71650000D02*
X176000000Y-72600000D01*
X175050000Y-70200000D02*
X175050000Y-71650000D01*
%TO.N,/C5*%
X179050000Y-71650000D02*
X180000000Y-72600000D01*
X179050000Y-70200000D02*
X179050000Y-71650000D01*
%TD*%
M02*
