%TF.GenerationSoftware,KiCad,Pcbnew,(5.1.9)-1*%
%TF.CreationDate,2022-09-16T17:22:15+02:00*%
%TF.ProjectId,increment,696e6372-656d-4656-9e74-2e6b69636164,rev?*%
%TF.SameCoordinates,Original*%
%TF.FileFunction,Copper,L1,Top*%
%TF.FilePolarity,Positive*%
%FSLAX46Y46*%
G04 Gerber Fmt 4.6, Leading zero omitted, Abs format (unit mm)*
G04 Created by KiCad (PCBNEW (5.1.9)-1) date 2022-09-16 17:22:15*
%MOMM*%
%LPD*%
G01*
G04 APERTURE LIST*
%TA.AperFunction,SMDPad,CuDef*%
%ADD10R,0.600000X0.450000*%
%TD*%
%TA.AperFunction,SMDPad,CuDef*%
%ADD11R,0.900000X0.800000*%
%TD*%
%TA.AperFunction,ComponentPad*%
%ADD12C,2.000000*%
%TD*%
%TA.AperFunction,SMDPad,CuDef*%
%ADD13R,0.900000X0.900000*%
%TD*%
%TA.AperFunction,ViaPad*%
%ADD14C,0.500000*%
%TD*%
%TA.AperFunction,Conductor*%
%ADD15C,0.157000*%
%TD*%
%TA.AperFunction,Conductor*%
%ADD16C,0.300000*%
%TD*%
G04 APERTURE END LIST*
D10*
%TO.P,D8,2*%
%TO.N,Net-(D8-Pad2)*%
X155050000Y-102400000D03*
%TO.P,D8,1*%
%TO.N,/I0*%
X152950000Y-102400000D03*
%TD*%
%TO.P,D7,2*%
%TO.N,Net-(D7-Pad2)*%
X155050000Y-100700000D03*
%TO.P,D7,1*%
%TO.N,Net-(D7-Pad1)*%
X152950000Y-100700000D03*
%TD*%
%TO.P,D6,2*%
%TO.N,Net-(D6-Pad2)*%
X155050000Y-98900000D03*
%TO.P,D6,1*%
%TO.N,/I1*%
X152950000Y-98900000D03*
%TD*%
%TO.P,D5,2*%
%TO.N,Net-(D5-Pad2)*%
X155050000Y-97200000D03*
%TO.P,D5,1*%
%TO.N,Net-(D5-Pad1)*%
X152950000Y-97200000D03*
%TD*%
%TO.P,D4,2*%
%TO.N,Net-(D4-Pad2)*%
X155050000Y-95400000D03*
%TO.P,D4,1*%
%TO.N,/I2*%
X152950000Y-95400000D03*
%TD*%
%TO.P,D3,2*%
%TO.N,Net-(D3-Pad2)*%
X155050000Y-93700000D03*
%TO.P,D3,1*%
%TO.N,Net-(D3-Pad1)*%
X152950000Y-93700000D03*
%TD*%
%TO.P,D2,2*%
%TO.N,Net-(D2-Pad2)*%
X155050000Y-91900000D03*
%TO.P,D2,1*%
%TO.N,/I3*%
X152950000Y-91900000D03*
%TD*%
%TO.P,D1,2*%
%TO.N,Net-(D1-Pad2)*%
X155050000Y-90200000D03*
%TO.P,D1,1*%
%TO.N,/~Co*%
X152950000Y-90200000D03*
%TD*%
D11*
%TO.P,Q12,3*%
%TO.N,/O0*%
X162000000Y-101500000D03*
%TO.P,Q12,2*%
%TO.N,Net-(D7-Pad2)*%
X160000000Y-102450000D03*
%TO.P,Q12,1*%
%TO.N,/OE*%
X160000000Y-100550000D03*
%TD*%
%TO.P,Q11,3*%
%TO.N,/O1*%
X162000000Y-98000000D03*
%TO.P,Q11,2*%
%TO.N,Net-(D5-Pad2)*%
X160000000Y-98950000D03*
%TO.P,Q11,1*%
%TO.N,/OE*%
X160000000Y-97050000D03*
%TD*%
%TO.P,Q10,3*%
%TO.N,/O2*%
X162000000Y-94500000D03*
%TO.P,Q10,2*%
%TO.N,Net-(D3-Pad2)*%
X160000000Y-95450000D03*
%TO.P,Q10,1*%
%TO.N,/OE*%
X160000000Y-93550000D03*
%TD*%
%TO.P,Q9,3*%
%TO.N,/O3*%
X162000000Y-91000000D03*
%TO.P,Q9,2*%
%TO.N,Net-(D1-Pad2)*%
X160000000Y-91950000D03*
%TO.P,Q9,1*%
%TO.N,/OE*%
X160000000Y-90050000D03*
%TD*%
%TO.P,Q8,3*%
%TO.N,Net-(D7-Pad2)*%
X158500000Y-101500000D03*
%TO.P,Q8,2*%
%TO.N,Net-(D8-Pad2)*%
X156500000Y-102450000D03*
%TO.P,Q8,1*%
%TO.N,/~Ci*%
X156500000Y-100550000D03*
%TD*%
%TO.P,Q7,3*%
%TO.N,Net-(D5-Pad2)*%
X158500000Y-98000000D03*
%TO.P,Q7,2*%
%TO.N,Net-(D6-Pad2)*%
X156500000Y-98950000D03*
%TO.P,Q7,1*%
%TO.N,Net-(D7-Pad1)*%
X156500000Y-97050000D03*
%TD*%
%TO.P,Q6,3*%
%TO.N,Net-(D3-Pad2)*%
X158500000Y-94500000D03*
%TO.P,Q6,2*%
%TO.N,Net-(D4-Pad2)*%
X156500000Y-95450000D03*
%TO.P,Q6,1*%
%TO.N,Net-(D5-Pad1)*%
X156500000Y-93550000D03*
%TD*%
%TO.P,Q5,3*%
%TO.N,Net-(D1-Pad2)*%
X158500000Y-91000000D03*
%TO.P,Q5,2*%
%TO.N,Net-(D2-Pad2)*%
X156500000Y-91950000D03*
%TO.P,Q5,1*%
%TO.N,Net-(D3-Pad1)*%
X156500000Y-90050000D03*
%TD*%
%TO.P,Q4,3*%
%TO.N,Net-(D7-Pad1)*%
X151500000Y-101500000D03*
%TO.P,Q4,2*%
%TO.N,/~Ci*%
X149500000Y-102450000D03*
%TO.P,Q4,1*%
%TO.N,/I0*%
X149500000Y-100550000D03*
%TD*%
%TO.P,Q3,3*%
%TO.N,Net-(D5-Pad1)*%
X151500000Y-98000000D03*
%TO.P,Q3,2*%
%TO.N,Net-(D7-Pad1)*%
X149500000Y-98950000D03*
%TO.P,Q3,1*%
%TO.N,/I1*%
X149500000Y-97050000D03*
%TD*%
%TO.P,Q2,3*%
%TO.N,Net-(D3-Pad1)*%
X151500000Y-94500000D03*
%TO.P,Q2,2*%
%TO.N,Net-(D5-Pad1)*%
X149500000Y-95450000D03*
%TO.P,Q2,1*%
%TO.N,/I2*%
X149500000Y-93550000D03*
%TD*%
%TO.P,Q1,3*%
%TO.N,/~Co*%
X151500000Y-91000000D03*
%TO.P,Q1,2*%
%TO.N,Net-(D3-Pad1)*%
X149500000Y-91950000D03*
%TO.P,Q1,1*%
%TO.N,/I3*%
X149500000Y-90050000D03*
%TD*%
D12*
%TO.P,TP12,1*%
%TO.N,/O0*%
X164500000Y-101500000D03*
%TD*%
%TO.P,TP11,1*%
%TO.N,/O1*%
X164500000Y-98000000D03*
%TD*%
%TO.P,TP10,1*%
%TO.N,/O2*%
X164500000Y-94500000D03*
%TD*%
%TO.P,TP9,1*%
%TO.N,/O3*%
X164500000Y-91000000D03*
%TD*%
%TO.P,TP8,1*%
%TO.N,/OE*%
X161000000Y-106750000D03*
%TD*%
%TO.P,TP7,1*%
%TO.N,/~Ci*%
X155750000Y-106750000D03*
%TD*%
%TO.P,TP6,1*%
%TO.N,/~Co*%
X150500000Y-87500000D03*
%TD*%
%TO.P,TP5,1*%
%TO.N,VCC*%
X152250000Y-106750000D03*
%TD*%
%TO.P,TP4,1*%
%TO.N,/I0*%
X145250000Y-101500000D03*
%TD*%
%TO.P,TP3,1*%
%TO.N,/I1*%
X145250000Y-98000000D03*
%TD*%
%TO.P,TP2,1*%
%TO.N,/I2*%
X145250000Y-94500000D03*
%TD*%
%TO.P,TP1,1*%
%TO.N,/I3*%
X145250000Y-91000000D03*
%TD*%
D13*
%TO.P,RN1,6*%
%TO.N,Net-(D5-Pad1)*%
X148060000Y-103900000D03*
%TO.P,RN1,5*%
%TO.N,Net-(D7-Pad1)*%
X149400000Y-103900000D03*
%TO.P,RN1,8*%
%TO.N,/~Co*%
X145400000Y-103900000D03*
%TO.P,RN1,7*%
%TO.N,Net-(D3-Pad1)*%
X146740000Y-103900000D03*
%TO.P,RN1,3*%
%TO.N,VCC*%
X148060000Y-106900000D03*
%TO.P,RN1,2*%
X146740000Y-106900000D03*
%TO.P,RN1,4*%
X149400000Y-106900000D03*
%TO.P,RN1,1*%
X145400000Y-106900000D03*
%TD*%
D14*
%TO.N,/I3*%
X150174349Y-91025651D03*
%TO.N,/I2*%
X150174349Y-94525651D03*
%TO.N,/I1*%
X150174349Y-98025651D03*
%TO.N,/I0*%
X150174349Y-101525651D03*
%TD*%
D15*
%TO.N,Net-(D1-Pad2)*%
X155850000Y-91000000D02*
X158500000Y-91000000D01*
X155050000Y-90200000D02*
X155850000Y-91000000D01*
X159050000Y-91000000D02*
X160000000Y-91950000D01*
X158500000Y-91000000D02*
X159050000Y-91000000D01*
%TO.N,/~Co*%
X152300000Y-90200000D02*
X151500000Y-91000000D01*
X152950000Y-90200000D02*
X152300000Y-90200000D01*
X153050000Y-90200000D02*
X152950000Y-90200000D01*
X150428499Y-89371499D02*
X151500000Y-90443000D01*
X151500000Y-90443000D02*
X151500000Y-91000000D01*
X147700469Y-90498229D02*
X148827199Y-89371499D01*
X147700469Y-100992531D02*
X147700469Y-90498229D01*
X145400000Y-103293000D02*
X147700469Y-100992531D01*
X148827199Y-89371499D02*
X150428499Y-89371499D01*
X145400000Y-103900000D02*
X145400000Y-103293000D01*
X150500000Y-89299998D02*
X150428499Y-89371499D01*
X150500000Y-87500000D02*
X150500000Y-89299998D01*
%TO.N,Net-(D2-Pad2)*%
X156450000Y-91900000D02*
X156500000Y-91950000D01*
X155050000Y-91900000D02*
X156450000Y-91900000D01*
%TO.N,/I3*%
X149500000Y-90351302D02*
X149500000Y-90050000D01*
X152950000Y-91900000D02*
X151048698Y-91900000D01*
X150174349Y-91025651D02*
X149500000Y-90351302D01*
X151048698Y-91900000D02*
X150174349Y-91025651D01*
%TO.N,Net-(D3-Pad2)*%
X159050000Y-94500000D02*
X160000000Y-95450000D01*
X158500000Y-94500000D02*
X159050000Y-94500000D01*
X155050000Y-93700000D02*
X155850000Y-94500000D01*
X155850000Y-94500000D02*
X158500000Y-94500000D01*
%TO.N,Net-(D3-Pad1)*%
X152300000Y-93700000D02*
X151500000Y-94500000D01*
X152950000Y-93700000D02*
X152300000Y-93700000D01*
X149953501Y-92403501D02*
X149500000Y-91950000D01*
X153472801Y-92403501D02*
X149953501Y-92403501D01*
X153911849Y-91964453D02*
X153472801Y-92403501D01*
X153911849Y-90311849D02*
X153911849Y-91964453D01*
X154527199Y-89696499D02*
X153911849Y-90311849D01*
X156146499Y-89696499D02*
X154527199Y-89696499D01*
X156500000Y-90050000D02*
X156146499Y-89696499D01*
X149960501Y-92403501D02*
X149953501Y-92403501D01*
X151500000Y-93943000D02*
X149960501Y-92403501D01*
X151500000Y-94500000D02*
X151500000Y-93943000D01*
X146740000Y-103293000D02*
X148057479Y-101975521D01*
X146740000Y-103900000D02*
X146740000Y-103293000D01*
X149500000Y-92198698D02*
X149500000Y-91950000D01*
X148057479Y-93641219D02*
X149500000Y-92198698D01*
X148057479Y-101975521D02*
X148057479Y-93641219D01*
%TO.N,Net-(D4-Pad2)*%
X156450000Y-95400000D02*
X156500000Y-95450000D01*
X155050000Y-95400000D02*
X156450000Y-95400000D01*
%TO.N,/I2*%
X149500000Y-93851302D02*
X149500000Y-93550000D01*
X152950000Y-95400000D02*
X151048698Y-95400000D01*
X151048698Y-95400000D02*
X150224349Y-94575651D01*
X150174349Y-94525651D02*
X149500000Y-93851302D01*
X150224349Y-94575651D02*
X150174349Y-94525651D01*
%TO.N,Net-(D5-Pad2)*%
X159050000Y-98000000D02*
X160000000Y-98950000D01*
X158500000Y-98000000D02*
X159050000Y-98000000D01*
X155050000Y-97200000D02*
X155850000Y-98000000D01*
X155850000Y-98000000D02*
X158500000Y-98000000D01*
%TO.N,Net-(D5-Pad1)*%
X149953501Y-95903501D02*
X149500000Y-95450000D01*
X156146499Y-93196499D02*
X154527199Y-93196499D01*
X149960501Y-95903501D02*
X149953501Y-95903501D01*
X153472801Y-95903501D02*
X149953501Y-95903501D01*
X151500000Y-97443000D02*
X149960501Y-95903501D01*
X154527199Y-93196499D02*
X153911849Y-93811849D01*
X156500000Y-93550000D02*
X156146499Y-93196499D01*
X151500000Y-98000000D02*
X151500000Y-97443000D01*
X153911849Y-95464453D02*
X153472801Y-95903501D01*
X153911849Y-93811849D02*
X153911849Y-95464453D01*
X152300000Y-97200000D02*
X151500000Y-98000000D01*
X152950000Y-97200000D02*
X152300000Y-97200000D01*
X148414489Y-96535511D02*
X149500000Y-95450000D01*
X148060000Y-103240000D02*
X148414489Y-102885511D01*
X148060000Y-103900000D02*
X148060000Y-103240000D01*
X148414489Y-102885511D02*
X148414489Y-96535511D01*
%TO.N,Net-(D6-Pad2)*%
X156450000Y-98900000D02*
X156500000Y-98950000D01*
X155050000Y-98900000D02*
X156450000Y-98900000D01*
%TO.N,/I1*%
X149500000Y-97351302D02*
X149500000Y-97050000D01*
X152950000Y-98900000D02*
X151048698Y-98900000D01*
X150174349Y-98025651D02*
X149500000Y-97351302D01*
X151048698Y-98900000D02*
X150174349Y-98025651D01*
%TO.N,Net-(D7-Pad2)*%
X159050000Y-101500000D02*
X160000000Y-102450000D01*
X158500000Y-101500000D02*
X159050000Y-101500000D01*
X155050000Y-100700000D02*
X155850000Y-101500000D01*
X155850000Y-101500000D02*
X158500000Y-101500000D01*
%TO.N,Net-(D7-Pad1)*%
X149953501Y-99403501D02*
X149500000Y-98950000D01*
X156146499Y-96696499D02*
X154527199Y-96696499D01*
X149960501Y-99403501D02*
X149953501Y-99403501D01*
X153472801Y-99403501D02*
X149953501Y-99403501D01*
X151500000Y-100943000D02*
X149960501Y-99403501D01*
X154527199Y-96696499D02*
X153911849Y-97311849D01*
X156500000Y-97050000D02*
X156146499Y-96696499D01*
X151500000Y-101500000D02*
X151500000Y-100943000D01*
X153911849Y-98964453D02*
X153472801Y-99403501D01*
X153911849Y-97311849D02*
X153911849Y-98964453D01*
X152300000Y-100700000D02*
X151500000Y-101500000D01*
X152950000Y-100700000D02*
X152300000Y-100700000D01*
X148771499Y-99678501D02*
X149500000Y-98950000D01*
X148771499Y-103271499D02*
X148771499Y-99678501D01*
X149400000Y-103900000D02*
X148771499Y-103271499D01*
%TO.N,Net-(D8-Pad2)*%
X156450000Y-102400000D02*
X156500000Y-102450000D01*
X155050000Y-102400000D02*
X156450000Y-102400000D01*
%TO.N,/I0*%
X149500000Y-100851302D02*
X149500000Y-100550000D01*
X152950000Y-102400000D02*
X151048698Y-102400000D01*
X150174349Y-101525651D02*
X149500000Y-100851302D01*
X151048698Y-102400000D02*
X150174349Y-101525651D01*
%TO.N,/~Ci*%
X149953501Y-102903501D02*
X149500000Y-102450000D01*
X156146499Y-100196499D02*
X154527199Y-100196499D01*
X149960501Y-102903501D02*
X149953501Y-102903501D01*
X153472801Y-102903501D02*
X149953501Y-102903501D01*
X154527199Y-100196499D02*
X153911849Y-100811849D01*
X156500000Y-100550000D02*
X156146499Y-100196499D01*
X153911849Y-102464453D02*
X153472801Y-102903501D01*
X153911849Y-100811849D02*
X153911849Y-102464453D01*
X149400000Y-102550000D02*
X149500000Y-102450000D01*
X155750000Y-105180700D02*
X153472801Y-102903501D01*
X155750000Y-106750000D02*
X155750000Y-105180700D01*
%TO.N,/O3*%
X162000000Y-91000000D02*
X164500000Y-91000000D01*
%TO.N,/OE*%
X160050000Y-93550000D02*
X160000000Y-93550000D01*
X161000000Y-94500000D02*
X160050000Y-93550000D01*
X161000000Y-94500000D02*
X161000000Y-98000000D01*
X160050000Y-97050000D02*
X160000000Y-97050000D01*
X161000000Y-98000000D02*
X160050000Y-97050000D01*
X161000000Y-98000000D02*
X161000000Y-101500000D01*
X160050000Y-100550000D02*
X160000000Y-100550000D01*
X161000000Y-101500000D02*
X160050000Y-100550000D01*
X161000000Y-101500000D02*
X161000000Y-105000000D01*
X160050000Y-90050000D02*
X160000000Y-90050000D01*
X161000000Y-91000000D02*
X160050000Y-90050000D01*
X161000000Y-91000000D02*
X161000000Y-94500000D01*
X161000000Y-105000000D02*
X161000000Y-106750000D01*
D16*
%TO.N,/O2*%
X164500000Y-94500000D02*
X162000000Y-94500000D01*
%TO.N,/O1*%
X164500000Y-98000000D02*
X162000000Y-98000000D01*
%TO.N,/O0*%
X164500000Y-101500000D02*
X162000000Y-101500000D01*
D15*
%TO.N,VCC*%
X149550000Y-106750000D02*
X149400000Y-106900000D01*
X152250000Y-106750000D02*
X149550000Y-106750000D01*
X149400000Y-106900000D02*
X145400000Y-106900000D01*
%TD*%
M02*
