%TF.GenerationSoftware,KiCad,Pcbnew,(5.1.9)-1*%
%TF.CreationDate,2022-09-16T17:22:15+02:00*%
%TF.ProjectId,increment,696e6372-656d-4656-9e74-2e6b69636164,rev?*%
%TF.SameCoordinates,Original*%
%TF.FileFunction,Paste,Top*%
%TF.FilePolarity,Positive*%
%FSLAX46Y46*%
G04 Gerber Fmt 4.6, Leading zero omitted, Abs format (unit mm)*
G04 Created by KiCad (PCBNEW (5.1.9)-1) date 2022-09-16 17:22:15*
%MOMM*%
%LPD*%
G01*
G04 APERTURE LIST*
%ADD10R,0.600000X0.450000*%
%ADD11R,0.900000X0.800000*%
%ADD12R,0.900000X0.900000*%
G04 APERTURE END LIST*
D10*
%TO.C,D8*%
X155050000Y-102400000D03*
X152950000Y-102400000D03*
%TD*%
%TO.C,D7*%
X155050000Y-100700000D03*
X152950000Y-100700000D03*
%TD*%
%TO.C,D6*%
X155050000Y-98900000D03*
X152950000Y-98900000D03*
%TD*%
%TO.C,D5*%
X155050000Y-97200000D03*
X152950000Y-97200000D03*
%TD*%
%TO.C,D4*%
X155050000Y-95400000D03*
X152950000Y-95400000D03*
%TD*%
%TO.C,D3*%
X155050000Y-93700000D03*
X152950000Y-93700000D03*
%TD*%
%TO.C,D2*%
X155050000Y-91900000D03*
X152950000Y-91900000D03*
%TD*%
%TO.C,D1*%
X155050000Y-90200000D03*
X152950000Y-90200000D03*
%TD*%
D11*
%TO.C,Q12*%
X162000000Y-101500000D03*
X160000000Y-102450000D03*
X160000000Y-100550000D03*
%TD*%
%TO.C,Q11*%
X162000000Y-98000000D03*
X160000000Y-98950000D03*
X160000000Y-97050000D03*
%TD*%
%TO.C,Q10*%
X162000000Y-94500000D03*
X160000000Y-95450000D03*
X160000000Y-93550000D03*
%TD*%
%TO.C,Q9*%
X162000000Y-91000000D03*
X160000000Y-91950000D03*
X160000000Y-90050000D03*
%TD*%
%TO.C,Q8*%
X158500000Y-101500000D03*
X156500000Y-102450000D03*
X156500000Y-100550000D03*
%TD*%
%TO.C,Q7*%
X158500000Y-98000000D03*
X156500000Y-98950000D03*
X156500000Y-97050000D03*
%TD*%
%TO.C,Q6*%
X158500000Y-94500000D03*
X156500000Y-95450000D03*
X156500000Y-93550000D03*
%TD*%
%TO.C,Q5*%
X158500000Y-91000000D03*
X156500000Y-91950000D03*
X156500000Y-90050000D03*
%TD*%
%TO.C,Q4*%
X151500000Y-101500000D03*
X149500000Y-102450000D03*
X149500000Y-100550000D03*
%TD*%
%TO.C,Q3*%
X151500000Y-98000000D03*
X149500000Y-98950000D03*
X149500000Y-97050000D03*
%TD*%
%TO.C,Q2*%
X151500000Y-94500000D03*
X149500000Y-95450000D03*
X149500000Y-93550000D03*
%TD*%
%TO.C,Q1*%
X151500000Y-91000000D03*
X149500000Y-91950000D03*
X149500000Y-90050000D03*
%TD*%
D12*
%TO.C,RN1*%
X148060000Y-103900000D03*
X149400000Y-103900000D03*
X145400000Y-103900000D03*
X146740000Y-103900000D03*
X148060000Y-106900000D03*
X146740000Y-106900000D03*
X149400000Y-106900000D03*
X145400000Y-106900000D03*
%TD*%
M02*
