%TF.GenerationSoftware,KiCad,Pcbnew,(5.1.9)-1*%
%TF.CreationDate,2022-09-16T17:22:15+02:00*%
%TF.ProjectId,increment,696e6372-656d-4656-9e74-2e6b69636164,rev?*%
%TF.SameCoordinates,Original*%
%TF.FileFunction,Copper,L2,Bot*%
%TF.FilePolarity,Positive*%
%FSLAX46Y46*%
G04 Gerber Fmt 4.6, Leading zero omitted, Abs format (unit mm)*
G04 Created by KiCad (PCBNEW (5.1.9)-1) date 2022-09-16 17:22:15*
%MOMM*%
%LPD*%
G01*
G04 APERTURE LIST*
%TA.AperFunction,SMDPad,CuDef*%
%ADD10R,0.400000X1.400000*%
%TD*%
%TA.AperFunction,SMDPad,CuDef*%
%ADD11R,2.300000X1.900000*%
%TD*%
%TA.AperFunction,SMDPad,CuDef*%
%ADD12R,1.800000X1.900000*%
%TD*%
%TA.AperFunction,ComponentPad*%
%ADD13C,2.000000*%
%TD*%
%TA.AperFunction,ViaPad*%
%ADD14C,0.500000*%
%TD*%
%TA.AperFunction,Conductor*%
%ADD15C,0.300000*%
%TD*%
%TA.AperFunction,Conductor*%
%ADD16C,0.157000*%
%TD*%
G04 APERTURE END LIST*
D10*
%TO.P,J1,1*%
%TO.N,/~Co*%
X156600000Y-90050000D03*
%TO.P,J1,2*%
%TO.N,/O0*%
X157250000Y-90050000D03*
%TO.P,J1,3*%
%TO.N,/O1*%
X157900000Y-90050000D03*
%TO.P,J1,4*%
%TO.N,/O2*%
X158550000Y-90050000D03*
%TO.P,J1,5*%
%TO.N,/O3*%
X159200000Y-90050000D03*
D11*
%TO.P,J1,6*%
X154150000Y-87200000D03*
X161650000Y-87200000D03*
D12*
X156750000Y-87200000D03*
X159050000Y-87200000D03*
%TD*%
D13*
%TO.P,TP12,1*%
%TO.N,/O0*%
X164500000Y-101500000D03*
%TD*%
%TO.P,TP11,1*%
%TO.N,/O1*%
X164500000Y-98000000D03*
%TD*%
%TO.P,TP10,1*%
%TO.N,/O2*%
X164500000Y-94500000D03*
%TD*%
%TO.P,TP9,1*%
%TO.N,/O3*%
X164500000Y-91000000D03*
%TD*%
%TO.P,TP8,1*%
%TO.N,/OE*%
X161000000Y-106750000D03*
%TD*%
%TO.P,TP7,1*%
%TO.N,/~Ci*%
X155750000Y-106750000D03*
%TD*%
%TO.P,TP6,1*%
%TO.N,/~Co*%
X150500000Y-87500000D03*
%TD*%
%TO.P,TP5,1*%
%TO.N,VCC*%
X152250000Y-106750000D03*
%TD*%
%TO.P,TP4,1*%
%TO.N,/I0*%
X145250000Y-101500000D03*
%TD*%
%TO.P,TP3,1*%
%TO.N,/I1*%
X145250000Y-98000000D03*
%TD*%
%TO.P,TP2,1*%
%TO.N,/I2*%
X145250000Y-94500000D03*
%TD*%
%TO.P,TP1,1*%
%TO.N,/I3*%
X145250000Y-91000000D03*
%TD*%
D14*
%TO.N,/I3*%
X150174349Y-91025651D03*
%TO.N,/I2*%
X150174349Y-94525651D03*
%TO.N,/I1*%
X150174349Y-98025651D03*
%TO.N,/I0*%
X150174349Y-101525651D03*
%TD*%
D15*
%TO.N,/~Co*%
X153050000Y-90050000D02*
X150500000Y-87500000D01*
X156600000Y-90050000D02*
X153050000Y-90050000D01*
D16*
%TO.N,/I3*%
X150148698Y-91000000D02*
X150174349Y-91025651D01*
X145275651Y-91025651D02*
X145250000Y-91000000D01*
X150174349Y-91025651D02*
X145275651Y-91025651D01*
%TO.N,/I2*%
X150148698Y-94500000D02*
X150174349Y-94525651D01*
X145275651Y-94525651D02*
X145250000Y-94500000D01*
X150174349Y-94525651D02*
X145275651Y-94525651D01*
%TO.N,/I1*%
X150148698Y-98000000D02*
X150174349Y-98025651D01*
X145275651Y-98025651D02*
X145250000Y-98000000D01*
X150174349Y-98025651D02*
X145275651Y-98025651D01*
%TO.N,/I0*%
X150148698Y-101500000D02*
X150174349Y-101525651D01*
X145275651Y-101525651D02*
X145250000Y-101500000D01*
X150174349Y-101525651D02*
X145275651Y-101525651D01*
D15*
%TO.N,/O3*%
X159200000Y-87350000D02*
X159050000Y-87200000D01*
X159200000Y-90050000D02*
X159200000Y-87350000D01*
X161650000Y-87200000D02*
X154150000Y-87200000D01*
X159200000Y-90700000D02*
X159500000Y-91000000D01*
X159200000Y-90050000D02*
X159200000Y-90700000D01*
X164500000Y-91000000D02*
X159500000Y-91000000D01*
%TO.N,/O2*%
X158550000Y-91950000D02*
X158550000Y-90050000D01*
X161100000Y-94500000D02*
X158550000Y-91950000D01*
X164500000Y-94500000D02*
X161100000Y-94500000D01*
%TO.N,/O1*%
X164500000Y-98000000D02*
X161400000Y-98000000D01*
X157900000Y-94500000D02*
X157900000Y-93100000D01*
X161400000Y-98000000D02*
X157900000Y-94500000D01*
X157900000Y-93100000D02*
X157900000Y-90050000D01*
%TO.N,/O0*%
X164500000Y-101500000D02*
X161200000Y-101500000D01*
X157250000Y-97550000D02*
X157250000Y-90050000D01*
X161200000Y-101500000D02*
X157250000Y-97550000D01*
%TD*%
M02*
