%TF.GenerationSoftware,KiCad,Pcbnew,(5.1.9)-1*%
%TF.CreationDate,2022-09-16T17:22:15+02:00*%
%TF.ProjectId,increment,696e6372-656d-4656-9e74-2e6b69636164,rev?*%
%TF.SameCoordinates,Original*%
%TF.FileFunction,Legend,Top*%
%TF.FilePolarity,Positive*%
%FSLAX46Y46*%
G04 Gerber Fmt 4.6, Leading zero omitted, Abs format (unit mm)*
G04 Created by KiCad (PCBNEW (5.1.9)-1) date 2022-09-16 17:22:15*
%MOMM*%
%LPD*%
G01*
G04 APERTURE LIST*
%ADD10C,0.120000*%
%ADD11R,0.600000X0.450000*%
%ADD12R,0.900000X0.800000*%
%ADD13C,2.000000*%
%ADD14R,0.900000X0.900000*%
G04 APERTURE END LIST*
D10*
%TO.C,D8*%
X152500000Y-101550000D02*
X152500000Y-103250000D01*
X152500000Y-103250000D02*
X155050000Y-103250000D01*
X152500000Y-101550000D02*
X155050000Y-101550000D01*
%TO.C,D7*%
X152500000Y-99850000D02*
X152500000Y-101550000D01*
X152500000Y-101550000D02*
X155050000Y-101550000D01*
X152500000Y-99850000D02*
X155050000Y-99850000D01*
%TO.C,D6*%
X152500000Y-98050000D02*
X152500000Y-99750000D01*
X152500000Y-99750000D02*
X155050000Y-99750000D01*
X152500000Y-98050000D02*
X155050000Y-98050000D01*
%TO.C,D5*%
X152500000Y-96350000D02*
X152500000Y-98050000D01*
X152500000Y-98050000D02*
X155050000Y-98050000D01*
X152500000Y-96350000D02*
X155050000Y-96350000D01*
%TO.C,D4*%
X152500000Y-94550000D02*
X152500000Y-96250000D01*
X152500000Y-96250000D02*
X155050000Y-96250000D01*
X152500000Y-94550000D02*
X155050000Y-94550000D01*
%TO.C,D3*%
X152500000Y-92850000D02*
X152500000Y-94550000D01*
X152500000Y-94550000D02*
X155050000Y-94550000D01*
X152500000Y-92850000D02*
X155050000Y-92850000D01*
%TO.C,D2*%
X152500000Y-91050000D02*
X152500000Y-92750000D01*
X152500000Y-92750000D02*
X155050000Y-92750000D01*
X152500000Y-91050000D02*
X155050000Y-91050000D01*
%TO.C,D1*%
X152500000Y-89350000D02*
X152500000Y-91050000D01*
X152500000Y-91050000D02*
X155050000Y-91050000D01*
X152500000Y-89350000D02*
X155050000Y-89350000D01*
%TO.C,Q12*%
X161760000Y-103080000D02*
X161760000Y-102150000D01*
X161760000Y-99920000D02*
X161760000Y-100850000D01*
X161760000Y-99920000D02*
X159600000Y-99920000D01*
X161760000Y-103080000D02*
X160300000Y-103080000D01*
%TO.C,Q11*%
X161760000Y-99580000D02*
X161760000Y-98650000D01*
X161760000Y-96420000D02*
X161760000Y-97350000D01*
X161760000Y-96420000D02*
X159600000Y-96420000D01*
X161760000Y-99580000D02*
X160300000Y-99580000D01*
%TO.C,Q10*%
X161760000Y-96080000D02*
X161760000Y-95150000D01*
X161760000Y-92920000D02*
X161760000Y-93850000D01*
X161760000Y-92920000D02*
X159600000Y-92920000D01*
X161760000Y-96080000D02*
X160300000Y-96080000D01*
%TO.C,Q9*%
X161760000Y-92580000D02*
X161760000Y-91650000D01*
X161760000Y-89420000D02*
X161760000Y-90350000D01*
X161760000Y-89420000D02*
X159600000Y-89420000D01*
X161760000Y-92580000D02*
X160300000Y-92580000D01*
%TO.C,Q8*%
X158260000Y-103080000D02*
X158260000Y-102150000D01*
X158260000Y-99920000D02*
X158260000Y-100850000D01*
X158260000Y-99920000D02*
X156100000Y-99920000D01*
X158260000Y-103080000D02*
X156800000Y-103080000D01*
%TO.C,Q7*%
X158260000Y-99580000D02*
X158260000Y-98650000D01*
X158260000Y-96420000D02*
X158260000Y-97350000D01*
X158260000Y-96420000D02*
X156100000Y-96420000D01*
X158260000Y-99580000D02*
X156800000Y-99580000D01*
%TO.C,Q6*%
X158260000Y-96080000D02*
X158260000Y-95150000D01*
X158260000Y-92920000D02*
X158260000Y-93850000D01*
X158260000Y-92920000D02*
X156100000Y-92920000D01*
X158260000Y-96080000D02*
X156800000Y-96080000D01*
%TO.C,Q5*%
X158260000Y-92580000D02*
X158260000Y-91650000D01*
X158260000Y-89420000D02*
X158260000Y-90350000D01*
X158260000Y-89420000D02*
X156100000Y-89420000D01*
X158260000Y-92580000D02*
X156800000Y-92580000D01*
%TO.C,Q4*%
X151260000Y-103080000D02*
X151260000Y-102150000D01*
X151260000Y-99920000D02*
X151260000Y-100850000D01*
X151260000Y-99920000D02*
X149100000Y-99920000D01*
X151260000Y-103080000D02*
X149800000Y-103080000D01*
%TO.C,Q3*%
X151260000Y-99580000D02*
X151260000Y-98650000D01*
X151260000Y-96420000D02*
X151260000Y-97350000D01*
X151260000Y-96420000D02*
X149100000Y-96420000D01*
X151260000Y-99580000D02*
X149800000Y-99580000D01*
%TO.C,Q2*%
X151260000Y-96080000D02*
X151260000Y-95150000D01*
X151260000Y-92920000D02*
X151260000Y-93850000D01*
X151260000Y-92920000D02*
X149100000Y-92920000D01*
X151260000Y-96080000D02*
X149800000Y-96080000D01*
%TO.C,Q1*%
X151260000Y-92580000D02*
X151260000Y-91650000D01*
X151260000Y-89420000D02*
X151260000Y-90350000D01*
X151260000Y-89420000D02*
X149100000Y-89420000D01*
X151260000Y-92580000D02*
X149800000Y-92580000D01*
%TO.C,TP12*%
X165751000Y-101500000D02*
G75*
G03*
X165751000Y-101500000I-1251000J0D01*
G01*
%TO.C,TP11*%
X165751000Y-98000000D02*
G75*
G03*
X165751000Y-98000000I-1251000J0D01*
G01*
%TO.C,TP10*%
X165751000Y-94500000D02*
G75*
G03*
X165751000Y-94500000I-1251000J0D01*
G01*
%TO.C,TP9*%
X165751000Y-91000000D02*
G75*
G03*
X165751000Y-91000000I-1251000J0D01*
G01*
%TO.C,TP8*%
X162251000Y-106750000D02*
G75*
G03*
X162251000Y-106750000I-1251000J0D01*
G01*
%TO.C,TP7*%
X157001000Y-106750000D02*
G75*
G03*
X157001000Y-106750000I-1251000J0D01*
G01*
%TO.C,TP6*%
X151751000Y-87500000D02*
G75*
G03*
X151751000Y-87500000I-1251000J0D01*
G01*
%TO.C,TP5*%
X153501000Y-106750000D02*
G75*
G03*
X153501000Y-106750000I-1251000J0D01*
G01*
%TO.C,TP4*%
X146501000Y-101500000D02*
G75*
G03*
X146501000Y-101500000I-1251000J0D01*
G01*
%TO.C,TP3*%
X146501000Y-98000000D02*
G75*
G03*
X146501000Y-98000000I-1251000J0D01*
G01*
%TO.C,TP2*%
X146501000Y-94500000D02*
G75*
G03*
X146501000Y-94500000I-1251000J0D01*
G01*
%TO.C,TP1*%
X146501000Y-91000000D02*
G75*
G03*
X146501000Y-91000000I-1251000J0D01*
G01*
%TO.C,RN1*%
X150070000Y-104350000D02*
X150070000Y-106450000D01*
X144730000Y-104350000D02*
X144730000Y-106450000D01*
%TD*%
%LPC*%
D11*
%TO.C,D8*%
X155050000Y-102400000D03*
X152950000Y-102400000D03*
%TD*%
%TO.C,D7*%
X155050000Y-100700000D03*
X152950000Y-100700000D03*
%TD*%
%TO.C,D6*%
X155050000Y-98900000D03*
X152950000Y-98900000D03*
%TD*%
%TO.C,D5*%
X155050000Y-97200000D03*
X152950000Y-97200000D03*
%TD*%
%TO.C,D4*%
X155050000Y-95400000D03*
X152950000Y-95400000D03*
%TD*%
%TO.C,D3*%
X155050000Y-93700000D03*
X152950000Y-93700000D03*
%TD*%
%TO.C,D2*%
X155050000Y-91900000D03*
X152950000Y-91900000D03*
%TD*%
%TO.C,D1*%
X155050000Y-90200000D03*
X152950000Y-90200000D03*
%TD*%
D12*
%TO.C,Q12*%
X162000000Y-101500000D03*
X160000000Y-102450000D03*
X160000000Y-100550000D03*
%TD*%
%TO.C,Q11*%
X162000000Y-98000000D03*
X160000000Y-98950000D03*
X160000000Y-97050000D03*
%TD*%
%TO.C,Q10*%
X162000000Y-94500000D03*
X160000000Y-95450000D03*
X160000000Y-93550000D03*
%TD*%
%TO.C,Q9*%
X162000000Y-91000000D03*
X160000000Y-91950000D03*
X160000000Y-90050000D03*
%TD*%
%TO.C,Q8*%
X158500000Y-101500000D03*
X156500000Y-102450000D03*
X156500000Y-100550000D03*
%TD*%
%TO.C,Q7*%
X158500000Y-98000000D03*
X156500000Y-98950000D03*
X156500000Y-97050000D03*
%TD*%
%TO.C,Q6*%
X158500000Y-94500000D03*
X156500000Y-95450000D03*
X156500000Y-93550000D03*
%TD*%
%TO.C,Q5*%
X158500000Y-91000000D03*
X156500000Y-91950000D03*
X156500000Y-90050000D03*
%TD*%
%TO.C,Q4*%
X151500000Y-101500000D03*
X149500000Y-102450000D03*
X149500000Y-100550000D03*
%TD*%
%TO.C,Q3*%
X151500000Y-98000000D03*
X149500000Y-98950000D03*
X149500000Y-97050000D03*
%TD*%
%TO.C,Q2*%
X151500000Y-94500000D03*
X149500000Y-95450000D03*
X149500000Y-93550000D03*
%TD*%
%TO.C,Q1*%
X151500000Y-91000000D03*
X149500000Y-91950000D03*
X149500000Y-90050000D03*
%TD*%
D13*
%TO.C,TP12*%
X164500000Y-101500000D03*
%TD*%
%TO.C,TP11*%
X164500000Y-98000000D03*
%TD*%
%TO.C,TP10*%
X164500000Y-94500000D03*
%TD*%
%TO.C,TP9*%
X164500000Y-91000000D03*
%TD*%
%TO.C,TP8*%
X161000000Y-106750000D03*
%TD*%
%TO.C,TP7*%
X155750000Y-106750000D03*
%TD*%
%TO.C,TP6*%
X150500000Y-87500000D03*
%TD*%
%TO.C,TP5*%
X152250000Y-106750000D03*
%TD*%
%TO.C,TP4*%
X145250000Y-101500000D03*
%TD*%
%TO.C,TP3*%
X145250000Y-98000000D03*
%TD*%
%TO.C,TP2*%
X145250000Y-94500000D03*
%TD*%
%TO.C,TP1*%
X145250000Y-91000000D03*
%TD*%
D14*
%TO.C,RN1*%
X148060000Y-103900000D03*
X149400000Y-103900000D03*
X145400000Y-103900000D03*
X146740000Y-103900000D03*
X148060000Y-106900000D03*
X146740000Y-106900000D03*
X149400000Y-106900000D03*
X145400000Y-106900000D03*
%TD*%
M02*
