%FSLAX45Y45*%
G04 Gerber Fmt 4.5, Leading zero omitted, Abs format (unit mm)*
G04 Created by KiCad (PCBNEW (5.1.9)-1) date 2022-08-22 18:31:57*
%MOMM*%
%LPD*%
G01*
G04 APERTURE LIST*
%TA.AperFunction,Profile*%
%ADD10C,0.050000*%
%TD*%
%ADD11C,0.200000*%
%ADD12C,0.300000*%
G04 APERTURE END LIST*
D10*
X15300000Y-8550000D02*
G75*
G02*
X15600000Y-8850000I0J-300000D01*
G01*
X11000000Y-8850000D02*
G75*
G02*
X11300000Y-8550000I300000J0D01*
G01*
X11300000Y-12100000D02*
G75*
G02*
X11000000Y-11800000I0J300000D01*
G01*
X15600000Y-11800000D02*
G75*
G02*
X15300000Y-12100000I-300000J0D01*
G01*
X11300000Y-12100000D02*
X15300000Y-12100000D01*
X11000000Y-8850000D02*
X11000000Y-11800000D01*
X15300000Y-8550000D02*
X11300000Y-8550000D01*
X15600000Y-11800000D02*
X15600000Y-8850000D01*
D11*
D12*
X11283928Y-12568214D02*
X11283928Y-12268214D01*
X11355357Y-12268214D01*
X11398214Y-12282500D01*
X11426786Y-12311071D01*
X11441071Y-12339643D01*
X11455357Y-12396786D01*
X11455357Y-12439643D01*
X11441071Y-12496786D01*
X11426786Y-12525357D01*
X11398214Y-12553929D01*
X11355357Y-12568214D01*
X11283928Y-12568214D01*
X11583928Y-12568214D02*
X11583928Y-12368214D01*
X11583928Y-12425357D02*
X11598214Y-12396786D01*
X11612500Y-12382500D01*
X11641071Y-12368214D01*
X11669643Y-12368214D01*
X11769643Y-12568214D02*
X11769643Y-12368214D01*
X11769643Y-12268214D02*
X11755357Y-12282500D01*
X11769643Y-12296786D01*
X11783928Y-12282500D01*
X11769643Y-12268214D01*
X11769643Y-12296786D01*
X11955357Y-12568214D02*
X11926786Y-12553929D01*
X11912500Y-12525357D01*
X11912500Y-12268214D01*
X12112500Y-12568214D02*
X12083928Y-12553929D01*
X12069643Y-12525357D01*
X12069643Y-12268214D01*
X12455357Y-12568214D02*
X12455357Y-12268214D01*
X12555357Y-12482500D01*
X12655357Y-12268214D01*
X12655357Y-12568214D01*
X12926786Y-12568214D02*
X12926786Y-12411071D01*
X12912500Y-12382500D01*
X12883928Y-12368214D01*
X12826786Y-12368214D01*
X12798214Y-12382500D01*
X12926786Y-12553929D02*
X12898214Y-12568214D01*
X12826786Y-12568214D01*
X12798214Y-12553929D01*
X12783928Y-12525357D01*
X12783928Y-12496786D01*
X12798214Y-12468214D01*
X12826786Y-12453929D01*
X12898214Y-12453929D01*
X12926786Y-12439643D01*
X13069643Y-12368214D02*
X13069643Y-12668214D01*
X13069643Y-12382500D02*
X13098214Y-12368214D01*
X13155357Y-12368214D01*
X13183928Y-12382500D01*
X13198214Y-12396786D01*
X13212500Y-12425357D01*
X13212500Y-12511071D01*
X13198214Y-12539643D01*
X13183928Y-12553929D01*
X13155357Y-12568214D01*
X13098214Y-12568214D01*
X13069643Y-12553929D01*
X13341071Y-12539643D02*
X13355357Y-12553929D01*
X13341071Y-12568214D01*
X13326786Y-12553929D01*
X13341071Y-12539643D01*
X13341071Y-12568214D01*
X13341071Y-12382500D02*
X13355357Y-12396786D01*
X13341071Y-12411071D01*
X13326786Y-12396786D01*
X13341071Y-12382500D01*
X13341071Y-12411071D01*
M02*
