%FSLAX45Y45*%
G04 Gerber Fmt 4.5, Leading zero omitted, Abs format (unit mm)*
G04 Created by KiCad (PCBNEW (5.1.9)-1) date 2022-08-22 18:31:57*
%MOMM*%
%LPD*%
G01*
G04 APERTURE LIST*
%TA.AperFunction,Profile*%
%ADD10C,0.050000*%
%TD*%
%ADD11C,0.200000*%
%ADD12C,0.300000*%
G04 APERTURE END LIST*
D10*
X15300000Y-8550000D02*
G75*
G02*
X15600000Y-8850000I0J-300000D01*
G01*
X11000000Y-8850000D02*
G75*
G02*
X11300000Y-8550000I300000J0D01*
G01*
X11300000Y-12100000D02*
G75*
G02*
X11000000Y-11800000I0J300000D01*
G01*
X15600000Y-11800000D02*
G75*
G02*
X15300000Y-12100000I-300000J0D01*
G01*
X11300000Y-12100000D02*
X15300000Y-12100000D01*
X11000000Y-8850000D02*
X11000000Y-11800000D01*
X15300000Y-8550000D02*
X11300000Y-8550000D01*
X15600000Y-11800000D02*
X15600000Y-8850000D01*
D11*
X11859300Y-9270000D02*
X11889300Y-9300000D01*
X11889300Y-9270000D02*
X11859300Y-9300000D01*
X11859300Y-9970000D02*
X11889300Y-10000000D01*
X11889300Y-9970000D02*
X11859300Y-10000000D01*
X11859300Y-10670000D02*
X11889300Y-10700000D01*
X11889300Y-10670000D02*
X11859300Y-10700000D01*
X11859300Y-11370000D02*
X11889300Y-11400000D01*
X11889300Y-11370000D02*
X11859300Y-11400000D01*
X12225000Y-9180000D02*
X12255000Y-9210000D01*
X12255000Y-9180000D02*
X12225000Y-9210000D01*
X12225000Y-9530000D02*
X12255000Y-9560000D01*
X12255000Y-9530000D02*
X12225000Y-9560000D01*
X12225000Y-9880000D02*
X12255000Y-9910000D01*
X12255000Y-9880000D02*
X12225000Y-9910000D01*
X12225000Y-10230000D02*
X12255000Y-10260000D01*
X12255000Y-10230000D02*
X12225000Y-10260000D01*
X12225000Y-10580000D02*
X12255000Y-10610000D01*
X12255000Y-10580000D02*
X12225000Y-10610000D01*
X12225000Y-10930000D02*
X12255000Y-10960000D01*
X12255000Y-10930000D02*
X12225000Y-10960000D01*
X12225000Y-11280000D02*
X12255000Y-11310000D01*
X12255000Y-11280000D02*
X12225000Y-11310000D01*
X12225000Y-11630000D02*
X12255000Y-11660000D01*
X12255000Y-11630000D02*
X12225000Y-11660000D01*
X12595000Y-9475000D02*
X12625000Y-9505000D01*
X12625000Y-9475000D02*
X12595000Y-9505000D01*
X12595000Y-10175000D02*
X12625000Y-10205000D01*
X12625000Y-10175000D02*
X12595000Y-10205000D01*
X12595000Y-10875000D02*
X12625000Y-10905000D01*
X12625000Y-10875000D02*
X12595000Y-10905000D01*
X12595000Y-11575000D02*
X12625000Y-11605000D01*
X12625000Y-11575000D02*
X12595000Y-11605000D01*
X12690000Y-9150000D02*
X12720000Y-9180000D01*
X12720000Y-9150000D02*
X12690000Y-9180000D01*
X12690000Y-9850000D02*
X12720000Y-9880000D01*
X12720000Y-9850000D02*
X12690000Y-9880000D01*
X12690000Y-10550000D02*
X12720000Y-10580000D01*
X12720000Y-10550000D02*
X12690000Y-10580000D01*
X12690000Y-11250000D02*
X12720000Y-11280000D01*
X12720000Y-11250000D02*
X12690000Y-11280000D01*
X12835000Y-9075000D02*
X12865000Y-9105000D01*
X12865000Y-9075000D02*
X12835000Y-9105000D01*
X12835000Y-9775000D02*
X12865000Y-9805000D01*
X12865000Y-9775000D02*
X12835000Y-9805000D01*
X12835000Y-10475000D02*
X12865000Y-10505000D01*
X12865000Y-10475000D02*
X12835000Y-10505000D01*
X12835000Y-11175000D02*
X12865000Y-11205000D01*
X12865000Y-11175000D02*
X12835000Y-11205000D01*
X12925000Y-9180000D02*
X12955000Y-9210000D01*
X12955000Y-9180000D02*
X12925000Y-9210000D01*
X12925000Y-9530000D02*
X12955000Y-9560000D01*
X12955000Y-9530000D02*
X12925000Y-9560000D01*
X12925000Y-9880000D02*
X12955000Y-9910000D01*
X12955000Y-9880000D02*
X12925000Y-9910000D01*
X12925000Y-10230000D02*
X12955000Y-10260000D01*
X12955000Y-10230000D02*
X12925000Y-10260000D01*
X12925000Y-10580000D02*
X12955000Y-10610000D01*
X12955000Y-10580000D02*
X12925000Y-10610000D01*
X12925000Y-10930000D02*
X12955000Y-10960000D01*
X12955000Y-10930000D02*
X12925000Y-10960000D01*
X12925000Y-11280000D02*
X12955000Y-11310000D01*
X12955000Y-11280000D02*
X12925000Y-11310000D01*
X12925000Y-11630000D02*
X12955000Y-11660000D01*
X12955000Y-11630000D02*
X12925000Y-11660000D01*
X13765000Y-9245000D02*
X13795000Y-9275000D01*
X13795000Y-9245000D02*
X13765000Y-9275000D01*
X13765000Y-9945000D02*
X13795000Y-9975000D01*
X13795000Y-9945000D02*
X13765000Y-9975000D01*
X13765000Y-10645000D02*
X13795000Y-10675000D01*
X13795000Y-10645000D02*
X13765000Y-10675000D01*
X13765000Y-11345000D02*
X13795000Y-11375000D01*
X13795000Y-11345000D02*
X13765000Y-11375000D01*
X13945000Y-9425000D02*
X13975000Y-9455000D01*
X13975000Y-9425000D02*
X13945000Y-9455000D01*
X13945000Y-10125000D02*
X13975000Y-10155000D01*
X13975000Y-10125000D02*
X13945000Y-10155000D01*
X13945000Y-10825000D02*
X13975000Y-10855000D01*
X13975000Y-10825000D02*
X13945000Y-10855000D01*
X13945000Y-11525000D02*
X13975000Y-11555000D01*
X13975000Y-11525000D02*
X13945000Y-11555000D01*
X14035000Y-9105000D02*
X14065000Y-9135000D01*
X14065000Y-9105000D02*
X14035000Y-9135000D01*
X14035000Y-9805000D02*
X14065000Y-9835000D01*
X14065000Y-9805000D02*
X14035000Y-9835000D01*
X14035000Y-10505000D02*
X14065000Y-10535000D01*
X14065000Y-10505000D02*
X14035000Y-10535000D01*
X14035000Y-11205000D02*
X14065000Y-11235000D01*
X14065000Y-11205000D02*
X14035000Y-11235000D01*
X14675000Y-9180000D02*
X14705000Y-9210000D01*
X14705000Y-9180000D02*
X14675000Y-9210000D01*
X14675000Y-9530000D02*
X14705000Y-9560000D01*
X14705000Y-9530000D02*
X14675000Y-9560000D01*
X14675000Y-9880000D02*
X14705000Y-9910000D01*
X14705000Y-9880000D02*
X14675000Y-9910000D01*
X14675000Y-10230000D02*
X14705000Y-10260000D01*
X14705000Y-10230000D02*
X14675000Y-10260000D01*
X14675000Y-10580000D02*
X14705000Y-10610000D01*
X14705000Y-10580000D02*
X14675000Y-10610000D01*
X14675000Y-10930000D02*
X14705000Y-10960000D01*
X14705000Y-10930000D02*
X14675000Y-10960000D01*
X14675000Y-11280000D02*
X14705000Y-11310000D01*
X14705000Y-11280000D02*
X14675000Y-11310000D01*
X14675000Y-11630000D02*
X14705000Y-11660000D01*
X14705000Y-11630000D02*
X14675000Y-11660000D01*
X15030000Y-9340000D02*
X15060000Y-9370000D01*
X15060000Y-9340000D02*
X15030000Y-9370000D01*
X15030000Y-10040000D02*
X15060000Y-10070000D01*
X15060000Y-10040000D02*
X15030000Y-10070000D01*
X15030000Y-10740000D02*
X15060000Y-10770000D01*
X15060000Y-10740000D02*
X15030000Y-10770000D01*
X15030000Y-11440000D02*
X15060000Y-11470000D01*
X15060000Y-11440000D02*
X15030000Y-11470000D01*
X11250000Y-9100000D02*
G75*
G03*
X11250000Y-9100000I-50000J0D01*
G01*
X11250000Y-9800000D02*
G75*
G03*
X11250000Y-9800000I-50000J0D01*
G01*
X11250000Y-10500000D02*
G75*
G03*
X11250000Y-10500000I-50000J0D01*
G01*
X11250000Y-11200000D02*
G75*
G03*
X11250000Y-11200000I-50000J0D01*
G01*
X11950000Y-8750000D02*
G75*
G03*
X11950000Y-8750000I-50000J0D01*
G01*
X11950000Y-11900000D02*
G75*
G03*
X11950000Y-11900000I-50000J0D01*
G01*
X12300000Y-8750000D02*
G75*
G03*
X12300000Y-8750000I-50000J0D01*
G01*
X12300000Y-11900000D02*
G75*
G03*
X12300000Y-11900000I-50000J0D01*
G01*
X12650000Y-8750000D02*
G75*
G03*
X12650000Y-8750000I-50000J0D01*
G01*
X12650000Y-11900000D02*
G75*
G03*
X12650000Y-11900000I-50000J0D01*
G01*
X13000000Y-8750000D02*
G75*
G03*
X13000000Y-8750000I-50000J0D01*
G01*
X13000000Y-11900000D02*
G75*
G03*
X13000000Y-11900000I-50000J0D01*
G01*
X13350000Y-8750000D02*
G75*
G03*
X13350000Y-8750000I-50000J0D01*
G01*
X13350000Y-11900000D02*
G75*
G03*
X13350000Y-11900000I-50000J0D01*
G01*
X13700000Y-8750000D02*
G75*
G03*
X13700000Y-8750000I-50000J0D01*
G01*
X13700000Y-11900000D02*
G75*
G03*
X13700000Y-11900000I-50000J0D01*
G01*
X14050000Y-8750000D02*
G75*
G03*
X14050000Y-8750000I-50000J0D01*
G01*
X14050000Y-11900000D02*
G75*
G03*
X14050000Y-11900000I-50000J0D01*
G01*
X14400000Y-8750000D02*
G75*
G03*
X14400000Y-8750000I-50000J0D01*
G01*
X14400000Y-11900000D02*
G75*
G03*
X14400000Y-11900000I-50000J0D01*
G01*
X14750000Y-8750000D02*
G75*
G03*
X14750000Y-8750000I-50000J0D01*
G01*
X14750000Y-11900000D02*
G75*
G03*
X14750000Y-11900000I-50000J0D01*
G01*
X15100000Y-8750000D02*
G75*
G03*
X15100000Y-8750000I-50000J0D01*
G01*
X15100000Y-11900000D02*
G75*
G03*
X15100000Y-11900000I-50000J0D01*
G01*
X15450000Y-9100000D02*
G75*
G03*
X15450000Y-9100000I-50000J0D01*
G01*
X15450000Y-9450000D02*
G75*
G03*
X15450000Y-9450000I-50000J0D01*
G01*
X15450000Y-9800000D02*
G75*
G03*
X15450000Y-9800000I-50000J0D01*
G01*
X15450000Y-10150000D02*
G75*
G03*
X15450000Y-10150000I-50000J0D01*
G01*
X15450000Y-10500000D02*
G75*
G03*
X15450000Y-10500000I-50000J0D01*
G01*
X15450000Y-10850000D02*
G75*
G03*
X15450000Y-10850000I-50000J0D01*
G01*
X15450000Y-11200000D02*
G75*
G03*
X15450000Y-11200000I-50000J0D01*
G01*
X15450000Y-11550000D02*
G75*
G03*
X15450000Y-11550000I-50000J0D01*
G01*
D12*
X11283928Y-12568214D02*
X11283928Y-12268214D01*
X11355357Y-12268214D01*
X11398214Y-12282500D01*
X11426786Y-12311071D01*
X11441071Y-12339643D01*
X11455357Y-12396786D01*
X11455357Y-12439643D01*
X11441071Y-12496786D01*
X11426786Y-12525357D01*
X11398214Y-12553929D01*
X11355357Y-12568214D01*
X11283928Y-12568214D01*
X11583928Y-12568214D02*
X11583928Y-12368214D01*
X11583928Y-12425357D02*
X11598214Y-12396786D01*
X11612500Y-12382500D01*
X11641071Y-12368214D01*
X11669643Y-12368214D01*
X11769643Y-12568214D02*
X11769643Y-12368214D01*
X11769643Y-12268214D02*
X11755357Y-12282500D01*
X11769643Y-12296786D01*
X11783928Y-12282500D01*
X11769643Y-12268214D01*
X11769643Y-12296786D01*
X11955357Y-12568214D02*
X11926786Y-12553929D01*
X11912500Y-12525357D01*
X11912500Y-12268214D01*
X12112500Y-12568214D02*
X12083928Y-12553929D01*
X12069643Y-12525357D01*
X12069643Y-12268214D01*
X12455357Y-12568214D02*
X12455357Y-12268214D01*
X12555357Y-12482500D01*
X12655357Y-12268214D01*
X12655357Y-12568214D01*
X12926786Y-12568214D02*
X12926786Y-12411071D01*
X12912500Y-12382500D01*
X12883928Y-12368214D01*
X12826786Y-12368214D01*
X12798214Y-12382500D01*
X12926786Y-12553929D02*
X12898214Y-12568214D01*
X12826786Y-12568214D01*
X12798214Y-12553929D01*
X12783928Y-12525357D01*
X12783928Y-12496786D01*
X12798214Y-12468214D01*
X12826786Y-12453929D01*
X12898214Y-12453929D01*
X12926786Y-12439643D01*
X13069643Y-12368214D02*
X13069643Y-12668214D01*
X13069643Y-12382500D02*
X13098214Y-12368214D01*
X13155357Y-12368214D01*
X13183928Y-12382500D01*
X13198214Y-12396786D01*
X13212500Y-12425357D01*
X13212500Y-12511071D01*
X13198214Y-12539643D01*
X13183928Y-12553929D01*
X13155357Y-12568214D01*
X13098214Y-12568214D01*
X13069643Y-12553929D01*
X13341071Y-12539643D02*
X13355357Y-12553929D01*
X13341071Y-12568214D01*
X13326786Y-12553929D01*
X13341071Y-12539643D01*
X13341071Y-12568214D01*
X13341071Y-12382500D02*
X13355357Y-12396786D01*
X13341071Y-12411071D01*
X13326786Y-12396786D01*
X13341071Y-12382500D01*
X13341071Y-12411071D01*
X10967500Y-13047500D02*
X10997500Y-13077500D01*
X10997500Y-13047500D02*
X10967500Y-13077500D01*
X11341071Y-12898214D02*
X11369643Y-12898214D01*
X11398214Y-12912500D01*
X11412500Y-12926786D01*
X11426786Y-12955357D01*
X11441071Y-13012500D01*
X11441071Y-13083929D01*
X11426786Y-13141071D01*
X11412500Y-13169643D01*
X11398214Y-13183929D01*
X11369643Y-13198214D01*
X11341071Y-13198214D01*
X11312500Y-13183929D01*
X11298214Y-13169643D01*
X11283928Y-13141071D01*
X11269643Y-13083929D01*
X11269643Y-13012500D01*
X11283928Y-12955357D01*
X11298214Y-12926786D01*
X11312500Y-12912500D01*
X11341071Y-12898214D01*
X11569643Y-13169643D02*
X11583928Y-13183929D01*
X11569643Y-13198214D01*
X11555357Y-13183929D01*
X11569643Y-13169643D01*
X11569643Y-13198214D01*
X11683928Y-12898214D02*
X11869643Y-12898214D01*
X11769643Y-13012500D01*
X11812500Y-13012500D01*
X11841071Y-13026786D01*
X11855357Y-13041071D01*
X11869643Y-13069643D01*
X11869643Y-13141071D01*
X11855357Y-13169643D01*
X11841071Y-13183929D01*
X11812500Y-13198214D01*
X11726786Y-13198214D01*
X11698214Y-13183929D01*
X11683928Y-13169643D01*
X12055357Y-12898214D02*
X12083928Y-12898214D01*
X12112500Y-12912500D01*
X12126786Y-12926786D01*
X12141071Y-12955357D01*
X12155357Y-13012500D01*
X12155357Y-13083929D01*
X12141071Y-13141071D01*
X12126786Y-13169643D01*
X12112500Y-13183929D01*
X12083928Y-13198214D01*
X12055357Y-13198214D01*
X12026786Y-13183929D01*
X12012500Y-13169643D01*
X11998214Y-13141071D01*
X11983928Y-13083929D01*
X11983928Y-13012500D01*
X11998214Y-12955357D01*
X12012500Y-12926786D01*
X12026786Y-12912500D01*
X12055357Y-12898214D01*
X12283928Y-13198214D02*
X12283928Y-12998214D01*
X12283928Y-13026786D02*
X12298214Y-13012500D01*
X12326786Y-12998214D01*
X12369643Y-12998214D01*
X12398214Y-13012500D01*
X12412500Y-13041071D01*
X12412500Y-13198214D01*
X12412500Y-13041071D02*
X12426786Y-13012500D01*
X12455357Y-12998214D01*
X12498214Y-12998214D01*
X12526786Y-13012500D01*
X12541071Y-13041071D01*
X12541071Y-13198214D01*
X12683928Y-13198214D02*
X12683928Y-12998214D01*
X12683928Y-13026786D02*
X12698214Y-13012500D01*
X12726786Y-12998214D01*
X12769643Y-12998214D01*
X12798214Y-13012500D01*
X12812500Y-13041071D01*
X12812500Y-13198214D01*
X12812500Y-13041071D02*
X12826786Y-13012500D01*
X12855357Y-12998214D01*
X12898214Y-12998214D01*
X12926786Y-13012500D01*
X12941071Y-13041071D01*
X12941071Y-13198214D01*
X13526786Y-12883929D02*
X13269643Y-13269643D01*
X13912500Y-12898214D02*
X13941071Y-12898214D01*
X13969643Y-12912500D01*
X13983928Y-12926786D01*
X13998214Y-12955357D01*
X14012500Y-13012500D01*
X14012500Y-13083929D01*
X13998214Y-13141071D01*
X13983928Y-13169643D01*
X13969643Y-13183929D01*
X13941071Y-13198214D01*
X13912500Y-13198214D01*
X13883928Y-13183929D01*
X13869643Y-13169643D01*
X13855357Y-13141071D01*
X13841071Y-13083929D01*
X13841071Y-13012500D01*
X13855357Y-12955357D01*
X13869643Y-12926786D01*
X13883928Y-12912500D01*
X13912500Y-12898214D01*
X14141071Y-13169643D02*
X14155357Y-13183929D01*
X14141071Y-13198214D01*
X14126786Y-13183929D01*
X14141071Y-13169643D01*
X14141071Y-13198214D01*
X14341071Y-12898214D02*
X14369643Y-12898214D01*
X14398214Y-12912500D01*
X14412500Y-12926786D01*
X14426786Y-12955357D01*
X14441071Y-13012500D01*
X14441071Y-13083929D01*
X14426786Y-13141071D01*
X14412500Y-13169643D01*
X14398214Y-13183929D01*
X14369643Y-13198214D01*
X14341071Y-13198214D01*
X14312500Y-13183929D01*
X14298214Y-13169643D01*
X14283928Y-13141071D01*
X14269643Y-13083929D01*
X14269643Y-13012500D01*
X14283928Y-12955357D01*
X14298214Y-12926786D01*
X14312500Y-12912500D01*
X14341071Y-12898214D01*
X14726786Y-13198214D02*
X14555357Y-13198214D01*
X14641071Y-13198214D02*
X14641071Y-12898214D01*
X14612500Y-12941071D01*
X14583928Y-12969643D01*
X14555357Y-12983929D01*
X14841071Y-12926786D02*
X14855357Y-12912500D01*
X14883928Y-12898214D01*
X14955357Y-12898214D01*
X14983928Y-12912500D01*
X14998214Y-12926786D01*
X15012500Y-12955357D01*
X15012500Y-12983929D01*
X14998214Y-13026786D01*
X14826786Y-13198214D01*
X15012500Y-13198214D01*
X15126786Y-12898214D02*
X15126786Y-12955357D01*
X15241071Y-12898214D02*
X15241071Y-12955357D01*
X15683928Y-13312500D02*
X15669643Y-13298214D01*
X15641071Y-13255357D01*
X15626786Y-13226786D01*
X15612500Y-13183929D01*
X15598214Y-13112500D01*
X15598214Y-13055357D01*
X15612500Y-12983929D01*
X15626786Y-12941071D01*
X15641071Y-12912500D01*
X15669643Y-12869643D01*
X15683928Y-12855357D01*
X15941071Y-12898214D02*
X15798214Y-12898214D01*
X15783928Y-13041071D01*
X15798214Y-13026786D01*
X15826786Y-13012500D01*
X15898214Y-13012500D01*
X15926786Y-13026786D01*
X15941071Y-13041071D01*
X15955357Y-13069643D01*
X15955357Y-13141071D01*
X15941071Y-13169643D01*
X15926786Y-13183929D01*
X15898214Y-13198214D01*
X15826786Y-13198214D01*
X15798214Y-13183929D01*
X15783928Y-13169643D01*
X16212500Y-12898214D02*
X16155357Y-12898214D01*
X16126786Y-12912500D01*
X16112500Y-12926786D01*
X16083928Y-12969643D01*
X16069643Y-13026786D01*
X16069643Y-13141071D01*
X16083928Y-13169643D01*
X16098214Y-13183929D01*
X16126786Y-13198214D01*
X16183928Y-13198214D01*
X16212500Y-13183929D01*
X16226786Y-13169643D01*
X16241071Y-13141071D01*
X16241071Y-13069643D01*
X16226786Y-13041071D01*
X16212500Y-13026786D01*
X16183928Y-13012500D01*
X16126786Y-13012500D01*
X16098214Y-13026786D01*
X16083928Y-13041071D01*
X16069643Y-13069643D01*
X16598214Y-13198214D02*
X16598214Y-12898214D01*
X16726786Y-13198214D02*
X16726786Y-13041071D01*
X16712500Y-13012500D01*
X16683928Y-12998214D01*
X16641071Y-12998214D01*
X16612500Y-13012500D01*
X16598214Y-13026786D01*
X16912500Y-13198214D02*
X16883928Y-13183929D01*
X16869643Y-13169643D01*
X16855357Y-13141071D01*
X16855357Y-13055357D01*
X16869643Y-13026786D01*
X16883928Y-13012500D01*
X16912500Y-12998214D01*
X16955357Y-12998214D01*
X16983928Y-13012500D01*
X16998214Y-13026786D01*
X17012500Y-13055357D01*
X17012500Y-13141071D01*
X16998214Y-13169643D01*
X16983928Y-13183929D01*
X16955357Y-13198214D01*
X16912500Y-13198214D01*
X17183928Y-13198214D02*
X17155357Y-13183929D01*
X17141071Y-13155357D01*
X17141071Y-12898214D01*
X17412500Y-13183929D02*
X17383928Y-13198214D01*
X17326786Y-13198214D01*
X17298214Y-13183929D01*
X17283928Y-13155357D01*
X17283928Y-13041071D01*
X17298214Y-13012500D01*
X17326786Y-12998214D01*
X17383928Y-12998214D01*
X17412500Y-13012500D01*
X17426786Y-13041071D01*
X17426786Y-13069643D01*
X17283928Y-13098214D01*
X17541071Y-13183929D02*
X17569643Y-13198214D01*
X17626786Y-13198214D01*
X17655357Y-13183929D01*
X17669643Y-13155357D01*
X17669643Y-13141071D01*
X17655357Y-13112500D01*
X17626786Y-13098214D01*
X17583928Y-13098214D01*
X17555357Y-13083929D01*
X17541071Y-13055357D01*
X17541071Y-13041071D01*
X17555357Y-13012500D01*
X17583928Y-12998214D01*
X17626786Y-12998214D01*
X17655357Y-13012500D01*
X17769643Y-13312500D02*
X17783928Y-13298214D01*
X17812500Y-13255357D01*
X17826786Y-13226786D01*
X17841071Y-13183929D01*
X17855357Y-13112500D01*
X17855357Y-13055357D01*
X17841071Y-12983929D01*
X17826786Y-12941071D01*
X17812500Y-12912500D01*
X17783928Y-12869643D01*
X17769643Y-12855357D01*
X10997500Y-13458500D02*
G75*
G03*
X10997500Y-13458500I-50000J0D01*
G01*
X11441071Y-13594214D02*
X11269643Y-13594214D01*
X11355357Y-13594214D02*
X11355357Y-13294214D01*
X11326786Y-13337071D01*
X11298214Y-13365643D01*
X11269643Y-13379929D01*
X11569643Y-13565643D02*
X11583928Y-13579929D01*
X11569643Y-13594214D01*
X11555357Y-13579929D01*
X11569643Y-13565643D01*
X11569643Y-13594214D01*
X11769643Y-13294214D02*
X11798214Y-13294214D01*
X11826786Y-13308500D01*
X11841071Y-13322786D01*
X11855357Y-13351357D01*
X11869643Y-13408500D01*
X11869643Y-13479929D01*
X11855357Y-13537071D01*
X11841071Y-13565643D01*
X11826786Y-13579929D01*
X11798214Y-13594214D01*
X11769643Y-13594214D01*
X11741071Y-13579929D01*
X11726786Y-13565643D01*
X11712500Y-13537071D01*
X11698214Y-13479929D01*
X11698214Y-13408500D01*
X11712500Y-13351357D01*
X11726786Y-13322786D01*
X11741071Y-13308500D01*
X11769643Y-13294214D01*
X12055357Y-13294214D02*
X12083928Y-13294214D01*
X12112500Y-13308500D01*
X12126786Y-13322786D01*
X12141071Y-13351357D01*
X12155357Y-13408500D01*
X12155357Y-13479929D01*
X12141071Y-13537071D01*
X12126786Y-13565643D01*
X12112500Y-13579929D01*
X12083928Y-13594214D01*
X12055357Y-13594214D01*
X12026786Y-13579929D01*
X12012500Y-13565643D01*
X11998214Y-13537071D01*
X11983928Y-13479929D01*
X11983928Y-13408500D01*
X11998214Y-13351357D01*
X12012500Y-13322786D01*
X12026786Y-13308500D01*
X12055357Y-13294214D01*
X12283928Y-13594214D02*
X12283928Y-13394214D01*
X12283928Y-13422786D02*
X12298214Y-13408500D01*
X12326786Y-13394214D01*
X12369643Y-13394214D01*
X12398214Y-13408500D01*
X12412500Y-13437071D01*
X12412500Y-13594214D01*
X12412500Y-13437071D02*
X12426786Y-13408500D01*
X12455357Y-13394214D01*
X12498214Y-13394214D01*
X12526786Y-13408500D01*
X12541071Y-13437071D01*
X12541071Y-13594214D01*
X12683928Y-13594214D02*
X12683928Y-13394214D01*
X12683928Y-13422786D02*
X12698214Y-13408500D01*
X12726786Y-13394214D01*
X12769643Y-13394214D01*
X12798214Y-13408500D01*
X12812500Y-13437071D01*
X12812500Y-13594214D01*
X12812500Y-13437071D02*
X12826786Y-13408500D01*
X12855357Y-13394214D01*
X12898214Y-13394214D01*
X12926786Y-13408500D01*
X12941071Y-13437071D01*
X12941071Y-13594214D01*
X13526786Y-13279929D02*
X13269643Y-13665643D01*
X13912500Y-13294214D02*
X13941071Y-13294214D01*
X13969643Y-13308500D01*
X13983928Y-13322786D01*
X13998214Y-13351357D01*
X14012500Y-13408500D01*
X14012500Y-13479929D01*
X13998214Y-13537071D01*
X13983928Y-13565643D01*
X13969643Y-13579929D01*
X13941071Y-13594214D01*
X13912500Y-13594214D01*
X13883928Y-13579929D01*
X13869643Y-13565643D01*
X13855357Y-13537071D01*
X13841071Y-13479929D01*
X13841071Y-13408500D01*
X13855357Y-13351357D01*
X13869643Y-13322786D01*
X13883928Y-13308500D01*
X13912500Y-13294214D01*
X14141071Y-13565643D02*
X14155357Y-13579929D01*
X14141071Y-13594214D01*
X14126786Y-13579929D01*
X14141071Y-13565643D01*
X14141071Y-13594214D01*
X14341071Y-13294214D02*
X14369643Y-13294214D01*
X14398214Y-13308500D01*
X14412500Y-13322786D01*
X14426786Y-13351357D01*
X14441071Y-13408500D01*
X14441071Y-13479929D01*
X14426786Y-13537071D01*
X14412500Y-13565643D01*
X14398214Y-13579929D01*
X14369643Y-13594214D01*
X14341071Y-13594214D01*
X14312500Y-13579929D01*
X14298214Y-13565643D01*
X14283928Y-13537071D01*
X14269643Y-13479929D01*
X14269643Y-13408500D01*
X14283928Y-13351357D01*
X14298214Y-13322786D01*
X14312500Y-13308500D01*
X14341071Y-13294214D01*
X14541071Y-13294214D02*
X14726786Y-13294214D01*
X14626786Y-13408500D01*
X14669643Y-13408500D01*
X14698214Y-13422786D01*
X14712500Y-13437071D01*
X14726786Y-13465643D01*
X14726786Y-13537071D01*
X14712500Y-13565643D01*
X14698214Y-13579929D01*
X14669643Y-13594214D01*
X14583928Y-13594214D01*
X14555357Y-13579929D01*
X14541071Y-13565643D01*
X14869643Y-13594214D02*
X14926786Y-13594214D01*
X14955357Y-13579929D01*
X14969643Y-13565643D01*
X14998214Y-13522786D01*
X15012500Y-13465643D01*
X15012500Y-13351357D01*
X14998214Y-13322786D01*
X14983928Y-13308500D01*
X14955357Y-13294214D01*
X14898214Y-13294214D01*
X14869643Y-13308500D01*
X14855357Y-13322786D01*
X14841071Y-13351357D01*
X14841071Y-13422786D01*
X14855357Y-13451357D01*
X14869643Y-13465643D01*
X14898214Y-13479929D01*
X14955357Y-13479929D01*
X14983928Y-13465643D01*
X14998214Y-13451357D01*
X15012500Y-13422786D01*
X15126786Y-13294214D02*
X15126786Y-13351357D01*
X15241071Y-13294214D02*
X15241071Y-13351357D01*
X15683928Y-13708500D02*
X15669643Y-13694214D01*
X15641071Y-13651357D01*
X15626786Y-13622786D01*
X15612500Y-13579929D01*
X15598214Y-13508500D01*
X15598214Y-13451357D01*
X15612500Y-13379929D01*
X15626786Y-13337071D01*
X15641071Y-13308500D01*
X15669643Y-13265643D01*
X15683928Y-13251357D01*
X15769643Y-13294214D02*
X15955357Y-13294214D01*
X15855357Y-13408500D01*
X15898214Y-13408500D01*
X15926786Y-13422786D01*
X15941071Y-13437071D01*
X15955357Y-13465643D01*
X15955357Y-13537071D01*
X15941071Y-13565643D01*
X15926786Y-13579929D01*
X15898214Y-13594214D01*
X15812500Y-13594214D01*
X15783928Y-13579929D01*
X15769643Y-13565643D01*
X16069643Y-13322786D02*
X16083928Y-13308500D01*
X16112500Y-13294214D01*
X16183928Y-13294214D01*
X16212500Y-13308500D01*
X16226786Y-13322786D01*
X16241071Y-13351357D01*
X16241071Y-13379929D01*
X16226786Y-13422786D01*
X16055357Y-13594214D01*
X16241071Y-13594214D01*
X16598214Y-13594214D02*
X16598214Y-13294214D01*
X16726786Y-13594214D02*
X16726786Y-13437071D01*
X16712500Y-13408500D01*
X16683928Y-13394214D01*
X16641071Y-13394214D01*
X16612500Y-13408500D01*
X16598214Y-13422786D01*
X16912500Y-13594214D02*
X16883928Y-13579929D01*
X16869643Y-13565643D01*
X16855357Y-13537071D01*
X16855357Y-13451357D01*
X16869643Y-13422786D01*
X16883928Y-13408500D01*
X16912500Y-13394214D01*
X16955357Y-13394214D01*
X16983928Y-13408500D01*
X16998214Y-13422786D01*
X17012500Y-13451357D01*
X17012500Y-13537071D01*
X16998214Y-13565643D01*
X16983928Y-13579929D01*
X16955357Y-13594214D01*
X16912500Y-13594214D01*
X17183928Y-13594214D02*
X17155357Y-13579929D01*
X17141071Y-13551357D01*
X17141071Y-13294214D01*
X17412500Y-13579929D02*
X17383928Y-13594214D01*
X17326786Y-13594214D01*
X17298214Y-13579929D01*
X17283928Y-13551357D01*
X17283928Y-13437071D01*
X17298214Y-13408500D01*
X17326786Y-13394214D01*
X17383928Y-13394214D01*
X17412500Y-13408500D01*
X17426786Y-13437071D01*
X17426786Y-13465643D01*
X17283928Y-13494214D01*
X17541071Y-13579929D02*
X17569643Y-13594214D01*
X17626786Y-13594214D01*
X17655357Y-13579929D01*
X17669643Y-13551357D01*
X17669643Y-13537071D01*
X17655357Y-13508500D01*
X17626786Y-13494214D01*
X17583928Y-13494214D01*
X17555357Y-13479929D01*
X17541071Y-13451357D01*
X17541071Y-13437071D01*
X17555357Y-13408500D01*
X17583928Y-13394214D01*
X17626786Y-13394214D01*
X17655357Y-13408500D01*
X17769643Y-13708500D02*
X17783928Y-13694214D01*
X17812500Y-13651357D01*
X17826786Y-13622786D01*
X17841071Y-13579929D01*
X17855357Y-13508500D01*
X17855357Y-13451357D01*
X17841071Y-13379929D01*
X17826786Y-13337071D01*
X17812500Y-13308500D01*
X17783928Y-13265643D01*
X17769643Y-13251357D01*
M02*
