M48
; DRILL file {KiCad (5.1.9)-1} date 08/31/22 17:37:15
; FORMAT={-:-/ absolute / metric / decimal}
; #@! TF.CreationDate,2022-08-31T17:37:15+02:00
; #@! TF.GenerationSoftware,Kicad,Pcbnew,(5.1.9)-1
; #@! TF.FileFunction,Plated,1,2,PTH
FMAT,2
METRIC
T1C0.300
T2C1.000
%
G90
G05
T1
X118.743Y-92.85
X118.743Y-99.85
X118.743Y-106.85
X118.743Y-113.85
X122.4Y-91.95
X122.4Y-95.45
X122.4Y-98.95
X122.4Y-102.45
X122.4Y-105.95
X122.4Y-109.45
X122.4Y-112.95
X122.4Y-116.45
X126.1Y-94.9
X126.1Y-101.9
X126.1Y-108.9
X126.1Y-115.9
X127.05Y-91.65
X127.05Y-98.65
X127.05Y-105.65
X127.05Y-112.65
X128.5Y-90.9
X128.5Y-97.9
X128.5Y-104.9
X128.5Y-111.9
X129.4Y-91.95
X129.4Y-95.45
X129.4Y-98.95
X129.4Y-102.45
X129.4Y-105.95
X129.4Y-109.45
X129.4Y-112.95
X129.4Y-116.45
X137.8Y-92.6
X137.8Y-99.6
X137.8Y-106.6
X137.8Y-113.6
X139.6Y-94.4
X139.6Y-101.4
X139.6Y-108.4
X139.6Y-115.4
X140.5Y-91.2
X140.5Y-98.2
X140.5Y-105.2
X140.5Y-112.2
X146.9Y-91.95
X146.9Y-95.45
X146.9Y-98.95
X146.9Y-102.45
X146.9Y-105.95
X146.9Y-109.45
X146.9Y-112.95
X146.9Y-116.45
X150.45Y-93.55
X150.45Y-100.55
X150.45Y-107.55
X150.45Y-114.55
T2
X112.0Y-91.0
X112.0Y-98.0
X112.0Y-105.0
X112.0Y-112.0
X119.0Y-87.5
X119.0Y-119.0
X122.5Y-87.5
X122.5Y-119.0
X126.0Y-87.5
X126.0Y-119.0
X129.5Y-87.5
X129.5Y-119.0
X133.0Y-87.5
X133.0Y-119.0
X136.5Y-87.5
X136.5Y-119.0
X140.0Y-87.5
X140.0Y-119.0
X150.5Y-87.5
X150.5Y-119.0
X154.0Y-91.0
X154.0Y-94.5
X154.0Y-98.0
X154.0Y-101.5
X154.0Y-105.0
X154.0Y-108.5
X154.0Y-112.0
X154.0Y-115.5
T0
M30
