G04 #@! TF.GenerationSoftware,KiCad,Pcbnew,(5.1.9)-1*
G04 #@! TF.CreationDate,2022-08-31T17:37:08+02:00*
G04 #@! TF.ProjectId,Edge_dff,45646765-5f64-4666-962e-6b696361645f,rev?*
G04 #@! TF.SameCoordinates,Original*
G04 #@! TF.FileFunction,Copper,L1,Top*
G04 #@! TF.FilePolarity,Positive*
%FSLAX46Y46*%
G04 Gerber Fmt 4.6, Leading zero omitted, Abs format (unit mm)*
G04 Created by KiCad (PCBNEW (5.1.9)-1) date 2022-08-31 17:37:08*
%MOMM*%
%LPD*%
G01*
G04 APERTURE LIST*
G04 #@! TA.AperFunction,SMDPad,CuDef*
%ADD10C,1.000000*%
G04 #@! TD*
G04 #@! TA.AperFunction,ComponentPad*
%ADD11C,2.000000*%
G04 #@! TD*
G04 #@! TA.AperFunction,SMDPad,CuDef*
%ADD12R,0.900000X0.900000*%
G04 #@! TD*
G04 #@! TA.AperFunction,SMDPad,CuDef*
%ADD13R,0.900000X0.800000*%
G04 #@! TD*
G04 #@! TA.AperFunction,SMDPad,CuDef*
%ADD14R,0.450000X0.600000*%
G04 #@! TD*
G04 #@! TA.AperFunction,SMDPad,CuDef*
%ADD15R,0.600000X0.450000*%
G04 #@! TD*
G04 #@! TA.AperFunction,ViaPad*
%ADD16C,0.500000*%
G04 #@! TD*
G04 #@! TA.AperFunction,Conductor*
%ADD17C,0.157000*%
G04 #@! TD*
G04 APERTURE END LIST*
D10*
G04 #@! TO.P,TP504,1*
G04 #@! TO.N,/three/Q0*
X144100000Y-93800000D03*
G04 #@! TD*
D11*
G04 #@! TO.P,TP503,1*
G04 #@! TO.N,/three/Q0'*
X154000000Y-94500000D03*
G04 #@! TD*
G04 #@! TO.P,TP502,1*
G04 #@! TO.N,/three/B0'*
X154000000Y-91000000D03*
G04 #@! TD*
G04 #@! TO.P,TP501,1*
G04 #@! TO.N,/three/B0*
X112000000Y-91000000D03*
G04 #@! TD*
D10*
G04 #@! TO.P,TP404,1*
G04 #@! TO.N,/two/Q0*
X144100000Y-100800000D03*
G04 #@! TD*
D11*
G04 #@! TO.P,TP403,1*
G04 #@! TO.N,/two/Q0'*
X154000000Y-101500000D03*
G04 #@! TD*
G04 #@! TO.P,TP402,1*
G04 #@! TO.N,/two/B0'*
X154000000Y-98000000D03*
G04 #@! TD*
G04 #@! TO.P,TP401,1*
G04 #@! TO.N,/two/B0*
X112000000Y-98000000D03*
G04 #@! TD*
D10*
G04 #@! TO.P,TP304,1*
G04 #@! TO.N,/one/Q0*
X144100000Y-107800000D03*
G04 #@! TD*
D11*
G04 #@! TO.P,TP303,1*
G04 #@! TO.N,/one/Q0'*
X154000000Y-108500000D03*
G04 #@! TD*
G04 #@! TO.P,TP302,1*
G04 #@! TO.N,/one/B0'*
X154000000Y-105000000D03*
G04 #@! TD*
G04 #@! TO.P,TP301,1*
G04 #@! TO.N,/one/B0*
X112000000Y-105000000D03*
G04 #@! TD*
D10*
G04 #@! TO.P,TP204,1*
G04 #@! TO.N,/zero/Q0*
X144100000Y-114800000D03*
G04 #@! TD*
D11*
G04 #@! TO.P,TP203,1*
G04 #@! TO.N,/zero/Q0'*
X154000000Y-115500000D03*
G04 #@! TD*
G04 #@! TO.P,TP202,1*
G04 #@! TO.N,/zero/B0'*
X154000000Y-112000000D03*
G04 #@! TD*
G04 #@! TO.P,TP201,1*
G04 #@! TO.N,/zero/B0*
X112000000Y-112000000D03*
G04 #@! TD*
D12*
G04 #@! TO.P,RN501,6*
G04 #@! TO.N,VCC*
X138600000Y-93260000D03*
G04 #@! TO.P,RN501,5*
X138600000Y-94600000D03*
G04 #@! TO.P,RN501,8*
X138600000Y-90600000D03*
G04 #@! TO.P,RN501,7*
X138600000Y-91940000D03*
G04 #@! TO.P,RN501,3*
G04 #@! TO.N,Net-(D503-Pad2)*
X135600000Y-93260000D03*
G04 #@! TO.P,RN501,2*
G04 #@! TO.N,/three/Q0*
X135600000Y-91940000D03*
G04 #@! TO.P,RN501,4*
G04 #@! TO.N,/three/Q0'*
X135600000Y-94600000D03*
G04 #@! TO.P,RN501,1*
G04 #@! TO.N,Net-(D502-Pad2)*
X135600000Y-90600000D03*
G04 #@! TD*
G04 #@! TO.P,RN401,6*
G04 #@! TO.N,VCC*
X138600000Y-100260000D03*
G04 #@! TO.P,RN401,5*
X138600000Y-101600000D03*
G04 #@! TO.P,RN401,8*
X138600000Y-97600000D03*
G04 #@! TO.P,RN401,7*
X138600000Y-98940000D03*
G04 #@! TO.P,RN401,3*
G04 #@! TO.N,Net-(D403-Pad2)*
X135600000Y-100260000D03*
G04 #@! TO.P,RN401,2*
G04 #@! TO.N,/two/Q0*
X135600000Y-98940000D03*
G04 #@! TO.P,RN401,4*
G04 #@! TO.N,/two/Q0'*
X135600000Y-101600000D03*
G04 #@! TO.P,RN401,1*
G04 #@! TO.N,Net-(D402-Pad2)*
X135600000Y-97600000D03*
G04 #@! TD*
G04 #@! TO.P,RN301,6*
G04 #@! TO.N,VCC*
X138600000Y-107260000D03*
G04 #@! TO.P,RN301,5*
X138600000Y-108600000D03*
G04 #@! TO.P,RN301,8*
X138600000Y-104600000D03*
G04 #@! TO.P,RN301,7*
X138600000Y-105940000D03*
G04 #@! TO.P,RN301,3*
G04 #@! TO.N,Net-(D303-Pad2)*
X135600000Y-107260000D03*
G04 #@! TO.P,RN301,2*
G04 #@! TO.N,/one/Q0*
X135600000Y-105940000D03*
G04 #@! TO.P,RN301,4*
G04 #@! TO.N,/one/Q0'*
X135600000Y-108600000D03*
G04 #@! TO.P,RN301,1*
G04 #@! TO.N,Net-(D302-Pad2)*
X135600000Y-104600000D03*
G04 #@! TD*
G04 #@! TO.P,RN201,6*
G04 #@! TO.N,VCC*
X138600000Y-114260000D03*
G04 #@! TO.P,RN201,5*
X138600000Y-115600000D03*
G04 #@! TO.P,RN201,8*
X138600000Y-111600000D03*
G04 #@! TO.P,RN201,7*
X138600000Y-112940000D03*
G04 #@! TO.P,RN201,3*
G04 #@! TO.N,Net-(D203-Pad2)*
X135600000Y-114260000D03*
G04 #@! TO.P,RN201,2*
G04 #@! TO.N,/zero/Q0*
X135600000Y-112940000D03*
G04 #@! TO.P,RN201,4*
G04 #@! TO.N,/zero/Q0'*
X135600000Y-115600000D03*
G04 #@! TO.P,RN201,1*
G04 #@! TO.N,Net-(D202-Pad2)*
X135600000Y-111600000D03*
G04 #@! TD*
G04 #@! TO.P,R501,2*
G04 #@! TO.N,Net-(D506-Pad2)*
G04 #@! TA.AperFunction,SMDPad,CuDef*
G36*
G01*
X140950002Y-94000000D02*
X140049998Y-94000000D01*
G75*
G02*
X139800000Y-93750002I0J249998D01*
G01*
X139800000Y-93224998D01*
G75*
G02*
X140049998Y-92975000I249998J0D01*
G01*
X140950002Y-92975000D01*
G75*
G02*
X141200000Y-93224998I0J-249998D01*
G01*
X141200000Y-93750002D01*
G75*
G02*
X140950002Y-94000000I-249998J0D01*
G01*
G37*
G04 #@! TD.AperFunction*
G04 #@! TO.P,R501,1*
G04 #@! TO.N,Vdrive*
G04 #@! TA.AperFunction,SMDPad,CuDef*
G36*
G01*
X140950002Y-95825000D02*
X140049998Y-95825000D01*
G75*
G02*
X139800000Y-95575002I0J249998D01*
G01*
X139800000Y-95049998D01*
G75*
G02*
X140049998Y-94800000I249998J0D01*
G01*
X140950002Y-94800000D01*
G75*
G02*
X141200000Y-95049998I0J-249998D01*
G01*
X141200000Y-95575002D01*
G75*
G02*
X140950002Y-95825000I-249998J0D01*
G01*
G37*
G04 #@! TD.AperFunction*
G04 #@! TD*
G04 #@! TO.P,R401,2*
G04 #@! TO.N,Net-(D406-Pad2)*
G04 #@! TA.AperFunction,SMDPad,CuDef*
G36*
G01*
X140950002Y-101000000D02*
X140049998Y-101000000D01*
G75*
G02*
X139800000Y-100750002I0J249998D01*
G01*
X139800000Y-100224998D01*
G75*
G02*
X140049998Y-99975000I249998J0D01*
G01*
X140950002Y-99975000D01*
G75*
G02*
X141200000Y-100224998I0J-249998D01*
G01*
X141200000Y-100750002D01*
G75*
G02*
X140950002Y-101000000I-249998J0D01*
G01*
G37*
G04 #@! TD.AperFunction*
G04 #@! TO.P,R401,1*
G04 #@! TO.N,Vdrive*
G04 #@! TA.AperFunction,SMDPad,CuDef*
G36*
G01*
X140950002Y-102825000D02*
X140049998Y-102825000D01*
G75*
G02*
X139800000Y-102575002I0J249998D01*
G01*
X139800000Y-102049998D01*
G75*
G02*
X140049998Y-101800000I249998J0D01*
G01*
X140950002Y-101800000D01*
G75*
G02*
X141200000Y-102049998I0J-249998D01*
G01*
X141200000Y-102575002D01*
G75*
G02*
X140950002Y-102825000I-249998J0D01*
G01*
G37*
G04 #@! TD.AperFunction*
G04 #@! TD*
G04 #@! TO.P,R301,2*
G04 #@! TO.N,Net-(D306-Pad2)*
G04 #@! TA.AperFunction,SMDPad,CuDef*
G36*
G01*
X140950002Y-108000000D02*
X140049998Y-108000000D01*
G75*
G02*
X139800000Y-107750002I0J249998D01*
G01*
X139800000Y-107224998D01*
G75*
G02*
X140049998Y-106975000I249998J0D01*
G01*
X140950002Y-106975000D01*
G75*
G02*
X141200000Y-107224998I0J-249998D01*
G01*
X141200000Y-107750002D01*
G75*
G02*
X140950002Y-108000000I-249998J0D01*
G01*
G37*
G04 #@! TD.AperFunction*
G04 #@! TO.P,R301,1*
G04 #@! TO.N,Vdrive*
G04 #@! TA.AperFunction,SMDPad,CuDef*
G36*
G01*
X140950002Y-109825000D02*
X140049998Y-109825000D01*
G75*
G02*
X139800000Y-109575002I0J249998D01*
G01*
X139800000Y-109049998D01*
G75*
G02*
X140049998Y-108800000I249998J0D01*
G01*
X140950002Y-108800000D01*
G75*
G02*
X141200000Y-109049998I0J-249998D01*
G01*
X141200000Y-109575002D01*
G75*
G02*
X140950002Y-109825000I-249998J0D01*
G01*
G37*
G04 #@! TD.AperFunction*
G04 #@! TD*
G04 #@! TO.P,R201,2*
G04 #@! TO.N,Net-(D206-Pad2)*
G04 #@! TA.AperFunction,SMDPad,CuDef*
G36*
G01*
X140950002Y-115000000D02*
X140049998Y-115000000D01*
G75*
G02*
X139800000Y-114750002I0J249998D01*
G01*
X139800000Y-114224998D01*
G75*
G02*
X140049998Y-113975000I249998J0D01*
G01*
X140950002Y-113975000D01*
G75*
G02*
X141200000Y-114224998I0J-249998D01*
G01*
X141200000Y-114750002D01*
G75*
G02*
X140950002Y-115000000I-249998J0D01*
G01*
G37*
G04 #@! TD.AperFunction*
G04 #@! TO.P,R201,1*
G04 #@! TO.N,Vdrive*
G04 #@! TA.AperFunction,SMDPad,CuDef*
G36*
G01*
X140950002Y-116825000D02*
X140049998Y-116825000D01*
G75*
G02*
X139800000Y-116575002I0J249998D01*
G01*
X139800000Y-116049998D01*
G75*
G02*
X140049998Y-115800000I249998J0D01*
G01*
X140950002Y-115800000D01*
G75*
G02*
X141200000Y-116049998I0J-249998D01*
G01*
X141200000Y-116575002D01*
G75*
G02*
X140950002Y-116825000I-249998J0D01*
G01*
G37*
G04 #@! TD.AperFunction*
G04 #@! TD*
D13*
G04 #@! TO.P,Q514,3*
G04 #@! TO.N,Net-(Q513-Pad2)*
X151500000Y-94500000D03*
G04 #@! TO.P,Q514,2*
G04 #@! TO.N,GND*
X149500000Y-95450000D03*
G04 #@! TO.P,Q514,1*
G04 #@! TO.N,~OE*
X149500000Y-93550000D03*
G04 #@! TD*
G04 #@! TO.P,Q513,3*
G04 #@! TO.N,/three/B0'*
X151500000Y-91000000D03*
G04 #@! TO.P,Q513,2*
G04 #@! TO.N,Net-(Q513-Pad2)*
X149500000Y-91950000D03*
G04 #@! TO.P,Q513,1*
G04 #@! TO.N,/three/Q0'*
X149500000Y-90050000D03*
G04 #@! TD*
G04 #@! TO.P,Q512,3*
G04 #@! TO.N,Net-(D506-Pad1)*
X144500000Y-91000000D03*
G04 #@! TO.P,Q512,2*
G04 #@! TO.N,GND*
X142500000Y-91950000D03*
G04 #@! TO.P,Q512,1*
G04 #@! TO.N,/three/Q0*
X142500000Y-90050000D03*
G04 #@! TD*
G04 #@! TO.P,Q511,3*
G04 #@! TO.N,/three/Q0*
X148000000Y-94500000D03*
G04 #@! TO.P,Q511,2*
G04 #@! TO.N,GND*
X146000000Y-95450000D03*
G04 #@! TO.P,Q511,1*
G04 #@! TO.N,/three/Q0'*
X146000000Y-93550000D03*
G04 #@! TD*
G04 #@! TO.P,Q510,3*
G04 #@! TO.N,/three/Q0'*
X148000000Y-91000000D03*
G04 #@! TO.P,Q510,2*
G04 #@! TO.N,GND*
X146000000Y-91950000D03*
G04 #@! TO.P,Q510,1*
G04 #@! TO.N,/three/Q0*
X146000000Y-90050000D03*
G04 #@! TD*
G04 #@! TO.P,Q509,3*
G04 #@! TO.N,Net-(Q508-Pad2)*
X130500000Y-91000000D03*
G04 #@! TO.P,Q509,2*
G04 #@! TO.N,GND*
X128500000Y-91950000D03*
G04 #@! TO.P,Q509,1*
G04 #@! TO.N,phi2*
X128500000Y-90050000D03*
G04 #@! TD*
G04 #@! TO.P,Q508,3*
G04 #@! TO.N,/three/Q0*
X134000000Y-91000000D03*
G04 #@! TO.P,Q508,2*
G04 #@! TO.N,Net-(Q508-Pad2)*
X132000000Y-91950000D03*
G04 #@! TO.P,Q508,1*
G04 #@! TO.N,Net-(D502-Pad2)*
X132000000Y-90050000D03*
G04 #@! TD*
G04 #@! TO.P,Q507,3*
G04 #@! TO.N,Net-(Q506-Pad2)*
X130500000Y-94500000D03*
G04 #@! TO.P,Q507,2*
G04 #@! TO.N,GND*
X128500000Y-95450000D03*
G04 #@! TO.P,Q507,1*
G04 #@! TO.N,phi2*
X128500000Y-93550000D03*
G04 #@! TD*
G04 #@! TO.P,Q506,3*
G04 #@! TO.N,/three/Q0'*
X134000000Y-94500000D03*
G04 #@! TO.P,Q506,2*
G04 #@! TO.N,Net-(Q506-Pad2)*
X132000000Y-95450000D03*
G04 #@! TO.P,Q506,1*
G04 #@! TO.N,Net-(D503-Pad2)*
X132000000Y-93550000D03*
G04 #@! TD*
G04 #@! TO.P,Q505,3*
G04 #@! TO.N,Net-(D503-Pad2)*
X123500000Y-94500000D03*
G04 #@! TO.P,Q505,2*
G04 #@! TO.N,GND*
X121500000Y-95450000D03*
G04 #@! TO.P,Q505,1*
G04 #@! TO.N,Net-(D502-Pad2)*
X121500000Y-93550000D03*
G04 #@! TD*
G04 #@! TO.P,Q504,3*
G04 #@! TO.N,Net-(D502-Pad2)*
X123500000Y-91000000D03*
G04 #@! TO.P,Q504,2*
G04 #@! TO.N,GND*
X121500000Y-91950000D03*
G04 #@! TO.P,Q504,1*
G04 #@! TO.N,Net-(D503-Pad2)*
X121500000Y-90050000D03*
G04 #@! TD*
G04 #@! TO.P,Q503,3*
G04 #@! TO.N,Net-(Q502-Pad2)*
X116500000Y-94500000D03*
G04 #@! TO.P,Q503,2*
G04 #@! TO.N,GND*
X114500000Y-95450000D03*
G04 #@! TO.P,Q503,1*
G04 #@! TO.N,/three/B0*
X114500000Y-93550000D03*
G04 #@! TD*
G04 #@! TO.P,Q502,3*
G04 #@! TO.N,Net-(D502-Pad2)*
X120000000Y-94500000D03*
G04 #@! TO.P,Q502,2*
G04 #@! TO.N,Net-(Q502-Pad2)*
X118000000Y-95450000D03*
G04 #@! TO.P,Q502,1*
G04 #@! TO.N,phi1*
X118000000Y-93550000D03*
G04 #@! TD*
G04 #@! TO.P,Q501,3*
G04 #@! TO.N,Net-(D503-Pad2)*
X120000000Y-91000000D03*
G04 #@! TO.P,Q501,2*
G04 #@! TO.N,Net-(D501-Pad2)*
X118000000Y-91950000D03*
G04 #@! TO.P,Q501,1*
G04 #@! TO.N,phi1*
X118000000Y-90050000D03*
G04 #@! TD*
G04 #@! TO.P,Q414,3*
G04 #@! TO.N,Net-(Q413-Pad2)*
X151500000Y-101500000D03*
G04 #@! TO.P,Q414,2*
G04 #@! TO.N,GND*
X149500000Y-102450000D03*
G04 #@! TO.P,Q414,1*
G04 #@! TO.N,~OE*
X149500000Y-100550000D03*
G04 #@! TD*
G04 #@! TO.P,Q413,3*
G04 #@! TO.N,/two/B0'*
X151500000Y-98000000D03*
G04 #@! TO.P,Q413,2*
G04 #@! TO.N,Net-(Q413-Pad2)*
X149500000Y-98950000D03*
G04 #@! TO.P,Q413,1*
G04 #@! TO.N,/two/Q0'*
X149500000Y-97050000D03*
G04 #@! TD*
G04 #@! TO.P,Q412,3*
G04 #@! TO.N,Net-(D406-Pad1)*
X144500000Y-98000000D03*
G04 #@! TO.P,Q412,2*
G04 #@! TO.N,GND*
X142500000Y-98950000D03*
G04 #@! TO.P,Q412,1*
G04 #@! TO.N,/two/Q0*
X142500000Y-97050000D03*
G04 #@! TD*
G04 #@! TO.P,Q411,3*
G04 #@! TO.N,/two/Q0*
X148000000Y-101500000D03*
G04 #@! TO.P,Q411,2*
G04 #@! TO.N,GND*
X146000000Y-102450000D03*
G04 #@! TO.P,Q411,1*
G04 #@! TO.N,/two/Q0'*
X146000000Y-100550000D03*
G04 #@! TD*
G04 #@! TO.P,Q410,3*
G04 #@! TO.N,/two/Q0'*
X148000000Y-98000000D03*
G04 #@! TO.P,Q410,2*
G04 #@! TO.N,GND*
X146000000Y-98950000D03*
G04 #@! TO.P,Q410,1*
G04 #@! TO.N,/two/Q0*
X146000000Y-97050000D03*
G04 #@! TD*
G04 #@! TO.P,Q409,3*
G04 #@! TO.N,Net-(Q408-Pad2)*
X130500000Y-98000000D03*
G04 #@! TO.P,Q409,2*
G04 #@! TO.N,GND*
X128500000Y-98950000D03*
G04 #@! TO.P,Q409,1*
G04 #@! TO.N,phi2*
X128500000Y-97050000D03*
G04 #@! TD*
G04 #@! TO.P,Q408,3*
G04 #@! TO.N,/two/Q0*
X134000000Y-98000000D03*
G04 #@! TO.P,Q408,2*
G04 #@! TO.N,Net-(Q408-Pad2)*
X132000000Y-98950000D03*
G04 #@! TO.P,Q408,1*
G04 #@! TO.N,Net-(D402-Pad2)*
X132000000Y-97050000D03*
G04 #@! TD*
G04 #@! TO.P,Q407,3*
G04 #@! TO.N,Net-(Q406-Pad2)*
X130500000Y-101500000D03*
G04 #@! TO.P,Q407,2*
G04 #@! TO.N,GND*
X128500000Y-102450000D03*
G04 #@! TO.P,Q407,1*
G04 #@! TO.N,phi2*
X128500000Y-100550000D03*
G04 #@! TD*
G04 #@! TO.P,Q406,3*
G04 #@! TO.N,/two/Q0'*
X134000000Y-101500000D03*
G04 #@! TO.P,Q406,2*
G04 #@! TO.N,Net-(Q406-Pad2)*
X132000000Y-102450000D03*
G04 #@! TO.P,Q406,1*
G04 #@! TO.N,Net-(D403-Pad2)*
X132000000Y-100550000D03*
G04 #@! TD*
G04 #@! TO.P,Q405,3*
G04 #@! TO.N,Net-(D403-Pad2)*
X123500000Y-101500000D03*
G04 #@! TO.P,Q405,2*
G04 #@! TO.N,GND*
X121500000Y-102450000D03*
G04 #@! TO.P,Q405,1*
G04 #@! TO.N,Net-(D402-Pad2)*
X121500000Y-100550000D03*
G04 #@! TD*
G04 #@! TO.P,Q404,3*
G04 #@! TO.N,Net-(D402-Pad2)*
X123500000Y-98000000D03*
G04 #@! TO.P,Q404,2*
G04 #@! TO.N,GND*
X121500000Y-98950000D03*
G04 #@! TO.P,Q404,1*
G04 #@! TO.N,Net-(D403-Pad2)*
X121500000Y-97050000D03*
G04 #@! TD*
G04 #@! TO.P,Q403,3*
G04 #@! TO.N,Net-(Q402-Pad2)*
X116500000Y-101500000D03*
G04 #@! TO.P,Q403,2*
G04 #@! TO.N,GND*
X114500000Y-102450000D03*
G04 #@! TO.P,Q403,1*
G04 #@! TO.N,/two/B0*
X114500000Y-100550000D03*
G04 #@! TD*
G04 #@! TO.P,Q402,3*
G04 #@! TO.N,Net-(D402-Pad2)*
X120000000Y-101500000D03*
G04 #@! TO.P,Q402,2*
G04 #@! TO.N,Net-(Q402-Pad2)*
X118000000Y-102450000D03*
G04 #@! TO.P,Q402,1*
G04 #@! TO.N,phi1*
X118000000Y-100550000D03*
G04 #@! TD*
G04 #@! TO.P,Q401,3*
G04 #@! TO.N,Net-(D403-Pad2)*
X120000000Y-98000000D03*
G04 #@! TO.P,Q401,2*
G04 #@! TO.N,Net-(D401-Pad2)*
X118000000Y-98950000D03*
G04 #@! TO.P,Q401,1*
G04 #@! TO.N,phi1*
X118000000Y-97050000D03*
G04 #@! TD*
G04 #@! TO.P,Q314,3*
G04 #@! TO.N,Net-(Q313-Pad2)*
X151500000Y-108500000D03*
G04 #@! TO.P,Q314,2*
G04 #@! TO.N,GND*
X149500000Y-109450000D03*
G04 #@! TO.P,Q314,1*
G04 #@! TO.N,~OE*
X149500000Y-107550000D03*
G04 #@! TD*
G04 #@! TO.P,Q313,3*
G04 #@! TO.N,/one/B0'*
X151500000Y-105000000D03*
G04 #@! TO.P,Q313,2*
G04 #@! TO.N,Net-(Q313-Pad2)*
X149500000Y-105950000D03*
G04 #@! TO.P,Q313,1*
G04 #@! TO.N,/one/Q0'*
X149500000Y-104050000D03*
G04 #@! TD*
G04 #@! TO.P,Q312,3*
G04 #@! TO.N,Net-(D306-Pad1)*
X144500000Y-105000000D03*
G04 #@! TO.P,Q312,2*
G04 #@! TO.N,GND*
X142500000Y-105950000D03*
G04 #@! TO.P,Q312,1*
G04 #@! TO.N,/one/Q0*
X142500000Y-104050000D03*
G04 #@! TD*
G04 #@! TO.P,Q311,3*
G04 #@! TO.N,/one/Q0*
X148000000Y-108500000D03*
G04 #@! TO.P,Q311,2*
G04 #@! TO.N,GND*
X146000000Y-109450000D03*
G04 #@! TO.P,Q311,1*
G04 #@! TO.N,/one/Q0'*
X146000000Y-107550000D03*
G04 #@! TD*
G04 #@! TO.P,Q310,3*
G04 #@! TO.N,/one/Q0'*
X148000000Y-105000000D03*
G04 #@! TO.P,Q310,2*
G04 #@! TO.N,GND*
X146000000Y-105950000D03*
G04 #@! TO.P,Q310,1*
G04 #@! TO.N,/one/Q0*
X146000000Y-104050000D03*
G04 #@! TD*
G04 #@! TO.P,Q309,3*
G04 #@! TO.N,Net-(Q308-Pad2)*
X130500000Y-105000000D03*
G04 #@! TO.P,Q309,2*
G04 #@! TO.N,GND*
X128500000Y-105950000D03*
G04 #@! TO.P,Q309,1*
G04 #@! TO.N,phi2*
X128500000Y-104050000D03*
G04 #@! TD*
G04 #@! TO.P,Q308,3*
G04 #@! TO.N,/one/Q0*
X134000000Y-105000000D03*
G04 #@! TO.P,Q308,2*
G04 #@! TO.N,Net-(Q308-Pad2)*
X132000000Y-105950000D03*
G04 #@! TO.P,Q308,1*
G04 #@! TO.N,Net-(D302-Pad2)*
X132000000Y-104050000D03*
G04 #@! TD*
G04 #@! TO.P,Q307,3*
G04 #@! TO.N,Net-(Q306-Pad2)*
X130500000Y-108500000D03*
G04 #@! TO.P,Q307,2*
G04 #@! TO.N,GND*
X128500000Y-109450000D03*
G04 #@! TO.P,Q307,1*
G04 #@! TO.N,phi2*
X128500000Y-107550000D03*
G04 #@! TD*
G04 #@! TO.P,Q306,3*
G04 #@! TO.N,/one/Q0'*
X134000000Y-108500000D03*
G04 #@! TO.P,Q306,2*
G04 #@! TO.N,Net-(Q306-Pad2)*
X132000000Y-109450000D03*
G04 #@! TO.P,Q306,1*
G04 #@! TO.N,Net-(D303-Pad2)*
X132000000Y-107550000D03*
G04 #@! TD*
G04 #@! TO.P,Q305,3*
G04 #@! TO.N,Net-(D303-Pad2)*
X123500000Y-108500000D03*
G04 #@! TO.P,Q305,2*
G04 #@! TO.N,GND*
X121500000Y-109450000D03*
G04 #@! TO.P,Q305,1*
G04 #@! TO.N,Net-(D302-Pad2)*
X121500000Y-107550000D03*
G04 #@! TD*
G04 #@! TO.P,Q304,3*
G04 #@! TO.N,Net-(D302-Pad2)*
X123500000Y-105000000D03*
G04 #@! TO.P,Q304,2*
G04 #@! TO.N,GND*
X121500000Y-105950000D03*
G04 #@! TO.P,Q304,1*
G04 #@! TO.N,Net-(D303-Pad2)*
X121500000Y-104050000D03*
G04 #@! TD*
G04 #@! TO.P,Q303,3*
G04 #@! TO.N,Net-(Q302-Pad2)*
X116500000Y-108500000D03*
G04 #@! TO.P,Q303,2*
G04 #@! TO.N,GND*
X114500000Y-109450000D03*
G04 #@! TO.P,Q303,1*
G04 #@! TO.N,/one/B0*
X114500000Y-107550000D03*
G04 #@! TD*
G04 #@! TO.P,Q302,3*
G04 #@! TO.N,Net-(D302-Pad2)*
X120000000Y-108500000D03*
G04 #@! TO.P,Q302,2*
G04 #@! TO.N,Net-(Q302-Pad2)*
X118000000Y-109450000D03*
G04 #@! TO.P,Q302,1*
G04 #@! TO.N,phi1*
X118000000Y-107550000D03*
G04 #@! TD*
G04 #@! TO.P,Q301,3*
G04 #@! TO.N,Net-(D303-Pad2)*
X120000000Y-105000000D03*
G04 #@! TO.P,Q301,2*
G04 #@! TO.N,Net-(D301-Pad2)*
X118000000Y-105950000D03*
G04 #@! TO.P,Q301,1*
G04 #@! TO.N,phi1*
X118000000Y-104050000D03*
G04 #@! TD*
G04 #@! TO.P,Q214,3*
G04 #@! TO.N,Net-(Q213-Pad2)*
X151500000Y-115500000D03*
G04 #@! TO.P,Q214,2*
G04 #@! TO.N,GND*
X149500000Y-116450000D03*
G04 #@! TO.P,Q214,1*
G04 #@! TO.N,~OE*
X149500000Y-114550000D03*
G04 #@! TD*
G04 #@! TO.P,Q213,3*
G04 #@! TO.N,/zero/B0'*
X151500000Y-112000000D03*
G04 #@! TO.P,Q213,2*
G04 #@! TO.N,Net-(Q213-Pad2)*
X149500000Y-112950000D03*
G04 #@! TO.P,Q213,1*
G04 #@! TO.N,/zero/Q0'*
X149500000Y-111050000D03*
G04 #@! TD*
G04 #@! TO.P,Q212,3*
G04 #@! TO.N,Net-(D206-Pad1)*
X144500000Y-112000000D03*
G04 #@! TO.P,Q212,2*
G04 #@! TO.N,GND*
X142500000Y-112950000D03*
G04 #@! TO.P,Q212,1*
G04 #@! TO.N,/zero/Q0*
X142500000Y-111050000D03*
G04 #@! TD*
G04 #@! TO.P,Q211,3*
G04 #@! TO.N,/zero/Q0*
X148000000Y-115500000D03*
G04 #@! TO.P,Q211,2*
G04 #@! TO.N,GND*
X146000000Y-116450000D03*
G04 #@! TO.P,Q211,1*
G04 #@! TO.N,/zero/Q0'*
X146000000Y-114550000D03*
G04 #@! TD*
G04 #@! TO.P,Q210,3*
G04 #@! TO.N,/zero/Q0'*
X148000000Y-112000000D03*
G04 #@! TO.P,Q210,2*
G04 #@! TO.N,GND*
X146000000Y-112950000D03*
G04 #@! TO.P,Q210,1*
G04 #@! TO.N,/zero/Q0*
X146000000Y-111050000D03*
G04 #@! TD*
G04 #@! TO.P,Q209,3*
G04 #@! TO.N,Net-(Q208-Pad2)*
X130500000Y-112000000D03*
G04 #@! TO.P,Q209,2*
G04 #@! TO.N,GND*
X128500000Y-112950000D03*
G04 #@! TO.P,Q209,1*
G04 #@! TO.N,phi2*
X128500000Y-111050000D03*
G04 #@! TD*
G04 #@! TO.P,Q208,3*
G04 #@! TO.N,/zero/Q0*
X134000000Y-112000000D03*
G04 #@! TO.P,Q208,2*
G04 #@! TO.N,Net-(Q208-Pad2)*
X132000000Y-112950000D03*
G04 #@! TO.P,Q208,1*
G04 #@! TO.N,Net-(D202-Pad2)*
X132000000Y-111050000D03*
G04 #@! TD*
G04 #@! TO.P,Q206,3*
G04 #@! TO.N,/zero/Q0'*
X134000000Y-115500000D03*
G04 #@! TO.P,Q206,2*
G04 #@! TO.N,Net-(Q206-Pad2)*
X132000000Y-116450000D03*
G04 #@! TO.P,Q206,1*
G04 #@! TO.N,Net-(D203-Pad2)*
X132000000Y-114550000D03*
G04 #@! TD*
G04 #@! TO.P,Q205,3*
G04 #@! TO.N,Net-(D203-Pad2)*
X123500000Y-115500000D03*
G04 #@! TO.P,Q205,2*
G04 #@! TO.N,GND*
X121500000Y-116450000D03*
G04 #@! TO.P,Q205,1*
G04 #@! TO.N,Net-(D202-Pad2)*
X121500000Y-114550000D03*
G04 #@! TD*
G04 #@! TO.P,Q204,3*
G04 #@! TO.N,Net-(D202-Pad2)*
X123500000Y-112000000D03*
G04 #@! TO.P,Q204,2*
G04 #@! TO.N,GND*
X121500000Y-112950000D03*
G04 #@! TO.P,Q204,1*
G04 #@! TO.N,Net-(D203-Pad2)*
X121500000Y-111050000D03*
G04 #@! TD*
G04 #@! TO.P,Q203,3*
G04 #@! TO.N,Net-(Q202-Pad2)*
X116500000Y-115500000D03*
G04 #@! TO.P,Q203,2*
G04 #@! TO.N,GND*
X114500000Y-116450000D03*
G04 #@! TO.P,Q203,1*
G04 #@! TO.N,/zero/B0*
X114500000Y-114550000D03*
G04 #@! TD*
G04 #@! TO.P,Q202,3*
G04 #@! TO.N,Net-(D202-Pad2)*
X120000000Y-115500000D03*
G04 #@! TO.P,Q202,2*
G04 #@! TO.N,Net-(Q202-Pad2)*
X118000000Y-116450000D03*
G04 #@! TO.P,Q202,1*
G04 #@! TO.N,phi1*
X118000000Y-114550000D03*
G04 #@! TD*
G04 #@! TO.P,Q201,3*
G04 #@! TO.N,Net-(D203-Pad2)*
X120000000Y-112000000D03*
G04 #@! TO.P,Q201,2*
G04 #@! TO.N,Net-(D201-Pad2)*
X118000000Y-112950000D03*
G04 #@! TO.P,Q201,1*
G04 #@! TO.N,phi1*
X118000000Y-111050000D03*
G04 #@! TD*
G04 #@! TO.P,D506,2*
G04 #@! TO.N,Net-(D506-Pad2)*
G04 #@! TA.AperFunction,SMDPad,CuDef*
G36*
G01*
X142087500Y-94800000D02*
X142512500Y-94800000D01*
G75*
G02*
X142725000Y-95012500I0J-212500D01*
G01*
X142725000Y-95812500D01*
G75*
G02*
X142512500Y-96025000I-212500J0D01*
G01*
X142087500Y-96025000D01*
G75*
G02*
X141875000Y-95812500I0J212500D01*
G01*
X141875000Y-95012500D01*
G75*
G02*
X142087500Y-94800000I212500J0D01*
G01*
G37*
G04 #@! TD.AperFunction*
G04 #@! TO.P,D506,1*
G04 #@! TO.N,Net-(D506-Pad1)*
G04 #@! TA.AperFunction,SMDPad,CuDef*
G36*
G01*
X142087500Y-93175000D02*
X142512500Y-93175000D01*
G75*
G02*
X142725000Y-93387500I0J-212500D01*
G01*
X142725000Y-94187500D01*
G75*
G02*
X142512500Y-94400000I-212500J0D01*
G01*
X142087500Y-94400000D01*
G75*
G02*
X141875000Y-94187500I0J212500D01*
G01*
X141875000Y-93387500D01*
G75*
G02*
X142087500Y-93175000I212500J0D01*
G01*
G37*
G04 #@! TD.AperFunction*
G04 #@! TD*
D14*
G04 #@! TO.P,D505,2*
G04 #@! TO.N,/three/Q0*
X140500000Y-89950000D03*
G04 #@! TO.P,D505,1*
G04 #@! TO.N,~reset*
X140500000Y-92050000D03*
G04 #@! TD*
D15*
G04 #@! TO.P,D504,2*
G04 #@! TO.N,Net-(D503-Pad2)*
X124950000Y-94900000D03*
G04 #@! TO.P,D504,1*
G04 #@! TO.N,~reset*
X127050000Y-94900000D03*
G04 #@! TD*
G04 #@! TO.P,D503,2*
G04 #@! TO.N,Net-(D503-Pad2)*
X124950000Y-92750000D03*
G04 #@! TO.P,D503,1*
G04 #@! TO.N,E*
X127050000Y-92750000D03*
G04 #@! TD*
G04 #@! TO.P,D502,2*
G04 #@! TO.N,Net-(D502-Pad2)*
X125000000Y-90600000D03*
G04 #@! TO.P,D502,1*
G04 #@! TO.N,E*
X127100000Y-90600000D03*
G04 #@! TD*
G04 #@! TO.P,D501,2*
G04 #@! TO.N,Net-(D501-Pad2)*
X116550000Y-91700000D03*
G04 #@! TO.P,D501,1*
G04 #@! TO.N,/three/B0*
X114450000Y-91700000D03*
G04 #@! TD*
G04 #@! TO.P,D406,2*
G04 #@! TO.N,Net-(D406-Pad2)*
G04 #@! TA.AperFunction,SMDPad,CuDef*
G36*
G01*
X142087500Y-101800000D02*
X142512500Y-101800000D01*
G75*
G02*
X142725000Y-102012500I0J-212500D01*
G01*
X142725000Y-102812500D01*
G75*
G02*
X142512500Y-103025000I-212500J0D01*
G01*
X142087500Y-103025000D01*
G75*
G02*
X141875000Y-102812500I0J212500D01*
G01*
X141875000Y-102012500D01*
G75*
G02*
X142087500Y-101800000I212500J0D01*
G01*
G37*
G04 #@! TD.AperFunction*
G04 #@! TO.P,D406,1*
G04 #@! TO.N,Net-(D406-Pad1)*
G04 #@! TA.AperFunction,SMDPad,CuDef*
G36*
G01*
X142087500Y-100175000D02*
X142512500Y-100175000D01*
G75*
G02*
X142725000Y-100387500I0J-212500D01*
G01*
X142725000Y-101187500D01*
G75*
G02*
X142512500Y-101400000I-212500J0D01*
G01*
X142087500Y-101400000D01*
G75*
G02*
X141875000Y-101187500I0J212500D01*
G01*
X141875000Y-100387500D01*
G75*
G02*
X142087500Y-100175000I212500J0D01*
G01*
G37*
G04 #@! TD.AperFunction*
G04 #@! TD*
D14*
G04 #@! TO.P,D405,2*
G04 #@! TO.N,/two/Q0*
X140500000Y-96950000D03*
G04 #@! TO.P,D405,1*
G04 #@! TO.N,~reset*
X140500000Y-99050000D03*
G04 #@! TD*
D15*
G04 #@! TO.P,D404,2*
G04 #@! TO.N,Net-(D403-Pad2)*
X124950000Y-101900000D03*
G04 #@! TO.P,D404,1*
G04 #@! TO.N,~reset*
X127050000Y-101900000D03*
G04 #@! TD*
G04 #@! TO.P,D403,2*
G04 #@! TO.N,Net-(D403-Pad2)*
X124950000Y-99750000D03*
G04 #@! TO.P,D403,1*
G04 #@! TO.N,E*
X127050000Y-99750000D03*
G04 #@! TD*
G04 #@! TO.P,D402,2*
G04 #@! TO.N,Net-(D402-Pad2)*
X125000000Y-97600000D03*
G04 #@! TO.P,D402,1*
G04 #@! TO.N,E*
X127100000Y-97600000D03*
G04 #@! TD*
G04 #@! TO.P,D401,2*
G04 #@! TO.N,Net-(D401-Pad2)*
X116550000Y-98700000D03*
G04 #@! TO.P,D401,1*
G04 #@! TO.N,/two/B0*
X114450000Y-98700000D03*
G04 #@! TD*
G04 #@! TO.P,D306,2*
G04 #@! TO.N,Net-(D306-Pad2)*
G04 #@! TA.AperFunction,SMDPad,CuDef*
G36*
G01*
X142087500Y-108800000D02*
X142512500Y-108800000D01*
G75*
G02*
X142725000Y-109012500I0J-212500D01*
G01*
X142725000Y-109812500D01*
G75*
G02*
X142512500Y-110025000I-212500J0D01*
G01*
X142087500Y-110025000D01*
G75*
G02*
X141875000Y-109812500I0J212500D01*
G01*
X141875000Y-109012500D01*
G75*
G02*
X142087500Y-108800000I212500J0D01*
G01*
G37*
G04 #@! TD.AperFunction*
G04 #@! TO.P,D306,1*
G04 #@! TO.N,Net-(D306-Pad1)*
G04 #@! TA.AperFunction,SMDPad,CuDef*
G36*
G01*
X142087500Y-107175000D02*
X142512500Y-107175000D01*
G75*
G02*
X142725000Y-107387500I0J-212500D01*
G01*
X142725000Y-108187500D01*
G75*
G02*
X142512500Y-108400000I-212500J0D01*
G01*
X142087500Y-108400000D01*
G75*
G02*
X141875000Y-108187500I0J212500D01*
G01*
X141875000Y-107387500D01*
G75*
G02*
X142087500Y-107175000I212500J0D01*
G01*
G37*
G04 #@! TD.AperFunction*
G04 #@! TD*
D14*
G04 #@! TO.P,D305,2*
G04 #@! TO.N,/one/Q0*
X140500000Y-103950000D03*
G04 #@! TO.P,D305,1*
G04 #@! TO.N,~reset*
X140500000Y-106050000D03*
G04 #@! TD*
D15*
G04 #@! TO.P,D304,2*
G04 #@! TO.N,Net-(D303-Pad2)*
X124950000Y-108900000D03*
G04 #@! TO.P,D304,1*
G04 #@! TO.N,~reset*
X127050000Y-108900000D03*
G04 #@! TD*
G04 #@! TO.P,D303,2*
G04 #@! TO.N,Net-(D303-Pad2)*
X124950000Y-106750000D03*
G04 #@! TO.P,D303,1*
G04 #@! TO.N,E*
X127050000Y-106750000D03*
G04 #@! TD*
G04 #@! TO.P,D302,2*
G04 #@! TO.N,Net-(D302-Pad2)*
X125000000Y-104600000D03*
G04 #@! TO.P,D302,1*
G04 #@! TO.N,E*
X127100000Y-104600000D03*
G04 #@! TD*
G04 #@! TO.P,D301,2*
G04 #@! TO.N,Net-(D301-Pad2)*
X116550000Y-105700000D03*
G04 #@! TO.P,D301,1*
G04 #@! TO.N,/one/B0*
X114450000Y-105700000D03*
G04 #@! TD*
G04 #@! TO.P,D206,2*
G04 #@! TO.N,Net-(D206-Pad2)*
G04 #@! TA.AperFunction,SMDPad,CuDef*
G36*
G01*
X142087500Y-115800000D02*
X142512500Y-115800000D01*
G75*
G02*
X142725000Y-116012500I0J-212500D01*
G01*
X142725000Y-116812500D01*
G75*
G02*
X142512500Y-117025000I-212500J0D01*
G01*
X142087500Y-117025000D01*
G75*
G02*
X141875000Y-116812500I0J212500D01*
G01*
X141875000Y-116012500D01*
G75*
G02*
X142087500Y-115800000I212500J0D01*
G01*
G37*
G04 #@! TD.AperFunction*
G04 #@! TO.P,D206,1*
G04 #@! TO.N,Net-(D206-Pad1)*
G04 #@! TA.AperFunction,SMDPad,CuDef*
G36*
G01*
X142087500Y-114175000D02*
X142512500Y-114175000D01*
G75*
G02*
X142725000Y-114387500I0J-212500D01*
G01*
X142725000Y-115187500D01*
G75*
G02*
X142512500Y-115400000I-212500J0D01*
G01*
X142087500Y-115400000D01*
G75*
G02*
X141875000Y-115187500I0J212500D01*
G01*
X141875000Y-114387500D01*
G75*
G02*
X142087500Y-114175000I212500J0D01*
G01*
G37*
G04 #@! TD.AperFunction*
G04 #@! TD*
D14*
G04 #@! TO.P,D205,2*
G04 #@! TO.N,/zero/Q0*
X140500000Y-110950000D03*
G04 #@! TO.P,D205,1*
G04 #@! TO.N,~reset*
X140500000Y-113050000D03*
G04 #@! TD*
D15*
G04 #@! TO.P,D204,2*
G04 #@! TO.N,Net-(D203-Pad2)*
X124950000Y-115900000D03*
G04 #@! TO.P,D204,1*
G04 #@! TO.N,~reset*
X127050000Y-115900000D03*
G04 #@! TD*
G04 #@! TO.P,D203,2*
G04 #@! TO.N,Net-(D203-Pad2)*
X124950000Y-113750000D03*
G04 #@! TO.P,D203,1*
G04 #@! TO.N,E*
X127050000Y-113750000D03*
G04 #@! TD*
G04 #@! TO.P,D202,2*
G04 #@! TO.N,Net-(D202-Pad2)*
X125000000Y-111600000D03*
G04 #@! TO.P,D202,1*
G04 #@! TO.N,E*
X127100000Y-111600000D03*
G04 #@! TD*
G04 #@! TO.P,D201,2*
G04 #@! TO.N,Net-(D201-Pad2)*
X116550000Y-112700000D03*
G04 #@! TO.P,D201,1*
G04 #@! TO.N,/zero/B0*
X114450000Y-112700000D03*
G04 #@! TD*
D13*
G04 #@! TO.P,Q207,3*
G04 #@! TO.N,Net-(Q206-Pad2)*
X130500000Y-115500000D03*
G04 #@! TO.P,Q207,2*
G04 #@! TO.N,GND*
X128500000Y-116450000D03*
G04 #@! TO.P,Q207,1*
G04 #@! TO.N,phi2*
X128500000Y-114550000D03*
G04 #@! TD*
D11*
G04 #@! TO.P,TP120,1*
G04 #@! TO.N,GND*
X133000000Y-87500000D03*
G04 #@! TD*
G04 #@! TO.P,TP110,1*
G04 #@! TO.N,GND*
X133000000Y-119000000D03*
G04 #@! TD*
G04 #@! TO.P,TP118,1*
G04 #@! TO.N,VCC*
X136500000Y-87500000D03*
G04 #@! TD*
G04 #@! TO.P,TP117,1*
G04 #@! TO.N,Vdrive*
X140000000Y-87500000D03*
G04 #@! TD*
G04 #@! TO.P,TP116,1*
G04 #@! TO.N,E*
X126000000Y-87500000D03*
G04 #@! TD*
G04 #@! TO.P,TP115,1*
G04 #@! TO.N,~reset*
X122500000Y-87500000D03*
G04 #@! TD*
G04 #@! TO.P,TP114,1*
G04 #@! TO.N,phi1*
X119000000Y-87500000D03*
G04 #@! TD*
G04 #@! TO.P,TP113,1*
G04 #@! TO.N,phi2*
X129500000Y-87500000D03*
G04 #@! TD*
G04 #@! TO.P,TP112,1*
G04 #@! TO.N,~OE*
X150500000Y-87500000D03*
G04 #@! TD*
G04 #@! TO.P,TP108,1*
G04 #@! TO.N,VCC*
X136500000Y-119000000D03*
G04 #@! TD*
G04 #@! TO.P,TP107,1*
G04 #@! TO.N,Vdrive*
X140000000Y-119000000D03*
G04 #@! TD*
G04 #@! TO.P,TP106,1*
G04 #@! TO.N,E*
X126000000Y-119000000D03*
G04 #@! TD*
G04 #@! TO.P,TP105,1*
G04 #@! TO.N,~reset*
X122500000Y-119000000D03*
G04 #@! TD*
G04 #@! TO.P,TP104,1*
G04 #@! TO.N,phi1*
X119000000Y-119000000D03*
G04 #@! TD*
G04 #@! TO.P,TP103,1*
G04 #@! TO.N,phi2*
X129500000Y-119000000D03*
G04 #@! TD*
G04 #@! TO.P,TP102,1*
G04 #@! TO.N,~OE*
X150500000Y-119000000D03*
G04 #@! TD*
D16*
G04 #@! TO.N,Vdrive*
X139600000Y-108400000D03*
X139600000Y-101400000D03*
X139600000Y-94400000D03*
X139600000Y-115400000D03*
G04 #@! TO.N,GND*
X122400000Y-109450000D03*
X122400000Y-105950000D03*
X129400000Y-109450000D03*
X129400000Y-105950000D03*
X146900000Y-105950000D03*
X146900000Y-109450000D03*
X122400000Y-102450000D03*
X122400000Y-98950000D03*
X129400000Y-102450000D03*
X129400000Y-98950000D03*
X146900000Y-98950000D03*
X146900000Y-102450000D03*
X122400000Y-95450000D03*
X122400000Y-91950000D03*
X129400000Y-95450000D03*
X129400000Y-91950000D03*
X146900000Y-91950000D03*
X146900000Y-95450000D03*
X146900000Y-116450000D03*
X146900000Y-112950000D03*
X129400000Y-112950000D03*
X129400000Y-116450000D03*
X122400000Y-116450000D03*
X122400000Y-112950000D03*
G04 #@! TO.N,VCC*
X137800000Y-106600000D03*
X137800000Y-99600000D03*
X137800000Y-92600000D03*
X137800000Y-113600000D03*
G04 #@! TO.N,E*
X127050000Y-105650000D03*
X127050000Y-98650000D03*
X127050000Y-91650000D03*
X127050000Y-112650000D03*
G04 #@! TO.N,~reset*
X140500000Y-105200000D03*
X126100000Y-108900000D03*
X140500000Y-98200000D03*
X126100000Y-101900000D03*
X140500000Y-91200000D03*
X126100000Y-94900000D03*
X140500000Y-112200000D03*
X126100000Y-115900000D03*
G04 #@! TO.N,phi1*
X118742999Y-106850000D03*
X118742999Y-99850000D03*
X118742999Y-92850000D03*
X118742999Y-113850000D03*
G04 #@! TO.N,phi2*
X128500000Y-104900000D03*
X128500000Y-97900000D03*
X128500000Y-90900000D03*
X128500000Y-111900000D03*
G04 #@! TO.N,~OE*
X150450000Y-107550000D03*
X150450000Y-100550000D03*
X150450000Y-93550000D03*
X150450000Y-114550000D03*
G04 #@! TD*
D17*
G04 #@! TO.N,Vdrive*
X140500000Y-109300000D02*
X139600000Y-108400000D01*
X140500000Y-109312500D02*
X140500000Y-109300000D01*
X140500000Y-102300000D02*
X139600000Y-101400000D01*
X140500000Y-102312500D02*
X140500000Y-102300000D01*
X140500000Y-95300000D02*
X139600000Y-94400000D01*
X140500000Y-95312500D02*
X140500000Y-95300000D01*
X140500000Y-116300000D02*
X139600000Y-115400000D01*
X140500000Y-116312500D02*
X140500000Y-116300000D01*
G04 #@! TO.N,GND*
X148900000Y-117000000D02*
X146550000Y-117000000D01*
X149450000Y-116450000D02*
X148900000Y-117000000D01*
X146550000Y-117000000D02*
X146000000Y-116450000D01*
X148900000Y-110000000D02*
X146550000Y-110000000D01*
X149450000Y-109450000D02*
X148900000Y-110000000D01*
X146550000Y-110000000D02*
X146000000Y-109450000D01*
X148900000Y-103000000D02*
X146550000Y-103000000D01*
X149450000Y-102450000D02*
X148900000Y-103000000D01*
X146550000Y-103000000D02*
X146000000Y-102450000D01*
X121500000Y-109450000D02*
X122400000Y-109450000D01*
X128500000Y-109450000D02*
X129400000Y-109450000D01*
X121500000Y-105950000D02*
X122400000Y-105950000D01*
X114500000Y-109450000D02*
X115400000Y-109450000D01*
X142500000Y-105950000D02*
X143400000Y-105950000D01*
X128500000Y-105950000D02*
X129400000Y-105950000D01*
X146000000Y-105950000D02*
X146900000Y-105950000D01*
X146000000Y-109450000D02*
X146900000Y-109450000D01*
X146000000Y-105950000D02*
X143400000Y-105950000D01*
X128500000Y-109450000D02*
X122400000Y-109450000D01*
X116078501Y-110128501D02*
X115400000Y-109450000D01*
X120821499Y-110128501D02*
X116078501Y-110128501D01*
X121500000Y-109450000D02*
X120821499Y-110128501D01*
X121500000Y-102450000D02*
X122400000Y-102450000D01*
X128500000Y-102450000D02*
X129400000Y-102450000D01*
X121500000Y-98950000D02*
X122400000Y-98950000D01*
X114500000Y-102450000D02*
X115400000Y-102450000D01*
X142500000Y-98950000D02*
X143400000Y-98950000D01*
X128500000Y-98950000D02*
X129400000Y-98950000D01*
X146000000Y-98950000D02*
X146900000Y-98950000D01*
X146000000Y-102450000D02*
X146900000Y-102450000D01*
X146000000Y-98950000D02*
X143400000Y-98950000D01*
X128500000Y-102450000D02*
X122400000Y-102450000D01*
X116078501Y-103128501D02*
X115400000Y-102450000D01*
X120821499Y-103128501D02*
X116078501Y-103128501D01*
X121500000Y-102450000D02*
X120821499Y-103128501D01*
X121500000Y-95450000D02*
X122400000Y-95450000D01*
X128500000Y-95450000D02*
X129400000Y-95450000D01*
X121500000Y-91950000D02*
X122400000Y-91950000D01*
X114500000Y-95450000D02*
X115400000Y-95450000D01*
X142500000Y-91950000D02*
X143400000Y-91950000D01*
X128500000Y-91950000D02*
X129400000Y-91950000D01*
X146000000Y-91950000D02*
X146900000Y-91950000D01*
X146000000Y-95450000D02*
X146900000Y-95450000D01*
X146000000Y-91950000D02*
X143400000Y-91950000D01*
X128500000Y-95450000D02*
X122400000Y-95450000D01*
X116078501Y-96128501D02*
X115400000Y-95450000D01*
X120821499Y-96128501D02*
X116078501Y-96128501D01*
X121500000Y-95450000D02*
X120821499Y-96128501D01*
X146000000Y-116450000D02*
X146900000Y-116450000D01*
X146000000Y-112950000D02*
X146900000Y-112950000D01*
X142500000Y-112950000D02*
X143400000Y-112950000D01*
X128500000Y-112950000D02*
X129400000Y-112950000D01*
X128500000Y-116450000D02*
X129400000Y-116450000D01*
X114500000Y-116450000D02*
X115400000Y-116450000D01*
X121500000Y-116450000D02*
X122400000Y-116450000D01*
X121500000Y-112950000D02*
X122400000Y-112950000D01*
X128500000Y-116450000D02*
X122400000Y-116450000D01*
X116078501Y-117128501D02*
X115400000Y-116450000D01*
X120821499Y-117128501D02*
X116078501Y-117128501D01*
X121500000Y-116450000D02*
X120821499Y-117128501D01*
X146000000Y-112950000D02*
X143400000Y-112950000D01*
X144789480Y-117660520D02*
X146000000Y-116450000D01*
X134339480Y-117660520D02*
X144789480Y-117660520D01*
X133000000Y-119000000D02*
X134339480Y-117660520D01*
X149500000Y-95450000D02*
X149450000Y-95450000D01*
X149450000Y-95450000D02*
X148900000Y-96000000D01*
X146550000Y-96000000D02*
X146000000Y-95450000D01*
X148900000Y-96000000D02*
X146550000Y-96000000D01*
G04 #@! TO.N,VCC*
X138500000Y-106600000D02*
X138600000Y-106500000D01*
X137800000Y-106600000D02*
X138500000Y-106600000D01*
X138600000Y-106500000D02*
X138600000Y-108600000D01*
X138600000Y-104600000D02*
X138600000Y-106500000D01*
X138500000Y-99600000D02*
X138600000Y-99500000D01*
X137800000Y-99600000D02*
X138500000Y-99600000D01*
X138600000Y-99500000D02*
X138600000Y-101600000D01*
X138600000Y-97600000D02*
X138600000Y-99500000D01*
X138500000Y-92600000D02*
X138600000Y-92500000D01*
X137800000Y-92600000D02*
X138500000Y-92600000D01*
X138600000Y-92500000D02*
X138600000Y-94600000D01*
X138600000Y-90600000D02*
X138600000Y-92500000D01*
X138500000Y-113600000D02*
X138600000Y-113500000D01*
X137800000Y-113600000D02*
X138500000Y-113600000D01*
X138600000Y-113500000D02*
X138600000Y-115600000D01*
X138600000Y-111600000D02*
X138600000Y-113500000D01*
G04 #@! TO.N,E*
X127050000Y-105650000D02*
X127050000Y-104600000D01*
X127050000Y-106750000D02*
X127050000Y-105650000D01*
X127050000Y-98650000D02*
X127050000Y-97600000D01*
X127050000Y-99750000D02*
X127050000Y-98650000D01*
X127050000Y-91650000D02*
X127050000Y-90600000D01*
X127050000Y-92750000D02*
X127050000Y-91650000D01*
X127050000Y-112650000D02*
X127050000Y-111600000D01*
X127050000Y-113750000D02*
X127050000Y-112650000D01*
G04 #@! TO.N,~reset*
X140500000Y-105200000D02*
X140500000Y-106050000D01*
X127050000Y-108900000D02*
X126100000Y-108900000D01*
X140500000Y-98200000D02*
X140500000Y-99050000D01*
X127050000Y-101900000D02*
X126100000Y-101900000D01*
X140500000Y-91200000D02*
X140500000Y-92050000D01*
X127050000Y-94900000D02*
X126100000Y-94900000D01*
X140500000Y-112200000D02*
X140500000Y-113050000D01*
X127050000Y-115900000D02*
X126100000Y-115900000D01*
G04 #@! TO.N,phi1*
X118000000Y-104050000D02*
X118728501Y-104778501D01*
X118000000Y-107550000D02*
X118042999Y-107550000D01*
X118042999Y-107550000D02*
X118742999Y-106850000D01*
X118742999Y-104792999D02*
X118000000Y-104050000D01*
X118742999Y-106850000D02*
X118742999Y-104792999D01*
X118000000Y-97050000D02*
X118728501Y-97778501D01*
X118000000Y-100550000D02*
X118042999Y-100550000D01*
X118042999Y-100550000D02*
X118742999Y-99850000D01*
X118742999Y-97792999D02*
X118000000Y-97050000D01*
X118742999Y-99850000D02*
X118742999Y-97792999D01*
X118000000Y-90050000D02*
X118728501Y-90778501D01*
X118000000Y-93550000D02*
X118042999Y-93550000D01*
X118042999Y-93550000D02*
X118742999Y-92850000D01*
X118742999Y-90792999D02*
X118000000Y-90050000D01*
X118742999Y-92850000D02*
X118742999Y-90792999D01*
X118000000Y-111050000D02*
X118728501Y-111778501D01*
X118042999Y-114550000D02*
X118742999Y-113850000D01*
X118000000Y-114550000D02*
X118042999Y-114550000D01*
X118742999Y-111792999D02*
X118000000Y-111050000D01*
X118742999Y-113850000D02*
X118742999Y-111792999D01*
G04 #@! TO.N,phi2*
X128450000Y-107600000D02*
X128500000Y-107550000D01*
X127771499Y-106821499D02*
X127771499Y-105327199D01*
X128500000Y-107550000D02*
X127771499Y-106821499D01*
X127771499Y-105327199D02*
X128198698Y-104900000D01*
X128198698Y-104900000D02*
X128500000Y-104900000D01*
X128500000Y-104900000D02*
X128500000Y-104050000D01*
X128450000Y-100600000D02*
X128500000Y-100550000D01*
X127771499Y-99821499D02*
X127771499Y-98327199D01*
X128500000Y-100550000D02*
X127771499Y-99821499D01*
X127771499Y-98327199D02*
X128198698Y-97900000D01*
X128198698Y-97900000D02*
X128500000Y-97900000D01*
X128500000Y-97900000D02*
X128500000Y-97050000D01*
X128450000Y-93600000D02*
X128500000Y-93550000D01*
X127771499Y-92821499D02*
X127771499Y-91327199D01*
X128500000Y-93550000D02*
X127771499Y-92821499D01*
X127771499Y-91327199D02*
X128198698Y-90900000D01*
X128198698Y-90900000D02*
X128500000Y-90900000D01*
X128500000Y-90900000D02*
X128500000Y-90050000D01*
X127771499Y-112327199D02*
X128198698Y-111900000D01*
X128198698Y-111900000D02*
X128500000Y-111900000D01*
X127771499Y-113821499D02*
X127771499Y-112327199D01*
X128500000Y-114550000D02*
X127771499Y-113821499D01*
X128500000Y-111900000D02*
X128500000Y-111050000D01*
X128450000Y-114600000D02*
X128500000Y-114550000D01*
G04 #@! TO.N,~OE*
X149550000Y-107550000D02*
X150450000Y-107550000D01*
X149550000Y-100550000D02*
X150450000Y-100550000D01*
X149550000Y-93550000D02*
X150450000Y-93550000D01*
X149550000Y-114550000D02*
X150450000Y-114550000D01*
G04 #@! TO.N,/zero/B0*
X114500000Y-112750000D02*
X114450000Y-112700000D01*
X114500000Y-114550000D02*
X114500000Y-112750000D01*
X113750000Y-112000000D02*
X114450000Y-112700000D01*
X112000000Y-112000000D02*
X113750000Y-112000000D01*
G04 #@! TO.N,/zero/Q0*
X134940000Y-112940000D02*
X134000000Y-112000000D01*
X135600000Y-112940000D02*
X134940000Y-112940000D01*
X140421499Y-110871499D02*
X140500000Y-110950000D01*
X137668501Y-110871499D02*
X140421499Y-110871499D01*
X135600000Y-112940000D02*
X137668501Y-110871499D01*
X142400000Y-110950000D02*
X142500000Y-111050000D01*
X140500000Y-110950000D02*
X142400000Y-110950000D01*
X146000000Y-111050000D02*
X142500000Y-111050000D01*
X146678501Y-110371499D02*
X146000000Y-111050000D01*
X150071499Y-111728501D02*
X150420197Y-111379803D01*
X149370197Y-111728501D02*
X150071499Y-111728501D01*
X148728501Y-112370197D02*
X149370197Y-111728501D01*
X148728501Y-114771499D02*
X148728501Y-112370197D01*
X148000000Y-115500000D02*
X148728501Y-114771499D01*
X150420197Y-111379803D02*
X150420197Y-110618895D01*
X150172801Y-110371499D02*
X146678501Y-110371499D01*
X150420197Y-110420197D02*
X150371499Y-110371499D01*
X150420197Y-110618895D02*
X150420197Y-110420197D01*
X150371499Y-110371499D02*
X150172801Y-110371499D01*
X146000000Y-111267818D02*
X146000000Y-111050000D01*
X147428501Y-112696319D02*
X146000000Y-111267818D01*
X147428501Y-113203681D02*
X147428501Y-112696319D01*
X146760683Y-113871499D02*
X147428501Y-113203681D01*
X145028501Y-113871499D02*
X146760683Y-113871499D01*
X144100000Y-114800000D02*
X145028501Y-113871499D01*
G04 #@! TO.N,/zero/Q0'*
X148728501Y-115870197D02*
X148827199Y-115771499D01*
X150901301Y-116499999D02*
X153000001Y-116499999D01*
X150172801Y-115771499D02*
X150901301Y-116499999D01*
X148728501Y-116122801D02*
X148728501Y-115870197D01*
X148551302Y-116300000D02*
X148728501Y-116122801D01*
X147532182Y-116300000D02*
X148551302Y-116300000D01*
X146000000Y-114767818D02*
X147532182Y-116300000D01*
X153000001Y-116499999D02*
X154000000Y-115500000D01*
X148827199Y-115771499D02*
X150172801Y-115771499D01*
X134100000Y-115600000D02*
X134000000Y-115500000D01*
X135600000Y-115600000D02*
X134100000Y-115600000D01*
X148950000Y-111050000D02*
X148000000Y-112000000D01*
X149500000Y-111050000D02*
X148950000Y-111050000D01*
X148000000Y-113157000D02*
X148000000Y-112000000D01*
X146607000Y-114550000D02*
X148000000Y-113157000D01*
X146000000Y-114550000D02*
X146607000Y-114550000D01*
X143246490Y-117303510D02*
X146000000Y-114550000D01*
X136839184Y-115600000D02*
X138542694Y-117303510D01*
X138542694Y-117303510D02*
X143246490Y-117303510D01*
X135600000Y-115600000D02*
X136839184Y-115600000D01*
G04 #@! TO.N,/zero/B0'*
X154000000Y-112000000D02*
X151500000Y-112000000D01*
G04 #@! TO.N,Net-(D201-Pad2)*
X116800000Y-112950000D02*
X116550000Y-112700000D01*
X118000000Y-112950000D02*
X116800000Y-112950000D01*
G04 #@! TO.N,Net-(D202-Pad2)*
X120950000Y-114550000D02*
X120000000Y-115500000D01*
X121500000Y-114550000D02*
X120950000Y-114550000D01*
X124550000Y-112000000D02*
X124950000Y-111600000D01*
X123500000Y-112000000D02*
X124550000Y-112000000D01*
X124950000Y-111600000D02*
X126178501Y-110371499D01*
X131321499Y-110371499D02*
X128628501Y-110371499D01*
X132000000Y-111050000D02*
X131321499Y-110371499D01*
X128628501Y-110371499D02*
X129671499Y-110371499D01*
X126178501Y-110371499D02*
X128628501Y-110371499D01*
X135050000Y-111050000D02*
X132000000Y-111050000D01*
X135600000Y-111600000D02*
X135050000Y-111050000D01*
X121500000Y-114550000D02*
X122650000Y-114550000D01*
X123500000Y-113700000D02*
X123500000Y-112000000D01*
X122650000Y-114550000D02*
X123500000Y-113700000D01*
G04 #@! TO.N,Net-(D203-Pad2)*
X120950000Y-111050000D02*
X120000000Y-112000000D01*
X121500000Y-111050000D02*
X120950000Y-111050000D01*
X121500000Y-115500000D02*
X123500000Y-115500000D01*
X119327199Y-116178501D02*
X120672801Y-116178501D01*
X120771499Y-116079803D02*
X120771499Y-115827199D01*
X119271499Y-116122801D02*
X119327199Y-116178501D01*
X120771499Y-115827199D02*
X121098698Y-115500000D01*
X120672801Y-116178501D02*
X120771499Y-116079803D01*
X119271499Y-112728501D02*
X119271499Y-116122801D01*
X121098698Y-115500000D02*
X121500000Y-115500000D01*
X120000000Y-112000000D02*
X119271499Y-112728501D01*
X124900000Y-115500000D02*
X124950000Y-115550000D01*
X123500000Y-115500000D02*
X124900000Y-115500000D01*
X124950000Y-115550000D02*
X124950000Y-115900000D01*
X132000000Y-114550000D02*
X130098698Y-114550000D01*
X124950000Y-115450000D02*
X124950000Y-115550000D01*
X132290000Y-114260000D02*
X132000000Y-114550000D01*
X135600000Y-114260000D02*
X132290000Y-114260000D01*
X129851302Y-114550000D02*
X129172801Y-115228501D01*
X132000000Y-114550000D02*
X129851302Y-114550000D01*
X127550000Y-115150000D02*
X124950000Y-115150000D01*
X127628501Y-115228501D02*
X127550000Y-115150000D01*
X129172801Y-115228501D02*
X127628501Y-115228501D01*
X124950000Y-115150000D02*
X124950000Y-115450000D01*
X124950000Y-113750000D02*
X124950000Y-115150000D01*
G04 #@! TO.N,Net-(D206-Pad2)*
X140500000Y-114612500D02*
X140500000Y-114487500D01*
X142300000Y-116412500D02*
X140500000Y-114612500D01*
G04 #@! TO.N,Net-(D206-Pad1)*
X141771499Y-112327199D02*
X142098698Y-112000000D01*
X142098698Y-112000000D02*
X144500000Y-112000000D01*
X141771499Y-114258999D02*
X141771499Y-112327199D01*
X142300000Y-114787500D02*
X141771499Y-114258999D01*
G04 #@! TO.N,Net-(Q202-Pad2)*
X117050000Y-115500000D02*
X118000000Y-116450000D01*
X116500000Y-115500000D02*
X117050000Y-115500000D01*
G04 #@! TO.N,Net-(Q206-Pad2)*
X131050000Y-115500000D02*
X132000000Y-116450000D01*
X130500000Y-115500000D02*
X131050000Y-115500000D01*
G04 #@! TO.N,Net-(Q208-Pad2)*
X131050000Y-112000000D02*
X132000000Y-112950000D01*
X130500000Y-112000000D02*
X131050000Y-112000000D01*
G04 #@! TO.N,Net-(Q213-Pad2)*
X150107000Y-112950000D02*
X149500000Y-112950000D01*
X151500000Y-114343000D02*
X150107000Y-112950000D01*
X151500000Y-115500000D02*
X151500000Y-114343000D01*
G04 #@! TO.N,Net-(D301-Pad2)*
X116800000Y-105950000D02*
X116550000Y-105700000D01*
X118000000Y-105950000D02*
X116800000Y-105950000D01*
G04 #@! TO.N,/one/B0*
X113750000Y-105000000D02*
X114450000Y-105700000D01*
X112000000Y-105000000D02*
X113750000Y-105000000D01*
X114500000Y-105750000D02*
X114450000Y-105700000D01*
X114500000Y-107550000D02*
X114500000Y-105750000D01*
G04 #@! TO.N,Net-(D302-Pad2)*
X135600000Y-104600000D02*
X135050000Y-104050000D01*
X135050000Y-104050000D02*
X132000000Y-104050000D01*
X121500000Y-107550000D02*
X122650000Y-107550000D01*
X122650000Y-107550000D02*
X123500000Y-106700000D01*
X123500000Y-106700000D02*
X123500000Y-105000000D01*
X128628501Y-103371499D02*
X129671499Y-103371499D01*
X132000000Y-104050000D02*
X131321499Y-103371499D01*
X126178501Y-103371499D02*
X128628501Y-103371499D01*
X124950000Y-104600000D02*
X126178501Y-103371499D01*
X131321499Y-103371499D02*
X128628501Y-103371499D01*
X120950000Y-107550000D02*
X120000000Y-108500000D01*
X121500000Y-107550000D02*
X120950000Y-107550000D01*
X123500000Y-105000000D02*
X124550000Y-105000000D01*
X124550000Y-105000000D02*
X124950000Y-104600000D01*
G04 #@! TO.N,Net-(D303-Pad2)*
X120771499Y-108827199D02*
X121098698Y-108500000D01*
X121098698Y-108500000D02*
X121500000Y-108500000D01*
X120000000Y-105000000D02*
X119271499Y-105728501D01*
X119271499Y-105728501D02*
X119271499Y-109122801D01*
X120672801Y-109178501D02*
X120771499Y-109079803D01*
X121500000Y-108500000D02*
X123500000Y-108500000D01*
X120771499Y-109079803D02*
X120771499Y-108827199D01*
X119327199Y-109178501D02*
X120672801Y-109178501D01*
X119271499Y-109122801D02*
X119327199Y-109178501D01*
X124900000Y-108500000D02*
X124950000Y-108550000D01*
X132000000Y-107550000D02*
X130098698Y-107550000D01*
X124950000Y-108450000D02*
X124950000Y-108550000D01*
X124950000Y-108550000D02*
X124950000Y-108900000D01*
X123500000Y-108500000D02*
X124900000Y-108500000D01*
X132290000Y-107260000D02*
X132000000Y-107550000D01*
X135600000Y-107260000D02*
X132290000Y-107260000D01*
X120950000Y-104050000D02*
X120000000Y-105000000D01*
X121500000Y-104050000D02*
X120950000Y-104050000D01*
X129851302Y-107550000D02*
X129172801Y-108228501D01*
X127550000Y-108150000D02*
X124950000Y-108150000D01*
X127628501Y-108228501D02*
X127550000Y-108150000D01*
X132000000Y-107550000D02*
X129851302Y-107550000D01*
X124950000Y-108150000D02*
X124950000Y-108450000D01*
X124950000Y-106750000D02*
X124950000Y-108150000D01*
X129172801Y-108228501D02*
X127628501Y-108228501D01*
G04 #@! TO.N,/one/Q0*
X150420197Y-103618895D02*
X150420197Y-103420197D01*
X150420197Y-103420197D02*
X150371499Y-103371499D01*
X150371499Y-103371499D02*
X150172801Y-103371499D01*
X134940000Y-105940000D02*
X134000000Y-105000000D01*
X135600000Y-105940000D02*
X134940000Y-105940000D01*
X135600000Y-105940000D02*
X137668501Y-103871499D01*
X140421499Y-103871499D02*
X140500000Y-103950000D01*
X137668501Y-103871499D02*
X140421499Y-103871499D01*
X140500000Y-103950000D02*
X142400000Y-103950000D01*
X142400000Y-103950000D02*
X142500000Y-104050000D01*
X146000000Y-104050000D02*
X142500000Y-104050000D01*
X148728501Y-107771499D02*
X148728501Y-105370197D01*
X149370197Y-104728501D02*
X150071499Y-104728501D01*
X150071499Y-104728501D02*
X150420197Y-104379803D01*
X148728501Y-105370197D02*
X149370197Y-104728501D01*
X150420197Y-104379803D02*
X150420197Y-103618895D01*
X148000000Y-108500000D02*
X148728501Y-107771499D01*
X150172801Y-103371499D02*
X146678501Y-103371499D01*
X146678501Y-103371499D02*
X146000000Y-104050000D01*
X146000000Y-104267818D02*
X146000000Y-104050000D01*
X147428501Y-105696319D02*
X146000000Y-104267818D01*
X147428501Y-106203681D02*
X147428501Y-105696319D01*
X146760683Y-106871499D02*
X147428501Y-106203681D01*
X145028501Y-106871499D02*
X146760683Y-106871499D01*
X144100000Y-107800000D02*
X145028501Y-106871499D01*
G04 #@! TO.N,Net-(D306-Pad2)*
X142300000Y-109412500D02*
X140500000Y-107612500D01*
X140500000Y-107612500D02*
X140500000Y-107487500D01*
G04 #@! TO.N,Net-(D306-Pad1)*
X141771499Y-105327199D02*
X142098698Y-105000000D01*
X142098698Y-105000000D02*
X144500000Y-105000000D01*
X141771499Y-107258999D02*
X141771499Y-105327199D01*
X142300000Y-107787500D02*
X141771499Y-107258999D01*
G04 #@! TO.N,Net-(D401-Pad2)*
X116800000Y-98950000D02*
X116550000Y-98700000D01*
X118000000Y-98950000D02*
X116800000Y-98950000D01*
G04 #@! TO.N,/two/B0*
X113750000Y-98000000D02*
X114450000Y-98700000D01*
X112000000Y-98000000D02*
X113750000Y-98000000D01*
X114500000Y-98750000D02*
X114450000Y-98700000D01*
X114500000Y-100550000D02*
X114500000Y-98750000D01*
G04 #@! TO.N,Net-(D402-Pad2)*
X135600000Y-97600000D02*
X135050000Y-97050000D01*
X135050000Y-97050000D02*
X132000000Y-97050000D01*
X121500000Y-100550000D02*
X122650000Y-100550000D01*
X122650000Y-100550000D02*
X123500000Y-99700000D01*
X123500000Y-99700000D02*
X123500000Y-98000000D01*
X128628501Y-96371499D02*
X129671499Y-96371499D01*
X132000000Y-97050000D02*
X131321499Y-96371499D01*
X126178501Y-96371499D02*
X128628501Y-96371499D01*
X124950000Y-97600000D02*
X126178501Y-96371499D01*
X131321499Y-96371499D02*
X128628501Y-96371499D01*
X120950000Y-100550000D02*
X120000000Y-101500000D01*
X121500000Y-100550000D02*
X120950000Y-100550000D01*
X123500000Y-98000000D02*
X124550000Y-98000000D01*
X124550000Y-98000000D02*
X124950000Y-97600000D01*
G04 #@! TO.N,Net-(D403-Pad2)*
X120771499Y-101827199D02*
X121098698Y-101500000D01*
X121098698Y-101500000D02*
X121500000Y-101500000D01*
X120000000Y-98000000D02*
X119271499Y-98728501D01*
X119271499Y-98728501D02*
X119271499Y-102122801D01*
X120672801Y-102178501D02*
X120771499Y-102079803D01*
X121500000Y-101500000D02*
X123500000Y-101500000D01*
X120771499Y-102079803D02*
X120771499Y-101827199D01*
X119327199Y-102178501D02*
X120672801Y-102178501D01*
X119271499Y-102122801D02*
X119327199Y-102178501D01*
X124900000Y-101500000D02*
X124950000Y-101550000D01*
X132000000Y-100550000D02*
X130098698Y-100550000D01*
X124950000Y-101450000D02*
X124950000Y-101550000D01*
X124950000Y-101550000D02*
X124950000Y-101900000D01*
X123500000Y-101500000D02*
X124900000Y-101500000D01*
X132290000Y-100260000D02*
X132000000Y-100550000D01*
X135600000Y-100260000D02*
X132290000Y-100260000D01*
X120950000Y-97050000D02*
X120000000Y-98000000D01*
X121500000Y-97050000D02*
X120950000Y-97050000D01*
X129851302Y-100550000D02*
X129172801Y-101228501D01*
X127550000Y-101150000D02*
X124950000Y-101150000D01*
X127628501Y-101228501D02*
X127550000Y-101150000D01*
X132000000Y-100550000D02*
X129851302Y-100550000D01*
X124950000Y-101150000D02*
X124950000Y-101450000D01*
X124950000Y-99750000D02*
X124950000Y-101150000D01*
X129172801Y-101228501D02*
X127628501Y-101228501D01*
G04 #@! TO.N,/two/Q0*
X150420197Y-96618895D02*
X150420197Y-96420197D01*
X150420197Y-96420197D02*
X150371499Y-96371499D01*
X150371499Y-96371499D02*
X150172801Y-96371499D01*
X134940000Y-98940000D02*
X134000000Y-98000000D01*
X135600000Y-98940000D02*
X134940000Y-98940000D01*
X135600000Y-98940000D02*
X137668501Y-96871499D01*
X140421499Y-96871499D02*
X140500000Y-96950000D01*
X137668501Y-96871499D02*
X140421499Y-96871499D01*
X140500000Y-96950000D02*
X142400000Y-96950000D01*
X142400000Y-96950000D02*
X142500000Y-97050000D01*
X146000000Y-97050000D02*
X142500000Y-97050000D01*
X148728501Y-100771499D02*
X148728501Y-98370197D01*
X149370197Y-97728501D02*
X150071499Y-97728501D01*
X150071499Y-97728501D02*
X150420197Y-97379803D01*
X148728501Y-98370197D02*
X149370197Y-97728501D01*
X150420197Y-97379803D02*
X150420197Y-96618895D01*
X148000000Y-101500000D02*
X148728501Y-100771499D01*
X150172801Y-96371499D02*
X146678501Y-96371499D01*
X146678501Y-96371499D02*
X146000000Y-97050000D01*
X146000000Y-97267818D02*
X146000000Y-97050000D01*
X147428501Y-98696319D02*
X146000000Y-97267818D01*
X147428501Y-99223611D02*
X147428501Y-98696319D01*
X146780613Y-99871499D02*
X147428501Y-99223611D01*
X145028501Y-99871499D02*
X146780613Y-99871499D01*
X144100000Y-100800000D02*
X145028501Y-99871499D01*
G04 #@! TO.N,Net-(D406-Pad2)*
X142300000Y-102412500D02*
X140500000Y-100612500D01*
X140500000Y-100612500D02*
X140500000Y-100487500D01*
G04 #@! TO.N,Net-(D406-Pad1)*
X141771499Y-98327199D02*
X142098698Y-98000000D01*
X142098698Y-98000000D02*
X144500000Y-98000000D01*
X141771499Y-100258999D02*
X141771499Y-98327199D01*
X142300000Y-100787500D02*
X141771499Y-100258999D01*
G04 #@! TO.N,Net-(D501-Pad2)*
X116800000Y-91950000D02*
X116550000Y-91700000D01*
X118000000Y-91950000D02*
X116800000Y-91950000D01*
G04 #@! TO.N,/three/B0*
X113750000Y-91000000D02*
X114450000Y-91700000D01*
X112000000Y-91000000D02*
X113750000Y-91000000D01*
X114500000Y-91750000D02*
X114450000Y-91700000D01*
X114500000Y-93550000D02*
X114500000Y-91750000D01*
G04 #@! TO.N,Net-(D502-Pad2)*
X135600000Y-90600000D02*
X135050000Y-90050000D01*
X135050000Y-90050000D02*
X132000000Y-90050000D01*
X121500000Y-93550000D02*
X122650000Y-93550000D01*
X122650000Y-93550000D02*
X123500000Y-92700000D01*
X123500000Y-92700000D02*
X123500000Y-91000000D01*
X128628501Y-89371499D02*
X129671499Y-89371499D01*
X132000000Y-90050000D02*
X131321499Y-89371499D01*
X126178501Y-89371499D02*
X128628501Y-89371499D01*
X124950000Y-90600000D02*
X126178501Y-89371499D01*
X131321499Y-89371499D02*
X128628501Y-89371499D01*
X120950000Y-93550000D02*
X120000000Y-94500000D01*
X121500000Y-93550000D02*
X120950000Y-93550000D01*
X123500000Y-91000000D02*
X124550000Y-91000000D01*
X124550000Y-91000000D02*
X124950000Y-90600000D01*
G04 #@! TO.N,Net-(D503-Pad2)*
X120771499Y-94827199D02*
X121098698Y-94500000D01*
X121098698Y-94500000D02*
X121500000Y-94500000D01*
X120000000Y-91000000D02*
X119271499Y-91728501D01*
X119271499Y-91728501D02*
X119271499Y-95122801D01*
X120672801Y-95178501D02*
X120771499Y-95079803D01*
X121500000Y-94500000D02*
X123500000Y-94500000D01*
X120771499Y-95079803D02*
X120771499Y-94827199D01*
X119327199Y-95178501D02*
X120672801Y-95178501D01*
X119271499Y-95122801D02*
X119327199Y-95178501D01*
X124900000Y-94500000D02*
X124950000Y-94550000D01*
X132000000Y-93550000D02*
X130098698Y-93550000D01*
X124950000Y-94450000D02*
X124950000Y-94550000D01*
X124950000Y-94550000D02*
X124950000Y-94900000D01*
X123500000Y-94500000D02*
X124900000Y-94500000D01*
X132290000Y-93260000D02*
X132000000Y-93550000D01*
X135600000Y-93260000D02*
X132290000Y-93260000D01*
X120950000Y-90050000D02*
X120000000Y-91000000D01*
X121500000Y-90050000D02*
X120950000Y-90050000D01*
X129851302Y-93550000D02*
X129172801Y-94228501D01*
X127550000Y-94150000D02*
X124950000Y-94150000D01*
X127628501Y-94228501D02*
X127550000Y-94150000D01*
X132000000Y-93550000D02*
X129851302Y-93550000D01*
X124950000Y-94150000D02*
X124950000Y-94450000D01*
X124950000Y-92750000D02*
X124950000Y-94150000D01*
X129172801Y-94228501D02*
X127628501Y-94228501D01*
G04 #@! TO.N,/three/Q0*
X150420197Y-89618895D02*
X150420197Y-89420197D01*
X150420197Y-89420197D02*
X150371499Y-89371499D01*
X150371499Y-89371499D02*
X150172801Y-89371499D01*
X134940000Y-91940000D02*
X134000000Y-91000000D01*
X135600000Y-91940000D02*
X134940000Y-91940000D01*
X135600000Y-91940000D02*
X137668501Y-89871499D01*
X140421499Y-89871499D02*
X140500000Y-89950000D01*
X137668501Y-89871499D02*
X140421499Y-89871499D01*
X140500000Y-89950000D02*
X142400000Y-89950000D01*
X142400000Y-89950000D02*
X142500000Y-90050000D01*
X146000000Y-90050000D02*
X142500000Y-90050000D01*
X148728501Y-93771499D02*
X148728501Y-91370197D01*
X149370197Y-90728501D02*
X150071499Y-90728501D01*
X150071499Y-90728501D02*
X150420197Y-90379803D01*
X148728501Y-91370197D02*
X149370197Y-90728501D01*
X150420197Y-90379803D02*
X150420197Y-89618895D01*
X148000000Y-94500000D02*
X148728501Y-93771499D01*
X150172801Y-89371499D02*
X146678501Y-89371499D01*
X146678501Y-89371499D02*
X146000000Y-90050000D01*
X147428501Y-92203681D02*
X147428501Y-91696319D01*
X146000000Y-90267818D02*
X146000000Y-90050000D01*
X146760683Y-92871499D02*
X147428501Y-92203681D01*
X145028501Y-92871499D02*
X146760683Y-92871499D01*
X147428501Y-91696319D02*
X146000000Y-90267818D01*
X144100000Y-93800000D02*
X145028501Y-92871499D01*
G04 #@! TO.N,Net-(D506-Pad2)*
X142300000Y-95412500D02*
X140500000Y-93612500D01*
X140500000Y-93612500D02*
X140500000Y-93487500D01*
G04 #@! TO.N,Net-(D506-Pad1)*
X141771499Y-91327199D02*
X142098698Y-91000000D01*
X142098698Y-91000000D02*
X144500000Y-91000000D01*
X141771499Y-93258999D02*
X141771499Y-91327199D01*
X142300000Y-93787500D02*
X141771499Y-93258999D01*
G04 #@! TO.N,Net-(Q302-Pad2)*
X116500000Y-108500000D02*
X117050000Y-108500000D01*
X117050000Y-108500000D02*
X118000000Y-109450000D01*
G04 #@! TO.N,/one/Q0'*
X148728501Y-108870197D02*
X148827199Y-108771499D01*
X150901301Y-109499999D02*
X153000001Y-109499999D01*
X150172801Y-108771499D02*
X150901301Y-109499999D01*
X148728501Y-109122801D02*
X148728501Y-108870197D01*
X148551302Y-109300000D02*
X148728501Y-109122801D01*
X147532182Y-109300000D02*
X148551302Y-109300000D01*
X146000000Y-107767818D02*
X147532182Y-109300000D01*
X153000001Y-109499999D02*
X154000000Y-108500000D01*
X148827199Y-108771499D02*
X150172801Y-108771499D01*
X134100000Y-108600000D02*
X134000000Y-108500000D01*
X135600000Y-108600000D02*
X134100000Y-108600000D01*
X148950000Y-104050000D02*
X148000000Y-105000000D01*
X149500000Y-104050000D02*
X148950000Y-104050000D01*
X146607000Y-107550000D02*
X148000000Y-106157000D01*
X146000000Y-107550000D02*
X146607000Y-107550000D01*
X148000000Y-106157000D02*
X148000000Y-105000000D01*
X143246490Y-110303510D02*
X146000000Y-107550000D01*
X138542694Y-110303510D02*
X143246490Y-110303510D01*
X136839184Y-108600000D02*
X138542694Y-110303510D01*
X135600000Y-108600000D02*
X136839184Y-108600000D01*
G04 #@! TO.N,Net-(Q306-Pad2)*
X131050000Y-108500000D02*
X132000000Y-109450000D01*
X130500000Y-108500000D02*
X131050000Y-108500000D01*
G04 #@! TO.N,Net-(Q308-Pad2)*
X130500000Y-105000000D02*
X131050000Y-105000000D01*
X131050000Y-105000000D02*
X132000000Y-105950000D01*
G04 #@! TO.N,/one/B0'*
X154000000Y-105000000D02*
X151500000Y-105000000D01*
G04 #@! TO.N,Net-(Q313-Pad2)*
X151500000Y-108500000D02*
X151500000Y-107343000D01*
X150107000Y-105950000D02*
X149500000Y-105950000D01*
X151500000Y-107343000D02*
X150107000Y-105950000D01*
G04 #@! TO.N,Net-(Q402-Pad2)*
X116500000Y-101500000D02*
X117050000Y-101500000D01*
X117050000Y-101500000D02*
X118000000Y-102450000D01*
G04 #@! TO.N,/two/Q0'*
X148728501Y-101870197D02*
X148827199Y-101771499D01*
X150901301Y-102499999D02*
X153000001Y-102499999D01*
X150172801Y-101771499D02*
X150901301Y-102499999D01*
X148728501Y-102122801D02*
X148728501Y-101870197D01*
X148551302Y-102300000D02*
X148728501Y-102122801D01*
X147532182Y-102300000D02*
X148551302Y-102300000D01*
X146000000Y-100767818D02*
X147532182Y-102300000D01*
X153000001Y-102499999D02*
X154000000Y-101500000D01*
X148827199Y-101771499D02*
X150172801Y-101771499D01*
X134100000Y-101600000D02*
X134000000Y-101500000D01*
X135600000Y-101600000D02*
X134100000Y-101600000D01*
X148950000Y-97050000D02*
X148000000Y-98000000D01*
X149500000Y-97050000D02*
X148950000Y-97050000D01*
X146607000Y-100550000D02*
X148000000Y-99157000D01*
X146000000Y-100550000D02*
X146607000Y-100550000D01*
X148000000Y-99157000D02*
X148000000Y-98000000D01*
X143246490Y-103303510D02*
X146000000Y-100550000D01*
X138542694Y-103303510D02*
X143246490Y-103303510D01*
X136839184Y-101600000D02*
X138542694Y-103303510D01*
X135600000Y-101600000D02*
X136839184Y-101600000D01*
G04 #@! TO.N,Net-(Q406-Pad2)*
X131050000Y-101500000D02*
X132000000Y-102450000D01*
X130500000Y-101500000D02*
X131050000Y-101500000D01*
G04 #@! TO.N,Net-(Q408-Pad2)*
X130500000Y-98000000D02*
X131050000Y-98000000D01*
X131050000Y-98000000D02*
X132000000Y-98950000D01*
G04 #@! TO.N,/two/B0'*
X154000000Y-98000000D02*
X151500000Y-98000000D01*
G04 #@! TO.N,Net-(Q413-Pad2)*
X151500000Y-101500000D02*
X151500000Y-100343000D01*
X150107000Y-98950000D02*
X149500000Y-98950000D01*
X151500000Y-100343000D02*
X150107000Y-98950000D01*
G04 #@! TO.N,Net-(Q502-Pad2)*
X116500000Y-94500000D02*
X117050000Y-94500000D01*
X117050000Y-94500000D02*
X118000000Y-95450000D01*
G04 #@! TO.N,/three/Q0'*
X134100000Y-94600000D02*
X134000000Y-94500000D01*
X135600000Y-94600000D02*
X134100000Y-94600000D01*
X148950000Y-90050000D02*
X148000000Y-91000000D01*
X149500000Y-90050000D02*
X148950000Y-90050000D01*
X146607000Y-93550000D02*
X148000000Y-92157000D01*
X146000000Y-93550000D02*
X146607000Y-93550000D01*
X148000000Y-92157000D02*
X148000000Y-91000000D01*
X143246490Y-96303510D02*
X143525000Y-96025000D01*
X138542694Y-96303510D02*
X143246490Y-96303510D01*
X143525000Y-96025000D02*
X146000000Y-93550000D01*
X136839184Y-94600000D02*
X138542694Y-96303510D01*
X135600000Y-94600000D02*
X136839184Y-94600000D01*
X150901301Y-95499999D02*
X153000001Y-95499999D01*
X150172801Y-94771499D02*
X150901301Y-95499999D01*
X148827199Y-94771499D02*
X150172801Y-94771499D01*
X148728501Y-95122801D02*
X148728501Y-94870197D01*
X148551302Y-95300000D02*
X148728501Y-95122801D01*
X147532182Y-95300000D02*
X148551302Y-95300000D01*
X146000000Y-93767818D02*
X147532182Y-95300000D01*
X153000001Y-95499999D02*
X154000000Y-94500000D01*
X148728501Y-94870197D02*
X148827199Y-94771499D01*
X146000000Y-93550000D02*
X146000000Y-93767818D01*
G04 #@! TO.N,Net-(Q506-Pad2)*
X131050000Y-94500000D02*
X132000000Y-95450000D01*
X130500000Y-94500000D02*
X131050000Y-94500000D01*
G04 #@! TO.N,Net-(Q508-Pad2)*
X130500000Y-91000000D02*
X131050000Y-91000000D01*
X131050000Y-91000000D02*
X132000000Y-91950000D01*
G04 #@! TO.N,/three/B0'*
X154000000Y-91000000D02*
X151500000Y-91000000D01*
G04 #@! TO.N,Net-(Q513-Pad2)*
X151500000Y-94500000D02*
X151500000Y-93343000D01*
X150107000Y-91950000D02*
X149500000Y-91950000D01*
X151500000Y-93343000D02*
X150107000Y-91950000D01*
G04 #@! TD*
M02*
