%TF.GenerationSoftware,KiCad,Pcbnew,(5.1.9)-1*%
%TF.CreationDate,2022-08-30T23:25:40+02:00*%
%TF.ProjectId,adder,61646465-722e-46b6-9963-61645f706362,rev?*%
%TF.SameCoordinates,Original*%
%TF.FileFunction,Legend,Top*%
%TF.FilePolarity,Positive*%
%FSLAX46Y46*%
G04 Gerber Fmt 4.6, Leading zero omitted, Abs format (unit mm)*
G04 Created by KiCad (PCBNEW (5.1.9)-1) date 2022-08-30 23:25:40*
%MOMM*%
%LPD*%
G01*
G04 APERTURE LIST*
%ADD10C,0.120000*%
%ADD11C,2.000000*%
%ADD12R,0.900000X0.900000*%
%ADD13R,0.900000X0.800000*%
%ADD14R,1.000000X1.000000*%
G04 APERTURE END LIST*
D10*
%TO.C,TP403*%
X189951000Y-82800000D02*
G75*
G03*
X189951000Y-82800000I-1251000J0D01*
G01*
%TO.C,TP402*%
X152951000Y-82800000D02*
G75*
G03*
X152951000Y-82800000I-1251000J0D01*
G01*
%TO.C,TP401*%
X152951000Y-86300000D02*
G75*
G03*
X152951000Y-86300000I-1251000J0D01*
G01*
%TO.C,RN401*%
X168250000Y-81730000D02*
X166150000Y-81730000D01*
X168250000Y-87070000D02*
X166150000Y-87070000D01*
%TO.C,Q410*%
X172810000Y-87880000D02*
X171350000Y-87880000D01*
X172810000Y-84720000D02*
X170650000Y-84720000D01*
X172810000Y-84720000D02*
X172810000Y-85650000D01*
X172810000Y-87880000D02*
X172810000Y-86950000D01*
%TO.C,Q409*%
X159860000Y-84380000D02*
X158400000Y-84380000D01*
X159860000Y-81220000D02*
X157700000Y-81220000D01*
X159860000Y-81220000D02*
X159860000Y-82150000D01*
X159860000Y-84380000D02*
X159860000Y-83450000D01*
%TO.C,Q408*%
X156160000Y-87880000D02*
X154700000Y-87880000D01*
X156160000Y-84720000D02*
X154000000Y-84720000D01*
X156160000Y-84720000D02*
X156160000Y-85650000D01*
X156160000Y-87880000D02*
X156160000Y-86950000D01*
%TO.C,Q407*%
X183910000Y-87880000D02*
X182450000Y-87880000D01*
X183910000Y-84720000D02*
X181750000Y-84720000D01*
X183910000Y-84720000D02*
X183910000Y-85650000D01*
X183910000Y-87880000D02*
X183910000Y-86950000D01*
%TO.C,Q406*%
X180210000Y-87880000D02*
X178750000Y-87880000D01*
X180210000Y-84720000D02*
X178050000Y-84720000D01*
X180210000Y-84720000D02*
X180210000Y-85650000D01*
X180210000Y-87880000D02*
X180210000Y-86950000D01*
%TO.C,Q405*%
X176510000Y-87880000D02*
X175050000Y-87880000D01*
X176510000Y-84720000D02*
X174350000Y-84720000D01*
X176510000Y-84720000D02*
X176510000Y-85650000D01*
X176510000Y-87880000D02*
X176510000Y-86950000D01*
%TO.C,Q404*%
X176510000Y-84380000D02*
X175050000Y-84380000D01*
X176510000Y-81220000D02*
X174350000Y-81220000D01*
X176510000Y-81220000D02*
X176510000Y-82150000D01*
X176510000Y-84380000D02*
X176510000Y-83450000D01*
%TO.C,Q403*%
X163560000Y-84380000D02*
X162100000Y-84380000D01*
X163560000Y-81220000D02*
X161400000Y-81220000D01*
X163560000Y-81220000D02*
X163560000Y-82150000D01*
X163560000Y-84380000D02*
X163560000Y-83450000D01*
%TO.C,Q402*%
X163560000Y-87880000D02*
X162100000Y-87880000D01*
X163560000Y-84720000D02*
X161400000Y-84720000D01*
X163560000Y-84720000D02*
X163560000Y-85650000D01*
X163560000Y-87880000D02*
X163560000Y-86950000D01*
%TO.C,Q401*%
X183910000Y-84380000D02*
X182450000Y-84380000D01*
X183910000Y-81220000D02*
X181750000Y-81220000D01*
X183910000Y-81220000D02*
X183910000Y-82150000D01*
X183910000Y-84380000D02*
X183910000Y-83450000D01*
%TO.C,D409*%
X153500000Y-82850000D02*
X156650000Y-82850000D01*
X153500000Y-84550000D02*
X156650000Y-84550000D01*
X153500000Y-82850000D02*
X153500000Y-84550000D01*
%TO.C,D408*%
X157300000Y-82850000D02*
X154150000Y-82850000D01*
X157300000Y-81150000D02*
X154150000Y-81150000D01*
X157300000Y-82850000D02*
X157300000Y-81150000D01*
%TO.C,D407*%
X177550000Y-81150000D02*
X180700000Y-81150000D01*
X177550000Y-82850000D02*
X180700000Y-82850000D01*
X177550000Y-81150000D02*
X177550000Y-82850000D01*
%TO.C,D406*%
X177550000Y-82850000D02*
X180700000Y-82850000D01*
X177550000Y-84550000D02*
X180700000Y-84550000D01*
X177550000Y-82850000D02*
X177550000Y-84550000D01*
%TO.C,D405*%
X170150000Y-81150000D02*
X173300000Y-81150000D01*
X170150000Y-82850000D02*
X173300000Y-82850000D01*
X170150000Y-81150000D02*
X170150000Y-82850000D01*
%TO.C,D404*%
X170150000Y-82850000D02*
X173300000Y-82850000D01*
X170150000Y-84550000D02*
X173300000Y-84550000D01*
X170150000Y-82850000D02*
X170150000Y-84550000D01*
%TO.C,D403*%
X157200000Y-84550000D02*
X160350000Y-84550000D01*
X157200000Y-86250000D02*
X160350000Y-86250000D01*
X157200000Y-84550000D02*
X157200000Y-86250000D01*
%TO.C,D402*%
X157200000Y-86250000D02*
X160350000Y-86250000D01*
X157200000Y-87950000D02*
X160350000Y-87950000D01*
X157200000Y-86250000D02*
X157200000Y-87950000D01*
%TO.C,D401*%
X186750000Y-81300000D02*
X186750000Y-84450000D01*
X185050000Y-81300000D02*
X185050000Y-84450000D01*
X186750000Y-81300000D02*
X185050000Y-81300000D01*
%TO.C,TP303*%
X189951000Y-93700000D02*
G75*
G03*
X189951000Y-93700000I-1251000J0D01*
G01*
%TO.C,TP302*%
X152951000Y-90200000D02*
G75*
G03*
X152951000Y-90200000I-1251000J0D01*
G01*
%TO.C,TP301*%
X152951000Y-93700000D02*
G75*
G03*
X152951000Y-93700000I-1251000J0D01*
G01*
%TO.C,RN301*%
X168250000Y-89130000D02*
X166150000Y-89130000D01*
X168250000Y-94470000D02*
X166150000Y-94470000D01*
%TO.C,RN2*%
X188250000Y-85530000D02*
X186150000Y-85530000D01*
X188250000Y-90870000D02*
X186150000Y-90870000D01*
%TO.C,Q310*%
X172810000Y-95280000D02*
X171350000Y-95280000D01*
X172810000Y-92120000D02*
X170650000Y-92120000D01*
X172810000Y-92120000D02*
X172810000Y-93050000D01*
X172810000Y-95280000D02*
X172810000Y-94350000D01*
%TO.C,Q309*%
X159860000Y-91780000D02*
X158400000Y-91780000D01*
X159860000Y-88620000D02*
X157700000Y-88620000D01*
X159860000Y-88620000D02*
X159860000Y-89550000D01*
X159860000Y-91780000D02*
X159860000Y-90850000D01*
%TO.C,Q308*%
X156160000Y-95280000D02*
X154700000Y-95280000D01*
X156160000Y-92120000D02*
X154000000Y-92120000D01*
X156160000Y-92120000D02*
X156160000Y-93050000D01*
X156160000Y-95280000D02*
X156160000Y-94350000D01*
%TO.C,Q307*%
X183910000Y-95280000D02*
X182450000Y-95280000D01*
X183910000Y-92120000D02*
X181750000Y-92120000D01*
X183910000Y-92120000D02*
X183910000Y-93050000D01*
X183910000Y-95280000D02*
X183910000Y-94350000D01*
%TO.C,Q306*%
X180210000Y-95280000D02*
X178750000Y-95280000D01*
X180210000Y-92120000D02*
X178050000Y-92120000D01*
X180210000Y-92120000D02*
X180210000Y-93050000D01*
X180210000Y-95280000D02*
X180210000Y-94350000D01*
%TO.C,Q305*%
X176510000Y-95280000D02*
X175050000Y-95280000D01*
X176510000Y-92120000D02*
X174350000Y-92120000D01*
X176510000Y-92120000D02*
X176510000Y-93050000D01*
X176510000Y-95280000D02*
X176510000Y-94350000D01*
%TO.C,Q304*%
X176510000Y-91780000D02*
X175050000Y-91780000D01*
X176510000Y-88620000D02*
X174350000Y-88620000D01*
X176510000Y-88620000D02*
X176510000Y-89550000D01*
X176510000Y-91780000D02*
X176510000Y-90850000D01*
%TO.C,Q303*%
X163560000Y-91780000D02*
X162100000Y-91780000D01*
X163560000Y-88620000D02*
X161400000Y-88620000D01*
X163560000Y-88620000D02*
X163560000Y-89550000D01*
X163560000Y-91780000D02*
X163560000Y-90850000D01*
%TO.C,Q302*%
X163560000Y-95280000D02*
X162100000Y-95280000D01*
X163560000Y-92120000D02*
X161400000Y-92120000D01*
X163560000Y-92120000D02*
X163560000Y-93050000D01*
X163560000Y-95280000D02*
X163560000Y-94350000D01*
%TO.C,Q301*%
X183910000Y-91780000D02*
X182450000Y-91780000D01*
X183910000Y-88620000D02*
X181750000Y-88620000D01*
X183910000Y-88620000D02*
X183910000Y-89550000D01*
X183910000Y-91780000D02*
X183910000Y-90850000D01*
%TO.C,D309*%
X153500000Y-90250000D02*
X156650000Y-90250000D01*
X153500000Y-91950000D02*
X156650000Y-91950000D01*
X153500000Y-90250000D02*
X153500000Y-91950000D01*
%TO.C,D308*%
X157300000Y-90250000D02*
X154150000Y-90250000D01*
X157300000Y-88550000D02*
X154150000Y-88550000D01*
X157300000Y-90250000D02*
X157300000Y-88550000D01*
%TO.C,D307*%
X177550000Y-88550000D02*
X180700000Y-88550000D01*
X177550000Y-90250000D02*
X180700000Y-90250000D01*
X177550000Y-88550000D02*
X177550000Y-90250000D01*
%TO.C,D306*%
X177550000Y-90250000D02*
X180700000Y-90250000D01*
X177550000Y-91950000D02*
X180700000Y-91950000D01*
X177550000Y-90250000D02*
X177550000Y-91950000D01*
%TO.C,D305*%
X170150000Y-88550000D02*
X173300000Y-88550000D01*
X170150000Y-90250000D02*
X173300000Y-90250000D01*
X170150000Y-88550000D02*
X170150000Y-90250000D01*
%TO.C,D304*%
X170150000Y-90250000D02*
X173300000Y-90250000D01*
X170150000Y-91950000D02*
X173300000Y-91950000D01*
X170150000Y-90250000D02*
X170150000Y-91950000D01*
%TO.C,D303*%
X157200000Y-91950000D02*
X160350000Y-91950000D01*
X157200000Y-93650000D02*
X160350000Y-93650000D01*
X157200000Y-91950000D02*
X157200000Y-93650000D01*
%TO.C,D302*%
X157200000Y-93650000D02*
X160350000Y-93650000D01*
X157200000Y-95350000D02*
X160350000Y-95350000D01*
X157200000Y-93650000D02*
X157200000Y-95350000D01*
%TO.C,D301*%
X185050000Y-95100000D02*
X185050000Y-91950000D01*
X186750000Y-95100000D02*
X186750000Y-91950000D01*
X185050000Y-95100000D02*
X186750000Y-95100000D01*
%TO.C,TP203*%
X189951000Y-97600000D02*
G75*
G03*
X189951000Y-97600000I-1251000J0D01*
G01*
%TO.C,TP202*%
X152951000Y-97600000D02*
G75*
G03*
X152951000Y-97600000I-1251000J0D01*
G01*
%TO.C,TP201*%
X152951000Y-101100000D02*
G75*
G03*
X152951000Y-101100000I-1251000J0D01*
G01*
%TO.C,RN201*%
X168250000Y-96530000D02*
X166150000Y-96530000D01*
X168250000Y-101870000D02*
X166150000Y-101870000D01*
%TO.C,Q210*%
X172810000Y-102680000D02*
X171350000Y-102680000D01*
X172810000Y-99520000D02*
X170650000Y-99520000D01*
X172810000Y-99520000D02*
X172810000Y-100450000D01*
X172810000Y-102680000D02*
X172810000Y-101750000D01*
%TO.C,Q209*%
X159860000Y-99180000D02*
X158400000Y-99180000D01*
X159860000Y-96020000D02*
X157700000Y-96020000D01*
X159860000Y-96020000D02*
X159860000Y-96950000D01*
X159860000Y-99180000D02*
X159860000Y-98250000D01*
%TO.C,Q208*%
X156160000Y-102680000D02*
X154700000Y-102680000D01*
X156160000Y-99520000D02*
X154000000Y-99520000D01*
X156160000Y-99520000D02*
X156160000Y-100450000D01*
X156160000Y-102680000D02*
X156160000Y-101750000D01*
%TO.C,Q207*%
X183910000Y-102680000D02*
X182450000Y-102680000D01*
X183910000Y-99520000D02*
X181750000Y-99520000D01*
X183910000Y-99520000D02*
X183910000Y-100450000D01*
X183910000Y-102680000D02*
X183910000Y-101750000D01*
%TO.C,Q206*%
X180210000Y-102680000D02*
X178750000Y-102680000D01*
X180210000Y-99520000D02*
X178050000Y-99520000D01*
X180210000Y-99520000D02*
X180210000Y-100450000D01*
X180210000Y-102680000D02*
X180210000Y-101750000D01*
%TO.C,Q205*%
X176510000Y-102680000D02*
X175050000Y-102680000D01*
X176510000Y-99520000D02*
X174350000Y-99520000D01*
X176510000Y-99520000D02*
X176510000Y-100450000D01*
X176510000Y-102680000D02*
X176510000Y-101750000D01*
%TO.C,Q204*%
X176510000Y-99180000D02*
X175050000Y-99180000D01*
X176510000Y-96020000D02*
X174350000Y-96020000D01*
X176510000Y-96020000D02*
X176510000Y-96950000D01*
X176510000Y-99180000D02*
X176510000Y-98250000D01*
%TO.C,Q203*%
X163560000Y-99180000D02*
X162100000Y-99180000D01*
X163560000Y-96020000D02*
X161400000Y-96020000D01*
X163560000Y-96020000D02*
X163560000Y-96950000D01*
X163560000Y-99180000D02*
X163560000Y-98250000D01*
%TO.C,Q202*%
X163560000Y-102680000D02*
X162100000Y-102680000D01*
X163560000Y-99520000D02*
X161400000Y-99520000D01*
X163560000Y-99520000D02*
X163560000Y-100450000D01*
X163560000Y-102680000D02*
X163560000Y-101750000D01*
%TO.C,Q201*%
X183910000Y-99180000D02*
X182450000Y-99180000D01*
X183910000Y-96020000D02*
X181750000Y-96020000D01*
X183910000Y-96020000D02*
X183910000Y-96950000D01*
X183910000Y-99180000D02*
X183910000Y-98250000D01*
%TO.C,D209*%
X153500000Y-97650000D02*
X156650000Y-97650000D01*
X153500000Y-99350000D02*
X156650000Y-99350000D01*
X153500000Y-97650000D02*
X153500000Y-99350000D01*
%TO.C,D208*%
X157300000Y-97650000D02*
X154150000Y-97650000D01*
X157300000Y-95950000D02*
X154150000Y-95950000D01*
X157300000Y-97650000D02*
X157300000Y-95950000D01*
%TO.C,D207*%
X177550000Y-95950000D02*
X180700000Y-95950000D01*
X177550000Y-97650000D02*
X180700000Y-97650000D01*
X177550000Y-95950000D02*
X177550000Y-97650000D01*
%TO.C,D206*%
X177550000Y-97650000D02*
X180700000Y-97650000D01*
X177550000Y-99350000D02*
X180700000Y-99350000D01*
X177550000Y-97650000D02*
X177550000Y-99350000D01*
%TO.C,D205*%
X170150000Y-95950000D02*
X173300000Y-95950000D01*
X170150000Y-97650000D02*
X173300000Y-97650000D01*
X170150000Y-95950000D02*
X170150000Y-97650000D01*
%TO.C,D204*%
X170150000Y-97650000D02*
X173300000Y-97650000D01*
X170150000Y-99350000D02*
X173300000Y-99350000D01*
X170150000Y-97650000D02*
X170150000Y-99350000D01*
%TO.C,D203*%
X157200000Y-99350000D02*
X160350000Y-99350000D01*
X157200000Y-101050000D02*
X160350000Y-101050000D01*
X157200000Y-99350000D02*
X157200000Y-101050000D01*
%TO.C,D202*%
X157200000Y-101050000D02*
X160350000Y-101050000D01*
X157200000Y-102750000D02*
X160350000Y-102750000D01*
X157200000Y-101050000D02*
X157200000Y-102750000D01*
%TO.C,D201*%
X186750000Y-96100000D02*
X186750000Y-99250000D01*
X185050000Y-96100000D02*
X185050000Y-99250000D01*
X186750000Y-96100000D02*
X185050000Y-96100000D01*
%TO.C,D6*%
X177550000Y-103350000D02*
X180700000Y-103350000D01*
X177550000Y-105050000D02*
X180700000Y-105050000D01*
X177550000Y-103350000D02*
X177550000Y-105050000D01*
%TO.C,D4*%
X170150000Y-103350000D02*
X173300000Y-103350000D01*
X170150000Y-105050000D02*
X173300000Y-105050000D01*
X170150000Y-103350000D02*
X170150000Y-105050000D01*
%TO.C,Q2*%
X163560000Y-106580000D02*
X162100000Y-106580000D01*
X163560000Y-103420000D02*
X161400000Y-103420000D01*
X163560000Y-103420000D02*
X163560000Y-104350000D01*
X163560000Y-106580000D02*
X163560000Y-105650000D01*
%TO.C,D8*%
X153500000Y-105050000D02*
X156650000Y-105050000D01*
X153500000Y-106750000D02*
X156650000Y-106750000D01*
X153500000Y-105050000D02*
X153500000Y-106750000D01*
%TO.C,D7*%
X157300000Y-105050000D02*
X154150000Y-105050000D01*
X157300000Y-103350000D02*
X154150000Y-103350000D01*
X157300000Y-105050000D02*
X157300000Y-103350000D01*
%TO.C,D5*%
X177550000Y-105050000D02*
X180700000Y-105050000D01*
X177550000Y-106750000D02*
X180700000Y-106750000D01*
X177550000Y-105050000D02*
X177550000Y-106750000D01*
%TO.C,D3*%
X170150000Y-105050000D02*
X173300000Y-105050000D01*
X170150000Y-106750000D02*
X173300000Y-106750000D01*
X170150000Y-105050000D02*
X170150000Y-106750000D01*
%TO.C,D2*%
X157200000Y-106750000D02*
X160350000Y-106750000D01*
X157200000Y-108450000D02*
X160350000Y-108450000D01*
X157200000Y-106750000D02*
X157200000Y-108450000D01*
%TO.C,D1*%
X157200000Y-108450000D02*
X160350000Y-108450000D01*
X157200000Y-110150000D02*
X160350000Y-110150000D01*
X157200000Y-108450000D02*
X157200000Y-110150000D01*
%TO.C,D0*%
X185050000Y-109900000D02*
X185050000Y-106750000D01*
X186750000Y-109900000D02*
X186750000Y-106750000D01*
X185050000Y-109900000D02*
X186750000Y-109900000D01*
%TO.C,TP8*%
X169601000Y-112000000D02*
G75*
G03*
X169601000Y-112000000I-1251000J0D01*
G01*
%TO.C,TP7*%
X165901000Y-112000000D02*
G75*
G03*
X165901000Y-112000000I-1251000J0D01*
G01*
%TO.C,TP6*%
X162201000Y-112000000D02*
G75*
G03*
X162201000Y-112000000I-1251000J0D01*
G01*
%TO.C,TP5*%
X177001000Y-79300000D02*
G75*
G03*
X177001000Y-79300000I-1251000J0D01*
G01*
%TO.C,TP4*%
X177001000Y-112000000D02*
G75*
G03*
X177001000Y-112000000I-1251000J0D01*
G01*
%TO.C,TP3*%
X189951000Y-108500000D02*
G75*
G03*
X189951000Y-108500000I-1251000J0D01*
G01*
%TO.C,TP2*%
X152951000Y-105000000D02*
G75*
G03*
X152951000Y-105000000I-1251000J0D01*
G01*
%TO.C,TP1*%
X152951000Y-108500000D02*
G75*
G03*
X152951000Y-108500000I-1251000J0D01*
G01*
%TO.C,TP0*%
X186251000Y-112000000D02*
G75*
G03*
X186251000Y-112000000I-1251000J0D01*
G01*
%TO.C,RN1*%
X188250000Y-100330000D02*
X186150000Y-100330000D01*
X188250000Y-105670000D02*
X186150000Y-105670000D01*
%TO.C,RN0*%
X168250000Y-103930000D02*
X166150000Y-103930000D01*
X168250000Y-109270000D02*
X166150000Y-109270000D01*
%TO.C,Q9*%
X172810000Y-110080000D02*
X171350000Y-110080000D01*
X172810000Y-106920000D02*
X170650000Y-106920000D01*
X172810000Y-106920000D02*
X172810000Y-107850000D01*
X172810000Y-110080000D02*
X172810000Y-109150000D01*
%TO.C,Q8*%
X159860000Y-106580000D02*
X158400000Y-106580000D01*
X159860000Y-103420000D02*
X157700000Y-103420000D01*
X159860000Y-103420000D02*
X159860000Y-104350000D01*
X159860000Y-106580000D02*
X159860000Y-105650000D01*
%TO.C,Q7*%
X156160000Y-110080000D02*
X154700000Y-110080000D01*
X156160000Y-106920000D02*
X154000000Y-106920000D01*
X156160000Y-106920000D02*
X156160000Y-107850000D01*
X156160000Y-110080000D02*
X156160000Y-109150000D01*
%TO.C,Q6*%
X183910000Y-110080000D02*
X182450000Y-110080000D01*
X183910000Y-106920000D02*
X181750000Y-106920000D01*
X183910000Y-106920000D02*
X183910000Y-107850000D01*
X183910000Y-110080000D02*
X183910000Y-109150000D01*
%TO.C,Q5*%
X180210000Y-110080000D02*
X178750000Y-110080000D01*
X180210000Y-106920000D02*
X178050000Y-106920000D01*
X180210000Y-106920000D02*
X180210000Y-107850000D01*
X180210000Y-110080000D02*
X180210000Y-109150000D01*
%TO.C,Q4*%
X176510000Y-110080000D02*
X175050000Y-110080000D01*
X176510000Y-106920000D02*
X174350000Y-106920000D01*
X176510000Y-106920000D02*
X176510000Y-107850000D01*
X176510000Y-110080000D02*
X176510000Y-109150000D01*
%TO.C,Q3*%
X176510000Y-106580000D02*
X175050000Y-106580000D01*
X176510000Y-103420000D02*
X174350000Y-103420000D01*
X176510000Y-103420000D02*
X176510000Y-104350000D01*
X176510000Y-106580000D02*
X176510000Y-105650000D01*
%TO.C,Q1*%
X163560000Y-110080000D02*
X162100000Y-110080000D01*
X163560000Y-106920000D02*
X161400000Y-106920000D01*
X163560000Y-106920000D02*
X163560000Y-107850000D01*
X163560000Y-110080000D02*
X163560000Y-109150000D01*
%TO.C,Q0*%
X183910000Y-106580000D02*
X182450000Y-106580000D01*
X183910000Y-103420000D02*
X181750000Y-103420000D01*
X183910000Y-103420000D02*
X183910000Y-104350000D01*
X183910000Y-106580000D02*
X183910000Y-105650000D01*
%TO.C,C0*%
X167053733Y-103210000D02*
X167346267Y-103210000D01*
X167053733Y-102190000D02*
X167346267Y-102190000D01*
%TD*%
%LPC*%
D11*
%TO.C,TP403*%
X188700000Y-82800000D03*
%TD*%
%TO.C,TP402*%
X151700000Y-82800000D03*
%TD*%
%TO.C,TP401*%
X151700000Y-86300000D03*
%TD*%
D12*
%TO.C,RN401*%
X168700000Y-85060000D03*
X168700000Y-86400000D03*
X168700000Y-82400000D03*
X168700000Y-83740000D03*
X165700000Y-85060000D03*
X165700000Y-83740000D03*
X165700000Y-86400000D03*
X165700000Y-82400000D03*
%TD*%
D13*
%TO.C,Q410*%
X173050000Y-86300000D03*
X171050000Y-87250000D03*
X171050000Y-85350000D03*
%TD*%
%TO.C,Q409*%
X160100000Y-82800000D03*
X158100000Y-83750000D03*
X158100000Y-81850000D03*
%TD*%
%TO.C,Q408*%
X156400000Y-86300000D03*
X154400000Y-87250000D03*
X154400000Y-85350000D03*
%TD*%
%TO.C,Q407*%
X184150000Y-86300000D03*
X182150000Y-87250000D03*
X182150000Y-85350000D03*
%TD*%
%TO.C,Q406*%
X180450000Y-86300000D03*
X178450000Y-87250000D03*
X178450000Y-85350000D03*
%TD*%
%TO.C,Q405*%
X176750000Y-86300000D03*
X174750000Y-87250000D03*
X174750000Y-85350000D03*
%TD*%
%TO.C,Q404*%
X176750000Y-82800000D03*
X174750000Y-83750000D03*
X174750000Y-81850000D03*
%TD*%
%TO.C,Q403*%
X163800000Y-82800000D03*
X161800000Y-83750000D03*
X161800000Y-81850000D03*
%TD*%
%TO.C,Q402*%
X163800000Y-86300000D03*
X161800000Y-87250000D03*
X161800000Y-85350000D03*
%TD*%
%TO.C,Q401*%
X184150000Y-82800000D03*
X182150000Y-83750000D03*
X182150000Y-81850000D03*
%TD*%
D14*
%TO.C,D409*%
X156650000Y-83700000D03*
X154150000Y-83700000D03*
%TD*%
%TO.C,D408*%
X154150000Y-82000000D03*
X156650000Y-82000000D03*
%TD*%
%TO.C,D407*%
X180700000Y-82000000D03*
X178200000Y-82000000D03*
%TD*%
%TO.C,D406*%
X180700000Y-83700000D03*
X178200000Y-83700000D03*
%TD*%
%TO.C,D405*%
X173300000Y-82000000D03*
X170800000Y-82000000D03*
%TD*%
%TO.C,D404*%
X173300000Y-83700000D03*
X170800000Y-83700000D03*
%TD*%
%TO.C,D403*%
X160350000Y-85400000D03*
X157850000Y-85400000D03*
%TD*%
%TO.C,D402*%
X160350000Y-87100000D03*
X157850000Y-87100000D03*
%TD*%
%TO.C,D401*%
X185900000Y-84450000D03*
X185900000Y-81950000D03*
%TD*%
D11*
%TO.C,TP303*%
X188700000Y-93700000D03*
%TD*%
%TO.C,TP302*%
X151700000Y-90200000D03*
%TD*%
%TO.C,TP301*%
X151700000Y-93700000D03*
%TD*%
D12*
%TO.C,RN301*%
X168700000Y-92460000D03*
X168700000Y-93800000D03*
X168700000Y-89800000D03*
X168700000Y-91140000D03*
X165700000Y-92460000D03*
X165700000Y-91140000D03*
X165700000Y-93800000D03*
X165700000Y-89800000D03*
%TD*%
%TO.C,RN2*%
X188700000Y-88860000D03*
X188700000Y-90200000D03*
X188700000Y-86200000D03*
X188700000Y-87540000D03*
X185700000Y-88860000D03*
X185700000Y-87540000D03*
X185700000Y-90200000D03*
X185700000Y-86200000D03*
%TD*%
D13*
%TO.C,Q310*%
X173050000Y-93700000D03*
X171050000Y-94650000D03*
X171050000Y-92750000D03*
%TD*%
%TO.C,Q309*%
X160100000Y-90200000D03*
X158100000Y-91150000D03*
X158100000Y-89250000D03*
%TD*%
%TO.C,Q308*%
X156400000Y-93700000D03*
X154400000Y-94650000D03*
X154400000Y-92750000D03*
%TD*%
%TO.C,Q307*%
X184150000Y-93700000D03*
X182150000Y-94650000D03*
X182150000Y-92750000D03*
%TD*%
%TO.C,Q306*%
X180450000Y-93700000D03*
X178450000Y-94650000D03*
X178450000Y-92750000D03*
%TD*%
%TO.C,Q305*%
X176750000Y-93700000D03*
X174750000Y-94650000D03*
X174750000Y-92750000D03*
%TD*%
%TO.C,Q304*%
X176750000Y-90200000D03*
X174750000Y-91150000D03*
X174750000Y-89250000D03*
%TD*%
%TO.C,Q303*%
X163800000Y-90200000D03*
X161800000Y-91150000D03*
X161800000Y-89250000D03*
%TD*%
%TO.C,Q302*%
X163800000Y-93700000D03*
X161800000Y-94650000D03*
X161800000Y-92750000D03*
%TD*%
%TO.C,Q301*%
X184150000Y-90200000D03*
X182150000Y-91150000D03*
X182150000Y-89250000D03*
%TD*%
D14*
%TO.C,D309*%
X156650000Y-91100000D03*
X154150000Y-91100000D03*
%TD*%
%TO.C,D308*%
X154150000Y-89400000D03*
X156650000Y-89400000D03*
%TD*%
%TO.C,D307*%
X180700000Y-89400000D03*
X178200000Y-89400000D03*
%TD*%
%TO.C,D306*%
X180700000Y-91100000D03*
X178200000Y-91100000D03*
%TD*%
%TO.C,D305*%
X173300000Y-89400000D03*
X170800000Y-89400000D03*
%TD*%
%TO.C,D304*%
X173300000Y-91100000D03*
X170800000Y-91100000D03*
%TD*%
%TO.C,D303*%
X160350000Y-92800000D03*
X157850000Y-92800000D03*
%TD*%
%TO.C,D302*%
X160350000Y-94500000D03*
X157850000Y-94500000D03*
%TD*%
%TO.C,D301*%
X185900000Y-91950000D03*
X185900000Y-94450000D03*
%TD*%
D11*
%TO.C,TP203*%
X188700000Y-97600000D03*
%TD*%
%TO.C,TP202*%
X151700000Y-97600000D03*
%TD*%
%TO.C,TP201*%
X151700000Y-101100000D03*
%TD*%
D12*
%TO.C,RN201*%
X168700000Y-99860000D03*
X168700000Y-101200000D03*
X168700000Y-97200000D03*
X168700000Y-98540000D03*
X165700000Y-99860000D03*
X165700000Y-98540000D03*
X165700000Y-101200000D03*
X165700000Y-97200000D03*
%TD*%
D13*
%TO.C,Q210*%
X173050000Y-101100000D03*
X171050000Y-102050000D03*
X171050000Y-100150000D03*
%TD*%
%TO.C,Q209*%
X160100000Y-97600000D03*
X158100000Y-98550000D03*
X158100000Y-96650000D03*
%TD*%
%TO.C,Q208*%
X156400000Y-101100000D03*
X154400000Y-102050000D03*
X154400000Y-100150000D03*
%TD*%
%TO.C,Q207*%
X184150000Y-101100000D03*
X182150000Y-102050000D03*
X182150000Y-100150000D03*
%TD*%
%TO.C,Q206*%
X180450000Y-101100000D03*
X178450000Y-102050000D03*
X178450000Y-100150000D03*
%TD*%
%TO.C,Q205*%
X176750000Y-101100000D03*
X174750000Y-102050000D03*
X174750000Y-100150000D03*
%TD*%
%TO.C,Q204*%
X176750000Y-97600000D03*
X174750000Y-98550000D03*
X174750000Y-96650000D03*
%TD*%
%TO.C,Q203*%
X163800000Y-97600000D03*
X161800000Y-98550000D03*
X161800000Y-96650000D03*
%TD*%
%TO.C,Q202*%
X163800000Y-101100000D03*
X161800000Y-102050000D03*
X161800000Y-100150000D03*
%TD*%
%TO.C,Q201*%
X184150000Y-97600000D03*
X182150000Y-98550000D03*
X182150000Y-96650000D03*
%TD*%
D14*
%TO.C,D209*%
X156650000Y-98500000D03*
X154150000Y-98500000D03*
%TD*%
%TO.C,D208*%
X154150000Y-96800000D03*
X156650000Y-96800000D03*
%TD*%
%TO.C,D207*%
X180700000Y-96800000D03*
X178200000Y-96800000D03*
%TD*%
%TO.C,D206*%
X180700000Y-98500000D03*
X178200000Y-98500000D03*
%TD*%
%TO.C,D205*%
X173300000Y-96800000D03*
X170800000Y-96800000D03*
%TD*%
%TO.C,D204*%
X173300000Y-98500000D03*
X170800000Y-98500000D03*
%TD*%
%TO.C,D203*%
X160350000Y-100200000D03*
X157850000Y-100200000D03*
%TD*%
%TO.C,D202*%
X160350000Y-101900000D03*
X157850000Y-101900000D03*
%TD*%
%TO.C,D201*%
X185900000Y-99250000D03*
X185900000Y-96750000D03*
%TD*%
%TO.C,D6*%
X180700000Y-104200000D03*
X178200000Y-104200000D03*
%TD*%
%TO.C,D4*%
X173300000Y-104200000D03*
X170800000Y-104200000D03*
%TD*%
D13*
%TO.C,Q2*%
X163800000Y-105000000D03*
X161800000Y-105950000D03*
X161800000Y-104050000D03*
%TD*%
D14*
%TO.C,D8*%
X156650000Y-105900000D03*
X154150000Y-105900000D03*
%TD*%
%TO.C,D7*%
X154150000Y-104200000D03*
X156650000Y-104200000D03*
%TD*%
%TO.C,D5*%
X180700000Y-105900000D03*
X178200000Y-105900000D03*
%TD*%
%TO.C,D3*%
X173300000Y-105900000D03*
X170800000Y-105900000D03*
%TD*%
%TO.C,D2*%
X160350000Y-107600000D03*
X157850000Y-107600000D03*
%TD*%
%TO.C,D1*%
X160350000Y-109300000D03*
X157850000Y-109300000D03*
%TD*%
%TO.C,D0*%
X185900000Y-106750000D03*
X185900000Y-109250000D03*
%TD*%
D11*
%TO.C,TP8*%
X168350000Y-112000000D03*
%TD*%
%TO.C,TP7*%
X164650000Y-112000000D03*
%TD*%
%TO.C,TP6*%
X160950000Y-112000000D03*
%TD*%
%TO.C,TP5*%
X175750000Y-79300000D03*
%TD*%
%TO.C,TP4*%
X175750000Y-112000000D03*
%TD*%
%TO.C,TP3*%
X188700000Y-108500000D03*
%TD*%
%TO.C,TP2*%
X151700000Y-105000000D03*
%TD*%
%TO.C,TP1*%
X151700000Y-108500000D03*
%TD*%
%TO.C,TP0*%
X185000000Y-112000000D03*
%TD*%
D12*
%TO.C,RN1*%
X188700000Y-103660000D03*
X188700000Y-105000000D03*
X188700000Y-101000000D03*
X188700000Y-102340000D03*
X185700000Y-103660000D03*
X185700000Y-102340000D03*
X185700000Y-105000000D03*
X185700000Y-101000000D03*
%TD*%
%TO.C,RN0*%
X168700000Y-107260000D03*
X168700000Y-108600000D03*
X168700000Y-104600000D03*
X168700000Y-105940000D03*
X165700000Y-107260000D03*
X165700000Y-105940000D03*
X165700000Y-108600000D03*
X165700000Y-104600000D03*
%TD*%
D13*
%TO.C,Q9*%
X173050000Y-108500000D03*
X171050000Y-109450000D03*
X171050000Y-107550000D03*
%TD*%
%TO.C,Q8*%
X160100000Y-105000000D03*
X158100000Y-105950000D03*
X158100000Y-104050000D03*
%TD*%
%TO.C,Q7*%
X156400000Y-108500000D03*
X154400000Y-109450000D03*
X154400000Y-107550000D03*
%TD*%
%TO.C,Q6*%
X184150000Y-108500000D03*
X182150000Y-109450000D03*
X182150000Y-107550000D03*
%TD*%
%TO.C,Q5*%
X180450000Y-108500000D03*
X178450000Y-109450000D03*
X178450000Y-107550000D03*
%TD*%
%TO.C,Q4*%
X176750000Y-108500000D03*
X174750000Y-109450000D03*
X174750000Y-107550000D03*
%TD*%
%TO.C,Q3*%
X176750000Y-105000000D03*
X174750000Y-105950000D03*
X174750000Y-104050000D03*
%TD*%
%TO.C,Q1*%
X163800000Y-108500000D03*
X161800000Y-109450000D03*
X161800000Y-107550000D03*
%TD*%
%TO.C,Q0*%
X184150000Y-105000000D03*
X182150000Y-105950000D03*
X182150000Y-104050000D03*
%TD*%
%TO.C,C0*%
G36*
G01*
X167525000Y-102937500D02*
X167525000Y-102462500D01*
G75*
G02*
X167762500Y-102225000I237500J0D01*
G01*
X168362500Y-102225000D01*
G75*
G02*
X168600000Y-102462500I0J-237500D01*
G01*
X168600000Y-102937500D01*
G75*
G02*
X168362500Y-103175000I-237500J0D01*
G01*
X167762500Y-103175000D01*
G75*
G02*
X167525000Y-102937500I0J237500D01*
G01*
G37*
G36*
G01*
X165800000Y-102937500D02*
X165800000Y-102462500D01*
G75*
G02*
X166037500Y-102225000I237500J0D01*
G01*
X166637500Y-102225000D01*
G75*
G02*
X166875000Y-102462500I0J-237500D01*
G01*
X166875000Y-102937500D01*
G75*
G02*
X166637500Y-103175000I-237500J0D01*
G01*
X166037500Y-103175000D01*
G75*
G02*
X165800000Y-102937500I0J237500D01*
G01*
G37*
%TD*%
M02*
