M48
; DRILL file {KiCad (5.1.9)-1} date 08/30/22 23:25:42
; FORMAT={-:-/ absolute / metric / decimal}
; #@! TF.CreationDate,2022-08-30T23:25:42+02:00
; #@! TF.GenerationSoftware,Kicad,Pcbnew,(5.1.9)-1
; #@! TF.FileFunction,Plated,1,2,PTH
FMAT,2
METRIC
T1C0.300
T2C1.000
%
G90
G05
T1
X158.9Y-85.4
X158.9Y-92.8
X158.9Y-100.2
X158.9Y-107.6
X160.0Y-81.7
X160.0Y-89.1
X160.0Y-96.5
X160.0Y-103.9
X165.4Y-102.7
X167.2Y-84.4
X167.2Y-91.8
X167.2Y-99.2
X167.2Y-106.6
X169.0Y-102.8
X169.576Y-85.8
X169.576Y-93.2
X169.576Y-100.6
X169.576Y-108.0
X170.286Y-87.214
X170.286Y-94.614
X170.286Y-102.014
X170.286Y-109.414
X172.25Y-82.4
X172.25Y-85.9
X172.25Y-89.8
X172.25Y-93.3
X172.25Y-97.2
X172.25Y-100.7
X172.25Y-104.6
X172.25Y-108.1
X173.85Y-82.0
X173.85Y-89.4
X173.85Y-96.8
X173.85Y-104.2
X175.5Y-87.2
X175.5Y-94.6
X175.5Y-102.0
X175.5Y-109.4
X176.05Y-82.8
X176.05Y-86.3
X176.05Y-90.2
X176.05Y-93.7
X176.05Y-97.6
X176.05Y-101.1
X176.05Y-105.0
X176.05Y-108.5
X179.2Y-88.8
X179.2Y-96.2
X179.2Y-103.6
X181.169Y-84.686
X181.169Y-92.086
X181.169Y-99.486
X181.169Y-106.886
X186.786Y-108.364
T2
X151.7Y-82.8
X151.7Y-86.3
X151.7Y-90.2
X151.7Y-93.7
X151.7Y-97.6
X151.7Y-101.1
X151.7Y-105.0
X151.7Y-108.5
X160.95Y-112.0
X164.65Y-112.0
X168.35Y-112.0
X175.75Y-79.3
X175.75Y-112.0
X185.0Y-112.0
X188.7Y-82.8
X188.7Y-93.7
X188.7Y-97.6
X188.7Y-108.5
T0
M30
