%TF.GenerationSoftware,KiCad,Pcbnew,(5.1.9)-1*%
%TF.CreationDate,2022-08-30T23:25:40+02:00*%
%TF.ProjectId,adder,61646465-722e-46b6-9963-61645f706362,rev?*%
%TF.SameCoordinates,Original*%
%TF.FileFunction,Copper,L1,Top*%
%TF.FilePolarity,Positive*%
%FSLAX46Y46*%
G04 Gerber Fmt 4.6, Leading zero omitted, Abs format (unit mm)*
G04 Created by KiCad (PCBNEW (5.1.9)-1) date 2022-08-30 23:25:40*
%MOMM*%
%LPD*%
G01*
G04 APERTURE LIST*
%TA.AperFunction,ComponentPad*%
%ADD10C,2.000000*%
%TD*%
%TA.AperFunction,SMDPad,CuDef*%
%ADD11R,0.900000X0.900000*%
%TD*%
%TA.AperFunction,SMDPad,CuDef*%
%ADD12R,0.900000X0.800000*%
%TD*%
%TA.AperFunction,SMDPad,CuDef*%
%ADD13R,1.000000X1.000000*%
%TD*%
%TA.AperFunction,ViaPad*%
%ADD14C,0.500000*%
%TD*%
%TA.AperFunction,Conductor*%
%ADD15C,0.157000*%
%TD*%
%TA.AperFunction,Conductor*%
%ADD16C,0.200000*%
%TD*%
G04 APERTURE END LIST*
D10*
%TO.P,TP403,1*%
%TO.N,/3/SUM*%
X188700000Y-82800000D03*
%TD*%
%TO.P,TP402,1*%
%TO.N,/3/A*%
X151700000Y-82800000D03*
%TD*%
%TO.P,TP401,1*%
%TO.N,/3/B*%
X151700000Y-86300000D03*
%TD*%
D11*
%TO.P,RN401,6*%
%TO.N,/3/nCi*%
X168700000Y-85060000D03*
%TO.P,RN401,5*%
%TO.N,/3/SUM*%
X168700000Y-86400000D03*
%TO.P,RN401,8*%
%TO.N,VCC*%
X168700000Y-82400000D03*
%TO.P,RN401,7*%
X168700000Y-83740000D03*
%TO.P,RN401,3*%
X165700000Y-85060000D03*
%TO.P,RN401,2*%
%TO.N,/3/~A^B*%
X165700000Y-83740000D03*
%TO.P,RN401,4*%
%TO.N,VCC*%
X165700000Y-86400000D03*
%TO.P,RN401,1*%
%TO.N,/3/nA'*%
X165700000Y-82400000D03*
%TD*%
D12*
%TO.P,Q410,3*%
%TO.N,/3/nCi*%
X173050000Y-86300000D03*
%TO.P,Q410,2*%
%TO.N,GND*%
X171050000Y-87250000D03*
%TO.P,Q410,1*%
%TO.N,/3/Ci*%
X171050000Y-85350000D03*
%TD*%
%TO.P,Q409,3*%
%TO.N,/3/nA'*%
X160100000Y-82800000D03*
%TO.P,Q409,2*%
%TO.N,Net-(D409-Pad2)*%
X158100000Y-83750000D03*
%TO.P,Q409,1*%
%TO.N,~add*%
X158100000Y-81850000D03*
%TD*%
%TO.P,Q408,3*%
%TO.N,/3/nA'*%
X156400000Y-86300000D03*
%TO.P,Q408,2*%
%TO.N,Net-(D408-Pad2)*%
X154400000Y-87250000D03*
%TO.P,Q408,1*%
%TO.N,/3/A*%
X154400000Y-85350000D03*
%TD*%
%TO.P,Q407,3*%
%TO.N,/3/nCo*%
X184150000Y-86300000D03*
%TO.P,Q407,2*%
%TO.N,Net-(D407-Pad2)*%
X182150000Y-87250000D03*
%TO.P,Q407,1*%
%TO.N,/3/B*%
X182150000Y-85350000D03*
%TD*%
%TO.P,Q406,3*%
%TO.N,/3/nCo*%
X180450000Y-86300000D03*
%TO.P,Q406,2*%
%TO.N,Net-(D406-Pad2)*%
X178450000Y-87250000D03*
%TO.P,Q406,1*%
%TO.N,/3/~A^B*%
X178450000Y-85350000D03*
%TD*%
%TO.P,Q405,3*%
%TO.N,/3/SUM*%
X176750000Y-86300000D03*
%TO.P,Q405,2*%
%TO.N,Net-(D405-Pad2)*%
X174750000Y-87250000D03*
%TO.P,Q405,1*%
%TO.N,/3/~A^B*%
X174750000Y-85350000D03*
%TD*%
%TO.P,Q404,3*%
%TO.N,/3/SUM*%
X176750000Y-82800000D03*
%TO.P,Q404,2*%
%TO.N,Net-(D404-Pad2)*%
X174750000Y-83750000D03*
%TO.P,Q404,1*%
%TO.N,/3/nCi*%
X174750000Y-81850000D03*
%TD*%
%TO.P,Q403,3*%
%TO.N,/3/~A^B*%
X163800000Y-82800000D03*
%TO.P,Q403,2*%
%TO.N,Net-(D403-Pad2)*%
X161800000Y-83750000D03*
%TO.P,Q403,1*%
%TO.N,/3/nA'*%
X161800000Y-81850000D03*
%TD*%
%TO.P,Q402,3*%
%TO.N,/3/~A^B*%
X163800000Y-86300000D03*
%TO.P,Q402,2*%
%TO.N,Net-(D402-Pad2)*%
X161800000Y-87250000D03*
%TO.P,Q402,1*%
%TO.N,/3/B*%
X161800000Y-85350000D03*
%TD*%
%TO.P,Q401,3*%
%TO.N,/3/Co*%
X184150000Y-82800000D03*
%TO.P,Q401,2*%
%TO.N,GND*%
X182150000Y-83750000D03*
%TO.P,Q401,1*%
%TO.N,/3/nCo*%
X182150000Y-81850000D03*
%TD*%
D13*
%TO.P,D409,2*%
%TO.N,Net-(D409-Pad2)*%
X156650000Y-83700000D03*
%TO.P,D409,1*%
%TO.N,/3/A*%
X154150000Y-83700000D03*
%TD*%
%TO.P,D408,2*%
%TO.N,Net-(D408-Pad2)*%
X154150000Y-82000000D03*
%TO.P,D408,1*%
%TO.N,~add*%
X156650000Y-82000000D03*
%TD*%
%TO.P,D407,2*%
%TO.N,Net-(D407-Pad2)*%
X180700000Y-82000000D03*
%TO.P,D407,1*%
%TO.N,/3/nA'*%
X178200000Y-82000000D03*
%TD*%
%TO.P,D406,2*%
%TO.N,Net-(D406-Pad2)*%
X180700000Y-83700000D03*
%TO.P,D406,1*%
%TO.N,/3/nCi*%
X178200000Y-83700000D03*
%TD*%
%TO.P,D405,2*%
%TO.N,Net-(D405-Pad2)*%
X173300000Y-82000000D03*
%TO.P,D405,1*%
%TO.N,/3/nCi*%
X170800000Y-82000000D03*
%TD*%
%TO.P,D404,2*%
%TO.N,Net-(D404-Pad2)*%
X173300000Y-83700000D03*
%TO.P,D404,1*%
%TO.N,/3/~A^B*%
X170800000Y-83700000D03*
%TD*%
%TO.P,D403,2*%
%TO.N,Net-(D403-Pad2)*%
X160350000Y-85400000D03*
%TO.P,D403,1*%
%TO.N,/3/B*%
X157850000Y-85400000D03*
%TD*%
%TO.P,D402,2*%
%TO.N,Net-(D402-Pad2)*%
X160350000Y-87100000D03*
%TO.P,D402,1*%
%TO.N,/3/nA'*%
X157850000Y-87100000D03*
%TD*%
%TO.P,D401,2*%
%TO.N,/3/Co*%
X185900000Y-84450000D03*
%TO.P,D401,1*%
%TO.N,CLRC*%
X185900000Y-81950000D03*
%TD*%
D10*
%TO.P,TP303,1*%
%TO.N,/2/SUM*%
X188700000Y-93700000D03*
%TD*%
%TO.P,TP302,1*%
%TO.N,/2/A*%
X151700000Y-90200000D03*
%TD*%
%TO.P,TP301,1*%
%TO.N,/2/B*%
X151700000Y-93700000D03*
%TD*%
D11*
%TO.P,RN301,6*%
%TO.N,/2/nCi*%
X168700000Y-92460000D03*
%TO.P,RN301,5*%
%TO.N,/2/SUM*%
X168700000Y-93800000D03*
%TO.P,RN301,8*%
%TO.N,VCC*%
X168700000Y-89800000D03*
%TO.P,RN301,7*%
X168700000Y-91140000D03*
%TO.P,RN301,3*%
X165700000Y-92460000D03*
%TO.P,RN301,2*%
%TO.N,/2/~A^B*%
X165700000Y-91140000D03*
%TO.P,RN301,4*%
%TO.N,VCC*%
X165700000Y-93800000D03*
%TO.P,RN301,1*%
%TO.N,/2/nA'*%
X165700000Y-89800000D03*
%TD*%
%TO.P,RN2,6*%
%TO.N,VCC*%
X188700000Y-88860000D03*
%TO.P,RN2,5*%
X188700000Y-90200000D03*
%TO.P,RN2,8*%
X188700000Y-86200000D03*
%TO.P,RN2,7*%
X188700000Y-87540000D03*
%TO.P,RN2,3*%
%TO.N,/3/Ci*%
X185700000Y-88860000D03*
%TO.P,RN2,2*%
%TO.N,/3/nCo*%
X185700000Y-87540000D03*
%TO.P,RN2,4*%
%TO.N,/2/nCo*%
X185700000Y-90200000D03*
%TO.P,RN2,1*%
%TO.N,/3/Co*%
X185700000Y-86200000D03*
%TD*%
D12*
%TO.P,Q310,3*%
%TO.N,/2/nCi*%
X173050000Y-93700000D03*
%TO.P,Q310,2*%
%TO.N,GND*%
X171050000Y-94650000D03*
%TO.P,Q310,1*%
%TO.N,/2/Ci*%
X171050000Y-92750000D03*
%TD*%
%TO.P,Q309,3*%
%TO.N,/2/nA'*%
X160100000Y-90200000D03*
%TO.P,Q309,2*%
%TO.N,Net-(D309-Pad2)*%
X158100000Y-91150000D03*
%TO.P,Q309,1*%
%TO.N,~add*%
X158100000Y-89250000D03*
%TD*%
%TO.P,Q308,3*%
%TO.N,/2/nA'*%
X156400000Y-93700000D03*
%TO.P,Q308,2*%
%TO.N,Net-(D308-Pad2)*%
X154400000Y-94650000D03*
%TO.P,Q308,1*%
%TO.N,/2/A*%
X154400000Y-92750000D03*
%TD*%
%TO.P,Q307,3*%
%TO.N,/2/nCo*%
X184150000Y-93700000D03*
%TO.P,Q307,2*%
%TO.N,Net-(D307-Pad2)*%
X182150000Y-94650000D03*
%TO.P,Q307,1*%
%TO.N,/2/B*%
X182150000Y-92750000D03*
%TD*%
%TO.P,Q306,3*%
%TO.N,/2/nCo*%
X180450000Y-93700000D03*
%TO.P,Q306,2*%
%TO.N,Net-(D306-Pad2)*%
X178450000Y-94650000D03*
%TO.P,Q306,1*%
%TO.N,/2/~A^B*%
X178450000Y-92750000D03*
%TD*%
%TO.P,Q305,3*%
%TO.N,/2/SUM*%
X176750000Y-93700000D03*
%TO.P,Q305,2*%
%TO.N,Net-(D305-Pad2)*%
X174750000Y-94650000D03*
%TO.P,Q305,1*%
%TO.N,/2/~A^B*%
X174750000Y-92750000D03*
%TD*%
%TO.P,Q304,3*%
%TO.N,/2/SUM*%
X176750000Y-90200000D03*
%TO.P,Q304,2*%
%TO.N,Net-(D304-Pad2)*%
X174750000Y-91150000D03*
%TO.P,Q304,1*%
%TO.N,/2/nCi*%
X174750000Y-89250000D03*
%TD*%
%TO.P,Q303,3*%
%TO.N,/2/~A^B*%
X163800000Y-90200000D03*
%TO.P,Q303,2*%
%TO.N,Net-(D303-Pad2)*%
X161800000Y-91150000D03*
%TO.P,Q303,1*%
%TO.N,/2/nA'*%
X161800000Y-89250000D03*
%TD*%
%TO.P,Q302,3*%
%TO.N,/2/~A^B*%
X163800000Y-93700000D03*
%TO.P,Q302,2*%
%TO.N,Net-(D302-Pad2)*%
X161800000Y-94650000D03*
%TO.P,Q302,1*%
%TO.N,/2/B*%
X161800000Y-92750000D03*
%TD*%
%TO.P,Q301,3*%
%TO.N,/3/Ci*%
X184150000Y-90200000D03*
%TO.P,Q301,2*%
%TO.N,GND*%
X182150000Y-91150000D03*
%TO.P,Q301,1*%
%TO.N,/2/nCo*%
X182150000Y-89250000D03*
%TD*%
D13*
%TO.P,D309,2*%
%TO.N,Net-(D309-Pad2)*%
X156650000Y-91100000D03*
%TO.P,D309,1*%
%TO.N,/2/A*%
X154150000Y-91100000D03*
%TD*%
%TO.P,D308,2*%
%TO.N,Net-(D308-Pad2)*%
X154150000Y-89400000D03*
%TO.P,D308,1*%
%TO.N,~add*%
X156650000Y-89400000D03*
%TD*%
%TO.P,D307,2*%
%TO.N,Net-(D307-Pad2)*%
X180700000Y-89400000D03*
%TO.P,D307,1*%
%TO.N,/2/nA'*%
X178200000Y-89400000D03*
%TD*%
%TO.P,D306,2*%
%TO.N,Net-(D306-Pad2)*%
X180700000Y-91100000D03*
%TO.P,D306,1*%
%TO.N,/2/nCi*%
X178200000Y-91100000D03*
%TD*%
%TO.P,D305,2*%
%TO.N,Net-(D305-Pad2)*%
X173300000Y-89400000D03*
%TO.P,D305,1*%
%TO.N,/2/nCi*%
X170800000Y-89400000D03*
%TD*%
%TO.P,D304,2*%
%TO.N,Net-(D304-Pad2)*%
X173300000Y-91100000D03*
%TO.P,D304,1*%
%TO.N,/2/~A^B*%
X170800000Y-91100000D03*
%TD*%
%TO.P,D303,2*%
%TO.N,Net-(D303-Pad2)*%
X160350000Y-92800000D03*
%TO.P,D303,1*%
%TO.N,/2/B*%
X157850000Y-92800000D03*
%TD*%
%TO.P,D302,2*%
%TO.N,Net-(D302-Pad2)*%
X160350000Y-94500000D03*
%TO.P,D302,1*%
%TO.N,/2/nA'*%
X157850000Y-94500000D03*
%TD*%
%TO.P,D301,2*%
%TO.N,/3/Ci*%
X185900000Y-91950000D03*
%TO.P,D301,1*%
%TO.N,CLRC*%
X185900000Y-94450000D03*
%TD*%
D10*
%TO.P,TP203,1*%
%TO.N,/1/SUM*%
X188700000Y-97600000D03*
%TD*%
%TO.P,TP202,1*%
%TO.N,/1/A*%
X151700000Y-97600000D03*
%TD*%
%TO.P,TP201,1*%
%TO.N,/1/B*%
X151700000Y-101100000D03*
%TD*%
D11*
%TO.P,RN201,6*%
%TO.N,/1/nCi*%
X168700000Y-99860000D03*
%TO.P,RN201,5*%
%TO.N,/1/SUM*%
X168700000Y-101200000D03*
%TO.P,RN201,8*%
%TO.N,VCC*%
X168700000Y-97200000D03*
%TO.P,RN201,7*%
X168700000Y-98540000D03*
%TO.P,RN201,3*%
X165700000Y-99860000D03*
%TO.P,RN201,2*%
%TO.N,/1/~A^B*%
X165700000Y-98540000D03*
%TO.P,RN201,4*%
%TO.N,VCC*%
X165700000Y-101200000D03*
%TO.P,RN201,1*%
%TO.N,/1/nA'*%
X165700000Y-97200000D03*
%TD*%
D12*
%TO.P,Q210,3*%
%TO.N,/1/nCi*%
X173050000Y-101100000D03*
%TO.P,Q210,2*%
%TO.N,GND*%
X171050000Y-102050000D03*
%TO.P,Q210,1*%
%TO.N,/Co*%
X171050000Y-100150000D03*
%TD*%
%TO.P,Q209,3*%
%TO.N,/1/nA'*%
X160100000Y-97600000D03*
%TO.P,Q209,2*%
%TO.N,Net-(D209-Pad2)*%
X158100000Y-98550000D03*
%TO.P,Q209,1*%
%TO.N,~add*%
X158100000Y-96650000D03*
%TD*%
%TO.P,Q208,3*%
%TO.N,/1/nA'*%
X156400000Y-101100000D03*
%TO.P,Q208,2*%
%TO.N,Net-(D208-Pad2)*%
X154400000Y-102050000D03*
%TO.P,Q208,1*%
%TO.N,/1/A*%
X154400000Y-100150000D03*
%TD*%
%TO.P,Q207,3*%
%TO.N,/1/nCo*%
X184150000Y-101100000D03*
%TO.P,Q207,2*%
%TO.N,Net-(D207-Pad2)*%
X182150000Y-102050000D03*
%TO.P,Q207,1*%
%TO.N,/1/B*%
X182150000Y-100150000D03*
%TD*%
%TO.P,Q206,3*%
%TO.N,/1/nCo*%
X180450000Y-101100000D03*
%TO.P,Q206,2*%
%TO.N,Net-(D206-Pad2)*%
X178450000Y-102050000D03*
%TO.P,Q206,1*%
%TO.N,/1/~A^B*%
X178450000Y-100150000D03*
%TD*%
%TO.P,Q205,3*%
%TO.N,/1/SUM*%
X176750000Y-101100000D03*
%TO.P,Q205,2*%
%TO.N,Net-(D205-Pad2)*%
X174750000Y-102050000D03*
%TO.P,Q205,1*%
%TO.N,/1/~A^B*%
X174750000Y-100150000D03*
%TD*%
%TO.P,Q204,3*%
%TO.N,/1/SUM*%
X176750000Y-97600000D03*
%TO.P,Q204,2*%
%TO.N,Net-(D204-Pad2)*%
X174750000Y-98550000D03*
%TO.P,Q204,1*%
%TO.N,/1/nCi*%
X174750000Y-96650000D03*
%TD*%
%TO.P,Q203,3*%
%TO.N,/1/~A^B*%
X163800000Y-97600000D03*
%TO.P,Q203,2*%
%TO.N,Net-(D203-Pad2)*%
X161800000Y-98550000D03*
%TO.P,Q203,1*%
%TO.N,/1/nA'*%
X161800000Y-96650000D03*
%TD*%
%TO.P,Q202,3*%
%TO.N,/1/~A^B*%
X163800000Y-101100000D03*
%TO.P,Q202,2*%
%TO.N,Net-(D202-Pad2)*%
X161800000Y-102050000D03*
%TO.P,Q202,1*%
%TO.N,/1/B*%
X161800000Y-100150000D03*
%TD*%
%TO.P,Q201,3*%
%TO.N,/2/Ci*%
X184150000Y-97600000D03*
%TO.P,Q201,2*%
%TO.N,GND*%
X182150000Y-98550000D03*
%TO.P,Q201,1*%
%TO.N,/1/nCo*%
X182150000Y-96650000D03*
%TD*%
D13*
%TO.P,D209,2*%
%TO.N,Net-(D209-Pad2)*%
X156650000Y-98500000D03*
%TO.P,D209,1*%
%TO.N,/1/A*%
X154150000Y-98500000D03*
%TD*%
%TO.P,D208,2*%
%TO.N,Net-(D208-Pad2)*%
X154150000Y-96800000D03*
%TO.P,D208,1*%
%TO.N,~add*%
X156650000Y-96800000D03*
%TD*%
%TO.P,D207,2*%
%TO.N,Net-(D207-Pad2)*%
X180700000Y-96800000D03*
%TO.P,D207,1*%
%TO.N,/1/nA'*%
X178200000Y-96800000D03*
%TD*%
%TO.P,D206,2*%
%TO.N,Net-(D206-Pad2)*%
X180700000Y-98500000D03*
%TO.P,D206,1*%
%TO.N,/1/nCi*%
X178200000Y-98500000D03*
%TD*%
%TO.P,D205,2*%
%TO.N,Net-(D205-Pad2)*%
X173300000Y-96800000D03*
%TO.P,D205,1*%
%TO.N,/1/nCi*%
X170800000Y-96800000D03*
%TD*%
%TO.P,D204,2*%
%TO.N,Net-(D204-Pad2)*%
X173300000Y-98500000D03*
%TO.P,D204,1*%
%TO.N,/1/~A^B*%
X170800000Y-98500000D03*
%TD*%
%TO.P,D203,2*%
%TO.N,Net-(D203-Pad2)*%
X160350000Y-100200000D03*
%TO.P,D203,1*%
%TO.N,/1/B*%
X157850000Y-100200000D03*
%TD*%
%TO.P,D202,2*%
%TO.N,Net-(D202-Pad2)*%
X160350000Y-101900000D03*
%TO.P,D202,1*%
%TO.N,/1/nA'*%
X157850000Y-101900000D03*
%TD*%
%TO.P,D201,2*%
%TO.N,/2/Ci*%
X185900000Y-99250000D03*
%TO.P,D201,1*%
%TO.N,CLRC*%
X185900000Y-96750000D03*
%TD*%
%TO.P,D6,2*%
%TO.N,Net-(D6-Pad2)*%
X180700000Y-104200000D03*
%TO.P,D6,1*%
%TO.N,/nA'*%
X178200000Y-104200000D03*
%TD*%
%TO.P,D4,2*%
%TO.N,Net-(D4-Pad2)*%
X173300000Y-104200000D03*
%TO.P,D4,1*%
%TO.N,/nCi*%
X170800000Y-104200000D03*
%TD*%
D12*
%TO.P,Q2,3*%
%TO.N,/~A^B*%
X163800000Y-105000000D03*
%TO.P,Q2,2*%
%TO.N,Net-(D2-Pad2)*%
X161800000Y-105950000D03*
%TO.P,Q2,1*%
%TO.N,/nA'*%
X161800000Y-104050000D03*
%TD*%
D13*
%TO.P,D8,2*%
%TO.N,Net-(D8-Pad2)*%
X156650000Y-105900000D03*
%TO.P,D8,1*%
%TO.N,/A*%
X154150000Y-105900000D03*
%TD*%
%TO.P,D7,2*%
%TO.N,Net-(D7-Pad2)*%
X154150000Y-104200000D03*
%TO.P,D7,1*%
%TO.N,~add*%
X156650000Y-104200000D03*
%TD*%
%TO.P,D5,2*%
%TO.N,Net-(D5-Pad2)*%
X180700000Y-105900000D03*
%TO.P,D5,1*%
%TO.N,/nCi*%
X178200000Y-105900000D03*
%TD*%
%TO.P,D3,2*%
%TO.N,Net-(D3-Pad2)*%
X173300000Y-105900000D03*
%TO.P,D3,1*%
%TO.N,/~A^B*%
X170800000Y-105900000D03*
%TD*%
%TO.P,D2,2*%
%TO.N,Net-(D2-Pad2)*%
X160350000Y-107600000D03*
%TO.P,D2,1*%
%TO.N,/B*%
X157850000Y-107600000D03*
%TD*%
%TO.P,D1,2*%
%TO.N,Net-(D1-Pad2)*%
X160350000Y-109300000D03*
%TO.P,D1,1*%
%TO.N,/nA'*%
X157850000Y-109300000D03*
%TD*%
%TO.P,D0,2*%
%TO.N,/Co*%
X185900000Y-106750000D03*
%TO.P,D0,1*%
%TO.N,CLRC*%
X185900000Y-109250000D03*
%TD*%
D10*
%TO.P,TP8,1*%
%TO.N,GND*%
X168350000Y-112000000D03*
%TD*%
%TO.P,TP7,1*%
%TO.N,VCC*%
X164650000Y-112000000D03*
%TD*%
%TO.P,TP6,1*%
%TO.N,~add*%
X160950000Y-112000000D03*
%TD*%
%TO.P,TP5,1*%
%TO.N,/3/Co*%
X175750000Y-79300000D03*
%TD*%
%TO.P,TP4,1*%
%TO.N,/Ci*%
X175750000Y-112000000D03*
%TD*%
%TO.P,TP3,1*%
%TO.N,/SUM*%
X188700000Y-108500000D03*
%TD*%
%TO.P,TP2,1*%
%TO.N,/A*%
X151700000Y-105000000D03*
%TD*%
%TO.P,TP1,1*%
%TO.N,/B*%
X151700000Y-108500000D03*
%TD*%
%TO.P,TP0,1*%
%TO.N,CLRC*%
X185000000Y-112000000D03*
%TD*%
D11*
%TO.P,RN1,6*%
%TO.N,VCC*%
X188700000Y-103660000D03*
%TO.P,RN1,5*%
X188700000Y-105000000D03*
%TO.P,RN1,8*%
X188700000Y-101000000D03*
%TO.P,RN1,7*%
X188700000Y-102340000D03*
%TO.P,RN1,3*%
%TO.N,/Co*%
X185700000Y-103660000D03*
%TO.P,RN1,2*%
%TO.N,/1/nCo*%
X185700000Y-102340000D03*
%TO.P,RN1,4*%
%TO.N,/nCo*%
X185700000Y-105000000D03*
%TO.P,RN1,1*%
%TO.N,/2/Ci*%
X185700000Y-101000000D03*
%TD*%
%TO.P,RN0,6*%
%TO.N,/nCi*%
X168700000Y-107260000D03*
%TO.P,RN0,5*%
%TO.N,/SUM*%
X168700000Y-108600000D03*
%TO.P,RN0,8*%
%TO.N,VCC*%
X168700000Y-104600000D03*
%TO.P,RN0,7*%
X168700000Y-105940000D03*
%TO.P,RN0,3*%
X165700000Y-107260000D03*
%TO.P,RN0,2*%
%TO.N,/~A^B*%
X165700000Y-105940000D03*
%TO.P,RN0,4*%
%TO.N,VCC*%
X165700000Y-108600000D03*
%TO.P,RN0,1*%
%TO.N,/nA'*%
X165700000Y-104600000D03*
%TD*%
D12*
%TO.P,Q9,3*%
%TO.N,/nCi*%
X173050000Y-108500000D03*
%TO.P,Q9,2*%
%TO.N,GND*%
X171050000Y-109450000D03*
%TO.P,Q9,1*%
%TO.N,/Ci*%
X171050000Y-107550000D03*
%TD*%
%TO.P,Q8,3*%
%TO.N,/nA'*%
X160100000Y-105000000D03*
%TO.P,Q8,2*%
%TO.N,Net-(D8-Pad2)*%
X158100000Y-105950000D03*
%TO.P,Q8,1*%
%TO.N,~add*%
X158100000Y-104050000D03*
%TD*%
%TO.P,Q7,3*%
%TO.N,/nA'*%
X156400000Y-108500000D03*
%TO.P,Q7,2*%
%TO.N,Net-(D7-Pad2)*%
X154400000Y-109450000D03*
%TO.P,Q7,1*%
%TO.N,/A*%
X154400000Y-107550000D03*
%TD*%
%TO.P,Q6,3*%
%TO.N,/nCo*%
X184150000Y-108500000D03*
%TO.P,Q6,2*%
%TO.N,Net-(D6-Pad2)*%
X182150000Y-109450000D03*
%TO.P,Q6,1*%
%TO.N,/B*%
X182150000Y-107550000D03*
%TD*%
%TO.P,Q5,3*%
%TO.N,/nCo*%
X180450000Y-108500000D03*
%TO.P,Q5,2*%
%TO.N,Net-(D5-Pad2)*%
X178450000Y-109450000D03*
%TO.P,Q5,1*%
%TO.N,/~A^B*%
X178450000Y-107550000D03*
%TD*%
%TO.P,Q4,3*%
%TO.N,/SUM*%
X176750000Y-108500000D03*
%TO.P,Q4,2*%
%TO.N,Net-(D4-Pad2)*%
X174750000Y-109450000D03*
%TO.P,Q4,1*%
%TO.N,/~A^B*%
X174750000Y-107550000D03*
%TD*%
%TO.P,Q3,3*%
%TO.N,/SUM*%
X176750000Y-105000000D03*
%TO.P,Q3,2*%
%TO.N,Net-(D3-Pad2)*%
X174750000Y-105950000D03*
%TO.P,Q3,1*%
%TO.N,/nCi*%
X174750000Y-104050000D03*
%TD*%
%TO.P,Q1,3*%
%TO.N,/~A^B*%
X163800000Y-108500000D03*
%TO.P,Q1,2*%
%TO.N,Net-(D1-Pad2)*%
X161800000Y-109450000D03*
%TO.P,Q1,1*%
%TO.N,/B*%
X161800000Y-107550000D03*
%TD*%
%TO.P,Q0,3*%
%TO.N,/Co*%
X184150000Y-105000000D03*
%TO.P,Q0,2*%
%TO.N,GND*%
X182150000Y-105950000D03*
%TO.P,Q0,1*%
%TO.N,/nCo*%
X182150000Y-104050000D03*
%TD*%
%TO.P,C0,2*%
%TO.N,GND*%
%TA.AperFunction,SMDPad,CuDef*%
G36*
G01*
X167525000Y-102937500D02*
X167525000Y-102462500D01*
G75*
G02*
X167762500Y-102225000I237500J0D01*
G01*
X168362500Y-102225000D01*
G75*
G02*
X168600000Y-102462500I0J-237500D01*
G01*
X168600000Y-102937500D01*
G75*
G02*
X168362500Y-103175000I-237500J0D01*
G01*
X167762500Y-103175000D01*
G75*
G02*
X167525000Y-102937500I0J237500D01*
G01*
G37*
%TD.AperFunction*%
%TO.P,C0,1*%
%TO.N,VCC*%
%TA.AperFunction,SMDPad,CuDef*%
G36*
G01*
X165800000Y-102937500D02*
X165800000Y-102462500D01*
G75*
G02*
X166037500Y-102225000I237500J0D01*
G01*
X166637500Y-102225000D01*
G75*
G02*
X166875000Y-102462500I0J-237500D01*
G01*
X166875000Y-102937500D01*
G75*
G02*
X166637500Y-103175000I-237500J0D01*
G01*
X166037500Y-103175000D01*
G75*
G02*
X165800000Y-102937500I0J237500D01*
G01*
G37*
%TD.AperFunction*%
%TD*%
D14*
%TO.N,/B*%
X158900000Y-107600000D03*
%TO.N,/nCi*%
X172250000Y-108100000D03*
X172250000Y-104600000D03*
%TO.N,/SUM*%
X176050000Y-105000000D03*
X176050000Y-108500000D03*
%TO.N,GND*%
X181169373Y-106885903D03*
X170285750Y-109414250D03*
X170285750Y-102014250D03*
X170285750Y-94614250D03*
X170285750Y-87214250D03*
X181169373Y-99485903D03*
X181169373Y-92085903D03*
X181169373Y-84685903D03*
X169000000Y-102800000D03*
%TO.N,VCC*%
X167200000Y-106600000D03*
X167200000Y-99200000D03*
X167200000Y-91800000D03*
X167200000Y-84400000D03*
X165400000Y-102700000D03*
%TO.N,~add*%
X160000000Y-103900000D03*
X160000000Y-96500000D03*
X160000000Y-89100000D03*
X160000000Y-81700000D03*
%TO.N,/Co*%
X179200000Y-103600000D03*
X169576375Y-100600000D03*
%TO.N,Net-(D4-Pad2)*%
X173849998Y-104200000D03*
X175500000Y-109400000D03*
%TO.N,/Ci*%
X169576375Y-108000000D03*
%TO.N,CLRC*%
X186785511Y-108364489D03*
%TO.N,/1/B*%
X158900000Y-100200000D03*
%TO.N,Net-(D205-Pad2)*%
X173849998Y-96800000D03*
X175500000Y-102000000D03*
%TO.N,/1/nCi*%
X172250000Y-97200000D03*
X172250000Y-100700000D03*
%TO.N,/1/SUM*%
X176050000Y-97600000D03*
X176050000Y-101100000D03*
%TO.N,/2/Ci*%
X179200000Y-96200000D03*
X169576375Y-93200000D03*
%TO.N,/2/B*%
X158900000Y-92800000D03*
%TO.N,Net-(D305-Pad2)*%
X173849998Y-89400000D03*
X175500000Y-94600000D03*
%TO.N,/2/nCi*%
X172250000Y-89800000D03*
X172250000Y-93300000D03*
%TO.N,/2/SUM*%
X176050000Y-90200000D03*
X176050000Y-93700000D03*
%TO.N,/3/Ci*%
X179200000Y-88800000D03*
X169576375Y-85800000D03*
%TO.N,/3/B*%
X158900000Y-85400000D03*
%TO.N,Net-(D405-Pad2)*%
X173849998Y-82000000D03*
X175500000Y-87200000D03*
%TO.N,/3/nCi*%
X172250000Y-82400000D03*
X172250000Y-85900000D03*
%TO.N,/3/SUM*%
X176050000Y-82800000D03*
X176050000Y-86300000D03*
%TD*%
D15*
%TO.N,/A*%
X154400000Y-106150000D02*
X154150000Y-105900000D01*
X154400000Y-107550000D02*
X154400000Y-106150000D01*
X153250000Y-105000000D02*
X154150000Y-105900000D01*
X151700000Y-105000000D02*
X153250000Y-105000000D01*
%TO.N,/nA'*%
X156048698Y-105000000D02*
X160100000Y-105000000D01*
X155871499Y-105177199D02*
X156048698Y-105000000D01*
X155871499Y-107971499D02*
X155871499Y-105177199D01*
X156400000Y-108500000D02*
X155871499Y-107971499D01*
X161050000Y-104050000D02*
X160100000Y-105000000D01*
X161800000Y-104050000D02*
X161050000Y-104050000D01*
X157300000Y-109400000D02*
X156400000Y-108500000D01*
X157850000Y-109400000D02*
X157300000Y-109400000D01*
X165150000Y-104050000D02*
X165700000Y-104600000D01*
X161800000Y-104050000D02*
X165150000Y-104050000D01*
X166785511Y-103514489D02*
X165700000Y-104600000D01*
X169585511Y-103514489D02*
X166785511Y-103514489D01*
X169728501Y-103371499D02*
X169585511Y-103514489D01*
X177371499Y-103371499D02*
X169728501Y-103371499D01*
X178200000Y-104200000D02*
X177371499Y-103371499D01*
%TO.N,/B*%
X161800000Y-108107000D02*
X161528499Y-108378501D01*
X161800000Y-107550000D02*
X161800000Y-108107000D01*
X180048698Y-107550000D02*
X179721499Y-107877199D01*
X182150000Y-107550000D02*
X180048698Y-107550000D01*
X179721499Y-109529803D02*
X179122801Y-110128501D01*
X179721499Y-107877199D02*
X179721499Y-109529803D01*
X169828501Y-110128501D02*
X169028501Y-109328501D01*
X179122801Y-110128501D02*
X169828501Y-110128501D01*
X161800000Y-107851302D02*
X161800000Y-107550000D01*
X163277199Y-109328501D02*
X161800000Y-107851302D01*
X169028501Y-109328501D02*
X163277199Y-109328501D01*
X158900000Y-107600000D02*
X157850000Y-107600000D01*
X158900000Y-107651302D02*
X158900000Y-107600000D01*
X161528499Y-108378501D02*
X159627199Y-108378501D01*
X159627199Y-108378501D02*
X158900000Y-107651302D01*
%TO.N,/~A^B*%
X163800000Y-105900000D02*
X163800000Y-105000000D01*
X163800000Y-108500000D02*
X163800000Y-105900000D01*
X163840000Y-105940000D02*
X163800000Y-105900000D01*
X170800000Y-105900000D02*
X171900000Y-105900000D01*
X173550000Y-107550000D02*
X174750000Y-107550000D01*
X171900000Y-105900000D02*
X173550000Y-107550000D01*
X178450000Y-107550000D02*
X174750000Y-107550000D01*
X169471499Y-103871499D02*
X167768501Y-103871499D01*
X170021499Y-104421499D02*
X169471499Y-103871499D01*
X170021499Y-105121499D02*
X170021499Y-104421499D01*
X167768501Y-103871499D02*
X165700000Y-105940000D01*
X165700000Y-105940000D02*
X163840000Y-105940000D01*
X170800000Y-105900000D02*
X170021499Y-105121499D01*
%TO.N,/nCi*%
X172650000Y-108500000D02*
X172250000Y-108100000D01*
X173050000Y-108500000D02*
X172650000Y-108500000D01*
X174750000Y-104482182D02*
X174750000Y-104050000D01*
X178200000Y-105900000D02*
X176167818Y-105900000D01*
X176167818Y-105900000D02*
X175258909Y-104991091D01*
X175258909Y-104991091D02*
X174750000Y-104482182D01*
X171850000Y-104200000D02*
X172250000Y-104600000D01*
X170800000Y-104200000D02*
X171850000Y-104200000D01*
X172250000Y-107398698D02*
X171722801Y-106871499D01*
X172250000Y-108100000D02*
X172250000Y-107398698D01*
X169088501Y-106871499D02*
X168700000Y-107260000D01*
X171722801Y-106871499D02*
X169088501Y-106871499D01*
X172641091Y-104991091D02*
X172250000Y-104600000D01*
X175258909Y-104991091D02*
X172641091Y-104991091D01*
%TO.N,/nCo*%
X183235511Y-107585511D02*
X184150000Y-108500000D01*
X182150000Y-104050000D02*
X183235511Y-105135511D01*
X184150000Y-108801302D02*
X184150000Y-108500000D01*
X182822801Y-110128501D02*
X184150000Y-108801302D01*
X181477199Y-110128501D02*
X182822801Y-110128501D01*
X180450000Y-109101302D02*
X181477199Y-110128501D01*
X180450000Y-108500000D02*
X180450000Y-109101302D01*
X184935511Y-105764489D02*
X183235511Y-105764489D01*
X185700000Y-105000000D02*
X184935511Y-105764489D01*
X183235511Y-105764489D02*
X183235511Y-107585511D01*
X183235511Y-105135511D02*
X183235511Y-105764489D01*
%TO.N,/SUM*%
X176750000Y-105000000D02*
X176050000Y-105000000D01*
X176050000Y-108500000D02*
X176750000Y-108500000D01*
X174348698Y-108500000D02*
X176050000Y-108500000D01*
X173448698Y-109400000D02*
X174348698Y-108500000D01*
X172351302Y-109400000D02*
X173448698Y-109400000D01*
X171551302Y-108600000D02*
X172351302Y-109400000D01*
X168700000Y-108600000D02*
X171551302Y-108600000D01*
%TO.N,GND*%
X182105276Y-105950000D02*
X181169373Y-106885903D01*
X182150000Y-105950000D02*
X182105276Y-105950000D01*
X170321500Y-109450000D02*
X170285750Y-109414250D01*
X171050000Y-109450000D02*
X170321500Y-109450000D01*
X182150000Y-98550000D02*
X182105276Y-98550000D01*
X182150000Y-91150000D02*
X182105276Y-91150000D01*
X182150000Y-83750000D02*
X182105276Y-83750000D01*
X182105276Y-98550000D02*
X181169373Y-99485903D01*
X182105276Y-91150000D02*
X181169373Y-92085903D01*
X182105276Y-83750000D02*
X181169373Y-84685903D01*
X171050000Y-102050000D02*
X170321500Y-102050000D01*
X171050000Y-94650000D02*
X170321500Y-94650000D01*
X171050000Y-87250000D02*
X170321500Y-87250000D01*
X170321500Y-102050000D02*
X170285750Y-102014250D01*
X170321500Y-94650000D02*
X170285750Y-94614250D01*
X170321500Y-87250000D02*
X170285750Y-87214250D01*
X168900000Y-102700000D02*
X169000000Y-102800000D01*
X168062500Y-102700000D02*
X168900000Y-102700000D01*
%TO.N,VCC*%
X165700000Y-108600000D02*
X165700000Y-107260000D01*
X168700000Y-104600000D02*
X168700000Y-105940000D01*
X166540000Y-107260000D02*
X165700000Y-107260000D01*
X167860000Y-105940000D02*
X167200000Y-106600000D01*
X168700000Y-105940000D02*
X167860000Y-105940000D01*
X167200000Y-106600000D02*
X166540000Y-107260000D01*
X168700000Y-97200000D02*
X168700000Y-98540000D01*
X168700000Y-89800000D02*
X168700000Y-91140000D01*
X168700000Y-82400000D02*
X168700000Y-83740000D01*
X165700000Y-101200000D02*
X165700000Y-99860000D01*
X165700000Y-93800000D02*
X165700000Y-92460000D01*
X165700000Y-86400000D02*
X165700000Y-85060000D01*
X166540000Y-99860000D02*
X165700000Y-99860000D01*
X166540000Y-92460000D02*
X165700000Y-92460000D01*
X166540000Y-85060000D02*
X165700000Y-85060000D01*
X167200000Y-99200000D02*
X166540000Y-99860000D01*
X167200000Y-91800000D02*
X166540000Y-92460000D01*
X167200000Y-84400000D02*
X166540000Y-85060000D01*
X167860000Y-98540000D02*
X167200000Y-99200000D01*
X167860000Y-91140000D02*
X167200000Y-91800000D01*
X167860000Y-83740000D02*
X167200000Y-84400000D01*
X168700000Y-98540000D02*
X167860000Y-98540000D01*
X168700000Y-91140000D02*
X167860000Y-91140000D01*
X168700000Y-83740000D02*
X167860000Y-83740000D01*
X188700000Y-101000000D02*
X188700000Y-105000000D01*
X187142521Y-99442521D02*
X188700000Y-101000000D01*
X187142521Y-91757479D02*
X187142521Y-99442521D01*
X188700000Y-90200000D02*
X187142521Y-91757479D01*
X188700000Y-86200000D02*
X188700000Y-90200000D01*
X166337500Y-102700000D02*
X165400000Y-102700000D01*
D16*
X187399999Y-106300001D02*
X188700000Y-105000000D01*
X187335512Y-106364488D02*
X187399999Y-106300001D01*
X187335512Y-109354490D02*
X187335512Y-106364488D01*
X166142989Y-110507011D02*
X186182991Y-110507011D01*
X186182991Y-110507011D02*
X187335512Y-109354490D01*
X164650000Y-112000000D02*
X166142989Y-110507011D01*
D15*
%TO.N,~add*%
X159850000Y-104050000D02*
X160000000Y-103900000D01*
X158100000Y-104050000D02*
X159850000Y-104050000D01*
X159850000Y-96650000D02*
X160000000Y-96500000D01*
X159850000Y-89250000D02*
X160000000Y-89100000D01*
X159850000Y-81850000D02*
X160000000Y-81700000D01*
X158100000Y-96650000D02*
X159850000Y-96650000D01*
X158100000Y-89250000D02*
X159850000Y-89250000D01*
X158100000Y-81850000D02*
X159850000Y-81850000D01*
X156800000Y-104050000D02*
X156650000Y-104200000D01*
X158100000Y-104050000D02*
X156800000Y-104050000D01*
X156800000Y-96650000D02*
X156650000Y-96800000D01*
X158100000Y-96650000D02*
X156800000Y-96650000D01*
X156800000Y-89250000D02*
X156650000Y-89400000D01*
X158100000Y-89250000D02*
X156800000Y-89250000D01*
X156800000Y-81850000D02*
X156650000Y-82000000D01*
X158100000Y-81850000D02*
X156800000Y-81850000D01*
%TO.N,/Co*%
X179428501Y-103371499D02*
X179200000Y-103600000D01*
X183078499Y-103371499D02*
X179428501Y-103371499D01*
X184150000Y-104443000D02*
X183078499Y-103371499D01*
X184150000Y-105000000D02*
X184150000Y-104443000D01*
X171050000Y-100150000D02*
X170621500Y-100150000D01*
X170150000Y-100150000D02*
X170032475Y-100150000D01*
X171050000Y-100150000D02*
X170150000Y-100150000D01*
X170150000Y-100150000D02*
X170026375Y-100150000D01*
X170026375Y-100150000D02*
X169576375Y-100600000D01*
X184933000Y-103660000D02*
X184150000Y-104443000D01*
X185700000Y-103660000D02*
X184933000Y-103660000D01*
X186428501Y-104388501D02*
X185700000Y-103660000D01*
X186428501Y-106221499D02*
X186428501Y-104388501D01*
X185900000Y-106750000D02*
X186428501Y-106221499D01*
%TO.N,Net-(D1-Pad2)*%
X160400000Y-109450000D02*
X160350000Y-109400000D01*
X161800000Y-109450000D02*
X160400000Y-109450000D01*
%TO.N,Net-(D2-Pad2)*%
X161800000Y-106150000D02*
X160350000Y-107600000D01*
X161800000Y-105950000D02*
X161800000Y-106150000D01*
%TO.N,Net-(D3-Pad2)*%
X173350000Y-105950000D02*
X173300000Y-105900000D01*
X174750000Y-105950000D02*
X173350000Y-105950000D01*
%TO.N,Net-(D4-Pad2)*%
X174750000Y-109450000D02*
X174750000Y-109400000D01*
X173300000Y-104200000D02*
X173849998Y-104200000D01*
X175450000Y-109450000D02*
X175500000Y-109400000D01*
X174750000Y-109450000D02*
X175450000Y-109450000D01*
%TO.N,Net-(D5-Pad2)*%
X178450000Y-109450000D02*
X178450000Y-108893000D01*
X179364489Y-107235511D02*
X180700000Y-105900000D01*
X179364489Y-107986813D02*
X179364489Y-107235511D01*
X178458302Y-108893000D02*
X179364489Y-107986813D01*
X178450000Y-108893000D02*
X178458302Y-108893000D01*
%TO.N,Net-(D6-Pad2)*%
X181228501Y-104728501D02*
X180700000Y-104200000D01*
X182279803Y-104728501D02*
X181228501Y-104728501D01*
X182878501Y-105327199D02*
X182279803Y-104728501D01*
X182878501Y-108721499D02*
X182878501Y-105327199D01*
X182150000Y-109450000D02*
X182878501Y-108721499D01*
%TO.N,Net-(D7-Pad2)*%
X155128501Y-108721499D02*
X154400000Y-109450000D01*
X155128501Y-108721499D02*
X155128501Y-105178501D01*
X155128501Y-105178501D02*
X154150000Y-104200000D01*
%TO.N,Net-(D8-Pad2)*%
X158050000Y-105900000D02*
X158100000Y-105950000D01*
X156650000Y-105900000D02*
X158050000Y-105900000D01*
%TO.N,/Ci*%
X171050000Y-107550000D02*
X170621500Y-107550000D01*
X170026375Y-107550000D02*
X169576375Y-108000000D01*
X170150000Y-107550000D02*
X170026375Y-107550000D01*
X171050000Y-107550000D02*
X170150000Y-107550000D01*
X170150000Y-107550000D02*
X170032475Y-107550000D01*
%TO.N,CLRC*%
X185900000Y-109250000D02*
X186785511Y-108364489D01*
X186785511Y-97635511D02*
X185900000Y-96750000D01*
X186785511Y-108364489D02*
X186785511Y-97635511D01*
X186785511Y-82835511D02*
X185900000Y-81950000D01*
X186785511Y-93564489D02*
X186785511Y-82835511D01*
X185900000Y-94450000D02*
X186785511Y-93564489D01*
X185900000Y-96750000D02*
X185900000Y-94450000D01*
%TO.N,Net-(D202-Pad2)*%
X160500000Y-102050000D02*
X160350000Y-101900000D01*
X161800000Y-102050000D02*
X160500000Y-102050000D01*
%TO.N,/1/nA'*%
X156048698Y-97600000D02*
X160100000Y-97600000D01*
X156400000Y-101100000D02*
X155871499Y-100571499D01*
X155871499Y-100571499D02*
X155871499Y-97777199D01*
X155871499Y-97777199D02*
X156048698Y-97600000D01*
X166928501Y-95971499D02*
X165700000Y-97200000D01*
X177371499Y-95971499D02*
X166928501Y-95971499D01*
X178200000Y-96800000D02*
X177371499Y-95971499D01*
X165150000Y-96650000D02*
X165700000Y-97200000D01*
X161800000Y-96650000D02*
X165150000Y-96650000D01*
X161050000Y-96650000D02*
X160100000Y-97600000D01*
X161800000Y-96650000D02*
X161050000Y-96650000D01*
X157050000Y-101100000D02*
X157850000Y-101900000D01*
X156400000Y-101100000D02*
X157050000Y-101100000D01*
%TO.N,Net-(D203-Pad2)*%
X161800000Y-98550000D02*
X161800000Y-98750000D01*
X161800000Y-98750000D02*
X160350000Y-100200000D01*
%TO.N,/1/B*%
X158900000Y-100251302D02*
X158900000Y-100200000D01*
X159627199Y-100978501D02*
X158900000Y-100251302D01*
X161528499Y-100978501D02*
X159878501Y-100978501D01*
X159878501Y-100978501D02*
X159627199Y-100978501D01*
X158900000Y-100200000D02*
X157850000Y-100200000D01*
X182150000Y-100150000D02*
X180048698Y-100150000D01*
X179721499Y-100477199D02*
X179721499Y-102129803D01*
X179721499Y-102129803D02*
X179122801Y-102728501D01*
X180048698Y-100150000D02*
X179721499Y-100477199D01*
X161800000Y-100451302D02*
X161800000Y-100150000D01*
X179122801Y-102728501D02*
X169828501Y-102728501D01*
X169828501Y-102728501D02*
X169028501Y-101928501D01*
X163277199Y-101928501D02*
X161800000Y-100451302D01*
X169028501Y-101928501D02*
X163277199Y-101928501D01*
X161800000Y-100707000D02*
X161528499Y-100978501D01*
X161800000Y-100150000D02*
X161800000Y-100707000D01*
%TO.N,Net-(D204-Pad2)*%
X173350000Y-98550000D02*
X173300000Y-98500000D01*
X174750000Y-98550000D02*
X173350000Y-98550000D01*
%TO.N,/1/~A^B*%
X163800000Y-98500000D02*
X163800000Y-97600000D01*
X163800000Y-101100000D02*
X163800000Y-98500000D01*
X178450000Y-100150000D02*
X174750000Y-100150000D01*
X163840000Y-98540000D02*
X163800000Y-98500000D01*
X165700000Y-98540000D02*
X163840000Y-98540000D01*
X173550000Y-100150000D02*
X173750000Y-100150000D01*
X171900000Y-98500000D02*
X173550000Y-100150000D01*
X170800000Y-98500000D02*
X171900000Y-98500000D01*
X174750000Y-100150000D02*
X173750000Y-100150000D01*
X167768501Y-96471499D02*
X165700000Y-98540000D01*
X170800000Y-98500000D02*
X170021499Y-97721499D01*
X170021499Y-97721499D02*
X170021499Y-97021499D01*
X170021499Y-97021499D02*
X169471499Y-96471499D01*
X169471499Y-96471499D02*
X167768501Y-96471499D01*
%TO.N,Net-(D205-Pad2)*%
X174750000Y-102050000D02*
X174750000Y-102000000D01*
X174750000Y-102050000D02*
X175450000Y-102050000D01*
X175450000Y-102050000D02*
X175500000Y-102000000D01*
X173300000Y-96800000D02*
X173849998Y-96800000D01*
%TO.N,/1/nCi*%
X172650000Y-101100000D02*
X172250000Y-100700000D01*
X173050000Y-101100000D02*
X172650000Y-101100000D01*
X174750000Y-97082182D02*
X174750000Y-96650000D01*
X178200000Y-98500000D02*
X176167818Y-98500000D01*
X171974349Y-96924349D02*
X172250000Y-97200000D01*
X170800000Y-96800000D02*
X171850000Y-96800000D01*
X171850000Y-96800000D02*
X171974349Y-96924349D01*
X172250000Y-100700000D02*
X172250000Y-99998698D01*
X171722801Y-99471499D02*
X169088501Y-99471499D01*
X172250000Y-99998698D02*
X171722801Y-99471499D01*
X169088501Y-99471499D02*
X168700000Y-99860000D01*
X175258909Y-97591091D02*
X172641091Y-97591091D01*
X176167818Y-98500000D02*
X175258909Y-97591091D01*
X172641091Y-97591091D02*
X172250000Y-97200000D01*
X175258909Y-97591091D02*
X174750000Y-97082182D01*
%TO.N,Net-(D206-Pad2)*%
X178450000Y-102050000D02*
X178450000Y-101493000D01*
X178450000Y-101493000D02*
X178458302Y-101493000D01*
X179364489Y-100586813D02*
X179364489Y-99835511D01*
X178458302Y-101493000D02*
X179364489Y-100586813D01*
X179364489Y-99835511D02*
X180700000Y-98500000D01*
%TO.N,Net-(D207-Pad2)*%
X182150000Y-102050000D02*
X182878501Y-101321499D01*
X181228501Y-97328501D02*
X180700000Y-96800000D01*
X182878501Y-97927199D02*
X182279803Y-97328501D01*
X182279803Y-97328501D02*
X181228501Y-97328501D01*
X182878501Y-101321499D02*
X182878501Y-97927199D01*
%TO.N,Net-(D208-Pad2)*%
X155128501Y-101321499D02*
X154400000Y-102050000D01*
X155128501Y-97778501D02*
X154150000Y-96800000D01*
X155128501Y-101321499D02*
X155128501Y-97778501D01*
%TO.N,Net-(D209-Pad2)*%
X156650000Y-98500000D02*
X158050000Y-98500000D01*
X158050000Y-98500000D02*
X158100000Y-98550000D01*
%TO.N,/1/A*%
X154400000Y-98750000D02*
X154150000Y-98500000D01*
X154400000Y-100150000D02*
X154400000Y-98750000D01*
X153250000Y-97600000D02*
X154150000Y-98500000D01*
X151700000Y-97600000D02*
X153250000Y-97600000D01*
%TO.N,/1/nCo*%
X183235511Y-97735511D02*
X183235511Y-100185511D01*
X183235511Y-100185511D02*
X184150000Y-101100000D01*
X182150000Y-96650000D02*
X183235511Y-97735511D01*
X180450000Y-101701302D02*
X181477199Y-102728501D01*
X182822801Y-102728501D02*
X184150000Y-101401302D01*
X180450000Y-101100000D02*
X180450000Y-101701302D01*
X181477199Y-102728501D02*
X182822801Y-102728501D01*
X184150000Y-101401302D02*
X184150000Y-101100000D01*
X185390000Y-102340000D02*
X184150000Y-101100000D01*
X185700000Y-102340000D02*
X185390000Y-102340000D01*
%TO.N,/1/SUM*%
X176050000Y-101100000D02*
X176750000Y-101100000D01*
X176750000Y-97600000D02*
X176050000Y-97600000D01*
X174348698Y-101100000D02*
X176050000Y-101100000D01*
X172351302Y-102000000D02*
X173448698Y-102000000D01*
X171551302Y-101200000D02*
X172351302Y-102000000D01*
X168700000Y-101200000D02*
X171551302Y-101200000D01*
X173448698Y-102000000D02*
X174348698Y-101100000D01*
%TO.N,/2/Ci*%
X179428501Y-95971499D02*
X179200000Y-96200000D01*
X184150000Y-97043000D02*
X183078499Y-95971499D01*
X184150000Y-97600000D02*
X184150000Y-97043000D01*
X183078499Y-95971499D02*
X179428501Y-95971499D01*
X171050000Y-92750000D02*
X170621500Y-92750000D01*
X170150000Y-92750000D02*
X170032475Y-92750000D01*
X171050000Y-92750000D02*
X170150000Y-92750000D01*
X170150000Y-92750000D02*
X170026375Y-92750000D01*
X170026375Y-92750000D02*
X169576375Y-93200000D01*
X184150000Y-99450000D02*
X185700000Y-101000000D01*
X184150000Y-97600000D02*
X184150000Y-99450000D01*
X185900000Y-100800000D02*
X185700000Y-101000000D01*
X185900000Y-99250000D02*
X185900000Y-100800000D01*
%TO.N,Net-(D302-Pad2)*%
X160500000Y-94650000D02*
X160350000Y-94500000D01*
X161800000Y-94650000D02*
X160500000Y-94650000D01*
%TO.N,/2/nA'*%
X156048698Y-90200000D02*
X160100000Y-90200000D01*
X156400000Y-93700000D02*
X155871499Y-93171499D01*
X155871499Y-93171499D02*
X155871499Y-90377199D01*
X155871499Y-90377199D02*
X156048698Y-90200000D01*
X166928501Y-88571499D02*
X165700000Y-89800000D01*
X177371499Y-88571499D02*
X166928501Y-88571499D01*
X178200000Y-89400000D02*
X177371499Y-88571499D01*
X165150000Y-89250000D02*
X165700000Y-89800000D01*
X161800000Y-89250000D02*
X165150000Y-89250000D01*
X161050000Y-89250000D02*
X160100000Y-90200000D01*
X161800000Y-89250000D02*
X161050000Y-89250000D01*
X157050000Y-93700000D02*
X157850000Y-94500000D01*
X156400000Y-93700000D02*
X157050000Y-93700000D01*
%TO.N,Net-(D303-Pad2)*%
X161800000Y-91150000D02*
X161800000Y-91350000D01*
X161800000Y-91350000D02*
X160350000Y-92800000D01*
%TO.N,/2/B*%
X158900000Y-92851302D02*
X158900000Y-92800000D01*
X159627199Y-93578501D02*
X158900000Y-92851302D01*
X161528499Y-93578501D02*
X159878501Y-93578501D01*
X159878501Y-93578501D02*
X159627199Y-93578501D01*
X158900000Y-92800000D02*
X157850000Y-92800000D01*
X182150000Y-92750000D02*
X180048698Y-92750000D01*
X179721499Y-93077199D02*
X179721499Y-94729803D01*
X179721499Y-94729803D02*
X179122801Y-95328501D01*
X180048698Y-92750000D02*
X179721499Y-93077199D01*
X161800000Y-93051302D02*
X161800000Y-92750000D01*
X179122801Y-95328501D02*
X169828501Y-95328501D01*
X169828501Y-95328501D02*
X169028501Y-94528501D01*
X163277199Y-94528501D02*
X161800000Y-93051302D01*
X169028501Y-94528501D02*
X163277199Y-94528501D01*
X161800000Y-93307000D02*
X161528499Y-93578501D01*
X161800000Y-92750000D02*
X161800000Y-93307000D01*
%TO.N,Net-(D304-Pad2)*%
X173350000Y-91150000D02*
X173300000Y-91100000D01*
X174750000Y-91150000D02*
X173350000Y-91150000D01*
%TO.N,/2/~A^B*%
X163800000Y-91100000D02*
X163800000Y-90200000D01*
X163800000Y-93700000D02*
X163800000Y-91100000D01*
X178450000Y-92750000D02*
X174750000Y-92750000D01*
X163840000Y-91140000D02*
X163800000Y-91100000D01*
X165700000Y-91140000D02*
X163840000Y-91140000D01*
X173550000Y-92750000D02*
X173750000Y-92750000D01*
X171900000Y-91100000D02*
X173550000Y-92750000D01*
X170800000Y-91100000D02*
X171900000Y-91100000D01*
X174750000Y-92750000D02*
X173750000Y-92750000D01*
X167768501Y-89071499D02*
X165700000Y-91140000D01*
X170800000Y-91100000D02*
X170021499Y-90321499D01*
X170021499Y-90321499D02*
X170021499Y-89621499D01*
X170021499Y-89621499D02*
X169471499Y-89071499D01*
X169471499Y-89071499D02*
X167768501Y-89071499D01*
%TO.N,Net-(D305-Pad2)*%
X174750000Y-94650000D02*
X174750000Y-94600000D01*
X174750000Y-94650000D02*
X175450000Y-94650000D01*
X175450000Y-94650000D02*
X175500000Y-94600000D01*
X173300000Y-89400000D02*
X173849998Y-89400000D01*
%TO.N,/2/nCi*%
X172650000Y-93700000D02*
X172250000Y-93300000D01*
X173050000Y-93700000D02*
X172650000Y-93700000D01*
X174750000Y-89682182D02*
X174750000Y-89250000D01*
X178200000Y-91100000D02*
X176167818Y-91100000D01*
X171974349Y-89524349D02*
X172250000Y-89800000D01*
X170800000Y-89400000D02*
X171850000Y-89400000D01*
X171850000Y-89400000D02*
X171974349Y-89524349D01*
X172250000Y-93300000D02*
X172250000Y-92598698D01*
X171722801Y-92071499D02*
X169088501Y-92071499D01*
X172250000Y-92598698D02*
X171722801Y-92071499D01*
X169088501Y-92071499D02*
X168700000Y-92460000D01*
X175258909Y-90191091D02*
X172641091Y-90191091D01*
X176167818Y-91100000D02*
X175258909Y-90191091D01*
X172641091Y-90191091D02*
X172250000Y-89800000D01*
X175258909Y-90191091D02*
X174750000Y-89682182D01*
%TO.N,Net-(D306-Pad2)*%
X178450000Y-94650000D02*
X178450000Y-94093000D01*
X178450000Y-94093000D02*
X178458302Y-94093000D01*
X179364489Y-93186813D02*
X179364489Y-92435511D01*
X178458302Y-94093000D02*
X179364489Y-93186813D01*
X179364489Y-92435511D02*
X180700000Y-91100000D01*
%TO.N,Net-(D307-Pad2)*%
X182150000Y-94650000D02*
X182878501Y-93921499D01*
X181228501Y-89928501D02*
X180700000Y-89400000D01*
X182878501Y-90527199D02*
X182279803Y-89928501D01*
X182279803Y-89928501D02*
X181228501Y-89928501D01*
X182878501Y-93921499D02*
X182878501Y-90527199D01*
%TO.N,Net-(D308-Pad2)*%
X155128501Y-93921499D02*
X154400000Y-94650000D01*
X155128501Y-90378501D02*
X154150000Y-89400000D01*
X155128501Y-93921499D02*
X155128501Y-90378501D01*
%TO.N,Net-(D309-Pad2)*%
X156650000Y-91100000D02*
X158050000Y-91100000D01*
X158050000Y-91100000D02*
X158100000Y-91150000D01*
%TO.N,/2/A*%
X154400000Y-91350000D02*
X154150000Y-91100000D01*
X154400000Y-92750000D02*
X154400000Y-91350000D01*
X153250000Y-90200000D02*
X154150000Y-91100000D01*
X151700000Y-90200000D02*
X153250000Y-90200000D01*
%TO.N,/2/nCo*%
X183235511Y-90335511D02*
X183235511Y-92785511D01*
X183235511Y-92785511D02*
X184150000Y-93700000D01*
X182150000Y-89250000D02*
X183235511Y-90335511D01*
X180450000Y-94301302D02*
X181477199Y-95328501D01*
X182822801Y-95328501D02*
X184150000Y-94001302D01*
X180450000Y-93700000D02*
X180450000Y-94301302D01*
X181477199Y-95328501D02*
X182822801Y-95328501D01*
X184150000Y-94001302D02*
X184150000Y-93700000D01*
X184935511Y-90964489D02*
X183235511Y-90964489D01*
X185700000Y-90200000D02*
X184935511Y-90964489D01*
%TO.N,/2/SUM*%
X176050000Y-93700000D02*
X176750000Y-93700000D01*
X176750000Y-90200000D02*
X176050000Y-90200000D01*
X174348698Y-93700000D02*
X176050000Y-93700000D01*
X172351302Y-94600000D02*
X173448698Y-94600000D01*
X171551302Y-93800000D02*
X172351302Y-94600000D01*
X168700000Y-93800000D02*
X171551302Y-93800000D01*
X173448698Y-94600000D02*
X174348698Y-93700000D01*
%TO.N,/3/Ci*%
X179428501Y-88571499D02*
X179200000Y-88800000D01*
X184150000Y-89643000D02*
X183078499Y-88571499D01*
X184150000Y-90200000D02*
X184150000Y-89643000D01*
X183078499Y-88571499D02*
X179428501Y-88571499D01*
X171050000Y-85350000D02*
X170621500Y-85350000D01*
X170150000Y-85350000D02*
X170032475Y-85350000D01*
X171050000Y-85350000D02*
X170150000Y-85350000D01*
X170150000Y-85350000D02*
X170026375Y-85350000D01*
X170026375Y-85350000D02*
X169576375Y-85800000D01*
X184933000Y-88860000D02*
X184150000Y-89643000D01*
X185700000Y-88860000D02*
X184933000Y-88860000D01*
X186428501Y-91421499D02*
X186428501Y-89588501D01*
X186428501Y-89588501D02*
X185700000Y-88860000D01*
X185900000Y-91950000D02*
X186428501Y-91421499D01*
%TO.N,/3/Co*%
X184150000Y-82800000D02*
X184150000Y-84650000D01*
X184150000Y-84650000D02*
X185700000Y-86200000D01*
X185900000Y-84450000D02*
X185900000Y-86000000D01*
X185900000Y-86000000D02*
X185700000Y-86200000D01*
X184150000Y-82498698D02*
X184150000Y-82800000D01*
X177174349Y-80724349D02*
X175750000Y-79300000D01*
X182375651Y-80724349D02*
X177174349Y-80724349D01*
X182375651Y-80724349D02*
X184150000Y-82498698D01*
%TO.N,Net-(D402-Pad2)*%
X160500000Y-87250000D02*
X160350000Y-87100000D01*
X161800000Y-87250000D02*
X160500000Y-87250000D01*
%TO.N,/3/nA'*%
X156048698Y-82800000D02*
X160100000Y-82800000D01*
X156400000Y-86300000D02*
X155871499Y-85771499D01*
X155871499Y-85771499D02*
X155871499Y-82977199D01*
X155871499Y-82977199D02*
X156048698Y-82800000D01*
X166928501Y-81171499D02*
X165700000Y-82400000D01*
X177371499Y-81171499D02*
X166928501Y-81171499D01*
X178200000Y-82000000D02*
X177371499Y-81171499D01*
X165150000Y-81850000D02*
X165700000Y-82400000D01*
X161800000Y-81850000D02*
X165150000Y-81850000D01*
X161050000Y-81850000D02*
X160100000Y-82800000D01*
X161800000Y-81850000D02*
X161050000Y-81850000D01*
X157050000Y-86300000D02*
X157850000Y-87100000D01*
X156400000Y-86300000D02*
X157050000Y-86300000D01*
%TO.N,Net-(D403-Pad2)*%
X161800000Y-83750000D02*
X161800000Y-83950000D01*
X161800000Y-83950000D02*
X160350000Y-85400000D01*
%TO.N,/3/B*%
X158900000Y-85451302D02*
X158900000Y-85400000D01*
X159627199Y-86178501D02*
X158900000Y-85451302D01*
X161528499Y-86178501D02*
X159878501Y-86178501D01*
X159878501Y-86178501D02*
X159627199Y-86178501D01*
X158900000Y-85400000D02*
X157850000Y-85400000D01*
X182150000Y-85350000D02*
X180048698Y-85350000D01*
X179721499Y-85677199D02*
X179721499Y-87329803D01*
X179721499Y-87329803D02*
X179122801Y-87928501D01*
X180048698Y-85350000D02*
X179721499Y-85677199D01*
X161800000Y-85651302D02*
X161800000Y-85350000D01*
X179122801Y-87928501D02*
X169828501Y-87928501D01*
X169828501Y-87928501D02*
X169028501Y-87128501D01*
X163277199Y-87128501D02*
X161800000Y-85651302D01*
X169028501Y-87128501D02*
X163277199Y-87128501D01*
X161800000Y-85907000D02*
X161528499Y-86178501D01*
X161800000Y-85350000D02*
X161800000Y-85907000D01*
%TO.N,Net-(D404-Pad2)*%
X173350000Y-83750000D02*
X173300000Y-83700000D01*
X174750000Y-83750000D02*
X173350000Y-83750000D01*
%TO.N,/3/~A^B*%
X163800000Y-83700000D02*
X163800000Y-82800000D01*
X163800000Y-86300000D02*
X163800000Y-83700000D01*
X178450000Y-85350000D02*
X174750000Y-85350000D01*
X163840000Y-83740000D02*
X163800000Y-83700000D01*
X165700000Y-83740000D02*
X163840000Y-83740000D01*
X173550000Y-85350000D02*
X173750000Y-85350000D01*
X171900000Y-83700000D02*
X173550000Y-85350000D01*
X170800000Y-83700000D02*
X171900000Y-83700000D01*
X174750000Y-85350000D02*
X173750000Y-85350000D01*
X167768501Y-81671499D02*
X165700000Y-83740000D01*
X170800000Y-83700000D02*
X170021499Y-82921499D01*
X170021499Y-82921499D02*
X170021499Y-82221499D01*
X170021499Y-82221499D02*
X169471499Y-81671499D01*
X169471499Y-81671499D02*
X167768501Y-81671499D01*
%TO.N,Net-(D405-Pad2)*%
X174750000Y-87250000D02*
X174750000Y-87200000D01*
X174750000Y-87250000D02*
X175450000Y-87250000D01*
X175450000Y-87250000D02*
X175500000Y-87200000D01*
X173300000Y-82000000D02*
X173849998Y-82000000D01*
%TO.N,/3/nCi*%
X172650000Y-86300000D02*
X172250000Y-85900000D01*
X173050000Y-86300000D02*
X172650000Y-86300000D01*
X174750000Y-82282182D02*
X174750000Y-81850000D01*
X178200000Y-83700000D02*
X176167818Y-83700000D01*
X171974349Y-82124349D02*
X172250000Y-82400000D01*
X170800000Y-82000000D02*
X171850000Y-82000000D01*
X171850000Y-82000000D02*
X171974349Y-82124349D01*
X172250000Y-85900000D02*
X172250000Y-85198698D01*
X171722801Y-84671499D02*
X169088501Y-84671499D01*
X172250000Y-85198698D02*
X171722801Y-84671499D01*
X169088501Y-84671499D02*
X168700000Y-85060000D01*
X175258909Y-82791091D02*
X172641091Y-82791091D01*
X176167818Y-83700000D02*
X175258909Y-82791091D01*
X172641091Y-82791091D02*
X172250000Y-82400000D01*
X175258909Y-82791091D02*
X174750000Y-82282182D01*
%TO.N,Net-(D406-Pad2)*%
X178450000Y-87250000D02*
X178450000Y-86693000D01*
X178450000Y-86693000D02*
X178458302Y-86693000D01*
X179364489Y-85786813D02*
X179364489Y-85035511D01*
X178458302Y-86693000D02*
X179364489Y-85786813D01*
X179364489Y-85035511D02*
X180700000Y-83700000D01*
%TO.N,Net-(D407-Pad2)*%
X182150000Y-87250000D02*
X182878501Y-86521499D01*
X181228501Y-82528501D02*
X180700000Y-82000000D01*
X182878501Y-83127199D02*
X182279803Y-82528501D01*
X182279803Y-82528501D02*
X181228501Y-82528501D01*
X182878501Y-86521499D02*
X182878501Y-83127199D01*
%TO.N,Net-(D408-Pad2)*%
X155128501Y-86521499D02*
X154400000Y-87250000D01*
X155128501Y-82978501D02*
X154150000Y-82000000D01*
X155128501Y-86521499D02*
X155128501Y-82978501D01*
%TO.N,Net-(D409-Pad2)*%
X156650000Y-83700000D02*
X158050000Y-83700000D01*
X158050000Y-83700000D02*
X158100000Y-83750000D01*
%TO.N,/3/A*%
X154400000Y-83950000D02*
X154150000Y-83700000D01*
X154400000Y-85350000D02*
X154400000Y-83950000D01*
X153250000Y-82800000D02*
X154150000Y-83700000D01*
X151700000Y-82800000D02*
X153250000Y-82800000D01*
%TO.N,/3/nCo*%
X183235511Y-82935511D02*
X183235511Y-85385511D01*
X183235511Y-85385511D02*
X184150000Y-86300000D01*
X182150000Y-81850000D02*
X183235511Y-82935511D01*
X180450000Y-86901302D02*
X181477199Y-87928501D01*
X182822801Y-87928501D02*
X184150000Y-86601302D01*
X180450000Y-86300000D02*
X180450000Y-86901302D01*
X181477199Y-87928501D02*
X182822801Y-87928501D01*
X184150000Y-86601302D02*
X184150000Y-86300000D01*
X185700000Y-87540000D02*
X185390000Y-87540000D01*
X185390000Y-87540000D02*
X184150000Y-86300000D01*
%TO.N,/3/SUM*%
X176050000Y-86300000D02*
X176750000Y-86300000D01*
X176750000Y-82800000D02*
X176050000Y-82800000D01*
X174348698Y-86300000D02*
X176050000Y-86300000D01*
X172351302Y-87200000D02*
X173448698Y-87200000D01*
X171551302Y-86400000D02*
X172351302Y-87200000D01*
X168700000Y-86400000D02*
X171551302Y-86400000D01*
X173448698Y-87200000D02*
X174348698Y-86300000D01*
%TD*%
M02*
