%TF.GenerationSoftware,KiCad,Pcbnew,(5.1.9)-1*%
%TF.CreationDate,2022-08-30T23:25:40+02:00*%
%TF.ProjectId,adder,61646465-722e-46b6-9963-61645f706362,rev?*%
%TF.SameCoordinates,Original*%
%TF.FileFunction,Copper,L2,Bot*%
%TF.FilePolarity,Positive*%
%FSLAX46Y46*%
G04 Gerber Fmt 4.6, Leading zero omitted, Abs format (unit mm)*
G04 Created by KiCad (PCBNEW (5.1.9)-1) date 2022-08-30 23:25:40*
%MOMM*%
%LPD*%
G01*
G04 APERTURE LIST*
%TA.AperFunction,ComponentPad*%
%ADD10C,2.000000*%
%TD*%
%TA.AperFunction,ViaPad*%
%ADD11C,0.500000*%
%TD*%
%TA.AperFunction,Conductor*%
%ADD12C,0.157000*%
%TD*%
%TA.AperFunction,Conductor*%
%ADD13C,0.200000*%
%TD*%
%TA.AperFunction,Conductor*%
%ADD14C,0.254000*%
%TD*%
%TA.AperFunction,Conductor*%
%ADD15C,0.100000*%
%TD*%
G04 APERTURE END LIST*
D10*
%TO.P,TP403,1*%
%TO.N,/3/SUM*%
X188700000Y-82800000D03*
%TD*%
%TO.P,TP402,1*%
%TO.N,/3/A*%
X151700000Y-82800000D03*
%TD*%
%TO.P,TP401,1*%
%TO.N,/3/B*%
X151700000Y-86300000D03*
%TD*%
%TO.P,TP303,1*%
%TO.N,/2/SUM*%
X188700000Y-93700000D03*
%TD*%
%TO.P,TP302,1*%
%TO.N,/2/A*%
X151700000Y-90200000D03*
%TD*%
%TO.P,TP301,1*%
%TO.N,/2/B*%
X151700000Y-93700000D03*
%TD*%
%TO.P,TP203,1*%
%TO.N,/1/SUM*%
X188700000Y-97600000D03*
%TD*%
%TO.P,TP202,1*%
%TO.N,/1/A*%
X151700000Y-97600000D03*
%TD*%
%TO.P,TP201,1*%
%TO.N,/1/B*%
X151700000Y-101100000D03*
%TD*%
%TO.P,TP8,1*%
%TO.N,GND*%
X168350000Y-112000000D03*
%TD*%
%TO.P,TP7,1*%
%TO.N,VCC*%
X164650000Y-112000000D03*
%TD*%
%TO.P,TP6,1*%
%TO.N,~add*%
X160950000Y-112000000D03*
%TD*%
%TO.P,TP5,1*%
%TO.N,/3/Co*%
X175750000Y-79300000D03*
%TD*%
%TO.P,TP4,1*%
%TO.N,/Ci*%
X175750000Y-112000000D03*
%TD*%
%TO.P,TP3,1*%
%TO.N,/SUM*%
X188700000Y-108500000D03*
%TD*%
%TO.P,TP2,1*%
%TO.N,/A*%
X151700000Y-105000000D03*
%TD*%
%TO.P,TP1,1*%
%TO.N,/B*%
X151700000Y-108500000D03*
%TD*%
%TO.P,TP0,1*%
%TO.N,CLRC*%
X185000000Y-112000000D03*
%TD*%
D11*
%TO.N,/B*%
X158900000Y-107600000D03*
%TO.N,/nCi*%
X172250000Y-108100000D03*
X172250000Y-104600000D03*
%TO.N,/SUM*%
X176050000Y-105000000D03*
X176050000Y-108500000D03*
%TO.N,GND*%
X181169373Y-106885903D03*
X170285750Y-109414250D03*
X170285750Y-102014250D03*
X170285750Y-94614250D03*
X170285750Y-87214250D03*
X181169373Y-99485903D03*
X181169373Y-92085903D03*
X181169373Y-84685903D03*
X169000000Y-102800000D03*
%TO.N,VCC*%
X167200000Y-106600000D03*
X167200000Y-99200000D03*
X167200000Y-91800000D03*
X167200000Y-84400000D03*
X165400000Y-102700000D03*
%TO.N,~add*%
X160000000Y-103900000D03*
X160000000Y-96500000D03*
X160000000Y-89100000D03*
X160000000Y-81700000D03*
%TO.N,/Co*%
X179200000Y-103600000D03*
X169576375Y-100600000D03*
%TO.N,Net-(D4-Pad2)*%
X173849998Y-104200000D03*
X175500000Y-109400000D03*
%TO.N,/Ci*%
X169576375Y-108000000D03*
%TO.N,CLRC*%
X186785511Y-108364489D03*
%TO.N,/1/B*%
X158900000Y-100200000D03*
%TO.N,Net-(D205-Pad2)*%
X173849998Y-96800000D03*
X175500000Y-102000000D03*
%TO.N,/1/nCi*%
X172250000Y-97200000D03*
X172250000Y-100700000D03*
%TO.N,/1/SUM*%
X176050000Y-97600000D03*
X176050000Y-101100000D03*
%TO.N,/2/Ci*%
X179200000Y-96200000D03*
X169576375Y-93200000D03*
%TO.N,/2/B*%
X158900000Y-92800000D03*
%TO.N,Net-(D305-Pad2)*%
X173849998Y-89400000D03*
X175500000Y-94600000D03*
%TO.N,/2/nCi*%
X172250000Y-89800000D03*
X172250000Y-93300000D03*
%TO.N,/2/SUM*%
X176050000Y-90200000D03*
X176050000Y-93700000D03*
%TO.N,/3/Ci*%
X179200000Y-88800000D03*
X169576375Y-85800000D03*
%TO.N,/3/B*%
X158900000Y-85400000D03*
%TO.N,Net-(D405-Pad2)*%
X173849998Y-82000000D03*
X175500000Y-87200000D03*
%TO.N,/3/nCi*%
X172250000Y-82400000D03*
X172250000Y-85900000D03*
%TO.N,/3/SUM*%
X176050000Y-82800000D03*
X176050000Y-86300000D03*
%TD*%
D12*
%TO.N,/B*%
X158000000Y-108500000D02*
X158900000Y-107600000D01*
X151700000Y-108500000D02*
X158000000Y-108500000D01*
%TO.N,/nCi*%
X172250000Y-108100000D02*
X172250000Y-104600000D01*
%TO.N,/SUM*%
X176057402Y-106357402D02*
X176050000Y-106350000D01*
X182157402Y-106357402D02*
X176057402Y-106357402D01*
X176050000Y-106350000D02*
X176050000Y-108500000D01*
X176050000Y-105000000D02*
X176050000Y-106350000D01*
X188700000Y-108500000D02*
X186557402Y-106357402D01*
X186557402Y-106357402D02*
X182157402Y-106357402D01*
%TO.N,GND*%
X179171099Y-106885903D02*
X176128501Y-109928501D01*
X181169373Y-106885903D02*
X179171099Y-106885903D01*
X176128501Y-109928501D02*
X170800001Y-109928501D01*
X170800001Y-109928501D02*
X170285750Y-109414250D01*
X170800001Y-102528501D02*
X170285750Y-102014250D01*
X170800001Y-95128501D02*
X170285750Y-94614250D01*
X170800001Y-87728501D02*
X170285750Y-87214250D01*
X170285750Y-102014250D02*
X170285750Y-100533295D01*
X170285750Y-94614250D02*
X170285750Y-93133295D01*
X170285750Y-87214250D02*
X170285750Y-85733295D01*
X170285750Y-100533295D02*
X169652455Y-99900000D01*
X170285750Y-93133295D02*
X169652455Y-92500000D01*
X170285750Y-85733295D02*
X169652455Y-85100000D01*
X179171099Y-99485903D02*
X176128501Y-102528501D01*
X179171099Y-92085903D02*
X176128501Y-95128501D01*
X179171099Y-84685903D02*
X176128501Y-87728501D01*
X181169373Y-99485903D02*
X179171099Y-99485903D01*
X181169373Y-92085903D02*
X179171099Y-92085903D01*
X181169373Y-84685903D02*
X179171099Y-84685903D01*
X176128501Y-102528501D02*
X170800001Y-102528501D01*
X176128501Y-95128501D02*
X170800001Y-95128501D01*
X176128501Y-87728501D02*
X170800001Y-87728501D01*
X169000000Y-92500000D02*
X169000000Y-99900000D01*
X169000000Y-85100000D02*
X169000000Y-92500000D01*
X169000000Y-81150000D02*
X169000000Y-85100000D01*
X169000000Y-99900000D02*
X169652455Y-99900000D01*
X169000000Y-92500000D02*
X169652455Y-92500000D01*
X169000000Y-85100000D02*
X169652455Y-85100000D01*
X169000000Y-107300000D02*
X169000000Y-102800000D01*
X169652455Y-107300000D02*
X169000000Y-107300000D01*
X170285750Y-107933295D02*
X169652455Y-107300000D01*
X170285750Y-109414250D02*
X170285750Y-107933295D01*
X169000000Y-102800000D02*
X169000000Y-99900000D01*
X169000000Y-111350000D02*
X168350000Y-112000000D01*
X169000000Y-107300000D02*
X169000000Y-111350000D01*
%TO.N,VCC*%
X167200000Y-99200000D02*
X167200000Y-91800000D01*
X167200000Y-91800000D02*
X167200000Y-84400000D01*
X165400000Y-102700000D02*
X167200000Y-102700000D01*
D13*
X167200000Y-109450000D02*
X164650000Y-112000000D01*
X167200000Y-106600000D02*
X167200000Y-109450000D01*
D12*
X167200000Y-106600000D02*
X167200000Y-102450000D01*
X167200000Y-102450000D02*
X167200000Y-99200000D01*
X167200000Y-102700000D02*
X167200000Y-102450000D01*
%TO.N,~add*%
X160000000Y-103900000D02*
X160000000Y-96500000D01*
X160000000Y-96500000D02*
X160000000Y-89100000D01*
X160000000Y-89100000D02*
X160000000Y-81700000D01*
X160000000Y-111050000D02*
X160950000Y-112000000D01*
X160000000Y-103900000D02*
X160000000Y-111050000D01*
%TO.N,/Co*%
X179200000Y-103600000D02*
X170200000Y-103600000D01*
X169576375Y-102976375D02*
X170200000Y-103600000D01*
X169576375Y-100600000D02*
X169576375Y-102976375D01*
%TO.N,Net-(D4-Pad2)*%
X174150000Y-104500002D02*
X173849998Y-104200000D01*
X174150000Y-108050000D02*
X174150000Y-104500002D01*
X175500000Y-109400000D02*
X174150000Y-108050000D01*
%TO.N,/Ci*%
X169576375Y-109526375D02*
X169576375Y-108000000D01*
X172050000Y-112000000D02*
X169576375Y-109526375D01*
X172050000Y-112000000D02*
X175750000Y-112000000D01*
%TO.N,CLRC*%
X185000000Y-110150000D02*
X186785511Y-108364489D01*
X185000000Y-112000000D02*
X185000000Y-110150000D01*
%TO.N,/1/B*%
X158000000Y-101100000D02*
X158900000Y-100200000D01*
X151700000Y-101100000D02*
X158000000Y-101100000D01*
%TO.N,Net-(D205-Pad2)*%
X175500000Y-102000000D02*
X174150000Y-100650000D01*
X174150000Y-100650000D02*
X174150000Y-98150000D01*
X174150000Y-98150000D02*
X174150000Y-97700000D01*
X174150000Y-97700000D02*
X174150000Y-97100002D01*
X174150000Y-97100002D02*
X173849998Y-96800000D01*
%TO.N,/1/nCi*%
X172250000Y-100700000D02*
X172250000Y-97200000D01*
%TO.N,/1/SUM*%
X182157402Y-98957402D02*
X176057402Y-98957402D01*
X176057402Y-98957402D02*
X176050000Y-98950000D01*
X176050000Y-98950000D02*
X176050000Y-101100000D01*
X176050000Y-97600000D02*
X176050000Y-98950000D01*
X187342598Y-98957402D02*
X188700000Y-97600000D01*
X182157402Y-98957402D02*
X187342598Y-98957402D01*
%TO.N,/2/Ci*%
X179200000Y-96200000D02*
X170200000Y-96200000D01*
X169576375Y-95576375D02*
X170200000Y-96200000D01*
X169576375Y-93200000D02*
X169576375Y-95576375D01*
%TO.N,/2/B*%
X158000000Y-93700000D02*
X158900000Y-92800000D01*
X151700000Y-93700000D02*
X158000000Y-93700000D01*
%TO.N,Net-(D305-Pad2)*%
X175500000Y-94600000D02*
X174150000Y-93250000D01*
X174150000Y-93250000D02*
X174150000Y-90750000D01*
X174150000Y-90750000D02*
X174150000Y-90300000D01*
X174150000Y-90300000D02*
X174150000Y-89700002D01*
X174150000Y-89700002D02*
X173849998Y-89400000D01*
%TO.N,/2/nCi*%
X172250000Y-93300000D02*
X172250000Y-89800000D01*
%TO.N,/2/SUM*%
X182157402Y-91557402D02*
X176057402Y-91557402D01*
X176057402Y-91557402D02*
X176050000Y-91550000D01*
X176050000Y-91550000D02*
X176050000Y-93700000D01*
X176050000Y-90200000D02*
X176050000Y-91550000D01*
X188700000Y-93700000D02*
X186557402Y-91557402D01*
X186557402Y-91557402D02*
X182157402Y-91557402D01*
%TO.N,/3/Ci*%
X179200000Y-88800000D02*
X170200000Y-88800000D01*
X169576375Y-88176375D02*
X170200000Y-88800000D01*
X169576375Y-85800000D02*
X169576375Y-88176375D01*
%TO.N,/3/B*%
X158000000Y-86300000D02*
X158900000Y-85400000D01*
X151700000Y-86300000D02*
X158000000Y-86300000D01*
%TO.N,Net-(D405-Pad2)*%
X175500000Y-87200000D02*
X174150000Y-85850000D01*
X174150000Y-85850000D02*
X174150000Y-83350000D01*
X174150000Y-83350000D02*
X174150000Y-82900000D01*
X174150000Y-82900000D02*
X174150000Y-82300002D01*
X174150000Y-82300002D02*
X173849998Y-82000000D01*
%TO.N,/3/nCi*%
X172250000Y-85900000D02*
X172250000Y-82400000D01*
%TO.N,/3/SUM*%
X182157402Y-84157402D02*
X176057402Y-84157402D01*
X176057402Y-84157402D02*
X176050000Y-84150000D01*
X176050000Y-84150000D02*
X176050000Y-86300000D01*
X176050000Y-82800000D02*
X176050000Y-84150000D01*
X182157402Y-84157402D02*
X187342598Y-84157402D01*
X187342598Y-84157402D02*
X188700000Y-82800000D01*
%TD*%
D14*
%TO.N,GND*%
X174480013Y-78257748D02*
X174301082Y-78525537D01*
X174177832Y-78823088D01*
X174115000Y-79138967D01*
X174115000Y-79461033D01*
X174177832Y-79776912D01*
X174301082Y-80074463D01*
X174480013Y-80342252D01*
X174707748Y-80569987D01*
X174975537Y-80748918D01*
X175273088Y-80872168D01*
X175588967Y-80935000D01*
X175911033Y-80935000D01*
X176226912Y-80872168D01*
X176524463Y-80748918D01*
X176792252Y-80569987D01*
X177019987Y-80342252D01*
X177198918Y-80074463D01*
X177322168Y-79776912D01*
X177385000Y-79461033D01*
X177385000Y-79138967D01*
X177322168Y-78823088D01*
X177198918Y-78525537D01*
X177019987Y-78257748D01*
X176972239Y-78210000D01*
X186817721Y-78210000D01*
X187439856Y-78271001D01*
X188007250Y-78442308D01*
X188530561Y-78720556D01*
X188989858Y-79095150D01*
X189367650Y-79551822D01*
X189649547Y-80073180D01*
X189824809Y-80639363D01*
X189890001Y-81259621D01*
X189890001Y-81677762D01*
X189742252Y-81530013D01*
X189474463Y-81351082D01*
X189176912Y-81227832D01*
X188861033Y-81165000D01*
X188538967Y-81165000D01*
X188223088Y-81227832D01*
X187925537Y-81351082D01*
X187657748Y-81530013D01*
X187430013Y-81757748D01*
X187251082Y-82025537D01*
X187127832Y-82323088D01*
X187065000Y-82638967D01*
X187065000Y-82961033D01*
X187127832Y-83276912D01*
X187153084Y-83337875D01*
X187047057Y-83443902D01*
X176763500Y-83443902D01*
X176763500Y-83325130D01*
X176834277Y-83219205D01*
X176900990Y-83058145D01*
X176935000Y-82887165D01*
X176935000Y-82712835D01*
X176900990Y-82541855D01*
X176834277Y-82380795D01*
X176737424Y-82235845D01*
X176614155Y-82112576D01*
X176469205Y-82015723D01*
X176308145Y-81949010D01*
X176137165Y-81915000D01*
X175962835Y-81915000D01*
X175791855Y-81949010D01*
X175630795Y-82015723D01*
X175485845Y-82112576D01*
X175362576Y-82235845D01*
X175265723Y-82380795D01*
X175199010Y-82541855D01*
X175165000Y-82712835D01*
X175165000Y-82887165D01*
X175199010Y-83058145D01*
X175265723Y-83219205D01*
X175336500Y-83325130D01*
X175336501Y-84114944D01*
X175333048Y-84150000D01*
X175336500Y-84185047D01*
X175336501Y-85774869D01*
X175265723Y-85880795D01*
X175243496Y-85934455D01*
X174863500Y-85554459D01*
X174863500Y-82335051D01*
X174866952Y-82300002D01*
X174853176Y-82160131D01*
X174812377Y-82025636D01*
X174776302Y-81958145D01*
X174746124Y-81901685D01*
X174728511Y-81880224D01*
X174700988Y-81741855D01*
X174634275Y-81580795D01*
X174537422Y-81435845D01*
X174414153Y-81312576D01*
X174269203Y-81215723D01*
X174108143Y-81149010D01*
X173937163Y-81115000D01*
X173762833Y-81115000D01*
X173591853Y-81149010D01*
X173430793Y-81215723D01*
X173285843Y-81312576D01*
X173162574Y-81435845D01*
X173065721Y-81580795D01*
X172999008Y-81741855D01*
X172970474Y-81885307D01*
X172937424Y-81835845D01*
X172814155Y-81712576D01*
X172669205Y-81615723D01*
X172508145Y-81549010D01*
X172337165Y-81515000D01*
X172162835Y-81515000D01*
X171991855Y-81549010D01*
X171830795Y-81615723D01*
X171685845Y-81712576D01*
X171562576Y-81835845D01*
X171465723Y-81980795D01*
X171399010Y-82141855D01*
X171365000Y-82312835D01*
X171365000Y-82487165D01*
X171399010Y-82658145D01*
X171465723Y-82819205D01*
X171536501Y-82925131D01*
X171536500Y-85374870D01*
X171465723Y-85480795D01*
X171399010Y-85641855D01*
X171365000Y-85812835D01*
X171365000Y-85987165D01*
X171399010Y-86158145D01*
X171465723Y-86319205D01*
X171562576Y-86464155D01*
X171685845Y-86587424D01*
X171830795Y-86684277D01*
X171991855Y-86750990D01*
X172162835Y-86785000D01*
X172337165Y-86785000D01*
X172508145Y-86750990D01*
X172669205Y-86684277D01*
X172814155Y-86587424D01*
X172937424Y-86464155D01*
X173034277Y-86319205D01*
X173100990Y-86158145D01*
X173135000Y-85987165D01*
X173135000Y-85812835D01*
X173100990Y-85641855D01*
X173034277Y-85480795D01*
X172963500Y-85374870D01*
X172963500Y-82925130D01*
X173034277Y-82819205D01*
X173100990Y-82658145D01*
X173129524Y-82514693D01*
X173162574Y-82564155D01*
X173285843Y-82687424D01*
X173430793Y-82784277D01*
X173436500Y-82786641D01*
X173436500Y-83385048D01*
X173436501Y-83385058D01*
X173436500Y-85814954D01*
X173433048Y-85850000D01*
X173436500Y-85885046D01*
X173436500Y-85885048D01*
X173446824Y-85989869D01*
X173487623Y-86124365D01*
X173553876Y-86248316D01*
X173643038Y-86356961D01*
X173670263Y-86379304D01*
X174624156Y-87333197D01*
X174649010Y-87458145D01*
X174715723Y-87619205D01*
X174812576Y-87764155D01*
X174935845Y-87887424D01*
X175080795Y-87984277D01*
X175241855Y-88050990D01*
X175412835Y-88085000D01*
X175587165Y-88085000D01*
X175758145Y-88050990D01*
X175919205Y-87984277D01*
X176064155Y-87887424D01*
X176187424Y-87764155D01*
X176284277Y-87619205D01*
X176350990Y-87458145D01*
X176385000Y-87287165D01*
X176385000Y-87119156D01*
X176469205Y-87084277D01*
X176614155Y-86987424D01*
X176737424Y-86864155D01*
X176834277Y-86719205D01*
X176900990Y-86558145D01*
X176935000Y-86387165D01*
X176935000Y-86212835D01*
X176900990Y-86041855D01*
X176834277Y-85880795D01*
X176763500Y-85774870D01*
X176763500Y-84870902D01*
X187307552Y-84870902D01*
X187342598Y-84874354D01*
X187377644Y-84870902D01*
X187377647Y-84870902D01*
X187482468Y-84860578D01*
X187616964Y-84819779D01*
X187740915Y-84753526D01*
X187849560Y-84664364D01*
X187871907Y-84637134D01*
X188162125Y-84346916D01*
X188223088Y-84372168D01*
X188538967Y-84435000D01*
X188861033Y-84435000D01*
X189176912Y-84372168D01*
X189474463Y-84248918D01*
X189742252Y-84069987D01*
X189890001Y-83922238D01*
X189890001Y-92577762D01*
X189742252Y-92430013D01*
X189474463Y-92251082D01*
X189176912Y-92127832D01*
X188861033Y-92065000D01*
X188538967Y-92065000D01*
X188223088Y-92127832D01*
X188162125Y-92153084D01*
X187086711Y-91077670D01*
X187064364Y-91050440D01*
X186955719Y-90961278D01*
X186831768Y-90895025D01*
X186697272Y-90854226D01*
X186592451Y-90843902D01*
X186592448Y-90843902D01*
X186557402Y-90840450D01*
X186522356Y-90843902D01*
X176763500Y-90843902D01*
X176763500Y-90725130D01*
X176834277Y-90619205D01*
X176900990Y-90458145D01*
X176935000Y-90287165D01*
X176935000Y-90112835D01*
X176900990Y-89941855D01*
X176834277Y-89780795D01*
X176737424Y-89635845D01*
X176615079Y-89513500D01*
X178674870Y-89513500D01*
X178780795Y-89584277D01*
X178941855Y-89650990D01*
X179112835Y-89685000D01*
X179287165Y-89685000D01*
X179458145Y-89650990D01*
X179619205Y-89584277D01*
X179764155Y-89487424D01*
X179887424Y-89364155D01*
X179984277Y-89219205D01*
X180050990Y-89058145D01*
X180085000Y-88887165D01*
X180085000Y-88712835D01*
X180050990Y-88541855D01*
X179984277Y-88380795D01*
X179887424Y-88235845D01*
X179764155Y-88112576D01*
X179619205Y-88015723D01*
X179458145Y-87949010D01*
X179287165Y-87915000D01*
X179112835Y-87915000D01*
X178941855Y-87949010D01*
X178780795Y-88015723D01*
X178674870Y-88086500D01*
X170495542Y-88086500D01*
X170289875Y-87880834D01*
X170289875Y-86325130D01*
X170360652Y-86219205D01*
X170427365Y-86058145D01*
X170461375Y-85887165D01*
X170461375Y-85712835D01*
X170427365Y-85541855D01*
X170360652Y-85380795D01*
X170263799Y-85235845D01*
X170140530Y-85112576D01*
X169995580Y-85015723D01*
X169834520Y-84949010D01*
X169663540Y-84915000D01*
X169489210Y-84915000D01*
X169318230Y-84949010D01*
X169157170Y-85015723D01*
X169012220Y-85112576D01*
X168888951Y-85235845D01*
X168792098Y-85380795D01*
X168725385Y-85541855D01*
X168691375Y-85712835D01*
X168691375Y-85887165D01*
X168725385Y-86058145D01*
X168792098Y-86219205D01*
X168862875Y-86325130D01*
X168862876Y-88141319D01*
X168859423Y-88176375D01*
X168873200Y-88316245D01*
X168913998Y-88450740D01*
X168980252Y-88574692D01*
X169023863Y-88627832D01*
X169069414Y-88683337D01*
X169096638Y-88705679D01*
X169670696Y-89279738D01*
X169693038Y-89306962D01*
X169801683Y-89396124D01*
X169925634Y-89462377D01*
X170060129Y-89503176D01*
X170200000Y-89516952D01*
X170235049Y-89513500D01*
X171410755Y-89513500D01*
X171399010Y-89541855D01*
X171365000Y-89712835D01*
X171365000Y-89887165D01*
X171399010Y-90058145D01*
X171465723Y-90219205D01*
X171536501Y-90325131D01*
X171536500Y-92774870D01*
X171465723Y-92880795D01*
X171399010Y-93041855D01*
X171365000Y-93212835D01*
X171365000Y-93387165D01*
X171399010Y-93558145D01*
X171465723Y-93719205D01*
X171562576Y-93864155D01*
X171685845Y-93987424D01*
X171830795Y-94084277D01*
X171991855Y-94150990D01*
X172162835Y-94185000D01*
X172337165Y-94185000D01*
X172508145Y-94150990D01*
X172669205Y-94084277D01*
X172814155Y-93987424D01*
X172937424Y-93864155D01*
X173034277Y-93719205D01*
X173100990Y-93558145D01*
X173135000Y-93387165D01*
X173135000Y-93212835D01*
X173100990Y-93041855D01*
X173034277Y-92880795D01*
X172963500Y-92774870D01*
X172963500Y-90325130D01*
X173034277Y-90219205D01*
X173100990Y-90058145D01*
X173129524Y-89914693D01*
X173162574Y-89964155D01*
X173285843Y-90087424D01*
X173430793Y-90184277D01*
X173436500Y-90186641D01*
X173436500Y-90785048D01*
X173436501Y-90785058D01*
X173436500Y-93214954D01*
X173433048Y-93250000D01*
X173436500Y-93285046D01*
X173436500Y-93285048D01*
X173446824Y-93389869D01*
X173487623Y-93524365D01*
X173553876Y-93648316D01*
X173643038Y-93756961D01*
X173670263Y-93779304D01*
X174624156Y-94733197D01*
X174649010Y-94858145D01*
X174715723Y-95019205D01*
X174812576Y-95164155D01*
X174935845Y-95287424D01*
X175080795Y-95384277D01*
X175241855Y-95450990D01*
X175412835Y-95485000D01*
X175587165Y-95485000D01*
X175758145Y-95450990D01*
X175919205Y-95384277D01*
X176064155Y-95287424D01*
X176187424Y-95164155D01*
X176284277Y-95019205D01*
X176350990Y-94858145D01*
X176385000Y-94687165D01*
X176385000Y-94519156D01*
X176469205Y-94484277D01*
X176614155Y-94387424D01*
X176737424Y-94264155D01*
X176834277Y-94119205D01*
X176900990Y-93958145D01*
X176935000Y-93787165D01*
X176935000Y-93612835D01*
X176900990Y-93441855D01*
X176834277Y-93280795D01*
X176763500Y-93174870D01*
X176763500Y-92270902D01*
X186261861Y-92270902D01*
X187153084Y-93162125D01*
X187127832Y-93223088D01*
X187065000Y-93538967D01*
X187065000Y-93861033D01*
X187127832Y-94176912D01*
X187251082Y-94474463D01*
X187430013Y-94742252D01*
X187657748Y-94969987D01*
X187925537Y-95148918D01*
X188223088Y-95272168D01*
X188538967Y-95335000D01*
X188861033Y-95335000D01*
X189176912Y-95272168D01*
X189474463Y-95148918D01*
X189742252Y-94969987D01*
X189890001Y-94822238D01*
X189890000Y-96477761D01*
X189742252Y-96330013D01*
X189474463Y-96151082D01*
X189176912Y-96027832D01*
X188861033Y-95965000D01*
X188538967Y-95965000D01*
X188223088Y-96027832D01*
X187925537Y-96151082D01*
X187657748Y-96330013D01*
X187430013Y-96557748D01*
X187251082Y-96825537D01*
X187127832Y-97123088D01*
X187065000Y-97438967D01*
X187065000Y-97761033D01*
X187127832Y-98076912D01*
X187153084Y-98137875D01*
X187047057Y-98243902D01*
X176763500Y-98243902D01*
X176763500Y-98125130D01*
X176834277Y-98019205D01*
X176900990Y-97858145D01*
X176935000Y-97687165D01*
X176935000Y-97512835D01*
X176900990Y-97341855D01*
X176834277Y-97180795D01*
X176737424Y-97035845D01*
X176615079Y-96913500D01*
X178674870Y-96913500D01*
X178780795Y-96984277D01*
X178941855Y-97050990D01*
X179112835Y-97085000D01*
X179287165Y-97085000D01*
X179458145Y-97050990D01*
X179619205Y-96984277D01*
X179764155Y-96887424D01*
X179887424Y-96764155D01*
X179984277Y-96619205D01*
X180050990Y-96458145D01*
X180085000Y-96287165D01*
X180085000Y-96112835D01*
X180050990Y-95941855D01*
X179984277Y-95780795D01*
X179887424Y-95635845D01*
X179764155Y-95512576D01*
X179619205Y-95415723D01*
X179458145Y-95349010D01*
X179287165Y-95315000D01*
X179112835Y-95315000D01*
X178941855Y-95349010D01*
X178780795Y-95415723D01*
X178674870Y-95486500D01*
X170495542Y-95486500D01*
X170289875Y-95280834D01*
X170289875Y-93725130D01*
X170360652Y-93619205D01*
X170427365Y-93458145D01*
X170461375Y-93287165D01*
X170461375Y-93112835D01*
X170427365Y-92941855D01*
X170360652Y-92780795D01*
X170263799Y-92635845D01*
X170140530Y-92512576D01*
X169995580Y-92415723D01*
X169834520Y-92349010D01*
X169663540Y-92315000D01*
X169489210Y-92315000D01*
X169318230Y-92349010D01*
X169157170Y-92415723D01*
X169012220Y-92512576D01*
X168888951Y-92635845D01*
X168792098Y-92780795D01*
X168725385Y-92941855D01*
X168691375Y-93112835D01*
X168691375Y-93287165D01*
X168725385Y-93458145D01*
X168792098Y-93619205D01*
X168862875Y-93725130D01*
X168862876Y-95541319D01*
X168859423Y-95576375D01*
X168873200Y-95716245D01*
X168913998Y-95850740D01*
X168980252Y-95974692D01*
X169023863Y-96027832D01*
X169069414Y-96083337D01*
X169096638Y-96105679D01*
X169670696Y-96679738D01*
X169693038Y-96706962D01*
X169801683Y-96796124D01*
X169925634Y-96862377D01*
X170060129Y-96903176D01*
X170200000Y-96916952D01*
X170235049Y-96913500D01*
X171410755Y-96913500D01*
X171399010Y-96941855D01*
X171365000Y-97112835D01*
X171365000Y-97287165D01*
X171399010Y-97458145D01*
X171465723Y-97619205D01*
X171536501Y-97725131D01*
X171536500Y-100174870D01*
X171465723Y-100280795D01*
X171399010Y-100441855D01*
X171365000Y-100612835D01*
X171365000Y-100787165D01*
X171399010Y-100958145D01*
X171465723Y-101119205D01*
X171562576Y-101264155D01*
X171685845Y-101387424D01*
X171830795Y-101484277D01*
X171991855Y-101550990D01*
X172162835Y-101585000D01*
X172337165Y-101585000D01*
X172508145Y-101550990D01*
X172669205Y-101484277D01*
X172814155Y-101387424D01*
X172937424Y-101264155D01*
X173034277Y-101119205D01*
X173100990Y-100958145D01*
X173135000Y-100787165D01*
X173135000Y-100612835D01*
X173100990Y-100441855D01*
X173034277Y-100280795D01*
X172963500Y-100174870D01*
X172963500Y-97725130D01*
X173034277Y-97619205D01*
X173100990Y-97458145D01*
X173129524Y-97314693D01*
X173162574Y-97364155D01*
X173285843Y-97487424D01*
X173430793Y-97584277D01*
X173436500Y-97586641D01*
X173436500Y-98185048D01*
X173436501Y-98185058D01*
X173436500Y-100614954D01*
X173433048Y-100650000D01*
X173436500Y-100685046D01*
X173436500Y-100685048D01*
X173446824Y-100789869D01*
X173487623Y-100924365D01*
X173553876Y-101048316D01*
X173643038Y-101156961D01*
X173670263Y-101179304D01*
X174624156Y-102133197D01*
X174649010Y-102258145D01*
X174715723Y-102419205D01*
X174812576Y-102564155D01*
X174935845Y-102687424D01*
X175080795Y-102784277D01*
X175241855Y-102850990D01*
X175412835Y-102885000D01*
X175587165Y-102885000D01*
X175758145Y-102850990D01*
X175919205Y-102784277D01*
X176064155Y-102687424D01*
X176187424Y-102564155D01*
X176284277Y-102419205D01*
X176350990Y-102258145D01*
X176385000Y-102087165D01*
X176385000Y-101919156D01*
X176469205Y-101884277D01*
X176614155Y-101787424D01*
X176737424Y-101664155D01*
X176834277Y-101519205D01*
X176900990Y-101358145D01*
X176935000Y-101187165D01*
X176935000Y-101012835D01*
X176900990Y-100841855D01*
X176834277Y-100680795D01*
X176763500Y-100574870D01*
X176763500Y-99670902D01*
X187307552Y-99670902D01*
X187342598Y-99674354D01*
X187377644Y-99670902D01*
X187377647Y-99670902D01*
X187482468Y-99660578D01*
X187616964Y-99619779D01*
X187740915Y-99553526D01*
X187849560Y-99464364D01*
X187871907Y-99437134D01*
X188162125Y-99146916D01*
X188223088Y-99172168D01*
X188538967Y-99235000D01*
X188861033Y-99235000D01*
X189176912Y-99172168D01*
X189474463Y-99048918D01*
X189742252Y-98869987D01*
X189890000Y-98722239D01*
X189890000Y-107377761D01*
X189742252Y-107230013D01*
X189474463Y-107051082D01*
X189176912Y-106927832D01*
X188861033Y-106865000D01*
X188538967Y-106865000D01*
X188223088Y-106927832D01*
X188162125Y-106953084D01*
X187086711Y-105877670D01*
X187064364Y-105850440D01*
X186955719Y-105761278D01*
X186831768Y-105695025D01*
X186697272Y-105654226D01*
X186592451Y-105643902D01*
X186592448Y-105643902D01*
X186557402Y-105640450D01*
X186522356Y-105643902D01*
X176763500Y-105643902D01*
X176763500Y-105525130D01*
X176834277Y-105419205D01*
X176900990Y-105258145D01*
X176935000Y-105087165D01*
X176935000Y-104912835D01*
X176900990Y-104741855D01*
X176834277Y-104580795D01*
X176737424Y-104435845D01*
X176615079Y-104313500D01*
X178674870Y-104313500D01*
X178780795Y-104384277D01*
X178941855Y-104450990D01*
X179112835Y-104485000D01*
X179287165Y-104485000D01*
X179458145Y-104450990D01*
X179619205Y-104384277D01*
X179764155Y-104287424D01*
X179887424Y-104164155D01*
X179984277Y-104019205D01*
X180050990Y-103858145D01*
X180085000Y-103687165D01*
X180085000Y-103512835D01*
X180050990Y-103341855D01*
X179984277Y-103180795D01*
X179887424Y-103035845D01*
X179764155Y-102912576D01*
X179619205Y-102815723D01*
X179458145Y-102749010D01*
X179287165Y-102715000D01*
X179112835Y-102715000D01*
X178941855Y-102749010D01*
X178780795Y-102815723D01*
X178674870Y-102886500D01*
X170495542Y-102886500D01*
X170289875Y-102680834D01*
X170289875Y-101125130D01*
X170360652Y-101019205D01*
X170427365Y-100858145D01*
X170461375Y-100687165D01*
X170461375Y-100512835D01*
X170427365Y-100341855D01*
X170360652Y-100180795D01*
X170263799Y-100035845D01*
X170140530Y-99912576D01*
X169995580Y-99815723D01*
X169834520Y-99749010D01*
X169663540Y-99715000D01*
X169489210Y-99715000D01*
X169318230Y-99749010D01*
X169157170Y-99815723D01*
X169012220Y-99912576D01*
X168888951Y-100035845D01*
X168792098Y-100180795D01*
X168725385Y-100341855D01*
X168691375Y-100512835D01*
X168691375Y-100687165D01*
X168725385Y-100858145D01*
X168792098Y-101019205D01*
X168862875Y-101125130D01*
X168862876Y-102941319D01*
X168859423Y-102976375D01*
X168873200Y-103116245D01*
X168913998Y-103250740D01*
X168980252Y-103374692D01*
X169023863Y-103427832D01*
X169069414Y-103483337D01*
X169096638Y-103505679D01*
X169670696Y-104079738D01*
X169693038Y-104106962D01*
X169801683Y-104196124D01*
X169925634Y-104262377D01*
X170060129Y-104303176D01*
X170200000Y-104316952D01*
X170235049Y-104313500D01*
X171410755Y-104313500D01*
X171399010Y-104341855D01*
X171365000Y-104512835D01*
X171365000Y-104687165D01*
X171399010Y-104858145D01*
X171465723Y-105019205D01*
X171536501Y-105125131D01*
X171536500Y-107574870D01*
X171465723Y-107680795D01*
X171399010Y-107841855D01*
X171365000Y-108012835D01*
X171365000Y-108187165D01*
X171399010Y-108358145D01*
X171465723Y-108519205D01*
X171562576Y-108664155D01*
X171685845Y-108787424D01*
X171830795Y-108884277D01*
X171991855Y-108950990D01*
X172162835Y-108985000D01*
X172337165Y-108985000D01*
X172508145Y-108950990D01*
X172669205Y-108884277D01*
X172814155Y-108787424D01*
X172937424Y-108664155D01*
X173034277Y-108519205D01*
X173100990Y-108358145D01*
X173135000Y-108187165D01*
X173135000Y-108012835D01*
X173100990Y-107841855D01*
X173034277Y-107680795D01*
X172963500Y-107574870D01*
X172963500Y-105125130D01*
X173034277Y-105019205D01*
X173100990Y-104858145D01*
X173129524Y-104714693D01*
X173162574Y-104764155D01*
X173285843Y-104887424D01*
X173430793Y-104984277D01*
X173436501Y-104986641D01*
X173436500Y-108014954D01*
X173433048Y-108050000D01*
X173436500Y-108085046D01*
X173436500Y-108085048D01*
X173446824Y-108189869D01*
X173487623Y-108324365D01*
X173553876Y-108448316D01*
X173643038Y-108556961D01*
X173670263Y-108579304D01*
X174624156Y-109533197D01*
X174649010Y-109658145D01*
X174715723Y-109819205D01*
X174812576Y-109964155D01*
X174935845Y-110087424D01*
X175080795Y-110184277D01*
X175241855Y-110250990D01*
X175412835Y-110285000D01*
X175587165Y-110285000D01*
X175758145Y-110250990D01*
X175919205Y-110184277D01*
X176064155Y-110087424D01*
X176187424Y-109964155D01*
X176284277Y-109819205D01*
X176350990Y-109658145D01*
X176385000Y-109487165D01*
X176385000Y-109319156D01*
X176469205Y-109284277D01*
X176614155Y-109187424D01*
X176737424Y-109064155D01*
X176834277Y-108919205D01*
X176900990Y-108758145D01*
X176935000Y-108587165D01*
X176935000Y-108412835D01*
X176900990Y-108241855D01*
X176834277Y-108080795D01*
X176763500Y-107974870D01*
X176763500Y-107070902D01*
X186261861Y-107070902D01*
X186675077Y-107484118D01*
X186527366Y-107513499D01*
X186366306Y-107580212D01*
X186221356Y-107677065D01*
X186098087Y-107800334D01*
X186001234Y-107945284D01*
X185934521Y-108106344D01*
X185909668Y-108231291D01*
X184520263Y-109620696D01*
X184493039Y-109643038D01*
X184470697Y-109670262D01*
X184470696Y-109670263D01*
X184403877Y-109751683D01*
X184337623Y-109875635D01*
X184296825Y-110010130D01*
X184283048Y-110150000D01*
X184286501Y-110185056D01*
X184286501Y-110525830D01*
X184225537Y-110551082D01*
X183957748Y-110730013D01*
X183730013Y-110957748D01*
X183551082Y-111225537D01*
X183427832Y-111523088D01*
X183365000Y-111838967D01*
X183365000Y-112161033D01*
X183427832Y-112476912D01*
X183551082Y-112774463D01*
X183730013Y-113042252D01*
X183777761Y-113090000D01*
X176972239Y-113090000D01*
X177019987Y-113042252D01*
X177198918Y-112774463D01*
X177322168Y-112476912D01*
X177385000Y-112161033D01*
X177385000Y-111838967D01*
X177322168Y-111523088D01*
X177198918Y-111225537D01*
X177019987Y-110957748D01*
X176792252Y-110730013D01*
X176524463Y-110551082D01*
X176226912Y-110427832D01*
X175911033Y-110365000D01*
X175588967Y-110365000D01*
X175273088Y-110427832D01*
X174975537Y-110551082D01*
X174707748Y-110730013D01*
X174480013Y-110957748D01*
X174301082Y-111225537D01*
X174275830Y-111286500D01*
X172345542Y-111286500D01*
X170289875Y-109230834D01*
X170289875Y-108525130D01*
X170360652Y-108419205D01*
X170427365Y-108258145D01*
X170461375Y-108087165D01*
X170461375Y-107912835D01*
X170427365Y-107741855D01*
X170360652Y-107580795D01*
X170263799Y-107435845D01*
X170140530Y-107312576D01*
X169995580Y-107215723D01*
X169834520Y-107149010D01*
X169663540Y-107115000D01*
X169489210Y-107115000D01*
X169318230Y-107149010D01*
X169157170Y-107215723D01*
X169012220Y-107312576D01*
X168888951Y-107435845D01*
X168792098Y-107580795D01*
X168725385Y-107741855D01*
X168691375Y-107912835D01*
X168691375Y-108087165D01*
X168725385Y-108258145D01*
X168792098Y-108419205D01*
X168862876Y-108525131D01*
X168862875Y-109491328D01*
X168859423Y-109526375D01*
X168862875Y-109561421D01*
X168862875Y-109561423D01*
X168873199Y-109666244D01*
X168913998Y-109800740D01*
X168980251Y-109924691D01*
X169069413Y-110033336D01*
X169096638Y-110055679D01*
X171520696Y-112479738D01*
X171543038Y-112506962D01*
X171651683Y-112596124D01*
X171775634Y-112662377D01*
X171910130Y-112703176D01*
X172014951Y-112713500D01*
X172014953Y-112713500D01*
X172049999Y-112716952D01*
X172085045Y-112713500D01*
X174275830Y-112713500D01*
X174301082Y-112774463D01*
X174480013Y-113042252D01*
X174527761Y-113090000D01*
X169582558Y-113090000D01*
X169601083Y-113071475D01*
X169485415Y-112955807D01*
X169749814Y-112860044D01*
X169890704Y-112570429D01*
X169972384Y-112258892D01*
X169991718Y-111937405D01*
X169947961Y-111618325D01*
X169842795Y-111313912D01*
X169749814Y-111139956D01*
X169485413Y-111044192D01*
X168529605Y-112000000D01*
X168543748Y-112014143D01*
X168364143Y-112193748D01*
X168350000Y-112179605D01*
X168335858Y-112193748D01*
X168156253Y-112014143D01*
X168170395Y-112000000D01*
X167214587Y-111044192D01*
X166950186Y-111139956D01*
X166809296Y-111429571D01*
X166727616Y-111741108D01*
X166708282Y-112062595D01*
X166752039Y-112381675D01*
X166857205Y-112686088D01*
X166950186Y-112860044D01*
X167214585Y-112955807D01*
X167098917Y-113071475D01*
X167117442Y-113090000D01*
X165872239Y-113090000D01*
X165919987Y-113042252D01*
X166098918Y-112774463D01*
X166222168Y-112476912D01*
X166285000Y-112161033D01*
X166285000Y-111838967D01*
X166222168Y-111523088D01*
X166205822Y-111483625D01*
X166824860Y-110864587D01*
X167394192Y-110864587D01*
X168350000Y-111820395D01*
X169305808Y-110864587D01*
X169210044Y-110600186D01*
X168920429Y-110459296D01*
X168608892Y-110377616D01*
X168287405Y-110358282D01*
X167968325Y-110402039D01*
X167663912Y-110507205D01*
X167489956Y-110600186D01*
X167394192Y-110864587D01*
X166824860Y-110864587D01*
X167694193Y-109995254D01*
X167722238Y-109972238D01*
X167814087Y-109860320D01*
X167819370Y-109850436D01*
X167882337Y-109732634D01*
X167924365Y-109594085D01*
X167938556Y-109450000D01*
X167935000Y-109413895D01*
X167935000Y-107092953D01*
X167984277Y-107019205D01*
X168050990Y-106858145D01*
X168085000Y-106687165D01*
X168085000Y-106512835D01*
X168050990Y-106341855D01*
X167984277Y-106180795D01*
X167913500Y-106074870D01*
X167913500Y-102735048D01*
X167916952Y-102700000D01*
X167913500Y-102664951D01*
X167913500Y-99725130D01*
X167984277Y-99619205D01*
X168050990Y-99458145D01*
X168085000Y-99287165D01*
X168085000Y-99112835D01*
X168050990Y-98941855D01*
X167984277Y-98780795D01*
X167913500Y-98674870D01*
X167913500Y-92325130D01*
X167984277Y-92219205D01*
X168050990Y-92058145D01*
X168085000Y-91887165D01*
X168085000Y-91712835D01*
X168050990Y-91541855D01*
X167984277Y-91380795D01*
X167913500Y-91274870D01*
X167913500Y-84925130D01*
X167984277Y-84819205D01*
X168050990Y-84658145D01*
X168085000Y-84487165D01*
X168085000Y-84312835D01*
X168050990Y-84141855D01*
X167984277Y-83980795D01*
X167887424Y-83835845D01*
X167764155Y-83712576D01*
X167619205Y-83615723D01*
X167458145Y-83549010D01*
X167287165Y-83515000D01*
X167112835Y-83515000D01*
X166941855Y-83549010D01*
X166780795Y-83615723D01*
X166635845Y-83712576D01*
X166512576Y-83835845D01*
X166415723Y-83980795D01*
X166349010Y-84141855D01*
X166315000Y-84312835D01*
X166315000Y-84487165D01*
X166349010Y-84658145D01*
X166415723Y-84819205D01*
X166486501Y-84925131D01*
X166486500Y-91274870D01*
X166415723Y-91380795D01*
X166349010Y-91541855D01*
X166315000Y-91712835D01*
X166315000Y-91887165D01*
X166349010Y-92058145D01*
X166415723Y-92219205D01*
X166486501Y-92325131D01*
X166486500Y-98674870D01*
X166415723Y-98780795D01*
X166349010Y-98941855D01*
X166315000Y-99112835D01*
X166315000Y-99287165D01*
X166349010Y-99458145D01*
X166415723Y-99619205D01*
X166486501Y-99725131D01*
X166486500Y-101986500D01*
X165925130Y-101986500D01*
X165819205Y-101915723D01*
X165658145Y-101849010D01*
X165487165Y-101815000D01*
X165312835Y-101815000D01*
X165141855Y-101849010D01*
X164980795Y-101915723D01*
X164835845Y-102012576D01*
X164712576Y-102135845D01*
X164615723Y-102280795D01*
X164549010Y-102441855D01*
X164515000Y-102612835D01*
X164515000Y-102787165D01*
X164549010Y-102958145D01*
X164615723Y-103119205D01*
X164712576Y-103264155D01*
X164835845Y-103387424D01*
X164980795Y-103484277D01*
X165141855Y-103550990D01*
X165312835Y-103585000D01*
X165487165Y-103585000D01*
X165658145Y-103550990D01*
X165819205Y-103484277D01*
X165925130Y-103413500D01*
X166486501Y-103413500D01*
X166486500Y-106074870D01*
X166415723Y-106180795D01*
X166349010Y-106341855D01*
X166315000Y-106512835D01*
X166315000Y-106687165D01*
X166349010Y-106858145D01*
X166415723Y-107019205D01*
X166465000Y-107092953D01*
X166465001Y-109145552D01*
X165166375Y-110444178D01*
X165126912Y-110427832D01*
X164811033Y-110365000D01*
X164488967Y-110365000D01*
X164173088Y-110427832D01*
X163875537Y-110551082D01*
X163607748Y-110730013D01*
X163380013Y-110957748D01*
X163201082Y-111225537D01*
X163077832Y-111523088D01*
X163015000Y-111838967D01*
X163015000Y-112161033D01*
X163077832Y-112476912D01*
X163201082Y-112774463D01*
X163380013Y-113042252D01*
X163427761Y-113090000D01*
X162172239Y-113090000D01*
X162219987Y-113042252D01*
X162398918Y-112774463D01*
X162522168Y-112476912D01*
X162585000Y-112161033D01*
X162585000Y-111838967D01*
X162522168Y-111523088D01*
X162398918Y-111225537D01*
X162219987Y-110957748D01*
X161992252Y-110730013D01*
X161724463Y-110551082D01*
X161426912Y-110427832D01*
X161111033Y-110365000D01*
X160788967Y-110365000D01*
X160713500Y-110380011D01*
X160713500Y-104425130D01*
X160784277Y-104319205D01*
X160850990Y-104158145D01*
X160885000Y-103987165D01*
X160885000Y-103812835D01*
X160850990Y-103641855D01*
X160784277Y-103480795D01*
X160713500Y-103374870D01*
X160713500Y-97025130D01*
X160784277Y-96919205D01*
X160850990Y-96758145D01*
X160885000Y-96587165D01*
X160885000Y-96412835D01*
X160850990Y-96241855D01*
X160784277Y-96080795D01*
X160713500Y-95974870D01*
X160713500Y-89625130D01*
X160784277Y-89519205D01*
X160850990Y-89358145D01*
X160885000Y-89187165D01*
X160885000Y-89012835D01*
X160850990Y-88841855D01*
X160784277Y-88680795D01*
X160713500Y-88574870D01*
X160713500Y-82225130D01*
X160784277Y-82119205D01*
X160850990Y-81958145D01*
X160885000Y-81787165D01*
X160885000Y-81612835D01*
X160850990Y-81441855D01*
X160784277Y-81280795D01*
X160687424Y-81135845D01*
X160564155Y-81012576D01*
X160419205Y-80915723D01*
X160258145Y-80849010D01*
X160087165Y-80815000D01*
X159912835Y-80815000D01*
X159741855Y-80849010D01*
X159580795Y-80915723D01*
X159435845Y-81012576D01*
X159312576Y-81135845D01*
X159215723Y-81280795D01*
X159149010Y-81441855D01*
X159115000Y-81612835D01*
X159115000Y-81787165D01*
X159149010Y-81958145D01*
X159215723Y-82119205D01*
X159286501Y-82225131D01*
X159286501Y-84602176D01*
X159158145Y-84549010D01*
X158987165Y-84515000D01*
X158812835Y-84515000D01*
X158641855Y-84549010D01*
X158480795Y-84615723D01*
X158335845Y-84712576D01*
X158212576Y-84835845D01*
X158115723Y-84980795D01*
X158049010Y-85141855D01*
X158024156Y-85266803D01*
X157704459Y-85586500D01*
X153174170Y-85586500D01*
X153148918Y-85525537D01*
X152969987Y-85257748D01*
X152742252Y-85030013D01*
X152474463Y-84851082D01*
X152176912Y-84727832D01*
X151861033Y-84665000D01*
X151538967Y-84665000D01*
X151223088Y-84727832D01*
X150925537Y-84851082D01*
X150657748Y-85030013D01*
X150510000Y-85177761D01*
X150510000Y-83922239D01*
X150657748Y-84069987D01*
X150925537Y-84248918D01*
X151223088Y-84372168D01*
X151538967Y-84435000D01*
X151861033Y-84435000D01*
X152176912Y-84372168D01*
X152474463Y-84248918D01*
X152742252Y-84069987D01*
X152969987Y-83842252D01*
X153148918Y-83574463D01*
X153272168Y-83276912D01*
X153335000Y-82961033D01*
X153335000Y-82638967D01*
X153272168Y-82323088D01*
X153148918Y-82025537D01*
X152969987Y-81757748D01*
X152742252Y-81530013D01*
X152474463Y-81351082D01*
X152176912Y-81227832D01*
X151861033Y-81165000D01*
X151538967Y-81165000D01*
X151223088Y-81227832D01*
X150925537Y-81351082D01*
X150657748Y-81530013D01*
X150510000Y-81677761D01*
X150510000Y-81282279D01*
X150571001Y-80660144D01*
X150742308Y-80092750D01*
X151020556Y-79569439D01*
X151395150Y-79110142D01*
X151851822Y-78732350D01*
X152373180Y-78450453D01*
X152939363Y-78275191D01*
X153559612Y-78210000D01*
X174527761Y-78210000D01*
X174480013Y-78257748D01*
%TA.AperFunction,Conductor*%
D15*
G36*
X174480013Y-78257748D02*
G01*
X174301082Y-78525537D01*
X174177832Y-78823088D01*
X174115000Y-79138967D01*
X174115000Y-79461033D01*
X174177832Y-79776912D01*
X174301082Y-80074463D01*
X174480013Y-80342252D01*
X174707748Y-80569987D01*
X174975537Y-80748918D01*
X175273088Y-80872168D01*
X175588967Y-80935000D01*
X175911033Y-80935000D01*
X176226912Y-80872168D01*
X176524463Y-80748918D01*
X176792252Y-80569987D01*
X177019987Y-80342252D01*
X177198918Y-80074463D01*
X177322168Y-79776912D01*
X177385000Y-79461033D01*
X177385000Y-79138967D01*
X177322168Y-78823088D01*
X177198918Y-78525537D01*
X177019987Y-78257748D01*
X176972239Y-78210000D01*
X186817721Y-78210000D01*
X187439856Y-78271001D01*
X188007250Y-78442308D01*
X188530561Y-78720556D01*
X188989858Y-79095150D01*
X189367650Y-79551822D01*
X189649547Y-80073180D01*
X189824809Y-80639363D01*
X189890001Y-81259621D01*
X189890001Y-81677762D01*
X189742252Y-81530013D01*
X189474463Y-81351082D01*
X189176912Y-81227832D01*
X188861033Y-81165000D01*
X188538967Y-81165000D01*
X188223088Y-81227832D01*
X187925537Y-81351082D01*
X187657748Y-81530013D01*
X187430013Y-81757748D01*
X187251082Y-82025537D01*
X187127832Y-82323088D01*
X187065000Y-82638967D01*
X187065000Y-82961033D01*
X187127832Y-83276912D01*
X187153084Y-83337875D01*
X187047057Y-83443902D01*
X176763500Y-83443902D01*
X176763500Y-83325130D01*
X176834277Y-83219205D01*
X176900990Y-83058145D01*
X176935000Y-82887165D01*
X176935000Y-82712835D01*
X176900990Y-82541855D01*
X176834277Y-82380795D01*
X176737424Y-82235845D01*
X176614155Y-82112576D01*
X176469205Y-82015723D01*
X176308145Y-81949010D01*
X176137165Y-81915000D01*
X175962835Y-81915000D01*
X175791855Y-81949010D01*
X175630795Y-82015723D01*
X175485845Y-82112576D01*
X175362576Y-82235845D01*
X175265723Y-82380795D01*
X175199010Y-82541855D01*
X175165000Y-82712835D01*
X175165000Y-82887165D01*
X175199010Y-83058145D01*
X175265723Y-83219205D01*
X175336500Y-83325130D01*
X175336501Y-84114944D01*
X175333048Y-84150000D01*
X175336500Y-84185047D01*
X175336501Y-85774869D01*
X175265723Y-85880795D01*
X175243496Y-85934455D01*
X174863500Y-85554459D01*
X174863500Y-82335051D01*
X174866952Y-82300002D01*
X174853176Y-82160131D01*
X174812377Y-82025636D01*
X174776302Y-81958145D01*
X174746124Y-81901685D01*
X174728511Y-81880224D01*
X174700988Y-81741855D01*
X174634275Y-81580795D01*
X174537422Y-81435845D01*
X174414153Y-81312576D01*
X174269203Y-81215723D01*
X174108143Y-81149010D01*
X173937163Y-81115000D01*
X173762833Y-81115000D01*
X173591853Y-81149010D01*
X173430793Y-81215723D01*
X173285843Y-81312576D01*
X173162574Y-81435845D01*
X173065721Y-81580795D01*
X172999008Y-81741855D01*
X172970474Y-81885307D01*
X172937424Y-81835845D01*
X172814155Y-81712576D01*
X172669205Y-81615723D01*
X172508145Y-81549010D01*
X172337165Y-81515000D01*
X172162835Y-81515000D01*
X171991855Y-81549010D01*
X171830795Y-81615723D01*
X171685845Y-81712576D01*
X171562576Y-81835845D01*
X171465723Y-81980795D01*
X171399010Y-82141855D01*
X171365000Y-82312835D01*
X171365000Y-82487165D01*
X171399010Y-82658145D01*
X171465723Y-82819205D01*
X171536501Y-82925131D01*
X171536500Y-85374870D01*
X171465723Y-85480795D01*
X171399010Y-85641855D01*
X171365000Y-85812835D01*
X171365000Y-85987165D01*
X171399010Y-86158145D01*
X171465723Y-86319205D01*
X171562576Y-86464155D01*
X171685845Y-86587424D01*
X171830795Y-86684277D01*
X171991855Y-86750990D01*
X172162835Y-86785000D01*
X172337165Y-86785000D01*
X172508145Y-86750990D01*
X172669205Y-86684277D01*
X172814155Y-86587424D01*
X172937424Y-86464155D01*
X173034277Y-86319205D01*
X173100990Y-86158145D01*
X173135000Y-85987165D01*
X173135000Y-85812835D01*
X173100990Y-85641855D01*
X173034277Y-85480795D01*
X172963500Y-85374870D01*
X172963500Y-82925130D01*
X173034277Y-82819205D01*
X173100990Y-82658145D01*
X173129524Y-82514693D01*
X173162574Y-82564155D01*
X173285843Y-82687424D01*
X173430793Y-82784277D01*
X173436500Y-82786641D01*
X173436500Y-83385048D01*
X173436501Y-83385058D01*
X173436500Y-85814954D01*
X173433048Y-85850000D01*
X173436500Y-85885046D01*
X173436500Y-85885048D01*
X173446824Y-85989869D01*
X173487623Y-86124365D01*
X173553876Y-86248316D01*
X173643038Y-86356961D01*
X173670263Y-86379304D01*
X174624156Y-87333197D01*
X174649010Y-87458145D01*
X174715723Y-87619205D01*
X174812576Y-87764155D01*
X174935845Y-87887424D01*
X175080795Y-87984277D01*
X175241855Y-88050990D01*
X175412835Y-88085000D01*
X175587165Y-88085000D01*
X175758145Y-88050990D01*
X175919205Y-87984277D01*
X176064155Y-87887424D01*
X176187424Y-87764155D01*
X176284277Y-87619205D01*
X176350990Y-87458145D01*
X176385000Y-87287165D01*
X176385000Y-87119156D01*
X176469205Y-87084277D01*
X176614155Y-86987424D01*
X176737424Y-86864155D01*
X176834277Y-86719205D01*
X176900990Y-86558145D01*
X176935000Y-86387165D01*
X176935000Y-86212835D01*
X176900990Y-86041855D01*
X176834277Y-85880795D01*
X176763500Y-85774870D01*
X176763500Y-84870902D01*
X187307552Y-84870902D01*
X187342598Y-84874354D01*
X187377644Y-84870902D01*
X187377647Y-84870902D01*
X187482468Y-84860578D01*
X187616964Y-84819779D01*
X187740915Y-84753526D01*
X187849560Y-84664364D01*
X187871907Y-84637134D01*
X188162125Y-84346916D01*
X188223088Y-84372168D01*
X188538967Y-84435000D01*
X188861033Y-84435000D01*
X189176912Y-84372168D01*
X189474463Y-84248918D01*
X189742252Y-84069987D01*
X189890001Y-83922238D01*
X189890001Y-92577762D01*
X189742252Y-92430013D01*
X189474463Y-92251082D01*
X189176912Y-92127832D01*
X188861033Y-92065000D01*
X188538967Y-92065000D01*
X188223088Y-92127832D01*
X188162125Y-92153084D01*
X187086711Y-91077670D01*
X187064364Y-91050440D01*
X186955719Y-90961278D01*
X186831768Y-90895025D01*
X186697272Y-90854226D01*
X186592451Y-90843902D01*
X186592448Y-90843902D01*
X186557402Y-90840450D01*
X186522356Y-90843902D01*
X176763500Y-90843902D01*
X176763500Y-90725130D01*
X176834277Y-90619205D01*
X176900990Y-90458145D01*
X176935000Y-90287165D01*
X176935000Y-90112835D01*
X176900990Y-89941855D01*
X176834277Y-89780795D01*
X176737424Y-89635845D01*
X176615079Y-89513500D01*
X178674870Y-89513500D01*
X178780795Y-89584277D01*
X178941855Y-89650990D01*
X179112835Y-89685000D01*
X179287165Y-89685000D01*
X179458145Y-89650990D01*
X179619205Y-89584277D01*
X179764155Y-89487424D01*
X179887424Y-89364155D01*
X179984277Y-89219205D01*
X180050990Y-89058145D01*
X180085000Y-88887165D01*
X180085000Y-88712835D01*
X180050990Y-88541855D01*
X179984277Y-88380795D01*
X179887424Y-88235845D01*
X179764155Y-88112576D01*
X179619205Y-88015723D01*
X179458145Y-87949010D01*
X179287165Y-87915000D01*
X179112835Y-87915000D01*
X178941855Y-87949010D01*
X178780795Y-88015723D01*
X178674870Y-88086500D01*
X170495542Y-88086500D01*
X170289875Y-87880834D01*
X170289875Y-86325130D01*
X170360652Y-86219205D01*
X170427365Y-86058145D01*
X170461375Y-85887165D01*
X170461375Y-85712835D01*
X170427365Y-85541855D01*
X170360652Y-85380795D01*
X170263799Y-85235845D01*
X170140530Y-85112576D01*
X169995580Y-85015723D01*
X169834520Y-84949010D01*
X169663540Y-84915000D01*
X169489210Y-84915000D01*
X169318230Y-84949010D01*
X169157170Y-85015723D01*
X169012220Y-85112576D01*
X168888951Y-85235845D01*
X168792098Y-85380795D01*
X168725385Y-85541855D01*
X168691375Y-85712835D01*
X168691375Y-85887165D01*
X168725385Y-86058145D01*
X168792098Y-86219205D01*
X168862875Y-86325130D01*
X168862876Y-88141319D01*
X168859423Y-88176375D01*
X168873200Y-88316245D01*
X168913998Y-88450740D01*
X168980252Y-88574692D01*
X169023863Y-88627832D01*
X169069414Y-88683337D01*
X169096638Y-88705679D01*
X169670696Y-89279738D01*
X169693038Y-89306962D01*
X169801683Y-89396124D01*
X169925634Y-89462377D01*
X170060129Y-89503176D01*
X170200000Y-89516952D01*
X170235049Y-89513500D01*
X171410755Y-89513500D01*
X171399010Y-89541855D01*
X171365000Y-89712835D01*
X171365000Y-89887165D01*
X171399010Y-90058145D01*
X171465723Y-90219205D01*
X171536501Y-90325131D01*
X171536500Y-92774870D01*
X171465723Y-92880795D01*
X171399010Y-93041855D01*
X171365000Y-93212835D01*
X171365000Y-93387165D01*
X171399010Y-93558145D01*
X171465723Y-93719205D01*
X171562576Y-93864155D01*
X171685845Y-93987424D01*
X171830795Y-94084277D01*
X171991855Y-94150990D01*
X172162835Y-94185000D01*
X172337165Y-94185000D01*
X172508145Y-94150990D01*
X172669205Y-94084277D01*
X172814155Y-93987424D01*
X172937424Y-93864155D01*
X173034277Y-93719205D01*
X173100990Y-93558145D01*
X173135000Y-93387165D01*
X173135000Y-93212835D01*
X173100990Y-93041855D01*
X173034277Y-92880795D01*
X172963500Y-92774870D01*
X172963500Y-90325130D01*
X173034277Y-90219205D01*
X173100990Y-90058145D01*
X173129524Y-89914693D01*
X173162574Y-89964155D01*
X173285843Y-90087424D01*
X173430793Y-90184277D01*
X173436500Y-90186641D01*
X173436500Y-90785048D01*
X173436501Y-90785058D01*
X173436500Y-93214954D01*
X173433048Y-93250000D01*
X173436500Y-93285046D01*
X173436500Y-93285048D01*
X173446824Y-93389869D01*
X173487623Y-93524365D01*
X173553876Y-93648316D01*
X173643038Y-93756961D01*
X173670263Y-93779304D01*
X174624156Y-94733197D01*
X174649010Y-94858145D01*
X174715723Y-95019205D01*
X174812576Y-95164155D01*
X174935845Y-95287424D01*
X175080795Y-95384277D01*
X175241855Y-95450990D01*
X175412835Y-95485000D01*
X175587165Y-95485000D01*
X175758145Y-95450990D01*
X175919205Y-95384277D01*
X176064155Y-95287424D01*
X176187424Y-95164155D01*
X176284277Y-95019205D01*
X176350990Y-94858145D01*
X176385000Y-94687165D01*
X176385000Y-94519156D01*
X176469205Y-94484277D01*
X176614155Y-94387424D01*
X176737424Y-94264155D01*
X176834277Y-94119205D01*
X176900990Y-93958145D01*
X176935000Y-93787165D01*
X176935000Y-93612835D01*
X176900990Y-93441855D01*
X176834277Y-93280795D01*
X176763500Y-93174870D01*
X176763500Y-92270902D01*
X186261861Y-92270902D01*
X187153084Y-93162125D01*
X187127832Y-93223088D01*
X187065000Y-93538967D01*
X187065000Y-93861033D01*
X187127832Y-94176912D01*
X187251082Y-94474463D01*
X187430013Y-94742252D01*
X187657748Y-94969987D01*
X187925537Y-95148918D01*
X188223088Y-95272168D01*
X188538967Y-95335000D01*
X188861033Y-95335000D01*
X189176912Y-95272168D01*
X189474463Y-95148918D01*
X189742252Y-94969987D01*
X189890001Y-94822238D01*
X189890000Y-96477761D01*
X189742252Y-96330013D01*
X189474463Y-96151082D01*
X189176912Y-96027832D01*
X188861033Y-95965000D01*
X188538967Y-95965000D01*
X188223088Y-96027832D01*
X187925537Y-96151082D01*
X187657748Y-96330013D01*
X187430013Y-96557748D01*
X187251082Y-96825537D01*
X187127832Y-97123088D01*
X187065000Y-97438967D01*
X187065000Y-97761033D01*
X187127832Y-98076912D01*
X187153084Y-98137875D01*
X187047057Y-98243902D01*
X176763500Y-98243902D01*
X176763500Y-98125130D01*
X176834277Y-98019205D01*
X176900990Y-97858145D01*
X176935000Y-97687165D01*
X176935000Y-97512835D01*
X176900990Y-97341855D01*
X176834277Y-97180795D01*
X176737424Y-97035845D01*
X176615079Y-96913500D01*
X178674870Y-96913500D01*
X178780795Y-96984277D01*
X178941855Y-97050990D01*
X179112835Y-97085000D01*
X179287165Y-97085000D01*
X179458145Y-97050990D01*
X179619205Y-96984277D01*
X179764155Y-96887424D01*
X179887424Y-96764155D01*
X179984277Y-96619205D01*
X180050990Y-96458145D01*
X180085000Y-96287165D01*
X180085000Y-96112835D01*
X180050990Y-95941855D01*
X179984277Y-95780795D01*
X179887424Y-95635845D01*
X179764155Y-95512576D01*
X179619205Y-95415723D01*
X179458145Y-95349010D01*
X179287165Y-95315000D01*
X179112835Y-95315000D01*
X178941855Y-95349010D01*
X178780795Y-95415723D01*
X178674870Y-95486500D01*
X170495542Y-95486500D01*
X170289875Y-95280834D01*
X170289875Y-93725130D01*
X170360652Y-93619205D01*
X170427365Y-93458145D01*
X170461375Y-93287165D01*
X170461375Y-93112835D01*
X170427365Y-92941855D01*
X170360652Y-92780795D01*
X170263799Y-92635845D01*
X170140530Y-92512576D01*
X169995580Y-92415723D01*
X169834520Y-92349010D01*
X169663540Y-92315000D01*
X169489210Y-92315000D01*
X169318230Y-92349010D01*
X169157170Y-92415723D01*
X169012220Y-92512576D01*
X168888951Y-92635845D01*
X168792098Y-92780795D01*
X168725385Y-92941855D01*
X168691375Y-93112835D01*
X168691375Y-93287165D01*
X168725385Y-93458145D01*
X168792098Y-93619205D01*
X168862875Y-93725130D01*
X168862876Y-95541319D01*
X168859423Y-95576375D01*
X168873200Y-95716245D01*
X168913998Y-95850740D01*
X168980252Y-95974692D01*
X169023863Y-96027832D01*
X169069414Y-96083337D01*
X169096638Y-96105679D01*
X169670696Y-96679738D01*
X169693038Y-96706962D01*
X169801683Y-96796124D01*
X169925634Y-96862377D01*
X170060129Y-96903176D01*
X170200000Y-96916952D01*
X170235049Y-96913500D01*
X171410755Y-96913500D01*
X171399010Y-96941855D01*
X171365000Y-97112835D01*
X171365000Y-97287165D01*
X171399010Y-97458145D01*
X171465723Y-97619205D01*
X171536501Y-97725131D01*
X171536500Y-100174870D01*
X171465723Y-100280795D01*
X171399010Y-100441855D01*
X171365000Y-100612835D01*
X171365000Y-100787165D01*
X171399010Y-100958145D01*
X171465723Y-101119205D01*
X171562576Y-101264155D01*
X171685845Y-101387424D01*
X171830795Y-101484277D01*
X171991855Y-101550990D01*
X172162835Y-101585000D01*
X172337165Y-101585000D01*
X172508145Y-101550990D01*
X172669205Y-101484277D01*
X172814155Y-101387424D01*
X172937424Y-101264155D01*
X173034277Y-101119205D01*
X173100990Y-100958145D01*
X173135000Y-100787165D01*
X173135000Y-100612835D01*
X173100990Y-100441855D01*
X173034277Y-100280795D01*
X172963500Y-100174870D01*
X172963500Y-97725130D01*
X173034277Y-97619205D01*
X173100990Y-97458145D01*
X173129524Y-97314693D01*
X173162574Y-97364155D01*
X173285843Y-97487424D01*
X173430793Y-97584277D01*
X173436500Y-97586641D01*
X173436500Y-98185048D01*
X173436501Y-98185058D01*
X173436500Y-100614954D01*
X173433048Y-100650000D01*
X173436500Y-100685046D01*
X173436500Y-100685048D01*
X173446824Y-100789869D01*
X173487623Y-100924365D01*
X173553876Y-101048316D01*
X173643038Y-101156961D01*
X173670263Y-101179304D01*
X174624156Y-102133197D01*
X174649010Y-102258145D01*
X174715723Y-102419205D01*
X174812576Y-102564155D01*
X174935845Y-102687424D01*
X175080795Y-102784277D01*
X175241855Y-102850990D01*
X175412835Y-102885000D01*
X175587165Y-102885000D01*
X175758145Y-102850990D01*
X175919205Y-102784277D01*
X176064155Y-102687424D01*
X176187424Y-102564155D01*
X176284277Y-102419205D01*
X176350990Y-102258145D01*
X176385000Y-102087165D01*
X176385000Y-101919156D01*
X176469205Y-101884277D01*
X176614155Y-101787424D01*
X176737424Y-101664155D01*
X176834277Y-101519205D01*
X176900990Y-101358145D01*
X176935000Y-101187165D01*
X176935000Y-101012835D01*
X176900990Y-100841855D01*
X176834277Y-100680795D01*
X176763500Y-100574870D01*
X176763500Y-99670902D01*
X187307552Y-99670902D01*
X187342598Y-99674354D01*
X187377644Y-99670902D01*
X187377647Y-99670902D01*
X187482468Y-99660578D01*
X187616964Y-99619779D01*
X187740915Y-99553526D01*
X187849560Y-99464364D01*
X187871907Y-99437134D01*
X188162125Y-99146916D01*
X188223088Y-99172168D01*
X188538967Y-99235000D01*
X188861033Y-99235000D01*
X189176912Y-99172168D01*
X189474463Y-99048918D01*
X189742252Y-98869987D01*
X189890000Y-98722239D01*
X189890000Y-107377761D01*
X189742252Y-107230013D01*
X189474463Y-107051082D01*
X189176912Y-106927832D01*
X188861033Y-106865000D01*
X188538967Y-106865000D01*
X188223088Y-106927832D01*
X188162125Y-106953084D01*
X187086711Y-105877670D01*
X187064364Y-105850440D01*
X186955719Y-105761278D01*
X186831768Y-105695025D01*
X186697272Y-105654226D01*
X186592451Y-105643902D01*
X186592448Y-105643902D01*
X186557402Y-105640450D01*
X186522356Y-105643902D01*
X176763500Y-105643902D01*
X176763500Y-105525130D01*
X176834277Y-105419205D01*
X176900990Y-105258145D01*
X176935000Y-105087165D01*
X176935000Y-104912835D01*
X176900990Y-104741855D01*
X176834277Y-104580795D01*
X176737424Y-104435845D01*
X176615079Y-104313500D01*
X178674870Y-104313500D01*
X178780795Y-104384277D01*
X178941855Y-104450990D01*
X179112835Y-104485000D01*
X179287165Y-104485000D01*
X179458145Y-104450990D01*
X179619205Y-104384277D01*
X179764155Y-104287424D01*
X179887424Y-104164155D01*
X179984277Y-104019205D01*
X180050990Y-103858145D01*
X180085000Y-103687165D01*
X180085000Y-103512835D01*
X180050990Y-103341855D01*
X179984277Y-103180795D01*
X179887424Y-103035845D01*
X179764155Y-102912576D01*
X179619205Y-102815723D01*
X179458145Y-102749010D01*
X179287165Y-102715000D01*
X179112835Y-102715000D01*
X178941855Y-102749010D01*
X178780795Y-102815723D01*
X178674870Y-102886500D01*
X170495542Y-102886500D01*
X170289875Y-102680834D01*
X170289875Y-101125130D01*
X170360652Y-101019205D01*
X170427365Y-100858145D01*
X170461375Y-100687165D01*
X170461375Y-100512835D01*
X170427365Y-100341855D01*
X170360652Y-100180795D01*
X170263799Y-100035845D01*
X170140530Y-99912576D01*
X169995580Y-99815723D01*
X169834520Y-99749010D01*
X169663540Y-99715000D01*
X169489210Y-99715000D01*
X169318230Y-99749010D01*
X169157170Y-99815723D01*
X169012220Y-99912576D01*
X168888951Y-100035845D01*
X168792098Y-100180795D01*
X168725385Y-100341855D01*
X168691375Y-100512835D01*
X168691375Y-100687165D01*
X168725385Y-100858145D01*
X168792098Y-101019205D01*
X168862875Y-101125130D01*
X168862876Y-102941319D01*
X168859423Y-102976375D01*
X168873200Y-103116245D01*
X168913998Y-103250740D01*
X168980252Y-103374692D01*
X169023863Y-103427832D01*
X169069414Y-103483337D01*
X169096638Y-103505679D01*
X169670696Y-104079738D01*
X169693038Y-104106962D01*
X169801683Y-104196124D01*
X169925634Y-104262377D01*
X170060129Y-104303176D01*
X170200000Y-104316952D01*
X170235049Y-104313500D01*
X171410755Y-104313500D01*
X171399010Y-104341855D01*
X171365000Y-104512835D01*
X171365000Y-104687165D01*
X171399010Y-104858145D01*
X171465723Y-105019205D01*
X171536501Y-105125131D01*
X171536500Y-107574870D01*
X171465723Y-107680795D01*
X171399010Y-107841855D01*
X171365000Y-108012835D01*
X171365000Y-108187165D01*
X171399010Y-108358145D01*
X171465723Y-108519205D01*
X171562576Y-108664155D01*
X171685845Y-108787424D01*
X171830795Y-108884277D01*
X171991855Y-108950990D01*
X172162835Y-108985000D01*
X172337165Y-108985000D01*
X172508145Y-108950990D01*
X172669205Y-108884277D01*
X172814155Y-108787424D01*
X172937424Y-108664155D01*
X173034277Y-108519205D01*
X173100990Y-108358145D01*
X173135000Y-108187165D01*
X173135000Y-108012835D01*
X173100990Y-107841855D01*
X173034277Y-107680795D01*
X172963500Y-107574870D01*
X172963500Y-105125130D01*
X173034277Y-105019205D01*
X173100990Y-104858145D01*
X173129524Y-104714693D01*
X173162574Y-104764155D01*
X173285843Y-104887424D01*
X173430793Y-104984277D01*
X173436501Y-104986641D01*
X173436500Y-108014954D01*
X173433048Y-108050000D01*
X173436500Y-108085046D01*
X173436500Y-108085048D01*
X173446824Y-108189869D01*
X173487623Y-108324365D01*
X173553876Y-108448316D01*
X173643038Y-108556961D01*
X173670263Y-108579304D01*
X174624156Y-109533197D01*
X174649010Y-109658145D01*
X174715723Y-109819205D01*
X174812576Y-109964155D01*
X174935845Y-110087424D01*
X175080795Y-110184277D01*
X175241855Y-110250990D01*
X175412835Y-110285000D01*
X175587165Y-110285000D01*
X175758145Y-110250990D01*
X175919205Y-110184277D01*
X176064155Y-110087424D01*
X176187424Y-109964155D01*
X176284277Y-109819205D01*
X176350990Y-109658145D01*
X176385000Y-109487165D01*
X176385000Y-109319156D01*
X176469205Y-109284277D01*
X176614155Y-109187424D01*
X176737424Y-109064155D01*
X176834277Y-108919205D01*
X176900990Y-108758145D01*
X176935000Y-108587165D01*
X176935000Y-108412835D01*
X176900990Y-108241855D01*
X176834277Y-108080795D01*
X176763500Y-107974870D01*
X176763500Y-107070902D01*
X186261861Y-107070902D01*
X186675077Y-107484118D01*
X186527366Y-107513499D01*
X186366306Y-107580212D01*
X186221356Y-107677065D01*
X186098087Y-107800334D01*
X186001234Y-107945284D01*
X185934521Y-108106344D01*
X185909668Y-108231291D01*
X184520263Y-109620696D01*
X184493039Y-109643038D01*
X184470697Y-109670262D01*
X184470696Y-109670263D01*
X184403877Y-109751683D01*
X184337623Y-109875635D01*
X184296825Y-110010130D01*
X184283048Y-110150000D01*
X184286501Y-110185056D01*
X184286501Y-110525830D01*
X184225537Y-110551082D01*
X183957748Y-110730013D01*
X183730013Y-110957748D01*
X183551082Y-111225537D01*
X183427832Y-111523088D01*
X183365000Y-111838967D01*
X183365000Y-112161033D01*
X183427832Y-112476912D01*
X183551082Y-112774463D01*
X183730013Y-113042252D01*
X183777761Y-113090000D01*
X176972239Y-113090000D01*
X177019987Y-113042252D01*
X177198918Y-112774463D01*
X177322168Y-112476912D01*
X177385000Y-112161033D01*
X177385000Y-111838967D01*
X177322168Y-111523088D01*
X177198918Y-111225537D01*
X177019987Y-110957748D01*
X176792252Y-110730013D01*
X176524463Y-110551082D01*
X176226912Y-110427832D01*
X175911033Y-110365000D01*
X175588967Y-110365000D01*
X175273088Y-110427832D01*
X174975537Y-110551082D01*
X174707748Y-110730013D01*
X174480013Y-110957748D01*
X174301082Y-111225537D01*
X174275830Y-111286500D01*
X172345542Y-111286500D01*
X170289875Y-109230834D01*
X170289875Y-108525130D01*
X170360652Y-108419205D01*
X170427365Y-108258145D01*
X170461375Y-108087165D01*
X170461375Y-107912835D01*
X170427365Y-107741855D01*
X170360652Y-107580795D01*
X170263799Y-107435845D01*
X170140530Y-107312576D01*
X169995580Y-107215723D01*
X169834520Y-107149010D01*
X169663540Y-107115000D01*
X169489210Y-107115000D01*
X169318230Y-107149010D01*
X169157170Y-107215723D01*
X169012220Y-107312576D01*
X168888951Y-107435845D01*
X168792098Y-107580795D01*
X168725385Y-107741855D01*
X168691375Y-107912835D01*
X168691375Y-108087165D01*
X168725385Y-108258145D01*
X168792098Y-108419205D01*
X168862876Y-108525131D01*
X168862875Y-109491328D01*
X168859423Y-109526375D01*
X168862875Y-109561421D01*
X168862875Y-109561423D01*
X168873199Y-109666244D01*
X168913998Y-109800740D01*
X168980251Y-109924691D01*
X169069413Y-110033336D01*
X169096638Y-110055679D01*
X171520696Y-112479738D01*
X171543038Y-112506962D01*
X171651683Y-112596124D01*
X171775634Y-112662377D01*
X171910130Y-112703176D01*
X172014951Y-112713500D01*
X172014953Y-112713500D01*
X172049999Y-112716952D01*
X172085045Y-112713500D01*
X174275830Y-112713500D01*
X174301082Y-112774463D01*
X174480013Y-113042252D01*
X174527761Y-113090000D01*
X169582558Y-113090000D01*
X169601083Y-113071475D01*
X169485415Y-112955807D01*
X169749814Y-112860044D01*
X169890704Y-112570429D01*
X169972384Y-112258892D01*
X169991718Y-111937405D01*
X169947961Y-111618325D01*
X169842795Y-111313912D01*
X169749814Y-111139956D01*
X169485413Y-111044192D01*
X168529605Y-112000000D01*
X168543748Y-112014143D01*
X168364143Y-112193748D01*
X168350000Y-112179605D01*
X168335858Y-112193748D01*
X168156253Y-112014143D01*
X168170395Y-112000000D01*
X167214587Y-111044192D01*
X166950186Y-111139956D01*
X166809296Y-111429571D01*
X166727616Y-111741108D01*
X166708282Y-112062595D01*
X166752039Y-112381675D01*
X166857205Y-112686088D01*
X166950186Y-112860044D01*
X167214585Y-112955807D01*
X167098917Y-113071475D01*
X167117442Y-113090000D01*
X165872239Y-113090000D01*
X165919987Y-113042252D01*
X166098918Y-112774463D01*
X166222168Y-112476912D01*
X166285000Y-112161033D01*
X166285000Y-111838967D01*
X166222168Y-111523088D01*
X166205822Y-111483625D01*
X166824860Y-110864587D01*
X167394192Y-110864587D01*
X168350000Y-111820395D01*
X169305808Y-110864587D01*
X169210044Y-110600186D01*
X168920429Y-110459296D01*
X168608892Y-110377616D01*
X168287405Y-110358282D01*
X167968325Y-110402039D01*
X167663912Y-110507205D01*
X167489956Y-110600186D01*
X167394192Y-110864587D01*
X166824860Y-110864587D01*
X167694193Y-109995254D01*
X167722238Y-109972238D01*
X167814087Y-109860320D01*
X167819370Y-109850436D01*
X167882337Y-109732634D01*
X167924365Y-109594085D01*
X167938556Y-109450000D01*
X167935000Y-109413895D01*
X167935000Y-107092953D01*
X167984277Y-107019205D01*
X168050990Y-106858145D01*
X168085000Y-106687165D01*
X168085000Y-106512835D01*
X168050990Y-106341855D01*
X167984277Y-106180795D01*
X167913500Y-106074870D01*
X167913500Y-102735048D01*
X167916952Y-102700000D01*
X167913500Y-102664951D01*
X167913500Y-99725130D01*
X167984277Y-99619205D01*
X168050990Y-99458145D01*
X168085000Y-99287165D01*
X168085000Y-99112835D01*
X168050990Y-98941855D01*
X167984277Y-98780795D01*
X167913500Y-98674870D01*
X167913500Y-92325130D01*
X167984277Y-92219205D01*
X168050990Y-92058145D01*
X168085000Y-91887165D01*
X168085000Y-91712835D01*
X168050990Y-91541855D01*
X167984277Y-91380795D01*
X167913500Y-91274870D01*
X167913500Y-84925130D01*
X167984277Y-84819205D01*
X168050990Y-84658145D01*
X168085000Y-84487165D01*
X168085000Y-84312835D01*
X168050990Y-84141855D01*
X167984277Y-83980795D01*
X167887424Y-83835845D01*
X167764155Y-83712576D01*
X167619205Y-83615723D01*
X167458145Y-83549010D01*
X167287165Y-83515000D01*
X167112835Y-83515000D01*
X166941855Y-83549010D01*
X166780795Y-83615723D01*
X166635845Y-83712576D01*
X166512576Y-83835845D01*
X166415723Y-83980795D01*
X166349010Y-84141855D01*
X166315000Y-84312835D01*
X166315000Y-84487165D01*
X166349010Y-84658145D01*
X166415723Y-84819205D01*
X166486501Y-84925131D01*
X166486500Y-91274870D01*
X166415723Y-91380795D01*
X166349010Y-91541855D01*
X166315000Y-91712835D01*
X166315000Y-91887165D01*
X166349010Y-92058145D01*
X166415723Y-92219205D01*
X166486501Y-92325131D01*
X166486500Y-98674870D01*
X166415723Y-98780795D01*
X166349010Y-98941855D01*
X166315000Y-99112835D01*
X166315000Y-99287165D01*
X166349010Y-99458145D01*
X166415723Y-99619205D01*
X166486501Y-99725131D01*
X166486500Y-101986500D01*
X165925130Y-101986500D01*
X165819205Y-101915723D01*
X165658145Y-101849010D01*
X165487165Y-101815000D01*
X165312835Y-101815000D01*
X165141855Y-101849010D01*
X164980795Y-101915723D01*
X164835845Y-102012576D01*
X164712576Y-102135845D01*
X164615723Y-102280795D01*
X164549010Y-102441855D01*
X164515000Y-102612835D01*
X164515000Y-102787165D01*
X164549010Y-102958145D01*
X164615723Y-103119205D01*
X164712576Y-103264155D01*
X164835845Y-103387424D01*
X164980795Y-103484277D01*
X165141855Y-103550990D01*
X165312835Y-103585000D01*
X165487165Y-103585000D01*
X165658145Y-103550990D01*
X165819205Y-103484277D01*
X165925130Y-103413500D01*
X166486501Y-103413500D01*
X166486500Y-106074870D01*
X166415723Y-106180795D01*
X166349010Y-106341855D01*
X166315000Y-106512835D01*
X166315000Y-106687165D01*
X166349010Y-106858145D01*
X166415723Y-107019205D01*
X166465000Y-107092953D01*
X166465001Y-109145552D01*
X165166375Y-110444178D01*
X165126912Y-110427832D01*
X164811033Y-110365000D01*
X164488967Y-110365000D01*
X164173088Y-110427832D01*
X163875537Y-110551082D01*
X163607748Y-110730013D01*
X163380013Y-110957748D01*
X163201082Y-111225537D01*
X163077832Y-111523088D01*
X163015000Y-111838967D01*
X163015000Y-112161033D01*
X163077832Y-112476912D01*
X163201082Y-112774463D01*
X163380013Y-113042252D01*
X163427761Y-113090000D01*
X162172239Y-113090000D01*
X162219987Y-113042252D01*
X162398918Y-112774463D01*
X162522168Y-112476912D01*
X162585000Y-112161033D01*
X162585000Y-111838967D01*
X162522168Y-111523088D01*
X162398918Y-111225537D01*
X162219987Y-110957748D01*
X161992252Y-110730013D01*
X161724463Y-110551082D01*
X161426912Y-110427832D01*
X161111033Y-110365000D01*
X160788967Y-110365000D01*
X160713500Y-110380011D01*
X160713500Y-104425130D01*
X160784277Y-104319205D01*
X160850990Y-104158145D01*
X160885000Y-103987165D01*
X160885000Y-103812835D01*
X160850990Y-103641855D01*
X160784277Y-103480795D01*
X160713500Y-103374870D01*
X160713500Y-97025130D01*
X160784277Y-96919205D01*
X160850990Y-96758145D01*
X160885000Y-96587165D01*
X160885000Y-96412835D01*
X160850990Y-96241855D01*
X160784277Y-96080795D01*
X160713500Y-95974870D01*
X160713500Y-89625130D01*
X160784277Y-89519205D01*
X160850990Y-89358145D01*
X160885000Y-89187165D01*
X160885000Y-89012835D01*
X160850990Y-88841855D01*
X160784277Y-88680795D01*
X160713500Y-88574870D01*
X160713500Y-82225130D01*
X160784277Y-82119205D01*
X160850990Y-81958145D01*
X160885000Y-81787165D01*
X160885000Y-81612835D01*
X160850990Y-81441855D01*
X160784277Y-81280795D01*
X160687424Y-81135845D01*
X160564155Y-81012576D01*
X160419205Y-80915723D01*
X160258145Y-80849010D01*
X160087165Y-80815000D01*
X159912835Y-80815000D01*
X159741855Y-80849010D01*
X159580795Y-80915723D01*
X159435845Y-81012576D01*
X159312576Y-81135845D01*
X159215723Y-81280795D01*
X159149010Y-81441855D01*
X159115000Y-81612835D01*
X159115000Y-81787165D01*
X159149010Y-81958145D01*
X159215723Y-82119205D01*
X159286501Y-82225131D01*
X159286501Y-84602176D01*
X159158145Y-84549010D01*
X158987165Y-84515000D01*
X158812835Y-84515000D01*
X158641855Y-84549010D01*
X158480795Y-84615723D01*
X158335845Y-84712576D01*
X158212576Y-84835845D01*
X158115723Y-84980795D01*
X158049010Y-85141855D01*
X158024156Y-85266803D01*
X157704459Y-85586500D01*
X153174170Y-85586500D01*
X153148918Y-85525537D01*
X152969987Y-85257748D01*
X152742252Y-85030013D01*
X152474463Y-84851082D01*
X152176912Y-84727832D01*
X151861033Y-84665000D01*
X151538967Y-84665000D01*
X151223088Y-84727832D01*
X150925537Y-84851082D01*
X150657748Y-85030013D01*
X150510000Y-85177761D01*
X150510000Y-83922239D01*
X150657748Y-84069987D01*
X150925537Y-84248918D01*
X151223088Y-84372168D01*
X151538967Y-84435000D01*
X151861033Y-84435000D01*
X152176912Y-84372168D01*
X152474463Y-84248918D01*
X152742252Y-84069987D01*
X152969987Y-83842252D01*
X153148918Y-83574463D01*
X153272168Y-83276912D01*
X153335000Y-82961033D01*
X153335000Y-82638967D01*
X153272168Y-82323088D01*
X153148918Y-82025537D01*
X152969987Y-81757748D01*
X152742252Y-81530013D01*
X152474463Y-81351082D01*
X152176912Y-81227832D01*
X151861033Y-81165000D01*
X151538967Y-81165000D01*
X151223088Y-81227832D01*
X150925537Y-81351082D01*
X150657748Y-81530013D01*
X150510000Y-81677761D01*
X150510000Y-81282279D01*
X150571001Y-80660144D01*
X150742308Y-80092750D01*
X151020556Y-79569439D01*
X151395150Y-79110142D01*
X151851822Y-78732350D01*
X152373180Y-78450453D01*
X152939363Y-78275191D01*
X153559612Y-78210000D01*
X174527761Y-78210000D01*
X174480013Y-78257748D01*
G37*
%TD.AperFunction*%
%TD*%
M02*
